999
dxflib 2.2.0.0
  0
SECTION
  2
HEADER
  9
$ACADVER
  1
AC1015
  9
$HANDSEED
  5
FFFF
  9
$SPLINESEGS
 70
8
  9
$DIMEXE
 40
0.125
  9
$DIMLUNIT
 70
5
  9
$GRIDMODE
 70
1
  9
$INSUNITS
 70
1
  9
$DIMADEC
 70
2
  9
$DIMASZ
 40
0.5
  9
$DIMGAP
 40
0.05
  9
$DIMTXT
 40
0.4
  9
$GRIDUNIT
 10
0.0
 20
0.0
  9
$DIMEXO
 40
0.05
  9
$LUPREC
 70
4
  9
$DIMAUNIT
 70
0
  9
$AUPREC
 70
2
  9
$PLIMMIN
 10
0.0
 20
0.0
  9
$LUNITS
 70
5
  9
$PLIMMAX
 10
8.5
 20
11.0
  9
$DIMSTYLE
  2
Standard
  9
$AUNITS
 70
0
  0
ENDSEC
  0
SECTION
  2
TABLES
  0
TABLE
  2
VPORT
  5
8
100
AcDbSymbolTable
 70
1
  0
VPORT
  5
30
100
AcDbSymbolTableRecord
100
AcDbViewportTableRecord
  2
*Active
 70
0
 10
0.0
 20
0.0
 11
1.0
 21
1.0
 12
286.3055555555554861
 22
148.5
 13
0.0
 23
0.0
 14
10.0
 24
10.0
 15
10.0
 25
10.0
 16
0.0
 26
0.0
 36
1.0
 17
0.0
 27
0.0
 37
0.0
 40
297.0
 41
1.92798353909465
 42
50.0
 43
0.0
 44
0.0
 50
0.0
 51
0.0
 71
0
 72
100
 73
1
 74
3
 75
1
 76
1
 77
0
 78
0
281
0
 65
1
110
0.0
120
0.0
130
0.0
111
1.0
121
0.0
131
0.0
112
0.0
122
1.0
132
0.0
 79
0
146
0.0
  0
ENDTAB
  0
TABLE
  2
LTYPE
  5
5
100
AcDbSymbolTable
 70
21
  0
LTYPE
  5
14
100
AcDbSymbolTableRecord
100
AcDbLinetypeTableRecord
  2
ByBlock
 70
0
  3

 72
65
 73
0
 40
0.0
  0
LTYPE
  5
15
100
AcDbSymbolTableRecord
100
AcDbLinetypeTableRecord
  2
ByLayer
 70
0
  3

 72
65
 73
0
 40
0.0
  0
LTYPE
  5
16
100
AcDbSymbolTableRecord
100
AcDbLinetypeTableRecord
  2
CONTINUOUS
 70
0
  3
Solid line
 72
65
 73
0
 40
0.0
  0
LTYPE
  5
31
100
AcDbSymbolTableRecord
100
AcDbLinetypeTableRecord
  2
DOT
 70
0
  3
Dot . . . . . . . . . . . . . . . . . . . . . .
 72
65
 73
2
 40
6.3499999999999996
 49
0.0
 74
0
 49
-6.3499999999999996
 74
0
  0
LTYPE
  5
32
100
AcDbSymbolTableRecord
100
AcDbLinetypeTableRecord
  2
DOT2
 70
0
  3
Dot (.5x) .....................................
 72
65
 73
2
 40
3.1749999999999998
 49
0.0
 74
0
 49
-3.1749999999999998
 74
0
  0
LTYPE
  5
33
100
AcDbSymbolTableRecord
100
AcDbLinetypeTableRecord
  2
DOTX2
 70
0
  3
Dot (2x) .  .  .  .  .  .  .  .  .  .  .  .  .
 72
65
 73
2
 40
12.6999999999999993
 49
0.0
 74
0
 49
-12.6999999999999993
 74
0
  0
LTYPE
  5
34
100
AcDbSymbolTableRecord
100
AcDbLinetypeTableRecord
  2
DASHED
 70
0
  3
Dashed __ __ __ __ __ __ __ __ __ __ __ __ __ _
 72
65
 73
2
 40
19.0500000000000007
 49
12.6999999999999993
 74
0
 49
-6.3499999999999996
 74
0
  0
LTYPE
  5
35
100
AcDbSymbolTableRecord
100
AcDbLinetypeTableRecord
  2
DASHED2
 70
0
  3
Dashed (.5x) _ _ _ _ _ _ _ _ _ _ _ _ _ _ _ _ _
 72
65
 73
2
 40
9.5250000000000004
 49
6.3499999999999996
 74
0
 49
-3.1749999999999998
 74
0
  0
LTYPE
  5
36
100
AcDbSymbolTableRecord
100
AcDbLinetypeTableRecord
  2
DASHEDX2
 70
0
  3
Dashed (2x) ____  ____  ____  ____  ____  ___
 72
65
 73
2
 40
38.1000000000000014
 49
25.3999999999999986
 74
0
 49
-12.6999999999999993
 74
0
  0
LTYPE
  5
37
100
AcDbSymbolTableRecord
100
AcDbLinetypeTableRecord
  2
DASHDOT
 70
0
  3
Dash dot __ . __ . __ . __ . __ . __ . __ . __
 72
65
 73
4
 40
25.3999999999999986
 49
12.6999999999999993
 74
0
 49
-6.3499999999999996
 74
0
 49
0.0
 74
0
 49
-6.3499999999999996
 74
0
  0
LTYPE
  5
38
100
AcDbSymbolTableRecord
100
AcDbLinetypeTableRecord
  2
DASHDOT2
 70
0
  3
Dash dot (.5x) _._._._._._._._._._._._._._._.
 72
65
 73
4
 40
12.6999999999999993
 49
6.3499999999999996
 74
0
 49
-3.1749999999999998
 74
0
 49
0.0
 74
0
 49
-3.1749999999999998
 74
0
  0
LTYPE
  5
39
100
AcDbSymbolTableRecord
100
AcDbLinetypeTableRecord
  2
DASHDOTX2
 70
0
  3
Dash dot (2x) ____  .  ____  .  ____  .  ___
 72
65
 73
4
 40
50.7999999999999972
 49
25.3999999999999986
 74
0
 49
-12.6999999999999993
 74
0
 49
0.0
 74
0
 49
-12.6999999999999993
 74
0
  0
LTYPE
  5
3A
100
AcDbSymbolTableRecord
100
AcDbLinetypeTableRecord
  2
DIVIDE
 70
0
  3
Divide ____ . . ____ . . ____ . . ____ . . ____
 72
65
 73
6
 40
31.75
 49
12.6999999999999993
 74
0
 49
-6.3499999999999996
 74
0
 49
0.0
 74
0
 49
-6.3499999999999996
 74
0
 49
0.0
 74
0
 49
-6.3499999999999996
 74
0
  0
LTYPE
  5
3B
100
AcDbSymbolTableRecord
100
AcDbLinetypeTableRecord
  2
DIVIDE2
 70
0
  3
Divide (.5x) __..__..__..__..__..__..__..__.._
 72
65
 73
6
 40
15.875
 49
6.3499999999999996
 74
0
 49
-3.1749999999999998
 74
0
 49
0.0
 74
0
 49
-3.1749999999999998
 74
0
 49
0.0
 74
0
 49
-3.1749999999999998
 74
0
  0
LTYPE
  5
3C
100
AcDbSymbolTableRecord
100
AcDbLinetypeTableRecord
  2
DIVIDEX2
 70
0
  3
Divide (2x) ________  .  .  ________  .  .  _
 72
65
 73
6
 40
63.5
 49
25.3999999999999986
 74
0
 49
-12.6999999999999993
 74
0
 49
0.0
 74
0
 49
-12.6999999999999993
 74
0
 49
0.0
 74
0
 49
-12.6999999999999993
 74
0
  0
LTYPE
  5
3D
100
AcDbSymbolTableRecord
100
AcDbLinetypeTableRecord
  2
CENTER
 70
0
  3
Center ____ _ ____ _ ____ _ ____ _ ____ _ ____
 72
65
 73
4
 40
50.7999999999999972
 49
31.75
 74
0
 49
-6.3499999999999996
 74
0
 49
6.3499999999999996
 74
0
 49
-6.3499999999999996
 74
0
  0
LTYPE
  5
3E
100
AcDbSymbolTableRecord
100
AcDbLinetypeTableRecord
  2
CENTER2
 70
0
  3
Center (.5x) ___ _ ___ _ ___ _ ___ _ ___ _ ___
 72
65
 73
4
 40
28.5749999999999993
 49
19.0500000000000007
 74
0
 49
-3.1749999999999998
 74
0
 49
3.1749999999999998
 74
0
 49
-3.1749999999999998
 74
0
  0
LTYPE
  5
3F
100
AcDbSymbolTableRecord
100
AcDbLinetypeTableRecord
  2
CENTERX2
 70
0
  3
Center (2x) ________  __  ________  __  _____
 72
65
 73
4
 40
101.5999999999999943
 49
63.5
 74
0
 49
-12.6999999999999993
 74
0
 49
12.6999999999999993
 74
0
 49
-12.6999999999999993
 74
0
  0
LTYPE
  5
40
100
AcDbSymbolTableRecord
100
AcDbLinetypeTableRecord
  2
BORDER
 70
0
  3
Border __ __ . __ __ . __ __ . __ __ . __ __ .
 72
65
 73
6
 40
44.4500000000000028
 49
12.6999999999999993
 74
0
 49
-6.3499999999999996
 74
0
 49
12.6999999999999993
 74
0
 49
-6.3499999999999996
 74
0
 49
0.0
 74
0
 49
-6.3499999999999996
 74
0
  0
LTYPE
  5
41
100
AcDbSymbolTableRecord
100
AcDbLinetypeTableRecord
  2
BORDER2
 70
0
  3
Border (.5x) __.__.__.__.__.__.__.__.__.__.__.
 72
65
 73
6
 40
22.2250000000000014
 49
6.3499999999999996
 74
0
 49
-3.1749999999999998
 74
0
 49
6.3499999999999996
 74
0
 49
-3.1749999999999998
 74
0
 49
0.0
 74
0
 49
-3.1749999999999998
 74
0
  0
LTYPE
  5
42
100
AcDbSymbolTableRecord
100
AcDbLinetypeTableRecord
  2
BORDERX2
 70
0
  3
Border (2x) ____  ____  .  ____  ____  .  ___
 72
65
 73
6
 40
88.9000000000000057
 49
25.3999999999999986
 74
0
 49
-12.6999999999999993
 74
0
 49
25.3999999999999986
 74
0
 49
-12.6999999999999993
 74
0
 49
0.0
 74
0
 49
-12.6999999999999993
 74
0
  0
ENDTAB
  0
TABLE
  2
LAYER
  5
2
100
AcDbSymbolTable
 70
4
  0
LAYER
  5
10
100
AcDbSymbolTableRecord
100
AcDbLayerTableRecord
  2
0
 70
0
 62
7
  6
CONTINUOUS
370
0
390
F
  0
LAYER
  5
43
100
AcDbSymbolTableRecord
100
AcDbLayerTableRecord
  2
Construction
 70
1
 62
1
  6
DASHDOT2
370
5
390
F
  0
LAYER
  5
44
100
AcDbSymbolTableRecord
100
AcDbLayerTableRecord
  2
Dimensions
 70
0
 62
8
  6
CONTINUOUS
370
0
390
F
  0
LAYER
  5
45
100
AcDbSymbolTableRecord
100
AcDbLayerTableRecord
  2
HiddenLines
 70
0
 62
7
  6
DASHED
370
0
390
F
  0
ENDTAB
  0
TABLE
  2
STYLE
  5
3
100
AcDbSymbolTable
 70
1
  0
STYLE
  5
11
100
AcDbSymbolTableRecord
100
AcDbTextStyleTableRecord
  2
Standard
 70
0
 40
0.0
 41
0.75
 50
0.0
 71
0
 42
2.5
  3
txt
  4

  0
ENDTAB
  0
TABLE
  2
VIEW
  5
6
100
AcDbSymbolTable
 70
0
  0
ENDTAB
  0
TABLE
  2
UCS
  5
7
100
AcDbSymbolTable
 70
0
  0
ENDTAB
  0
TABLE
  2
APPID
  5
9
100
AcDbSymbolTable
 70
1
  0
APPID
  5
12
100
AcDbSymbolTableRecord
100
AcDbRegAppTableRecord
  2
ACAD
 70
0
  0
ENDTAB
  0
TABLE
  2
DIMSTYLE
  5
A
100
AcDbSymbolTable
 70
1
100
AcDbDimStyleTable
 71
0
  0
DIMSTYLE
105
27
100
AcDbSymbolTableRecord
100
AcDbDimStyleTableRecord
  2
Standard
 41
0.5
 42
0.05
 43
3.75
 44
0.125
 70
0
 73
0
 74
0
 77
1
 78
8
140
0.4
141
2.5
143
0.03937007874016
147
0.05
171
3
172
1
271
2
272
2
274
3
278
44
283
0
284
8
340
11
  0
ENDTAB
  0
TABLE
  2
BLOCK_RECORD
  5
1
100
AcDbSymbolTable
 70
1
  0
BLOCK_RECORD
  5
1F
100
AcDbSymbolTableRecord
100
AcDbBlockTableRecord
  2
*Model_Space
340
22
  0
BLOCK_RECORD
  5
1B
100
AcDbSymbolTableRecord
100
AcDbBlockTableRecord
  2
*Paper_Space
340
1E
  0
BLOCK_RECORD
  5
23
100
AcDbSymbolTableRecord
100
AcDbBlockTableRecord
  2
*Paper_Space0
340
26
  0
ENDTAB
  0
ENDSEC
  0
SECTION
  2
BLOCKS
  0
BLOCK
  5
20
100
AcDbEntity
  8
0
100
AcDbBlockBegin
  2
*Model_Space
 70
0
 10
0.0
 20
0.0
 30
0.0
  3
*Model_Space
  1

  0
ENDBLK
  5
21
100
AcDbEntity
  8
0
100
AcDbBlockEnd
  0
BLOCK
  5
1C
100
AcDbEntity
 67
1
  8
0
100
AcDbBlockBegin
  2
*Paper_Space
 70
0
 10
0.0
 20
0.0
 30
0.0
  3
*Paper_Space
  1

  0
ENDBLK
  5
1D
100
AcDbEntity
 67
1
  8
0
100
AcDbBlockEnd
  0
BLOCK
  5
24
100
AcDbEntity
  8
0
100
AcDbBlockBegin
  2
*Paper_Space0
 70
0
 10
0.0
 20
0.0
 30
0.0
  3
*Paper_Space0
  1

  0
ENDBLK
  5
25
100
AcDbEntity
  8
0
100
AcDbBlockEnd
  0
ENDSEC
  0
SECTION
  2
ENTITIES
  0
DIMENSION
  5
46
100
AcDbEntity
  8
Dimensions
 62
256
370
-1
  6
ByLayer
100
AcDbDimension
 10
6.348076211353316
 20
6.25
 30
0.0
 11
3.75
 21
10.75
 31
0.0
 70
2
 71
5
 72
1
 41
1.0
 42
0.0
  1

  3
Standard
100
AcDb2LineAngularDimension
 13
3.75
 23
4.7499999999999991
 33
0.0
 14
6.3499999999999996
 24
4.7499999999999991
 34
0.0
 15
3.75
 25
4.75
 35
0.0
 16
5.75
 26
5.2499999999999991
 36
0.0
  0
LINE
  5
47
100
AcDbEntity
100
AcDbLine
  8
Construction
 62
256
370
-1
  6
ByLayer
 10
3.75
 20
10.75
 30
0.0
 11
3.7499999999999996
 21
8.75
 31
0.0
  0
LINE
  5
48
100
AcDbEntity
100
AcDbLine
  8
Construction
 62
256
370
-1
  6
ByLayer
 10
4.098076211353316
 20
10.147114317029974
 30
0.0
 11
4.0980762113533169
 21
12.147114317029974
 31
0.0
  0
DIMENSION
  5
49
100
AcDbEntity
  8
Dimensions
 62
256
370
-1
  6
ByLayer
100
AcDbDimension
 10
4.098076211353316
 20
10.5254644597867735
 30
0.0
 11
3.924038105676658
 21
10.7004644597867742
 31
0.0
 70
0
 71
5
 72
1
 41
1.0
 42
0.0
  1

  3
Standard
100
AcDbAlignedDimension
 13
3.75
 23
10.25
 33
0.0
 14
4.098076211353316
 24
10.2485372935237944
 34
0.0
 50
0.0
100
AcDbRotatedDimension
  0
DIMENSION
  5
4A
100
AcDbEntity
  8
Dimensions
 62
256
370
-1
  6
ByLayer
100
AcDbDimension
 10
6.857349060463017
 20
12.5440288165244525
 30
0.0
 11
5.8839035061252938
 21
14.5800859750394398
 31
0.0
 70
1
 71
5
 72
1
 41
1.0
 42
0.0
  1

  3
Standard
100
AcDbAlignedDimension
 13
4.0980762113533169
 23
16.147114317029974
 33
0.0
 14
6.348076211353316
 24
12.25
 34
0.0
  0
DIMENSION
  5
4B
100
AcDbEntity
  8
Dimensions
 62
256
370
-1
  6
ByLayer
100
AcDbDimension
 10
3.8043015509073772
 20
16.655946954898635
 30
0.0
 11
2.4177634452307193
 21
16.0575014005609127
 31
0.0
 70
1
 71
5
 72
1
 41
1.0
 42
0.0
  1

  3
Standard
100
AcDbAlignedDimension
 13
1.5000000000000009
 23
14.647114317029974
 33
0.0
 14
4.098076211353316
 24
16.147114317029974
 34
0.0
  0
MTEXT
  5
4C
100
AcDbEntity
100
AcDbMText
  8
Dimensions
 62
256
370
-1
  6
ByLayer
 10
0.2565366984755952
 20
17.6130449256897883
 30
0.0
 40
0.5
 41
100.0
 71
1
 72
2
  1
A Bean Can
  7
iso
 50
0.0
 73
1
 44
1.0
  0
LINE
  5
4D
100
AcDbEntity
100
AcDbLine
  8
Construction
 62
256
370
-1
  6
ByLayer
 10
3.75
 20
4.75
 30
0.0
 11
-1.25
 21
4.75
 31
0.0
  0
LINE
  5
4E
100
AcDbEntity
100
AcDbLine
  8
Construction
 62
256
370
-1
  6
ByLayer
 10
1.5000000000000009
 20
8.647114317029974
 30
0.0
 11
1.5000000000000004
 21
3.647114317029974
 31
0.0
  0
LINE
  5
4F
100
AcDbEntity
100
AcDbLine
  8
Construction
 62
256
370
-1
  6
ByLayer
 10
3.75
 20
10.75
 30
0.0
 11
3.7500000000000004
 21
18.75
 31
0.0
  0
LINE
  5
50
100
AcDbEntity
100
AcDbLine
  8
Construction
 62
256
370
-1
  6
ByLayer
 10
6.348076211353316
 20
6.25
 30
0.0
 11
6.348076211353316
 21
0.75
 31
0.0
  0
LINE
  5
51
100
AcDbEntity
100
AcDbLine
  8
Construction
 62
256
370
-1
  6
ByLayer
 10
4.098076211353316
 20
16.147114317029974
 30
0.0
 11
-3.901923788646684
 21
16.147114317029974
 31
0.0
  0
LINE
  5
52
100
AcDbEntity
100
AcDbLine
  8
Construction
 62
256
370
-1
  6
ByLayer
 10
4.0980762113533178
 20
20.147114317029974
 30
0.0
 11
-3.9019237886466831
 21
20.147114317029974
 31
0.0
  0
LINE
  5
53
100
AcDbEntity
100
AcDbLine
  8
Construction
 62
256
370
-1
  6
ByLayer
 10
1.9999999999999998
 20
10.75
 30
0.0
 11
2.0
 21
20.147114317029974
 31
0.0
  0
LINE
  5
54
100
AcDbEntity
100
AcDbLine
  8
Construction
 62
256
370
-1
  6
ByLayer
 10
5.5
 20
10.75
 30
0.0
 11
5.5
 21
20.147114317029974
 31
0.0
  0
LINE
  5
55
100
AcDbEntity
100
AcDbLine
  8
Construction
 62
256
370
-1
  6
ByLayer
 10
5.5
 20
10.75
 30
0.0
 11
5.4999999999999991
 21
0.75
 31
0.0
  0
LINE
  5
56
100
AcDbEntity
100
AcDbLine
  8
Construction
 62
256
370
-1
  6
ByLayer
 10
12.848076211353316
 20
20.147114317029974
 30
0.0
 11
12.8480762113533142
 21
0.147114317029974
 31
0.0
  0
LINE
  5
57
100
AcDbEntity
100
AcDbLine
  8
Construction
 62
256
370
-1
  6
ByLayer
 10
4.0980762113533169
 20
20.147114317029974
 30
0.0
 11
12.848076211353316
 21
20.147114317029974
 31
0.0
  0
LINE
  5
58
100
AcDbEntity
100
AcDbLine
  8
Construction
 62
256
370
-1
  6
ByLayer
 10
15.848076211353316
 20
20.147114317029974
 30
0.0
 11
15.8480762113533142
 21
0.147114317029974
 31
0.0
  0
LINE
  5
59
100
AcDbEntity
100
AcDbLine
  8
Construction
 62
256
370
-1
  6
ByLayer
 10
4.098076211353316
 20
16.147114317029974
 30
0.0
 11
15.848076211353316
 21
16.147114317029974
 31
0.0
  0
LINE
  5
5A
100
AcDbEntity
100
AcDbLine
  8
Construction
 62
256
370
-1
  6
ByLayer
 10
1.5000000000000009
 20
14.647114317029974
 30
0.0
 11
15.848076211353316
 21
14.647114317029974
 31
0.0
  0
LINE
  5
5B
100
AcDbEntity
100
AcDbLine
  8
Construction
 62
256
370
-1
  6
ByLayer
 10
1.5000000000000009
 20
8.647114317029974
 30
0.0
 11
15.8480762113533142
 21
8.647114317029974
 31
0.0
  0
LINE
  5
5C
100
AcDbEntity
100
AcDbLine
  8
Construction
 62
256
370
-1
  6
ByLayer
 10
12.848076211353316
 20
16.147114317029974
 30
0.0
 11
15.848076211353316
 21
14.647114317029974
 31
0.0
  0
LINE
  5
5D
100
AcDbEntity
100
AcDbLine
  8
Construction
 62
256
370
-1
  6
ByLayer
 10
15.848076211353316
 20
14.647114317029974
 30
0.0
 11
15.848076211353316
 21
16.147114317029974
 31
0.0
  0
LINE
  5
5E
100
AcDbEntity
100
AcDbLine
  8
Construction
 62
256
370
-1
  6
ByLayer
 10
15.848076211353316
 20
16.147114317029974
 30
0.0
 11
12.848076211353316
 21
14.647114317029974
 31
0.0
  0
LINE
  5
5F
100
AcDbEntity
100
AcDbLine
  8
Construction
 62
256
370
-1
  6
ByLayer
 10
12.8480762113533142
 20
10.147114317029974
 30
0.0
 11
15.848076211353316
 21
8.647114317029974
 31
0.0
  0
LINE
  5
60
100
AcDbEntity
100
AcDbLine
  8
Construction
 62
256
370
-1
  6
ByLayer
 10
12.8480762113533142
 20
8.647114317029974
 30
0.0
 11
15.848076211353316
 21
10.147114317029974
 31
0.0
  0
LINE
  5
61
100
AcDbEntity
100
AcDbLine
  8
Construction
 62
256
370
-1
  6
ByLayer
 10
14.348076211353316
 20
15.397114317029974
 30
0.0
 11
16.348076211353316
 21
15.397114317029974
 31
0.0
  0
LINE
  5
62
100
AcDbEntity
100
AcDbLine
  8
Construction
 62
256
370
-1
  6
ByLayer
 10
14.348076211353316
 20
9.397114317029974
 30
0.0
 11
16.348076211353316
 21
9.397114317029974
 31
0.0
  0
LINE
  5
63
100
AcDbEntity
100
AcDbLine
  8
Construction
 62
256
370
-1
  6
ByLayer
 10
14.348076211353316
 20
15.397114317029974
 30
0.0
 11
14.348076211353316
 21
17.397114317029974
 31
0.0
  0
LINE
  5
64
100
AcDbEntity
100
AcDbLine
  8
Construction
 62
256
370
-1
  6
ByLayer
 10
6.348076211353316
 20
6.25
 30
0.0
 11
15.8480762113533142
 21
6.25
 31
0.0
  0
LINE
  5
65
100
AcDbEntity
100
AcDbLine
  8
Construction
 62
256
370
-1
  6
ByLayer
 10
6.348076211353316
 20
12.25
 30
0.0
 11
15.848076211353316
 21
12.25
 31
0.0
  0
LINE
  5
66
100
AcDbEntity
100
AcDbLine
  8
Construction
 62
256
370
-1
  6
ByLayer
 10
12.848076211353316
 20
12.25
 30
0.0
 11
15.848076211353316
 21
10.75
 31
0.0
  0
LINE
  5
67
100
AcDbEntity
100
AcDbLine
  8
Construction
 62
256
370
-1
  6
ByLayer
 10
12.8480762113533142
 20
10.75
 30
0.0
 11
15.848076211353316
 21
12.25
 31
0.0
  0
LINE
  5
68
100
AcDbEntity
100
AcDbLine
  8
Construction
 62
256
370
-1
  6
ByLayer
 10
12.8480762113533142
 20
4.75
 30
0.0
 11
15.848076211353316
 21
6.25
 31
0.0
  0
LINE
  5
69
100
AcDbEntity
100
AcDbLine
  8
Construction
 62
256
370
-1
  6
ByLayer
 10
15.848076211353316
 20
4.75
 30
0.0
 11
12.8480762113533142
 21
6.25
 31
0.0
  0
LINE
  5
6A
100
AcDbEntity
100
AcDbLine
  8
Construction
 62
256
370
-1
  6
ByLayer
 10
14.348076211353316
 20
5.5
 30
0.0
 11
14.348076211353316
 21
7.5
 31
0.0
  0
LINE
  5
6B
100
AcDbEntity
100
AcDbLine
  8
Construction
 62
256
370
-1
  6
ByLayer
 10
14.348076211353316
 20
11.5
 30
0.0
 11
16.348076211353316
 21
11.5
 31
0.0
  0
LINE
  5
6C
100
AcDbEntity
100
AcDbLine
  8
Construction
 62
256
370
-1
  6
ByLayer
 10
14.348076211353316
 20
5.5
 30
0.0
 11
16.348076211353316
 21
5.5
 31
0.0
  0
CIRCLE
  5
6D
100
AcDbEntity
100
AcDbCircle
  8
Construction
 62
256
370
-1
  6
ByLayer
 10
-7.25
 20
13.75
 30
0.0
 40
1.5
  0
LINE
  5
6E
100
AcDbEntity
100
AcDbLine
  8
Construction
 62
256
370
-1
  6
ByLayer
 10
-7.25
 20
13.75
 30
0.0
 11
-2.25
 21
13.75
 31
0.0
  0
LINE
  5
6F
100
AcDbEntity
100
AcDbLine
  8
Construction
 62
256
370
-1
  6
ByLayer
 10
-7.25
 20
13.75
 30
0.0
 11
-12.25
 21
13.75
 31
0.0
  0
LINE
  5
70
100
AcDbEntity
100
AcDbLine
  8
Construction
 62
256
370
-1
  6
ByLayer
 10
-5.75
 20
13.75
 30
0.0
 11
-5.75
 21
8.75
 31
0.0
  0
LINE
  5
71
100
AcDbEntity
100
AcDbLine
  8
Construction
 62
256
370
-1
  6
ByLayer
 10
-8.75
 20
13.75
 30
0.0
 11
-8.75
 21
8.75
 31
0.0
  0
LINE
  5
72
100
AcDbEntity
100
AcDbLine
  8
Construction
 62
256
370
-1
  6
ByLayer
 10
-8.75
 20
13.75
 30
0.0
 11
-8.75
 21
18.75
 31
0.0
  0
LINE
  5
73
100
AcDbEntity
100
AcDbLine
  8
Construction
 62
256
370
-1
  6
ByLayer
 10
-5.75
 20
13.75
 30
0.0
 11
-5.75
 21
18.75
 31
0.0
  0
LINE
  5
74
100
AcDbEntity
100
AcDbLine
  8
Construction
 62
256
370
-1
  6
ByLayer
 10
-8.0
 20
13.75
 30
0.0
 11
-8.0
 21
8.75
 31
0.0
  0
LINE
  5
75
100
AcDbEntity
100
AcDbLine
  8
Construction
 62
256
370
-1
  6
ByLayer
 10
-8.0
 20
13.75
 30
0.0
 11
-8.0
 21
18.75
 31
0.0
  0
LINE
  5
76
100
AcDbEntity
100
AcDbLine
  8
Construction
 62
256
370
-1
  6
ByLayer
 10
-6.5
 20
13.75
 30
0.0
 11
-6.5
 21
18.75
 31
0.0
  0
LINE
  5
77
100
AcDbEntity
100
AcDbLine
  8
Construction
 62
256
370
-1
  6
ByLayer
 10
-6.5
 20
13.75
 30
0.0
 11
-6.5
 21
8.75
 31
0.0
  0
LINE
  5
78
100
AcDbEntity
100
AcDbLine
  8
Construction
 62
256
370
-1
  6
ByLayer
 10
-8.0
 20
12.450961894323342
 30
0.0
 11
-8.75
 21
12.450961894323342
 31
0.0
  0
LINE
  5
79
100
AcDbEntity
100
AcDbLine
  8
Construction
 62
256
370
-1
  6
ByLayer
 10
-6.5
 20
12.450961894323342
 30
0.0
 11
-5.75
 21
12.450961894323342
 31
0.0
  0
LINE
  5
7A
100
AcDbEntity
100
AcDbLine
  8
Construction
 62
256
370
-1
  6
ByLayer
 10
-8.0
 20
11.700961894323342
 30
0.0
 11
-8.75
 21
11.700961894323342
 31
0.0
  0
LINE
  5
7B
100
AcDbEntity
100
AcDbLine
  8
Construction
 62
256
370
-1
  6
ByLayer
 10
-6.5
 20
11.700961894323342
 30
0.0
 11
-5.75
 21
11.700961894323342
 31
0.0
  0
LINE
  5
7C
100
AcDbEntity
100
AcDbLine
  8
Construction
 62
256
370
-1
  6
ByLayer
 10
2.7990381056766593
 20
15.397114317029974
 30
0.0
 11
5.049038105676658
 21
11.4999999999999982
 31
0.0
  0
LINE
  5
7D
100
AcDbEntity
100
AcDbLine
  8
Construction
 62
256
370
-1
  6
ByLayer
 10
5.049038105676658
 20
5.4999999999999991
 30
0.0
 11
2.7990381056766593
 21
9.3971143170299722
 31
0.0
  0
LINE
  5
7E
100
AcDbEntity
100
AcDbLine
  8
Construction
 62
256
370
-1
  6
ByLayer
 10
1.6740381971953289
 20
14.7475953170299743
 30
0.0
 11
3.924038197195328
 21
10.8504810000000003
 31
0.0
  0
LINE
  5
7F
100
AcDbEntity
100
AcDbLine
  8
Construction
 62
256
370
-1
  6
ByLayer
 10
3.9240381971953284
 20
4.8504809999999994
 30
0.0
 11
1.6740381971953298
 21
8.7475953170299725
 31
0.0
  0
LINE
  5
80
100
AcDbEntity
100
AcDbLine
  8
Construction
 62
256
370
-1
  6
ByLayer
 10
1.0245191443569994
 20
14.3725953170299743
 30
0.0
 11
3.274519144356999
 21
10.4754810000000003
 31
0.0
  0
LINE
  5
81
100
AcDbEntity
100
AcDbLine
  8
Construction
 62
256
370
-1
  6
ByLayer
 10
3.2745191443569994
 20
4.4754809999999994
 30
0.0
 11
1.0245191443570008
 21
8.3725953170299725
 31
0.0
  0
LINE
  5
82
100
AcDbEntity
100
AcDbLine
  8
Construction
 62
256
370
-1
  6
ByLayer
 10
1.0245191443569994
 20
14.3725953170299743
 30
0.0
 11
1.6740381971953289
 21
14.7475953170299743
 31
0.0
  0
LINE
  5
83
100
AcDbEntity
100
AcDbLine
  8
Construction
 62
256
370
-1
  6
ByLayer
 10
3.274519144356999
 20
10.4754810000000003
 30
0.0
 11
3.924038197195328
 21
10.8504810000000003
 31
0.0
  0
LINE
  5
84
100
AcDbEntity
100
AcDbLine
  8
Construction
 62
256
370
-1
  6
ByLayer
 10
1.0245191443570008
 20
8.3725953170299725
 30
0.0
 11
1.6740381971953298
 21
8.7475953170299725
 31
0.0
  0
LINE
  5
85
100
AcDbEntity
100
AcDbLine
  8
Construction
 62
256
370
-1
  6
ByLayer
 10
3.2745191443569994
 20
4.4754809999999994
 30
0.0
 11
3.9240381971953284
 21
4.8504809999999994
 31
0.0
  0
LINE
  5
86
100
AcDbEntity
100
AcDbLine
  8
Construction
 62
256
370
-1
  6
ByLayer
 10
2.0000000000000004
 20
6.6830129132455358
 30
0.0
 11
2.6495190528383294
 21
7.0580129132455358
 31
0.0
  0
LINE
  5
87
100
AcDbEntity
100
AcDbLine
  8
Construction
 62
256
370
-1
  6
ByLayer
 10
2.0000000000000018
 20
12.6830129132455376
 30
0.0
 11
2.6495190528383312
 21
13.0580129132455376
 31
0.0
  0
LINE
  5
88
100
AcDbEntity
100
AcDbLine
  8
HiddenLines
 62
256
370
-1
  6
ByLayer
 10
2.0
 20
12.6830129132455358
 30
0.0
 11
2.649519052838329
 21
13.0580129132455358
 31
0.0
  0
LINE
  5
89
100
AcDbEntity
100
AcDbLine
  8
HiddenLines
 62
256
370
-1
  6
ByLayer
 10
2.649519052838329
 20
13.0580129132455358
 30
0.0
 11
3.924038197195328
 21
10.8504810000000003
 31
0.0
  0
LINE
  5
8A
100
AcDbEntity
100
AcDbLine
  8
HiddenLines
 62
256
370
-1
  6
ByLayer
 10
3.924038197195328
 20
10.8504810000000003
 30
0.0
 11
3.274519144356999
 21
10.4754810000000003
 31
0.0
  0
LINE
  5
8B
100
AcDbEntity
100
AcDbLine
  8
HiddenLines
 62
256
370
-1
  6
ByLayer
 10
3.274519144356999
 20
10.4754810000000003
 30
0.0
 11
2.0
 21
12.6830129132455358
 31
0.0
  0
LINE
  5
8C
100
AcDbEntity
100
AcDbLine
  8
HiddenLines
 62
256
370
-1
  6
ByLayer
 10
2.649519052838329
 20
7.0580129132455358
 30
0.0
 11
2.0
 21
6.6830129132455358
 31
0.0
  0
LINE
  5
8D
100
AcDbEntity
100
AcDbLine
  8
HiddenLines
 62
256
370
-1
  6
ByLayer
 10
2.0
 20
6.6830129132455358
 30
0.0
 11
3.2745191443569994
 21
4.4754809999999994
 31
0.0
  0
LINE
  5
8E
100
AcDbEntity
100
AcDbLine
  8
HiddenLines
 62
256
370
-1
  6
ByLayer
 10
3.2745191443569994
 20
4.4754809999999994
 30
0.0
 11
3.9240381971953284
 21
4.8504810000000003
 31
0.0
  0
LINE
  5
8F
100
AcDbEntity
100
AcDbLine
  8
HiddenLines
 62
256
370
-1
  6
ByLayer
 10
3.9240381971953284
 20
4.8504810000000003
 30
0.0
 11
2.649519052838329
 21
7.0580129132455358
 31
0.0
  0
LINE
  5
90
100
AcDbEntity
100
AcDbLine
  8
Construction
 62
256
370
-1
  6
ByLayer
 10
5.125
 20
11.5438566201357364
 30
0.0
 11
5.4999999999999991
 21
10.8943375672974074
 31
0.0
  0
LINE
  5
91
100
AcDbEntity
100
AcDbLine
  8
Construction
 62
256
370
-1
  6
ByLayer
 10
5.1249999999999991
 20
5.5438566201357364
 30
0.0
 11
5.4999999999999982
 21
4.8943375672974074
 31
0.0
  0
LINE
  5
92
100
AcDbEntity
100
AcDbLine
  8
Construction
 62
256
370
-1
  6
ByLayer
 10
4.4754809471616701
 20
11.1688566201357364
 30
0.0
 11
4.8504809471616692
 21
10.5193375672974074
 31
0.0
  0
LINE
  5
93
100
AcDbEntity
100
AcDbLine
  8
Construction
 62
256
370
-1
  6
ByLayer
 10
4.4754809471616692
 20
5.1688566201357373
 30
0.0
 11
4.8504809471616692
 21
4.5193375672974083
 31
0.0
  0
LINE
  5
94
100
AcDbEntity
100
AcDbLine
  8
HiddenLines
 62
256
370
-1
  6
ByLayer
 10
5.125
 20
11.5438566201357347
 30
0.0
 11
5.5
 21
10.8943375672974057
 31
0.0
  0
LINE
  5
95
100
AcDbEntity
100
AcDbLine
  8
HiddenLines
 62
256
370
-1
  6
ByLayer
 10
5.5
 20
10.8943375672974057
 30
0.0
 11
4.850480947161671
 21
10.5193375672974057
 31
0.0
  0
LINE
  5
96
100
AcDbEntity
100
AcDbLine
  8
HiddenLines
 62
256
370
-1
  6
ByLayer
 10
4.850480947161671
 20
10.5193375672974057
 30
0.0
 11
4.475480947161671
 21
11.1688566201357347
 31
0.0
  0
LINE
  5
97
100
AcDbEntity
100
AcDbLine
  8
HiddenLines
 62
256
370
-1
  6
ByLayer
 10
4.475480947161671
 20
11.1688566201357347
 30
0.0
 11
5.125
 21
11.5438566201357347
 31
0.0
  0
LINE
  5
98
100
AcDbEntity
100
AcDbLine
  8
HiddenLines
 62
256
370
-1
  6
ByLayer
 10
5.125
 20
5.5438566201357355
 30
0.0
 11
5.4999999999999991
 21
4.8943375672974065
 31
0.0
  0
LINE
  5
99
100
AcDbEntity
100
AcDbLine
  8
HiddenLines
 62
256
370
-1
  6
ByLayer
 10
5.4999999999999991
 20
4.8943375672974065
 30
0.0
 11
4.8504809471616701
 21
4.5193375672974065
 31
0.0
  0
LINE
  5
9A
100
AcDbEntity
100
AcDbLine
  8
HiddenLines
 62
256
370
-1
  6
ByLayer
 10
4.8504809471616701
 20
4.5193375672974065
 30
0.0
 11
4.475480947161671
 21
5.1688566201357355
 31
0.0
  0
LINE
  5
9B
100
AcDbEntity
100
AcDbLine
  8
HiddenLines
 62
256
370
-1
  6
ByLayer
 10
4.475480947161671
 20
5.1688566201357355
 30
0.0
 11
5.125
 21
5.5438566201357355
 31
0.0
  0
LINE
  5
9C
100
AcDbEntity
100
AcDbLine
  8
Construction
 62
256
370
-1
  6
ByLayer
 10
12.098076211353316
 20
0.75
 30
0.0
 11
10.098076211353316
 21
0.75
 31
0.0
  0
LINE
  5
9D
100
AcDbEntity
100
AcDbLine
  8
Construction
 62
256
370
-1
  6
ByLayer
 10
16.598076211353316
 20
0.75
 30
0.0
 11
18.598076211353316
 21
0.75
 31
0.0
  0
LINE
  5
9E
100
AcDbEntity
100
AcDbLine
  8
Construction
 62
256
370
-1
  6
ByLayer
 10
2.6495190528383312
 20
13.0580129132455376
 30
0.0
 11
22.6495190528383326
 21
13.0580129132455376
 31
0.0
  0
LINE
  5
9F
100
AcDbEntity
100
AcDbLine
  8
Construction
 62
256
370
-1
  6
ByLayer
 10
2.0
 20
12.6830129132455358
 30
0.0
 11
22.0
 21
12.6830129132455358
 31
0.0
  0
LINE
  5
A0
100
AcDbEntity
100
AcDbLine
  8
Construction
 62
256
370
-1
  6
ByLayer
 10
2.649519052838329
 20
7.0580129132455358
 30
0.0
 11
22.649519052838329
 21
7.0580129132455358
 31
0.0
  0
LINE
  5
A1
100
AcDbEntity
100
AcDbLine
  8
Construction
 62
256
370
-1
  6
ByLayer
 10
2.0000000000000004
 20
6.6830129132455358
 30
0.0
 11
22.0
 21
6.6830129132455358
 31
0.0
  0
DIMENSION
  5
A2
100
AcDbEntity
  8
Dimensions
 62
256
370
-1
  6
ByLayer
100
AcDbDimension
 10
5.4999999999999991
 20
21.1426747809731168
 30
0.0
 11
3.75
 21
21.3176747809731175
 31
0.0
 70
0
 71
5
 72
0
 41
1.0
 42
0.0
  1

  3
Standard
100
AcDbAlignedDimension
 13
2.0
 23
20.147114317029974
 33
0.0
 14
5.4999999999999991
 24
20.147114317029974
 34
0.0
 50
0.0
100
AcDbRotatedDimension
  0
LINE
  5
A3
100
AcDbEntity
100
AcDbLine
  8
0
 62
256
370
-1
  6
ByLayer
 10
1.5000000000000009
 20
8.647114317029974
 30
0.0
 11
2.0
 21
8.9357894516247871
 31
0.0
  0
LINE
  5
A4
100
AcDbEntity
100
AcDbLine
  8
HiddenLines
 62
256
370
-1
  6
ByLayer
 10
2.0
 20
8.9357894516247871
 30
0.0
 11
4.098076211353316
 21
10.147114317029974
 31
0.0
  0
LINE
  5
A5
100
AcDbEntity
100
AcDbLine
  8
0
 62
256
370
-1
  6
ByLayer
 10
5.4999999999999991
 20
7.718911086754467
 30
0.0
 11
6.348076211353316
 21
6.25
 31
0.0
  0
LINE
  5
A6
100
AcDbEntity
100
AcDbLine
  8
HiddenLines
 62
256
370
-1
  6
ByLayer
 10
4.098076211353316
 20
10.147114317029974
 30
0.0
 11
5.4999999999999991
 21
7.718911086754467
 31
0.0
  0
LINE
  5
A7
100
AcDbEntity
100
AcDbLine
  8
0
 62
256
370
-1
  6
ByLayer
 10
2.0
 20
7.7810889132455365
 30
0.0
 11
1.5000000000000009
 21
8.647114317029974
 31
0.0
  0
LINE
  5
A8
100
AcDbEntity
100
AcDbLine
  8
HiddenLines
 62
256
370
-1
  6
ByLayer
 10
3.75
 20
4.75
 30
0.0
 11
2.0
 21
7.7810889132455365
 31
0.0
  0
LINE
  5
A9
100
AcDbEntity
100
AcDbLine
  8
0
 62
256
370
-1
  6
ByLayer
 10
6.348076211353316
 20
6.25
 30
0.0
 11
5.4999999999999991
 21
5.7603629710818449
 31
0.0
  0
LINE
  5
AA
100
AcDbEntity
100
AcDbLine
  8
HiddenLines
 62
256
370
-1
  6
ByLayer
 10
5.4999999999999991
 20
5.7603629710818449
 30
0.0
 11
3.75
 21
4.75
 31
0.0
  0
LINE
  5
AB
100
AcDbEntity
100
AcDbLine
  8
0
 62
256
370
-1
  6
ByLayer
 10
1.5000000000000009
 20
14.647114317029974
 30
0.0
 11
2.0
 21
13.7810889132455365
 31
0.0
  0
LINE
  5
AC
100
AcDbEntity
100
AcDbLine
  8
0
 62
256
370
-1
  6
ByLayer
 10
2.0
 20
14.9357894516247853
 30
0.0
 11
1.5000000000000009
 21
14.647114317029974
 31
0.0
  0
LINE
  5
AD
100
AcDbEntity
100
AcDbLine
  8
0
 62
256
370
-1
  6
ByLayer
 10
6.348076211353316
 20
12.25
 30
0.0
 11
5.4999999999999991
 21
13.718911086754467
 31
0.0
  0
LINE
  5
AE
100
AcDbEntity
100
AcDbLine
  8
0
 62
256
370
-1
  6
ByLayer
 10
5.4999999999999991
 20
11.7603629710818449
 30
0.0
 11
6.348076211353316
 21
12.25
 31
0.0
  0
LINE
  5
AF
100
AcDbEntity
100
AcDbLine
  8
HiddenLines
 62
256
370
-1
  6
ByLayer
 10
2.0
 20
13.7810889132455365
 30
0.0
 11
3.75
 21
10.75
 31
0.0
  0
LINE
  5
B0
100
AcDbEntity
100
AcDbLine
  8
HiddenLines
 62
256
370
-1
  6
ByLayer
 10
4.098076211353316
 20
16.147114317029974
 30
0.0
 11
2.0
 21
14.9357894516247853
 31
0.0
  0
LINE
  5
B1
100
AcDbEntity
100
AcDbLine
  8
HiddenLines
 62
256
370
-1
  6
ByLayer
 10
5.4999999999999991
 20
13.718911086754467
 30
0.0
 11
4.098076211353316
 21
16.147114317029974
 31
0.0
  0
LINE
  5
B2
100
AcDbEntity
100
AcDbLine
  8
HiddenLines
 62
256
370
-1
  6
ByLayer
 10
3.75
 20
10.75
 30
0.0
 11
5.4999999999999991
 21
11.7603629710818449
 31
0.0
  0
LINE
  5
B3
100
AcDbEntity
100
AcDbLine
  8
Construction
 62
256
370
-1
  6
ByLayer
 10
14.348076211353316
 20
9.397114317029974
 30
0.0
 11
14.348076211353316
 21
12.25
 31
0.0
  0
DIMENSION
  5
B4
100
AcDbEntity
  8
Dimensions
 62
256
370
-1
  6
ByLayer
100
AcDbDimension
 10
2.6979966664917745
 20
4.1426255922106421
 30
0.0
 11
2.2122915399755514
 21
5.3338915488334093
 31
0.0
 70
1
 71
5
 72
1
 41
1.0
 42
0.0
  1

  3
Standard
100
AcDbAlignedDimension
 13
2.0
 23
6.6830129132455358
 33
0.0
 14
3.2745191443569994
 24
4.4754809999999994
 34
0.0
  0
LINE
  5
B5
100
AcDbEntity
100
AcDbLine
  8
Construction
 62
256
370
-1
  6
ByLayer
 10
5.125
 20
5.5438566201357355
 30
0.0
 11
25.125
 21
5.5438566201357355
 31
0.0
  0
LINE
  5
B6
100
AcDbEntity
100
AcDbLine
  8
Construction
 62
256
370
-1
  6
ByLayer
 10
5.4999999999999991
 20
4.8943375672974065
 30
0.0
 11
25.5
 21
4.8943375672974065
 31
0.0
  0
LINE
  5
B7
100
AcDbEntity
100
AcDbLine
  8
Construction
 62
256
370
-1
  6
ByLayer
 10
4.8504809471616701
 20
4.5193375672974065
 30
0.0
 11
24.850480947161671
 21
4.5193375672974065
 31
0.0
  0
LINE
  5
B8
100
AcDbEntity
100
AcDbLine
  8
Construction
 62
256
370
-1
  6
ByLayer
 10
5.125
 20
11.5438566201357364
 30
0.0
 11
25.125
 21
11.5438566201357364
 31
0.0
  0
LINE
  5
B9
100
AcDbEntity
100
AcDbLine
  8
Construction
 62
256
370
-1
  6
ByLayer
 10
5.5
 20
10.8943375672974057
 30
0.0
 11
25.5
 21
10.8943375672974057
 31
0.0
  0
LINE
  5
BA
100
AcDbEntity
100
AcDbLine
  8
Construction
 62
256
370
-1
  6
ByLayer
 10
4.850480947161671
 20
10.5193375672974057
 30
0.0
 11
24.850480947161671
 21
10.5193375672974057
 31
0.0
  0
LINE
  5
BB
100
AcDbEntity
100
AcDbLine
  8
Construction
 62
256
370
-1
  6
ByLayer
 10
4.475480947161671
 20
11.1688566201357347
 30
0.0
 11
24.475480947161671
 21
11.1688566201357347
 31
0.0
  0
LINE
  5
BC
100
AcDbEntity
100
AcDbLine
  8
Construction
 62
256
370
-1
  6
ByLayer
 10
4.4754809471616692
 20
5.1688566201357373
 30
0.0
 11
24.475480947161671
 21
5.1688566201357373
 31
0.0
  0
LINE
  5
BD
100
AcDbEntity
100
AcDbLine
  8
Construction
 62
256
370
-1
  6
ByLayer
 10
4.8504809471616701
 20
4.5193375672974065
 30
0.0
 11
4.8504809471616701
 21
-0.4806624327025935
 31
0.0
  0
LINE
  5
BE
100
AcDbEntity
100
AcDbLine
  8
0
 62
256
370
-1
  6
ByLayer
 10
5.4999999999999991
 20
-0.4806624327025935
 30
0.0
 11
2.0
 21
-0.4806624327025935
 31
0.0
  0
LINE
  5
BF
100
AcDbEntity
100
AcDbLine
  8
Construction
 62
256
370
-1
  6
ByLayer
 10
2.0
 20
-0.4806624327025935
 30
0.0
 11
0.0
 21
-0.4806624327025935
 31
0.0
  0
LINE
  5
C0
100
AcDbEntity
100
AcDbLine
  8
Construction
 62
256
370
-1
  6
ByLayer
 10
5.4999999999999991
 20
-0.4806624327025935
 30
0.0
 11
7.4999999999999991
 21
-0.4806624327025935
 31
0.0
  0
LINE
  5
C1
100
AcDbEntity
100
AcDbLine
  8
Construction
 62
256
370
-1
  6
ByLayer
 10
0.0
 20
-0.4806624327025935
 30
0.0
 11
0.0
 21
-1.2306624327025935
 31
0.0
  0
LINE
  5
C2
100
AcDbEntity
100
AcDbLine
  8
Construction
 62
256
370
-1
  6
ByLayer
 10
7.4999999999999991
 20
-0.4806624327025935
 30
0.0
 11
7.4999999999999991
 21
-1.2306624327025935
 31
0.0
  0
LINE
  5
C3
100
AcDbEntity
100
AcDbLine
  8
0
 62
256
370
-1
  6
ByLayer
 10
7.4999999999999991
 20
-1.2306624327025935
 30
0.0
 11
0.0
 21
-1.2306624327025935
 31
0.0
  0
LINE
  5
C4
100
AcDbEntity
100
AcDbLine
  8
0
 62
256
370
-1
  6
ByLayer
 10
7.5
 20
-0.4806624327025935
 30
0.0
 11
0.0000000000000004
 21
-0.4806624327025935
 31
0.0
  0
LINE
  5
C5
100
AcDbEntity
100
AcDbLine
  8
0
 62
256
370
-1
  6
ByLayer
 10
0.0000000000000004
 20
-0.4806624327025935
 30
0.0
 11
0.0
 21
-1.2306624327025935
 31
0.0
  0
LINE
  5
C6
100
AcDbEntity
100
AcDbLine
  8
0
 62
256
370
-1
  6
ByLayer
 10
7.4999999999999991
 20
-0.4806624327025935
 30
0.0
 11
7.4999999999999991
 21
-1.2306624327025935
 31
0.0
  0
LINE
  5
C7
100
AcDbEntity
100
AcDbLine
  8
Construction
 62
256
370
-1
  6
ByLayer
 10
1.9999999999999998
 20
10.75
 30
0.0
 11
1.9999999999999991
 21
-0.4806624327025935
 31
0.0
  0
LINE
  5
C8
100
AcDbEntity
100
AcDbLine
  8
Construction
 62
256
370
-1
  6
ByLayer
 10
7.4999999999999991
 20
-0.4806624327025935
 30
0.0
 11
12.5
 21
-0.4806624327025935
 31
0.0
  0
LINE
  5
C9
100
AcDbEntity
100
AcDbLine
  8
Construction
 62
256
370
-1
  6
ByLayer
 10
10.098076211353316
 20
0.75
 30
0.0
 11
10.098076211353316
 21
-4.25
 31
0.0
  0
LINE
  5
CA
100
AcDbEntity
100
AcDbLine
  8
Construction
 62
256
370
-1
  6
ByLayer
 10
12.098076211353316
 20
20.147114317029974
 30
0.0
 11
12.0980762113533142
 21
-0.4806624327025935
 31
0.0
  0
MTEXT
  5
CB
100
AcDbEntity
100
AcDbMText
  8
Dimensions
 62
256
370
-1
  6
ByLayer
 10
1.7202313529799129
 20
-2.2821637486443502
 30
0.0
 40
0.5
 41
100.0
 71
1
 72
2
  1
Side View
  7
iso
 50
0.0
 73
1
 44
1.0
  0
DIMENSION
  5
CC
100
AcDbEntity
  8
Dimensions
 62
256
370
-1
  6
ByLayer
100
AcDbDimension
 10
0.7998480016773453
 20
-0.4806624327025933
 30
0.0
 11
0.5498480016773455
 21
3.1011752402714712
 31
0.0
 70
0
 71
5
 72
0
 41
1.0
 42
0.0
  1

  3
Standard
100
AcDbAlignedDimension
 13
2.0
 23
6.6830129132455358
 33
0.0
 14
2.0
 24
-0.4806624327025935
 34
0.0
 50
90.0
100
AcDbRotatedDimension
  0
DIMENSION
  5
CD
100
AcDbEntity
  8
Dimensions
 62
256
370
-1
  6
ByLayer
100
AcDbDimension
 10
-0.4902294203828901
 20
-0.4806624327025931
 30
0.0
 11
-0.7402294203828896
 21
6.1011752402714716
 31
0.0
 70
0
 71
5
 72
0
 41
1.0
 42
0.0
  1

  3
Standard
100
AcDbAlignedDimension
 13
2.0
 23
12.6830129132455358
 33
0.0
 14
2.0
 24
-0.4806624327025935
 34
0.0
 50
90.0
100
AcDbRotatedDimension
  0
DIMENSION
  5
CE
100
AcDbEntity
  8
Dimensions
 62
256
370
-1
  6
ByLayer
100
AcDbDimension
 10
6.6826010462720156
 20
-0.4806624327025936
 30
0.0
 11
6.4326010462720156
 21
2.2068375672974065
 31
0.0
 70
0
 71
5
 72
0
 41
1.0
 42
0.0
  1

  3
Standard
100
AcDbAlignedDimension
 13
5.4999999999999991
 23
4.8943375672974065
 33
0.0
 14
5.4999999999999991
 24
-0.4806624327025935
 34
0.0
 50
90.0
100
AcDbRotatedDimension
  0
DIMENSION
  5
CF
100
AcDbEntity
  8
Dimensions
 62
256
370
-1
  6
ByLayer
100
AcDbDimension
 10
7.9726784683322514
 20
-0.4806624327025937
 30
0.0
 11
7.7226784683322514
 21
5.2068375672974057
 31
0.0
 70
0
 71
5
 72
0
 41
1.0
 42
0.0
  1

  3
Standard
100
AcDbAlignedDimension
 13
5.4999999999999991
 23
10.8943375672974057
 33
0.0
 14
5.4999999999999991
 24
-0.4806624327025935
 34
0.0
 50
90.0
100
AcDbRotatedDimension
  0
LINE
  5
D0
100
AcDbEntity
100
AcDbLine
  8
Construction
 62
256
370
-1
  6
ByLayer
 10
3.7499999999999996
 20
-0.4806624327025935
 30
0.0
 11
3.7499999999999996
 21
-1.4806624327025935
 31
0.0
  0
LINE
  5
D1
100
AcDbEntity
100
AcDbLine
  8
Construction
 62
256
370
-1
  6
ByLayer
 10
14.348076211353316
 20
-0.4806624327025935
 30
0.0
 11
14.348076211353316
 21
-1.4806624327025935
 31
0.0
  0
LINE
  5
D2
100
AcDbEntity
100
AcDbLine
  8
Construction
 62
256
370
-1
  6
ByLayer
 10
4.25
 20
-0.4806624327025936
 30
0.0
 11
4.25
 21
-1.4806624327025937
 31
0.0
  0
LINE
  5
D3
100
AcDbEntity
100
AcDbLine
  8
Construction
 62
256
370
-1
  6
ByLayer
 10
3.2499999999999996
 20
-0.4806624327025933
 30
0.0
 11
3.2499999999999996
 21
-1.4806624327025932
 31
0.0
  0
LINE
  5
D4
100
AcDbEntity
100
AcDbLine
  8
Construction
 62
256
370
-1
  6
ByLayer
 10
13.848076211353316
 20
-0.4806624327025933
 30
0.0
 11
13.848076211353316
 21
-1.4806624327025932
 31
0.0
  0
LINE
  5
D5
100
AcDbEntity
100
AcDbLine
  8
Construction
 62
256
370
-1
  6
ByLayer
 10
14.848076211353316
 20
-0.4806624327025936
 30
0.0
 11
14.848076211353316
 21
-1.4806624327025937
 31
0.0
  0
LINE
  5
D6
100
AcDbEntity
100
AcDbLine
  8
HiddenLines
 62
256
370
-1
  6
ByLayer
 10
3.2499999999999996
 20
-0.4806624327025935
 30
0.0
 11
3.2499999999999996
 21
-1.2306624327025935
 31
0.0
  0
LINE
  5
D7
100
AcDbEntity
100
AcDbLine
  8
HiddenLines
 62
256
370
-1
  6
ByLayer
 10
4.25
 20
-1.2306624327025935
 30
0.0
 11
4.25
 21
-0.4806624327025935
 31
0.0
  0
LINE
  5
D8
100
AcDbEntity
100
AcDbLine
  8
0
 62
256
370
-1
  6
ByLayer
 10
0.0
 20
-1.2306624327025935
 30
0.0
 11
-0.0000000000000002
 21
-4.7306624327025935
 31
0.0
  0
LINE
  5
D9
100
AcDbEntity
100
AcDbLine
  8
0
 62
256
370
-1
  6
ByLayer
 10
7.4999999999999991
 20
-1.2306624327025935
 30
0.0
 11
7.4999999999999991
 21
-4.7306624327025935
 31
0.0
  0
LINE
  5
DA
100
AcDbEntity
100
AcDbLine
  8
0
 62
256
370
-1
  6
ByLayer
 10
-0.0000000000000002
 20
-4.7306624327025935
 30
0.0
 11
7.4999999999999991
 21
-4.7306624327025935
 31
0.0
  0
LINE
  5
DB
100
AcDbEntity
100
AcDbLine
  8
Construction
 62
256
370
-1
  6
ByLayer
 10
3.75
 20
10.75
 30
0.0
 11
3.7499999999999987
 21
-0.4806624327025935
 31
0.0
  0
LINE
  5
DC
100
AcDbEntity
100
AcDbLine
  8
Construction
 62
256
370
-1
  6
ByLayer
 10
2.25
 20
10.75
 30
0.0
 11
2.2499999999999987
 21
-0.4806624327025929
 31
0.0
  0
LINE
  5
DD
100
AcDbEntity
100
AcDbLine
  8
Construction
 62
256
370
-1
  6
ByLayer
 10
5.25
 20
10.75
 30
0.0
 11
5.2499999999999982
 21
-0.4806624327025938
 31
0.0
  0
LINE
  5
DE
100
AcDbEntity
100
AcDbLine
  8
0
 62
256
370
-1
  6
ByLayer
 10
2.2499999999999987
 20
-0.4806624327025935
 30
0.0
 11
2.2499999999999991
 21
3.5193375672974065
 31
0.0
  0
LINE
  5
DF
100
AcDbEntity
100
AcDbLine
  8
0
 62
256
370
-1
  6
ByLayer
 10
5.2499999999999982
 20
-0.4806624327025935
 30
0.0
 11
5.2499999999999982
 21
3.5193375672974065
 31
0.0
  0
LINE
  5
E0
100
AcDbEntity
100
AcDbLine
  8
0
 62
256
370
-1
  6
ByLayer
 10
2.2499999999999991
 20
3.5193375672974065
 30
0.0
 11
5.2499999999999982
 21
3.5193375672974065
 31
0.0
  0
LINE
  5
E1
100
AcDbEntity
100
AcDbLine
  8
Construction
 62
256
370
-1
  6
ByLayer
 10
5.2499999999999982
 20
3.5193375672974065
 30
0.0
 11
17.25
 21
3.5193375672974065
 31
0.0
  0
LINE
  5
E2
100
AcDbEntity
100
AcDbLine
  8
HiddenLines
 62
256
370
-1
  6
ByLayer
 10
2.0
 20
24.683012913245534
 30
0.0
 11
2.649519052838329
 21
25.058012913245534
 31
0.0
  0
LINE
  5
E3
100
AcDbEntity
100
AcDbLine
  8
HiddenLines
 62
256
370
-1
  6
ByLayer
 10
2.649519052838329
 20
25.058012913245534
 30
0.0
 11
3.924038197195328
 21
22.850481000000002
 31
0.0
  0
LINE
  5
E4
100
AcDbEntity
100
AcDbLine
  8
HiddenLines
 62
256
370
-1
  6
ByLayer
 10
3.924038197195328
 20
22.850481000000002
 30
0.0
 11
3.274519144356999
 21
22.475481000000002
 31
0.0
  0
LINE
  5
E5
100
AcDbEntity
100
AcDbLine
  8
HiddenLines
 62
256
370
-1
  6
ByLayer
 10
3.274519144356999
 20
22.475481000000002
 30
0.0
 11
2.0
 21
24.683012913245534
 31
0.0
  0
LINE
  5
E6
100
AcDbEntity
100
AcDbLine
  8
HiddenLines
 62
256
370
-1
  6
ByLayer
 10
2.649519052838329
 20
19.058012913245534
 30
0.0
 11
2.0
 21
18.683012913245534
 31
0.0
  0
LINE
  5
E7
100
AcDbEntity
100
AcDbLine
  8
HiddenLines
 62
256
370
-1
  6
ByLayer
 10
2.0
 20
18.683012913245534
 30
0.0
 11
3.2745191443569994
 21
16.4754809999999985
 31
0.0
  0
LINE
  5
E8
100
AcDbEntity
100
AcDbLine
  8
HiddenLines
 62
256
370
-1
  6
ByLayer
 10
3.2745191443569994
 20
16.4754809999999985
 30
0.0
 11
3.9240381971953284
 21
16.850481000000002
 31
0.0
  0
LINE
  5
E9
100
AcDbEntity
100
AcDbLine
  8
HiddenLines
 62
256
370
-1
  6
ByLayer
 10
3.9240381971953284
 20
16.850481000000002
 30
0.0
 11
2.649519052838329
 21
19.058012913245534
 31
0.0
  0
LINE
  5
EA
100
AcDbEntity
100
AcDbLine
  8
HiddenLines
 62
256
370
-1
  6
ByLayer
 10
5.125
 20
23.5438566201357347
 30
0.0
 11
5.5
 21
22.8943375672974057
 31
0.0
  0
LINE
  5
EB
100
AcDbEntity
100
AcDbLine
  8
HiddenLines
 62
256
370
-1
  6
ByLayer
 10
5.5
 20
22.8943375672974057
 30
0.0
 11
4.850480947161671
 21
22.5193375672974057
 31
0.0
  0
LINE
  5
EC
100
AcDbEntity
100
AcDbLine
  8
HiddenLines
 62
256
370
-1
  6
ByLayer
 10
4.850480947161671
 20
22.5193375672974057
 30
0.0
 11
4.475480947161671
 21
23.1688566201357347
 31
0.0
  0
LINE
  5
ED
100
AcDbEntity
100
AcDbLine
  8
HiddenLines
 62
256
370
-1
  6
ByLayer
 10
4.475480947161671
 20
23.1688566201357347
 30
0.0
 11
5.125
 21
23.5438566201357347
 31
0.0
  0
LINE
  5
EE
100
AcDbEntity
100
AcDbLine
  8
HiddenLines
 62
256
370
-1
  6
ByLayer
 10
5.125
 20
17.5438566201357347
 30
0.0
 11
5.4999999999999991
 21
16.8943375672974057
 31
0.0
  0
LINE
  5
EF
100
AcDbEntity
100
AcDbLine
  8
HiddenLines
 62
256
370
-1
  6
ByLayer
 10
5.4999999999999991
 20
16.8943375672974057
 30
0.0
 11
4.8504809471616701
 21
16.5193375672974057
 31
0.0
  0
LINE
  5
F0
100
AcDbEntity
100
AcDbLine
  8
HiddenLines
 62
256
370
-1
  6
ByLayer
 10
4.8504809471616701
 20
16.5193375672974057
 30
0.0
 11
4.475480947161671
 21
17.1688566201357347
 31
0.0
  0
LINE
  5
F1
100
AcDbEntity
100
AcDbLine
  8
HiddenLines
 62
256
370
-1
  6
ByLayer
 10
4.475480947161671
 20
17.1688566201357347
 30
0.0
 11
5.125
 21
17.5438566201357347
 31
0.0
  0
LINE
  5
F2
100
AcDbEntity
100
AcDbLine
  8
0
 62
256
370
-1
  6
ByLayer
 10
1.5000000000000009
 20
20.647114317029974
 30
0.0
 11
2.0
 21
20.9357894516247853
 31
0.0
  0
LINE
  5
F3
100
AcDbEntity
100
AcDbLine
  8
HiddenLines
 62
256
370
-1
  6
ByLayer
 10
2.0
 20
20.9357894516247853
 30
0.0
 11
4.098076211353316
 21
22.147114317029974
 31
0.0
  0
LINE
  5
F4
100
AcDbEntity
100
AcDbLine
  8
0
 62
256
370
-1
  6
ByLayer
 10
5.4999999999999991
 20
19.718911086754467
 30
0.0
 11
6.348076211353316
 21
18.25
 31
0.0
  0
LINE
  5
F5
100
AcDbEntity
100
AcDbLine
  8
HiddenLines
 62
256
370
-1
  6
ByLayer
 10
4.098076211353316
 20
22.147114317029974
 30
0.0
 11
5.4999999999999991
 21
19.718911086754467
 31
0.0
  0
LINE
  5
F6
100
AcDbEntity
100
AcDbLine
  8
0
 62
256
370
-1
  6
ByLayer
 10
2.0
 20
19.7810889132455365
 30
0.0
 11
1.5000000000000009
 21
20.647114317029974
 31
0.0
  0
LINE
  5
F7
100
AcDbEntity
100
AcDbLine
  8
HiddenLines
 62
256
370
-1
  6
ByLayer
 10
3.75
 20
16.75
 30
0.0
 11
2.0
 21
19.7810889132455365
 31
0.0
  0
LINE
  5
F8
100
AcDbEntity
100
AcDbLine
  8
0
 62
256
370
-1
  6
ByLayer
 10
6.348076211353316
 20
18.25
 30
0.0
 11
5.4999999999999991
 21
17.7603629710818467
 31
0.0
  0
LINE
  5
F9
100
AcDbEntity
100
AcDbLine
  8
HiddenLines
 62
256
370
-1
  6
ByLayer
 10
5.4999999999999991
 20
17.7603629710818467
 30
0.0
 11
3.75
 21
16.75
 31
0.0
  0
LINE
  5
FA
100
AcDbEntity
100
AcDbLine
  8
0
 62
256
370
-1
  6
ByLayer
 10
1.5000000000000009
 20
26.647114317029974
 30
0.0
 11
2.0
 21
25.7810889132455365
 31
0.0
  0
LINE
  5
FB
100
AcDbEntity
100
AcDbLine
  8
0
 62
256
370
-1
  6
ByLayer
 10
2.0
 20
26.9357894516247853
 30
0.0
 11
1.5000000000000009
 21
26.647114317029974
 31
0.0
  0
LINE
  5
FC
100
AcDbEntity
100
AcDbLine
  8
0
 62
256
370
-1
  6
ByLayer
 10
6.348076211353316
 20
24.25
 30
0.0
 11
5.4999999999999991
 21
25.718911086754467
 31
0.0
  0
LINE
  5
FD
100
AcDbEntity
100
AcDbLine
  8
0
 62
256
370
-1
  6
ByLayer
 10
5.4999999999999991
 20
23.7603629710818467
 30
0.0
 11
6.348076211353316
 21
24.25
 31
0.0
  0
LINE
  5
FE
100
AcDbEntity
100
AcDbLine
  8
HiddenLines
 62
256
370
-1
  6
ByLayer
 10
2.0
 20
25.7810889132455365
 30
0.0
 11
3.75
 21
22.75
 31
0.0
  0
LINE
  5
FF
100
AcDbEntity
100
AcDbLine
  8
HiddenLines
 62
256
370
-1
  6
ByLayer
 10
4.098076211353316
 20
28.147114317029974
 30
0.0
 11
2.0
 21
26.9357894516247853
 31
0.0
  0
LINE
  5
100
100
AcDbEntity
100
AcDbLine
  8
HiddenLines
 62
256
370
-1
  6
ByLayer
 10
5.4999999999999991
 20
25.718911086754467
 30
0.0
 11
4.098076211353316
 21
28.147114317029974
 31
0.0
  0
LINE
  5
101
100
AcDbEntity
100
AcDbLine
  8
HiddenLines
 62
256
370
-1
  6
ByLayer
 10
3.75
 20
22.75
 30
0.0
 11
5.4999999999999991
 21
23.7603629710818467
 31
0.0
  0
LINE
  5
102
100
AcDbEntity
100
AcDbLine
  8
0
 62
256
370
-1
  6
ByLayer
 10
2.0000000000000009
 20
32.147114317029974
 30
0.0
 11
5.5
 21
32.147114317029974
 31
0.0
  0
LINE
  5
103
100
AcDbEntity
100
AcDbLine
  8
HiddenLines
 62
256
370
-1
  6
ByLayer
 10
2.0000000000000009
 20
31.397114317029974
 30
0.0
 11
5.5
 21
31.397114317029974
 31
0.0
  0
LINE
  5
104
100
AcDbEntity
100
AcDbLine
  8
0
 62
256
370
-1
  6
ByLayer
 10
2.0
 20
-0.4806624327025935
 30
0.0
 11
2.0
 21
32.147114317029974
 31
0.0
  0
LINE
  5
105
100
AcDbEntity
100
AcDbLine
  8
0
 62
256
370
-1
  6
ByLayer
 10
5.4999999999999991
 20
32.147114317029974
 30
0.0
 11
5.4999999999999991
 21
-0.4806624327025935
 31
0.0
  0
DIMENSION
  5
106
100
AcDbEntity
  8
Dimensions
 62
256
370
-1
  6
ByLayer
100
AcDbDimension
 10
7.4999999999999991
 20
-6.0317043231505174
 30
0.0
 11
3.75
 21
-5.7817043231505174
 31
0.0
 70
0
 71
5
 72
1
 41
1.0
 42
0.0
  1

  3
Standard
100
AcDbAlignedDimension
 13
-0.0000000000000002
 23
-4.7306624327025935
 33
0.0
 14
7.4999999999999991
 24
-4.7306624327025935
 34
0.0
 50
0.0
100
AcDbRotatedDimension
  0
DIMENSION
  5
107
100
AcDbEntity
  8
Dimensions
 62
256
370
-1
  6
ByLayer
100
AcDbDimension
 10
-2.1864928171420628
 20
-0.480662432702593
 30
0.0
 11
-2.4364928171420619
 21
9.1011752402714698
 31
0.0
 70
0
 71
5
 72
1
 41
1.0
 42
0.0
  1

  3
Standard
100
AcDbAlignedDimension
 13
2.0
 23
18.683012913245534
 33
0.0
 14
2.0
 24
-0.4806624327025935
 34
0.0
 50
90.0
100
AcDbRotatedDimension
  0
DIMENSION
  5
108
100
AcDbEntity
  8
Dimensions
 62
256
370
-1
  6
ByLayer
100
AcDbDimension
 10
-3.8452115060084564
 20
-0.4806624327025928
 30
0.0
 11
-4.0952115060084555
 21
12.1011752402714681
 31
0.0
 70
0
 71
5
 72
1
 41
1.0
 42
0.0
  1

  3
Standard
100
AcDbAlignedDimension
 13
2.0
 23
24.683012913245534
 33
0.0
 14
2.0
 24
-0.4806624327025935
 34
0.0
 50
90.0
100
AcDbRotatedDimension
  0
DIMENSION
  5
109
100
AcDbEntity
  8
Dimensions
 62
256
370
-1
  6
ByLayer
100
AcDbDimension
 10
9.1983490928045359
 20
-0.480662432702594
 30
0.0
 11
8.9483490928045377
 21
8.2068375672974057
 31
0.0
 70
0
 71
5
 72
1
 41
1.0
 42
0.0
  1

  3
Standard
100
AcDbAlignedDimension
 13
5.4999999999999991
 23
16.8943375672974057
 33
0.0
 14
5.4999999999999991
 24
-0.4806624327025935
 34
0.0
 50
90.0
100
AcDbRotatedDimension
  0
DIMENSION
  5
10A
100
AcDbEntity
  8
Dimensions
 62
256
370
-1
  6
ByLayer
100
AcDbDimension
 10
10.1031047412771144
 20
-0.4806624327025941
 30
0.0
 11
9.8531047412771144
 21
11.2068375672974057
 31
0.0
 70
0
 71
5
 72
1
 41
1.0
 42
0.0
  1

  3
Standard
100
AcDbAlignedDimension
 13
5.4999999999999991
 23
22.8943375672974057
 33
0.0
 14
5.4999999999999991
 24
-0.4806624327025935
 34
0.0
 50
90.0
100
AcDbRotatedDimension
  0
ELLIPSE
  5
10B
100
AcDbEntity
100
AcDbEllipse
  8
0
 62
256
370
-1
  6
ByLayer
 10
26.348076211353316
 20
15.397114317029974
 30
0.0
 11
1.5
 21
0.0
 31
0.0
 40
0.5
 41
0.0
 42
6.2831853071795862
  0
ELLIPSE
  5
10C
100
AcDbEntity
100
AcDbEllipse
  8
0
 62
256
370
-1
  6
ByLayer
 10
26.348076211353316
 20
9.397114317029974
 30
0.0
 11
1.4999999999999982
 21
0.0
 31
0.0
 40
0.5000000000000006
 41
0.0
 42
6.2831853071795862
  0
ELLIPSE
  5
10D
100
AcDbEntity
100
AcDbEllipse
  8
0
 62
256
370
-1
  6
ByLayer
 10
26.348076211353316
 20
5.5
 30
0.0
 11
1.5
 21
0.0
 31
0.0
 40
0.5
 41
3.1415926535897931
 42
0.0
  0
ELLIPSE
  5
10E
100
AcDbEntity
100
AcDbEllipse
  8
0
 62
256
370
-1
  6
ByLayer
 10
26.348076211353316
 20
11.5
 30
0.0
 11
1.5
 21
0.0
 31
0.0
 40
0.5000000000000001
 41
3.1415926535897931
 42
0.0
  0
LINE
  5
10F
100
AcDbEntity
100
AcDbLine
  8
0
 62
256
370
-1
  6
ByLayer
 10
24.848076211353316
 20
13.0580129132455376
 30
0.0
 11
25.598076211353316
 21
13.0580129132455376
 31
0.0
  0
LINE
  5
110
100
AcDbEntity
100
AcDbLine
  8
0
 62
256
370
-1
  6
ByLayer
 10
24.848076211353316
 20
12.6830129132455358
 30
0.0
 11
25.598076211353316
 21
12.6830129132455358
 31
0.0
  0
LINE
  5
111
100
AcDbEntity
100
AcDbLine
  8
0
 62
256
370
-1
  6
ByLayer
 10
24.848076211353316
 20
10.4754810000000003
 30
0.0
 11
25.598076211353316
 21
10.4754810000000003
 31
0.0
  0
LINE
  5
112
100
AcDbEntity
100
AcDbLine
  8
0
 62
256
370
-1
  6
ByLayer
 10
24.848076211353316
 20
7.0580129132455358
 30
0.0
 11
25.598076211353316
 21
7.0580129132455358
 31
0.0
  0
LINE
  5
113
100
AcDbEntity
100
AcDbLine
  8
0
 62
256
370
-1
  6
ByLayer
 10
24.848076211353316
 20
6.6830129132455358
 30
0.0
 11
25.598076211353316
 21
6.6830129132455358
 31
0.0
  0
LINE
  5
114
100
AcDbEntity
100
AcDbLine
  8
0
 62
256
370
-1
  6
ByLayer
 10
24.848076211353316
 20
4.4754809999999994
 30
0.0
 11
25.598076211353316
 21
4.4754809999999994
 31
0.0
  0
LINE
  5
115
100
AcDbEntity
100
AcDbLine
  8
HiddenLines
 62
256
370
-1
  6
ByLayer
 10
24.848076211353316
 20
4.8504810000000003
 30
0.0
 11
25.598076211353316
 21
4.8504810000000003
 31
0.0
  0
LINE
  5
116
100
AcDbEntity
100
AcDbLine
  8
HiddenLines
 62
256
370
-1
  6
ByLayer
 10
24.848076211353316
 20
10.8504810000000003
 30
0.0
 11
25.598076211353316
 21
10.8504810000000003
 31
0.0
  0
LINE
  5
117
100
AcDbEntity
100
AcDbLine
  8
0
 62
256
370
-1
  6
ByLayer
 10
27.848076211353316
 20
13.0580129132455376
 30
0.0
 11
27.098076211353316
 21
13.0580129132455376
 31
0.0
  0
LINE
  5
118
100
AcDbEntity
100
AcDbLine
  8
0
 62
256
370
-1
  6
ByLayer
 10
27.848076211353316
 20
12.6830129132455358
 30
0.0
 11
27.098076211353316
 21
12.6830129132455358
 31
0.0
  0
LINE
  5
119
100
AcDbEntity
100
AcDbLine
  8
0
 62
256
370
-1
  6
ByLayer
 10
27.848076211353316
 20
10.4754810000000003
 30
0.0
 11
27.098076211353316
 21
10.4754810000000003
 31
0.0
  0
LINE
  5
11A
100
AcDbEntity
100
AcDbLine
  8
HiddenLines
 62
256
370
-1
  6
ByLayer
 10
27.848076211353316
 20
10.8504810000000003
 30
0.0
 11
27.098076211353316
 21
10.8504810000000003
 31
0.0
  0
LINE
  5
11B
100
AcDbEntity
100
AcDbLine
  8
0
 62
256
370
-1
  6
ByLayer
 10
27.848076211353316
 20
7.0580129132455358
 30
0.0
 11
27.098076211353316
 21
7.0580129132455358
 31
0.0
  0
LINE
  5
11C
100
AcDbEntity
100
AcDbLine
  8
0
 62
256
370
-1
  6
ByLayer
 10
27.848076211353316
 20
6.6830129132455358
 30
0.0
 11
27.098076211353316
 21
6.6830129132455358
 31
0.0
  0
LINE
  5
11D
100
AcDbEntity
100
AcDbLine
  8
0
 62
256
370
-1
  6
ByLayer
 10
27.848076211353316
 20
4.4754809999999994
 30
0.0
 11
27.098076211353316
 21
4.4754809999999994
 31
0.0
  0
LINE
  5
11E
100
AcDbEntity
100
AcDbLine
  8
HiddenLines
 62
256
370
-1
  6
ByLayer
 10
27.848076211353316
 20
4.8504810000000003
 30
0.0
 11
27.098076211353316
 21
4.8504810000000003
 31
0.0
  0
LINE
  5
11F
100
AcDbEntity
100
AcDbLine
  8
0
 62
256
370
-1
  6
ByLayer
 10
25.598076211353316
 20
13.0580129132455376
 30
0.0
 11
25.598076211353316
 21
10.4754810000000003
 31
0.0
  0
LINE
  5
120
100
AcDbEntity
100
AcDbLine
  8
0
 62
256
370
-1
  6
ByLayer
 10
27.098076211353316
 20
13.0580129132455376
 30
0.0
 11
27.098076211353316
 21
10.4754810000000003
 31
0.0
  0
LINE
  5
121
100
AcDbEntity
100
AcDbLine
  8
0
 62
256
370
-1
  6
ByLayer
 10
25.598076211353316
 20
7.0580129132455358
 30
0.0
 11
25.598076211353316
 21
4.4754809999999994
 31
0.0
  0
LINE
  5
122
100
AcDbEntity
100
AcDbLine
  8
0
 62
256
370
-1
  6
ByLayer
 10
27.098076211353316
 20
7.0580129132455358
 30
0.0
 11
27.098076211353316
 21
4.4754809999999994
 31
0.0
  0
ELLIPSE
  5
123
100
AcDbEntity
100
AcDbEllipse
  8
HiddenLines
 62
256
370
-1
  6
ByLayer
 10
26.348076211353316
 20
11.5
 30
0.0
 11
1.4999999999999964
 21
0.0000000735774291
 31
0.0
 40
0.5000000000000037
 41
0.0
 42
3.1415926535897931
  0
ELLIPSE
  5
124
100
AcDbEntity
100
AcDbEllipse
  8
HiddenLines
 62
256
370
-1
  6
ByLayer
 10
26.348076211353316
 20
5.5
 30
0.0
 11
1.5
 21
0.0
 31
0.0
 40
0.5
 41
0.0
 42
3.1415926535897931
  0
LINE
  5
125
100
AcDbEntity
100
AcDbLine
  8
HiddenLines
 62
256
370
-1
  6
ByLayer
 10
24.848076211353316
 20
5.5438566201357355
 30
0.0
 11
27.848076211353316
 21
5.5438566201357355
 31
0.0
  0
LINE
  5
126
100
AcDbEntity
100
AcDbLine
  8
HiddenLines
 62
256
370
-1
  6
ByLayer
 10
24.848076211353316
 20
5.1688566201357373
 30
0.0
 11
27.848076211353316
 21
5.1688566201357373
 31
0.0
  0
LINE
  5
127
100
AcDbEntity
100
AcDbLine
  8
HiddenLines
 62
256
370
-1
  6
ByLayer
 10
24.848076211353316
 20
4.5193375672974065
 30
0.0
 11
27.848076211353316
 21
4.5193375672974065
 31
0.0
  0
LINE
  5
128
100
AcDbEntity
100
AcDbLine
  8
HiddenLines
 62
256
370
-1
  6
ByLayer
 10
24.8506429513537093
 20
11.54385662013574
 30
0.0
 11
27.845509477806651
 21
11.5438566201357382
 31
0.0
  0
LINE
  5
129
100
AcDbEntity
100
AcDbLine
  8
HiddenLines
 62
256
370
-1
  6
ByLayer
 10
24.848076211353316
 20
11.1688566201357347
 30
0.0
 11
27.848076211353316
 21
11.1688566201357347
 31
0.0
  0
LINE
  5
12A
100
AcDbEntity
100
AcDbLine
  8
HiddenLines
 62
256
370
-1
  6
ByLayer
 10
24.848076211353316
 20
10.5193375672974057
 30
0.0
 11
27.848076211353316
 21
10.5193375672974057
 31
0.0
  0
LINE
  5
12B
100
AcDbEntity
100
AcDbLine
  8
0
 62
256
370
-1
  6
ByLayer
 10
22.098076211353316
 20
-0.4806624327025935
 30
0.0
 11
22.098076211353316
 21
-1.2306624327025935
 31
0.0
  0
LINE
  5
12C
100
AcDbEntity
100
AcDbLine
  8
0
 62
256
370
-1
  6
ByLayer
 10
30.598076211353316
 20
-0.4806624327025935
 30
0.0
 11
30.598076211353316
 21
-1.2306624327025935
 31
0.0
  0
LINE
  5
12D
100
AcDbEntity
100
AcDbLine
  8
0
 62
256
370
-1
  6
ByLayer
 10
30.598076211353316
 20
-1.2306624327025935
 30
0.0
 11
22.098076211353316
 21
-1.2306624327025935
 31
0.0
  0
LINE
  5
12E
100
AcDbEntity
100
AcDbLine
  8
0
 62
256
370
-1
  6
ByLayer
 10
30.598076211353316
 20
-0.4806624327025935
 30
0.0
 11
22.098076211353316
 21
-0.4806624327025935
 31
0.0
  0
LINE
  5
12F
100
AcDbEntity
100
AcDbLine
  8
0
 62
256
370
-1
  6
ByLayer
 10
24.848076211353316
 20
-0.4806624327025935
 30
0.0
 11
24.098076211353316
 21
-0.4806624327025935
 31
0.0
  0
LINE
  5
130
100
AcDbEntity
100
AcDbLine
  8
0
 62
256
370
-1
  6
ByLayer
 10
28.598076211353316
 20
-0.4806624327025935
 30
0.0
 11
27.848076211353316
 21
-0.4806624327025935
 31
0.0
  0
MTEXT
  5
131
100
AcDbEntity
100
AcDbMText
  8
Dimensions
 62
256
370
-1
  6
ByLayer
 10
24.850603309446047
 20
-2.2947797603962035
 30
0.0
 40
0.5
 41
100.0
 71
1
 72
2
  1
Front View
  7
iso
 50
0.0
 73
0
 44
1.0
  0
LINE
  5
132
100
AcDbEntity
100
AcDbLine
  8
HiddenLines
 62
256
370
-1
  6
ByLayer
 10
25.848076211353316
 20
-0.4806624327025935
 30
0.0
 11
25.848076211353316
 21
-1.2306624327025935
 31
0.0
  0
LINE
  5
133
100
AcDbEntity
100
AcDbLine
  8
HiddenLines
 62
256
370
-1
  6
ByLayer
 10
26.848076211353316
 20
-1.2306624327025935
 30
0.0
 11
26.848076211353316
 21
-0.4806624327025935
 31
0.0
  0
LINE
  5
134
100
AcDbEntity
100
AcDbLine
  8
0
 62
256
370
-1
  6
ByLayer
 10
22.098076211353316
 20
-1.2306624327025935
 30
0.0
 11
22.098076211353316
 21
-4.7306624327025935
 31
0.0
  0
LINE
  5
135
100
AcDbEntity
100
AcDbLine
  8
0
 62
256
370
-1
  6
ByLayer
 10
30.598076211353316
 20
-1.2306624327025935
 30
0.0
 11
30.598076211353316
 21
-4.7306624327025935
 31
0.0
  0
LINE
  5
136
100
AcDbEntity
100
AcDbLine
  8
0
 62
256
370
-1
  6
ByLayer
 10
22.848076211353316
 20
-1.2306624327025937
 30
0.0
 11
22.848076211353316
 21
-4.7306624327025935
 31
0.0
  0
LINE
  5
137
100
AcDbEntity
100
AcDbLine
  8
0
 62
256
370
-1
  6
ByLayer
 10
29.848076211353316
 20
-1.2306624327025932
 30
0.0
 11
29.848076211353316
 21
-4.7306624327025935
 31
0.0
  0
LINE
  5
138
100
AcDbEntity
100
AcDbLine
  8
0
 62
256
370
-1
  6
ByLayer
 10
22.098076211353316
 20
-4.7306624327025935
 30
0.0
 11
22.848076211353316
 21
-4.7306624327025935
 31
0.0
  0
LINE
  5
139
100
AcDbEntity
100
AcDbLine
  8
0
 62
256
370
-1
  6
ByLayer
 10
29.848076211353316
 20
-4.7306624327025935
 30
0.0
 11
30.598076211353316
 21
-4.7306624327025935
 31
0.0
  0
DIMENSION
  5
13A
100
AcDbEntity
  8
Dimensions
 62
256
370
-1
  6
ByLayer
100
AcDbDimension
 10
31.8447161183151479
 20
-4.7306624327025935
 30
0.0
 11
31.5947161183151479
 21
-2.9806624327025935
 31
0.0
 70
0
 71
5
 72
0
 41
1.0
 42
0.0
  1

  3
Standard
100
AcDbAlignedDimension
 13
30.598076211353316
 23
-1.2306624327025935
 33
0.0
 14
30.598076211353316
 24
-4.7306624327025935
 34
0.0
 50
90.0
100
AcDbRotatedDimension
  0
LINE
  5
13B
100
AcDbEntity
100
AcDbLine
  8
0
 62
256
370
-1
  6
ByLayer
 10
24.848076211353316
 20
3.5193375672974065
 30
0.0
 11
27.848076211353316
 21
3.5193375672974065
 31
0.0
  0
LINE
  5
13C
100
AcDbEntity
100
AcDbLine
  8
0
 62
256
370
-1
  6
ByLayer
 10
24.848076211353316
 20
32.147114317029974
 30
0.0
 11
27.848076211353316
 21
32.147114317029974
 31
0.0
  0
LINE
  5
13D
100
AcDbEntity
100
AcDbLine
  8
0
 62
256
370
-1
  6
ByLayer
 10
24.848076211353316
 20
31.397114317029974
 30
0.0
 11
27.848076211353316
 21
31.397114317029974
 31
0.0
  0
LINE
  5
13E
100
AcDbEntity
100
AcDbLine
  8
0
 62
256
370
-1
  6
ByLayer
 10
24.098076211353316
 20
32.147114317029974
 30
0.0
 11
24.848076211353316
 21
32.147114317029974
 31
0.0
  0
LINE
  5
13F
100
AcDbEntity
100
AcDbLine
  8
0
 62
256
370
-1
  6
ByLayer
 10
27.848076211353316
 20
32.147114317029974
 30
0.0
 11
28.598076211353316
 21
32.147114317029974
 31
0.0
  0
LINE
  5
140
100
AcDbEntity
100
AcDbLine
  8
0
 62
256
370
-1
  6
ByLayer
 10
24.098076211353316
 20
-0.4806624327025935
 30
0.0
 11
24.098076211353316
 21
32.147114317029974
 31
0.0
  0
LINE
  5
141
100
AcDbEntity
100
AcDbLine
  8
0
 62
256
370
-1
  6
ByLayer
 10
24.848076211353316
 20
32.147114317029974
 30
0.0
 11
24.848076211353316
 21
-0.4806624327025935
 31
0.0
  0
LINE
  5
142
100
AcDbEntity
100
AcDbLine
  8
0
 62
256
370
-1
  6
ByLayer
 10
28.598076211353316
 20
32.147114317029974
 30
0.0
 11
28.598076211353316
 21
-0.4806624327025935
 31
0.0
  0
LINE
  5
143
100
AcDbEntity
100
AcDbLine
  8
0
 62
256
370
-1
  6
ByLayer
 10
27.848076211353316
 20
-0.4806624327025935
 30
0.0
 11
27.848076211353316
 21
32.147114317029974
 31
0.0
  0
ELLIPSE
  5
144
100
AcDbEntity
100
AcDbEllipse
  8
0
 62
256
370
-1
  6
ByLayer
 10
26.348076211353316
 20
27.397114317029974
 30
0.0
 11
1.5
 21
0.0
 31
0.0
 40
0.5
 41
0.0
 42
6.2831853071795862
  0
ELLIPSE
  5
145
100
AcDbEntity
100
AcDbEllipse
  8
0
 62
256
370
-1
  6
ByLayer
 10
26.348076211353316
 20
21.397114317029974
 30
0.0
 11
1.4999999999999982
 21
0.0
 31
0.0
 40
0.5000000000000006
 41
0.0
 42
6.2831853071795862
  0
ELLIPSE
  5
146
100
AcDbEntity
100
AcDbEllipse
  8
0
 62
256
370
-1
  6
ByLayer
 10
26.348076211353316
 20
17.5
 30
0.0
 11
1.5
 21
0.0
 31
0.0
 40
0.5
 41
3.1415926535897931
 42
0.0
  0
ELLIPSE
  5
147
100
AcDbEntity
100
AcDbEllipse
  8
0
 62
256
370
-1
  6
ByLayer
 10
26.348076211353316
 20
23.5
 30
0.0
 11
1.5
 21
0.0
 31
0.0
 40
0.5000000000000001
 41
3.1415926535897931
 42
0.0
  0
LINE
  5
148
100
AcDbEntity
100
AcDbLine
  8
0
 62
256
370
-1
  6
ByLayer
 10
24.848076211353316
 20
25.0580129132455376
 30
0.0
 11
25.598076211353316
 21
25.0580129132455376
 31
0.0
  0
LINE
  5
149
100
AcDbEntity
100
AcDbLine
  8
0
 62
256
370
-1
  6
ByLayer
 10
24.848076211353316
 20
24.683012913245534
 30
0.0
 11
25.598076211353316
 21
24.683012913245534
 31
0.0
  0
LINE
  5
14A
100
AcDbEntity
100
AcDbLine
  8
0
 62
256
370
-1
  6
ByLayer
 10
24.848076211353316
 20
22.475481000000002
 30
0.0
 11
25.598076211353316
 21
22.475481000000002
 31
0.0
  0
LINE
  5
14B
100
AcDbEntity
100
AcDbLine
  8
0
 62
256
370
-1
  6
ByLayer
 10
24.848076211353316
 20
19.058012913245534
 30
0.0
 11
25.598076211353316
 21
19.058012913245534
 31
0.0
  0
LINE
  5
14C
100
AcDbEntity
100
AcDbLine
  8
0
 62
256
370
-1
  6
ByLayer
 10
24.848076211353316
 20
18.683012913245534
 30
0.0
 11
25.598076211353316
 21
18.683012913245534
 31
0.0
  0
LINE
  5
14D
100
AcDbEntity
100
AcDbLine
  8
0
 62
256
370
-1
  6
ByLayer
 10
24.848076211353316
 20
16.4754809999999985
 30
0.0
 11
25.598076211353316
 21
16.4754809999999985
 31
0.0
  0
LINE
  5
14E
100
AcDbEntity
100
AcDbLine
  8
HiddenLines
 62
256
370
-1
  6
ByLayer
 10
24.848076211353316
 20
16.850481000000002
 30
0.0
 11
25.598076211353316
 21
16.850481000000002
 31
0.0
  0
LINE
  5
14F
100
AcDbEntity
100
AcDbLine
  8
HiddenLines
 62
256
370
-1
  6
ByLayer
 10
24.848076211353316
 20
22.850481000000002
 30
0.0
 11
25.598076211353316
 21
22.850481000000002
 31
0.0
  0
LINE
  5
150
100
AcDbEntity
100
AcDbLine
  8
0
 62
256
370
-1
  6
ByLayer
 10
27.848076211353316
 20
25.0580129132455376
 30
0.0
 11
27.098076211353316
 21
25.0580129132455376
 31
0.0
  0
LINE
  5
151
100
AcDbEntity
100
AcDbLine
  8
0
 62
256
370
-1
  6
ByLayer
 10
27.848076211353316
 20
24.683012913245534
 30
0.0
 11
27.098076211353316
 21
24.683012913245534
 31
0.0
  0
LINE
  5
152
100
AcDbEntity
100
AcDbLine
  8
0
 62
256
370
-1
  6
ByLayer
 10
27.848076211353316
 20
22.475481000000002
 30
0.0
 11
27.098076211353316
 21
22.475481000000002
 31
0.0
  0
LINE
  5
153
100
AcDbEntity
100
AcDbLine
  8
HiddenLines
 62
256
370
-1
  6
ByLayer
 10
27.848076211353316
 20
22.850481000000002
 30
0.0
 11
27.098076211353316
 21
22.850481000000002
 31
0.0
  0
LINE
  5
154
100
AcDbEntity
100
AcDbLine
  8
0
 62
256
370
-1
  6
ByLayer
 10
27.848076211353316
 20
19.058012913245534
 30
0.0
 11
27.098076211353316
 21
19.058012913245534
 31
0.0
  0
LINE
  5
155
100
AcDbEntity
100
AcDbLine
  8
0
 62
256
370
-1
  6
ByLayer
 10
27.848076211353316
 20
18.683012913245534
 30
0.0
 11
27.098076211353316
 21
18.683012913245534
 31
0.0
  0
LINE
  5
156
100
AcDbEntity
100
AcDbLine
  8
0
 62
256
370
-1
  6
ByLayer
 10
27.848076211353316
 20
16.4754809999999985
 30
0.0
 11
27.098076211353316
 21
16.4754809999999985
 31
0.0
  0
LINE
  5
157
100
AcDbEntity
100
AcDbLine
  8
HiddenLines
 62
256
370
-1
  6
ByLayer
 10
27.848076211353316
 20
16.850481000000002
 30
0.0
 11
27.098076211353316
 21
16.850481000000002
 31
0.0
  0
LINE
  5
158
100
AcDbEntity
100
AcDbLine
  8
0
 62
256
370
-1
  6
ByLayer
 10
25.598076211353316
 20
25.0580129132455376
 30
0.0
 11
25.598076211353316
 21
22.475481000000002
 31
0.0
  0
LINE
  5
159
100
AcDbEntity
100
AcDbLine
  8
0
 62
256
370
-1
  6
ByLayer
 10
27.098076211353316
 20
25.0580129132455376
 30
0.0
 11
27.098076211353316
 21
22.475481000000002
 31
0.0
  0
LINE
  5
15A
100
AcDbEntity
100
AcDbLine
  8
0
 62
256
370
-1
  6
ByLayer
 10
25.598076211353316
 20
19.058012913245534
 30
0.0
 11
25.598076211353316
 21
16.4754809999999985
 31
0.0
  0
LINE
  5
15B
100
AcDbEntity
100
AcDbLine
  8
0
 62
256
370
-1
  6
ByLayer
 10
27.098076211353316
 20
19.058012913245534
 30
0.0
 11
27.098076211353316
 21
16.4754809999999985
 31
0.0
  0
ELLIPSE
  5
15C
100
AcDbEntity
100
AcDbEllipse
  8
HiddenLines
 62
256
370
-1
  6
ByLayer
 10
26.348076211353316
 20
23.5
 30
0.0
 11
1.4999999999999964
 21
0.0000000735774291
 31
0.0
 40
0.5000000000000037
 41
0.0
 42
3.1415926535897931
  0
ELLIPSE
  5
15D
100
AcDbEntity
100
AcDbEllipse
  8
HiddenLines
 62
256
370
-1
  6
ByLayer
 10
26.348076211353316
 20
17.5
 30
0.0
 11
1.5
 21
0.0
 31
0.0
 40
0.5
 41
0.0
 42
3.1415926535897931
  0
LINE
  5
15E
100
AcDbEntity
100
AcDbLine
  8
HiddenLines
 62
256
370
-1
  6
ByLayer
 10
24.848076211353316
 20
17.5438566201357347
 30
0.0
 11
27.848076211353316
 21
17.5438566201357347
 31
0.0
  0
LINE
  5
15F
100
AcDbEntity
100
AcDbLine
  8
HiddenLines
 62
256
370
-1
  6
ByLayer
 10
24.848076211353316
 20
17.1688566201357382
 30
0.0
 11
27.848076211353316
 21
17.1688566201357382
 31
0.0
  0
LINE
  5
160
100
AcDbEntity
100
AcDbLine
  8
HiddenLines
 62
256
370
-1
  6
ByLayer
 10
24.848076211353316
 20
16.5193375672974057
 30
0.0
 11
27.848076211353316
 21
16.5193375672974057
 31
0.0
  0
LINE
  5
161
100
AcDbEntity
100
AcDbLine
  8
HiddenLines
 62
256
370
-1
  6
ByLayer
 10
24.8506429513537093
 20
23.5438566201357418
 30
0.0
 11
27.845509477806651
 21
23.5438566201357382
 31
0.0
  0
LINE
  5
162
100
AcDbEntity
100
AcDbLine
  8
HiddenLines
 62
256
370
-1
  6
ByLayer
 10
24.848076211353316
 20
23.1688566201357347
 30
0.0
 11
27.848076211353316
 21
23.1688566201357347
 31
0.0
  0
LINE
  5
163
100
AcDbEntity
100
AcDbLine
  8
HiddenLines
 62
256
370
-1
  6
ByLayer
 10
24.848076211353316
 20
22.5193375672974057
 30
0.0
 11
27.848076211353316
 21
22.5193375672974057
 31
0.0
  0
DIMENSION
  5
164
100
AcDbEntity
  8
Dimensions
 62
256
370
-1
  6
ByLayer
100
AcDbDimension
 10
30.3668614671519634
 20
-0.4806624327025937
 30
0.0
 11
30.1168614671519634
 21
15.8332259421636934
 31
0.0
 70
0
 71
5
 72
1
 41
1.0
 42
0.0
  1

  3
Standard
100
AcDbAlignedDimension
 13
28.598076211353316
 23
32.147114317029974
 33
0.0
 14
28.598076211353316
 24
-0.4806624327025935
 34
0.0
 50
90.0
100
AcDbRotatedDimension
  0
DIMENSION
  5
165
100
AcDbEntity
  8
Dimensions
 62
256
370
-1
  6
ByLayer
100
AcDbDimension
 10
27.848076211353316
 20
32.6728675395983785
 30
0.0
 11
26.348076211353316
 21
32.9228675395983785
 31
0.0
 70
0
 71
5
 72
1
 41
1.0
 42
0.0
  1

  3
Standard
100
AcDbAlignedDimension
 13
24.848076211353316
 23
32.147114317029974
 33
0.0
 14
27.848076211353316
 24
32.147114317029974
 34
0.0
 50
0.0
100
AcDbRotatedDimension
  0
DIMENSION
  5
166
100
AcDbEntity
  8
Dimensions
 62
256
370
-1
  6
ByLayer
100
AcDbDimension
 10
28.598076211353316
 20
33.4222452354607213
 30
0.0
 11
26.348076211353316
 21
33.6722452354607213
 31
0.0
 70
0
 71
5
 72
1
 41
1.0
 42
0.0
  1

  3
Standard
100
AcDbAlignedDimension
 13
24.098076211353316
 23
32.147114317029974
 33
0.0
 14
28.598076211353316
 24
32.147114317029974
 34
0.0
 50
0.0
100
AcDbRotatedDimension
  0
DIMENSION
  5
167
100
AcDbEntity
  8
Dimensions
 62
256
370
-1
  6
ByLayer
100
AcDbDimension
 10
30.598076211353316
 20
-5.9563080191111357
 30
0.0
 11
26.348076211353316
 21
-5.7063080191111357
 31
0.0
 70
0
 71
5
 72
1
 41
1.0
 42
0.0
  1

  3
Standard
100
AcDbAlignedDimension
 13
22.098076211353316
 23
-4.7306624327025935
 33
0.0
 14
30.598076211353316
 24
-4.7306624327025935
 34
0.0
 50
0.0
100
AcDbRotatedDimension
  0
DIMENSION
  5
168
100
AcDbEntity
  8
Dimensions
 62
256
370
-1
  6
ByLayer
100
AcDbDimension
 10
5.4999999999999991
 20
33.1369260046722971
 30
0.0
 11
3.75
 21
33.3869260046722971
 31
0.0
 70
0
 71
5
 72
1
 41
1.0
 42
0.0
  1

  3
Standard
100
AcDbAlignedDimension
 13
2.0
 23
32.147114317029974
 33
0.0
 14
5.4999999999999991
 24
32.147114317029974
 34
0.0
 50
0.0
100
AcDbRotatedDimension
  0
ENDSEC
  0
SECTION
  2
OBJECTS
  0
DICTIONARY
  5
C
100
AcDbDictionary
280
0
281
1
  3
ACAD_GROUP
350
D
  3
ACAD_LAYOUT
350
1A
  3
ACAD_MLINESTYLE
350
17
  3
ACAD_PLOTSETTINGS
350
19
  3
ACAD_PLOTSTYLENAME
350
E
  3
AcDbVariableDictionary
350
169
  0
DICTIONARY
  5
D
100
AcDbDictionary
280
0
281
1
  0
ACDBDICTIONARYWDFLT
  5
E
100
AcDbDictionary
281
1
  3
Normal
350
F
100
AcDbDictionaryWithDefault
340
F
  0
ACDBPLACEHOLDER
  5
F
  0
DICTIONARY
  5
17
100
AcDbDictionary
280
0
281
1
  3
Standard
350
18
  0
MLINESTYLE
  5
18
100
AcDbMlineStyle
  2
STANDARD
 70
0
  3

 62
256
 51
90.0
 52
90.0
 71
2
 49
0.5
 62
256
  6
BYLAYER
 49
-0.5
 62
256
  6
BYLAYER
  0
DICTIONARY
  5
19
100
AcDbDictionary
280
0
281
1
  0
DICTIONARY
  5
1A
100
AcDbDictionary
281
1
  3
Layout1
350
1E
  3
Layout2
350
26
  3
Model
350
22
  0
LAYOUT
  5
1E
100
AcDbPlotSettings
  1

  2
C:\Program Files\AutoCAD 2002\plotters\DWF ePlot (optimized for plotting).pc3
  4

  6

 40
0.0
 41
0.0
 42
0.0
 43
0.0
 44
0.0
 45
0.0
 46
0.0
 47
0.0
 48
0.0
 49
0.0
140
0.0
141
0.0
142
1.0
143
1.0
 70
688
 72
0
 73
0
 74
5
  7

 75
16
147
1.0
148
0.0
149
0.0
100
AcDbLayout
  1
Layout1
 70
1
 71
1
 10
0.0
 20
0.0
 11
420.0
 21
297.0
 12
0.0
 22
0.0
 32
0.0
 14
100000000000000000000.0
 24
100000000000000000000.0
 34
100000000000000000000.0
 15
-100000000000000000000.0
 25
-100000000000000000000.0
 35
-100000000000000000000.0
146
0.0
 13
0.0
 23
0.0
 33
0.0
 16
1.0
 26
0.0
 36
0.0
 17
0.0
 27
1.0
 37
0.0
 76
0
330
1B
  0
LAYOUT
  5
22
100
AcDbPlotSettings
  1

  2
C:\Program Files\AutoCAD 2002\plotters\DWF ePlot (optimized for plotting).pc3
  4

  6

 40
0.0
 41
0.0
 42
0.0
 43
0.0
 44
0.0
 45
0.0
 46
0.0
 47
0.0
 48
0.0
 49
0.0
140
0.0
141
0.0
142
1.0
143
1.0
 70
1712
 72
0
 73
0
 74
0
  7

 75
0
147
1.0
148
0.0
149
0.0
100
AcDbLayout
  1
Model
 70
1
 71
0
 10
0.0
 20
0.0
 11
12.0
 21
9.0
 12
0.0
 22
0.0
 32
0.0
 14
0.0
 24
0.0
 34
0.0
 15
0.0
 25
0.0
 35
0.0
146
0.0
 13
0.0
 23
0.0
 33
0.0
 16
1.0
 26
0.0
 36
0.0
 17
0.0
 27
1.0
 37
0.0
 76
0
330
1F
  0
LAYOUT
  5
26
100
AcDbPlotSettings
  1

  2
C:\Program Files\AutoCAD 2002\plotters\DWF ePlot (optimized for plotting).pc3
  4

  6

 40
0.0
 41
0.0
 42
0.0
 43
0.0
 44
0.0
 45
0.0
 46
0.0
 47
0.0
 48
0.0
 49
0.0
140
0.0
141
0.0
142
1.0
143
1.0
 70
688
 72
0
 73
0
 74
5
  7

 75
16
147
1.0
148
0.0
149
0.0
100
AcDbLayout
  1
Layout2
 70
1
 71
2
 10
0.0
 20
0.0
 11
12.0
 21
9.0
 12
0.0
 22
0.0
 32
0.0
 14
0.0
 24
0.0
 34
0.0
 15
0.0
 25
0.0
 35
0.0
146
0.0
 13
0.0
 23
0.0
 33
0.0
 16
1.0
 26
0.0
 36
0.0
 17
0.0
 27
1.0
 37
0.0
 76
0
330
23
  0
DICTIONARY
  5
169
100
AcDbDictionary
281
1
  3
DIMASSOC
350
16B
  3
HIDETEXT
350
16A
  0
DICTIONARYVAR
  5
16A
100
DictionaryVariables
280
0
  1
2
  0
DICTIONARYVAR
  5
16B
100
DictionaryVariables
280
0
  1
1
  0
ENDSEC
  0
EOF
