999
dxflib 2.2.0.0
  0
SECTION
  2
HEADER
  9
$ACADVER
  1
AC1015
  9
$HANDSEED
  5
FFFF
  9
$SPLINESEGS
 70
8
  9
$DIMEXE
 40
0.125
  9
$DIMLUNIT
 70
5
  9
$GRIDMODE
 70
1
  9
$INSUNITS
 70
1
  9
$DIMADEC
 70
2
  9
$DIMASZ
 40
0.5
  9
$DIMGAP
 40
0.05
  9
$DIMTXT
 40
0.4
  9
$GRIDUNIT
 10
0.0
 20
0.0
  9
$DIMEXO
 40
0.05
  9
$LUPREC
 70
4
  9
$DIMAUNIT
 70
0
  9
$AUPREC
 70
2
  9
$PLIMMIN
 10
0.0
 20
0.0
  9
$LUNITS
 70
5
  9
$PLIMMAX
 10
8.5
 20
11.0
  9
$DIMSTYLE
  2
Standard
  9
$AUNITS
 70
0
  0
ENDSEC
  0
SECTION
  2
TABLES
  0
TABLE
  2
VPORT
  5
8
100
AcDbSymbolTable
 70
1
  0
VPORT
  5
30
100
AcDbSymbolTableRecord
100
AcDbViewportTableRecord
  2
*Active
 70
0
 10
0.0
 20
0.0
 11
1.0
 21
1.0
 12
286.3055555555554861
 22
148.5
 13
0.0
 23
0.0
 14
10.0
 24
10.0
 15
10.0
 25
10.0
 16
0.0
 26
0.0
 36
1.0
 17
0.0
 27
0.0
 37
0.0
 40
297.0
 41
1.92798353909465
 42
50.0
 43
0.0
 44
0.0
 50
0.0
 51
0.0
 71
0
 72
100
 73
1
 74
3
 75
1
 76
1
 77
0
 78
0
281
0
 65
1
110
0.0
120
0.0
130
0.0
111
1.0
121
0.0
131
0.0
112
0.0
122
1.0
132
0.0
 79
0
146
0.0
  0
ENDTAB
  0
TABLE
  2
LTYPE
  5
5
100
AcDbSymbolTable
 70
21
  0
LTYPE
  5
14
100
AcDbSymbolTableRecord
100
AcDbLinetypeTableRecord
  2
ByBlock
 70
0
  3

 72
65
 73
0
 40
0.0
  0
LTYPE
  5
15
100
AcDbSymbolTableRecord
100
AcDbLinetypeTableRecord
  2
ByLayer
 70
0
  3

 72
65
 73
0
 40
0.0
  0
LTYPE
  5
16
100
AcDbSymbolTableRecord
100
AcDbLinetypeTableRecord
  2
CONTINUOUS
 70
0
  3
Solid line
 72
65
 73
0
 40
0.0
  0
LTYPE
  5
31
100
AcDbSymbolTableRecord
100
AcDbLinetypeTableRecord
  2
DOT
 70
0
  3
Dot . . . . . . . . . . . . . . . . . . . . . .
 72
65
 73
2
 40
6.3499999999999996
 49
0.0
 74
0
 49
-6.3499999999999996
 74
0
  0
LTYPE
  5
32
100
AcDbSymbolTableRecord
100
AcDbLinetypeTableRecord
  2
DOT2
 70
0
  3
Dot (.5x) .....................................
 72
65
 73
2
 40
3.1749999999999998
 49
0.0
 74
0
 49
-3.1749999999999998
 74
0
  0
LTYPE
  5
33
100
AcDbSymbolTableRecord
100
AcDbLinetypeTableRecord
  2
DOTX2
 70
0
  3
Dot (2x) .  .  .  .  .  .  .  .  .  .  .  .  .
 72
65
 73
2
 40
12.6999999999999993
 49
0.0
 74
0
 49
-12.6999999999999993
 74
0
  0
LTYPE
  5
34
100
AcDbSymbolTableRecord
100
AcDbLinetypeTableRecord
  2
DASHED
 70
0
  3
Dashed __ __ __ __ __ __ __ __ __ __ __ __ __ _
 72
65
 73
2
 40
19.0500000000000007
 49
12.6999999999999993
 74
0
 49
-6.3499999999999996
 74
0
  0
LTYPE
  5
35
100
AcDbSymbolTableRecord
100
AcDbLinetypeTableRecord
  2
DASHED2
 70
0
  3
Dashed (.5x) _ _ _ _ _ _ _ _ _ _ _ _ _ _ _ _ _
 72
65
 73
2
 40
9.5250000000000004
 49
6.3499999999999996
 74
0
 49
-3.1749999999999998
 74
0
  0
LTYPE
  5
36
100
AcDbSymbolTableRecord
100
AcDbLinetypeTableRecord
  2
DASHEDX2
 70
0
  3
Dashed (2x) ____  ____  ____  ____  ____  ___
 72
65
 73
2
 40
38.1000000000000014
 49
25.3999999999999986
 74
0
 49
-12.6999999999999993
 74
0
  0
LTYPE
  5
37
100
AcDbSymbolTableRecord
100
AcDbLinetypeTableRecord
  2
DASHDOT
 70
0
  3
Dash dot __ . __ . __ . __ . __ . __ . __ . __
 72
65
 73
4
 40
25.3999999999999986
 49
12.6999999999999993
 74
0
 49
-6.3499999999999996
 74
0
 49
0.0
 74
0
 49
-6.3499999999999996
 74
0
  0
LTYPE
  5
38
100
AcDbSymbolTableRecord
100
AcDbLinetypeTableRecord
  2
DASHDOT2
 70
0
  3
Dash dot (.5x) _._._._._._._._._._._._._._._.
 72
65
 73
4
 40
12.6999999999999993
 49
6.3499999999999996
 74
0
 49
-3.1749999999999998
 74
0
 49
0.0
 74
0
 49
-3.1749999999999998
 74
0
  0
LTYPE
  5
39
100
AcDbSymbolTableRecord
100
AcDbLinetypeTableRecord
  2
DASHDOTX2
 70
0
  3
Dash dot (2x) ____  .  ____  .  ____  .  ___
 72
65
 73
4
 40
50.7999999999999972
 49
25.3999999999999986
 74
0
 49
-12.6999999999999993
 74
0
 49
0.0
 74
0
 49
-12.6999999999999993
 74
0
  0
LTYPE
  5
3A
100
AcDbSymbolTableRecord
100
AcDbLinetypeTableRecord
  2
DIVIDE
 70
0
  3
Divide ____ . . ____ . . ____ . . ____ . . ____
 72
65
 73
6
 40
31.75
 49
12.6999999999999993
 74
0
 49
-6.3499999999999996
 74
0
 49
0.0
 74
0
 49
-6.3499999999999996
 74
0
 49
0.0
 74
0
 49
-6.3499999999999996
 74
0
  0
LTYPE
  5
3B
100
AcDbSymbolTableRecord
100
AcDbLinetypeTableRecord
  2
DIVIDE2
 70
0
  3
Divide (.5x) __..__..__..__..__..__..__..__.._
 72
65
 73
6
 40
15.875
 49
6.3499999999999996
 74
0
 49
-3.1749999999999998
 74
0
 49
0.0
 74
0
 49
-3.1749999999999998
 74
0
 49
0.0
 74
0
 49
-3.1749999999999998
 74
0
  0
LTYPE
  5
3C
100
AcDbSymbolTableRecord
100
AcDbLinetypeTableRecord
  2
DIVIDEX2
 70
0
  3
Divide (2x) ________  .  .  ________  .  .  _
 72
65
 73
6
 40
63.5
 49
25.3999999999999986
 74
0
 49
-12.6999999999999993
 74
0
 49
0.0
 74
0
 49
-12.6999999999999993
 74
0
 49
0.0
 74
0
 49
-12.6999999999999993
 74
0
  0
LTYPE
  5
3D
100
AcDbSymbolTableRecord
100
AcDbLinetypeTableRecord
  2
CENTER
 70
0
  3
Center ____ _ ____ _ ____ _ ____ _ ____ _ ____
 72
65
 73
4
 40
50.7999999999999972
 49
31.75
 74
0
 49
-6.3499999999999996
 74
0
 49
6.3499999999999996
 74
0
 49
-6.3499999999999996
 74
0
  0
LTYPE
  5
3E
100
AcDbSymbolTableRecord
100
AcDbLinetypeTableRecord
  2
CENTER2
 70
0
  3
Center (.5x) ___ _ ___ _ ___ _ ___ _ ___ _ ___
 72
65
 73
4
 40
28.5749999999999993
 49
19.0500000000000007
 74
0
 49
-3.1749999999999998
 74
0
 49
3.1749999999999998
 74
0
 49
-3.1749999999999998
 74
0
  0
LTYPE
  5
3F
100
AcDbSymbolTableRecord
100
AcDbLinetypeTableRecord
  2
CENTERX2
 70
0
  3
Center (2x) ________  __  ________  __  _____
 72
65
 73
4
 40
101.5999999999999943
 49
63.5
 74
0
 49
-12.6999999999999993
 74
0
 49
12.6999999999999993
 74
0
 49
-12.6999999999999993
 74
0
  0
LTYPE
  5
40
100
AcDbSymbolTableRecord
100
AcDbLinetypeTableRecord
  2
BORDER
 70
0
  3
Border __ __ . __ __ . __ __ . __ __ . __ __ .
 72
65
 73
6
 40
44.4500000000000028
 49
12.6999999999999993
 74
0
 49
-6.3499999999999996
 74
0
 49
12.6999999999999993
 74
0
 49
-6.3499999999999996
 74
0
 49
0.0
 74
0
 49
-6.3499999999999996
 74
0
  0
LTYPE
  5
41
100
AcDbSymbolTableRecord
100
AcDbLinetypeTableRecord
  2
BORDER2
 70
0
  3
Border (.5x) __.__.__.__.__.__.__.__.__.__.__.
 72
65
 73
6
 40
22.2250000000000014
 49
6.3499999999999996
 74
0
 49
-3.1749999999999998
 74
0
 49
6.3499999999999996
 74
0
 49
-3.1749999999999998
 74
0
 49
0.0
 74
0
 49
-3.1749999999999998
 74
0
  0
LTYPE
  5
42
100
AcDbSymbolTableRecord
100
AcDbLinetypeTableRecord
  2
BORDERX2
 70
0
  3
Border (2x) ____  ____  .  ____  ____  .  ___
 72
65
 73
6
 40
88.9000000000000057
 49
25.3999999999999986
 74
0
 49
-12.6999999999999993
 74
0
 49
25.3999999999999986
 74
0
 49
-12.6999999999999993
 74
0
 49
0.0
 74
0
 49
-12.6999999999999993
 74
0
  0
ENDTAB
  0
TABLE
  2
LAYER
  5
2
100
AcDbSymbolTable
 70
4
  0
LAYER
  5
10
100
AcDbSymbolTableRecord
100
AcDbLayerTableRecord
  2
0
 70
0
 62
7
  6
CONTINUOUS
290
1
370
0
390
F
  0
LAYER
  5
43
100
AcDbSymbolTableRecord
100
AcDbLayerTableRecord
  2
Construction
 70
1
 62
1
  6
DASHDOT2
290
1
370
5
390
F
  0
LAYER
  5
44
100
AcDbSymbolTableRecord
100
AcDbLayerTableRecord
  2
Dimensions
 70
0
 62
8
  6
CONTINUOUS
290
1
370
0
390
F
  0
LAYER
  5
45
100
AcDbSymbolTableRecord
100
AcDbLayerTableRecord
  2
HiddenLines
 70
4
 62
7
  6
DASHED
290
1
370
0
390
F
  0
ENDTAB
  0
TABLE
  2
STYLE
  5
3
100
AcDbSymbolTable
 70
1
  0
STYLE
  5
11
100
AcDbSymbolTableRecord
100
AcDbTextStyleTableRecord
  2
Standard
 70
0
 40
0.0
 41
0.75
 50
0.0
 71
0
 42
2.5
  3
txt
  4

  0
ENDTAB
  0
TABLE
  2
VIEW
  5
6
100
AcDbSymbolTable
 70
0
  0
ENDTAB
  0
TABLE
  2
UCS
  5
7
100
AcDbSymbolTable
 70
0
  0
ENDTAB
  0
TABLE
  2
APPID
  5
9
100
AcDbSymbolTable
 70
1
  0
APPID
  5
12
100
AcDbSymbolTableRecord
100
AcDbRegAppTableRecord
  2
ACAD
 70
0
  0
ENDTAB
  0
TABLE
  2
DIMSTYLE
  5
A
100
AcDbSymbolTable
 70
1
100
AcDbDimStyleTable
 71
0
  0
DIMSTYLE
105
27
100
AcDbSymbolTableRecord
100
AcDbDimStyleTableRecord
  2
Standard
 41
0.5
 42
0.05
 43
3.75
 44
0.125
 70
0
 73
0
 74
0
 77
1
 78
8
140
0.4
141
2.5
143
0.03937007874016
147
0.05
171
3
172
1
271
2
272
2
274
3
278
44
283
0
284
8
340
11
  0
ENDTAB
  0
TABLE
  2
BLOCK_RECORD
  5
1
100
AcDbSymbolTable
 70
1
  0
BLOCK_RECORD
  5
1F
100
AcDbSymbolTableRecord
100
AcDbBlockTableRecord
  2
*Model_Space
340
22
  0
BLOCK_RECORD
  5
1B
100
AcDbSymbolTableRecord
100
AcDbBlockTableRecord
  2
*Paper_Space
340
1E
  0
BLOCK_RECORD
  5
23
100
AcDbSymbolTableRecord
100
AcDbBlockTableRecord
  2
*Paper_Space0
340
26
  0
ENDTAB
  0
ENDSEC
  0
SECTION
  2
BLOCKS
  0
BLOCK
  5
20
100
AcDbEntity
  8
0
100
AcDbBlockBegin
  2
*Model_Space
 70
0
 10
0.0
 20
0.0
 30
0.0
  3
*Model_Space
  1

  0
ENDBLK
  5
21
100
AcDbEntity
  8
0
100
AcDbBlockEnd
  0
BLOCK
  5
1C
100
AcDbEntity
 67
1
  8
0
100
AcDbBlockBegin
  2
*Paper_Space
 70
0
 10
0.0
 20
0.0
 30
0.0
  3
*Paper_Space
  1

  0
ENDBLK
  5
1D
100
AcDbEntity
 67
1
  8
0
100
AcDbBlockEnd
  0
BLOCK
  5
24
100
AcDbEntity
  8
0
100
AcDbBlockBegin
  2
*Paper_Space0
 70
0
 10
0.0
 20
0.0
 30
0.0
  3
*Paper_Space0
  1

  0
ENDBLK
  5
25
100
AcDbEntity
  8
0
100
AcDbBlockEnd
  0
ENDSEC
  0
SECTION
  2
ENTITIES
  0
DIMENSION
  5
46
100
AcDbEntity
  8
Dimensions
 62
256
370
-1
  6
ByLayer
100
AcDbDimension
 10
6.348076211353316
 20
11.9806624327025943
 30
0.0
 11
3.75
 21
16.4806624327025943
 31
0.0
 70
2
 71
5
 72
1
 41
1.0
 42
0.0
  1

  3
Standard
100
AcDb2LineAngularDimension
 13
3.75
 23
10.4806624327025926
 33
0.0
 14
6.3499999999999996
 24
10.4806624327025926
 34
0.0
 15
3.75
 25
10.4806624327025943
 35
0.0
 16
5.75
 26
10.9806624327025926
 36
0.0
  0
CIRCLE
  5
47
100
AcDbEntity
100
AcDbCircle
  8
Construction
 62
256
370
-1
  6
ByLayer
 10
-7.25
 20
19.4806624327025943
 30
0.0
 40
1.5
  0
LINE
  5
48
100
AcDbEntity
100
AcDbLine
  8
Construction
 62
256
370
-1
  6
ByLayer
 10
-7.25
 20
19.4806624327025943
 30
0.0
 11
-2.25
 21
19.4806624327025943
 31
0.0
  0
LINE
  5
49
100
AcDbEntity
100
AcDbLine
  8
Construction
 62
256
370
-1
  6
ByLayer
 10
-7.25
 20
19.4806624327025943
 30
0.0
 11
-12.25
 21
19.4806624327025943
 31
0.0
  0
LINE
  5
4A
100
AcDbEntity
100
AcDbLine
  8
Construction
 62
256
370
-1
  6
ByLayer
 10
-5.75
 20
19.4806624327025943
 30
0.0
 11
-5.75
 21
14.4806624327025943
 31
0.0
  0
LINE
  5
4B
100
AcDbEntity
100
AcDbLine
  8
Construction
 62
256
370
-1
  6
ByLayer
 10
-8.75
 20
19.4806624327025943
 30
0.0
 11
-8.75
 21
14.4806624327025943
 31
0.0
  0
LINE
  5
4C
100
AcDbEntity
100
AcDbLine
  8
Construction
 62
256
370
-1
  6
ByLayer
 10
-8.75
 20
19.4806624327025943
 30
0.0
 11
-8.75
 21
24.4806624327025943
 31
0.0
  0
LINE
  5
4D
100
AcDbEntity
100
AcDbLine
  8
Construction
 62
256
370
-1
  6
ByLayer
 10
-5.75
 20
19.4806624327025943
 30
0.0
 11
-5.75
 21
24.4806624327025943
 31
0.0
  0
LINE
  5
4E
100
AcDbEntity
100
AcDbLine
  8
Construction
 62
256
370
-1
  6
ByLayer
 10
-8.0
 20
19.4806624327025943
 30
0.0
 11
-8.0
 21
14.4806624327025943
 31
0.0
  0
LINE
  5
4F
100
AcDbEntity
100
AcDbLine
  8
Construction
 62
256
370
-1
  6
ByLayer
 10
-8.0
 20
19.4806624327025943
 30
0.0
 11
-8.0
 21
24.4806624327025943
 31
0.0
  0
LINE
  5
50
100
AcDbEntity
100
AcDbLine
  8
Construction
 62
256
370
-1
  6
ByLayer
 10
-6.5
 20
19.4806624327025943
 30
0.0
 11
-6.5
 21
24.4806624327025943
 31
0.0
  0
LINE
  5
51
100
AcDbEntity
100
AcDbLine
  8
Construction
 62
256
370
-1
  6
ByLayer
 10
-6.5
 20
19.4806624327025943
 30
0.0
 11
-6.5
 21
14.4806624327025943
 31
0.0
  0
LINE
  5
52
100
AcDbEntity
100
AcDbLine
  8
Construction
 62
256
370
-1
  6
ByLayer
 10
-8.0
 20
18.1816243270259363
 30
0.0
 11
-8.75
 21
18.1816243270259363
 31
0.0
  0
LINE
  5
53
100
AcDbEntity
100
AcDbLine
  8
Construction
 62
256
370
-1
  6
ByLayer
 10
-6.5
 20
18.1816243270259363
 30
0.0
 11
-5.75
 21
18.1816243270259363
 31
0.0
  0
LINE
  5
54
100
AcDbEntity
100
AcDbLine
  8
Construction
 62
256
370
-1
  6
ByLayer
 10
-8.0
 20
17.4316243270259363
 30
0.0
 11
-8.75
 21
17.4316243270259363
 31
0.0
  0
LINE
  5
55
100
AcDbEntity
100
AcDbLine
  8
Construction
 62
256
370
-1
  6
ByLayer
 10
-6.5
 20
17.4316243270259363
 30
0.0
 11
-5.75
 21
17.4316243270259363
 31
0.0
  0
LINE
  5
56
100
AcDbEntity
100
AcDbLine
  8
HiddenLines
 62
256
370
-1
  6
ByLayer
 10
5.125
 20
11.274519052838329
 30
0.0
 11
5.4999999999999991
 21
10.625
 31
0.0
  0
LINE
  5
57
100
AcDbEntity
100
AcDbLine
  8
HiddenLines
 62
256
370
-1
  6
ByLayer
 10
5.4999999999999991
 20
10.625
 30
0.0
 11
4.8504809471616701
 21
10.25
 31
0.0
  0
LINE
  5
58
100
AcDbEntity
100
AcDbLine
  8
HiddenLines
 62
256
370
-1
  6
ByLayer
 10
4.8504809471616701
 20
10.25
 30
0.0
 11
4.475480947161671
 21
10.899519052838329
 31
0.0
  0
LINE
  5
59
100
AcDbEntity
100
AcDbLine
  8
HiddenLines
 62
256
370
-1
  6
ByLayer
 10
4.475480947161671
 20
10.899519052838329
 30
0.0
 11
5.125
 21
11.274519052838329
 31
0.0
  0
LINE
  5
5A
100
AcDbEntity
100
AcDbLine
  8
0
 62
256
370
-1
  6
ByLayer
 10
5.4999999999999991
 20
4.25
 30
0.0
 11
2.0
 21
4.25
 31
0.0
  0
LINE
  5
5B
100
AcDbEntity
100
AcDbLine
  8
0
 62
256
370
-1
  6
ByLayer
 10
7.4999999999999991
 20
3.5
 30
0.0
 11
0.0000000000000002
 21
3.5
 31
0.0
  0
LINE
  5
5C
100
AcDbEntity
100
AcDbLine
  8
0
 62
256
370
-1
  6
ByLayer
 10
7.5
 20
4.25
 30
0.0
 11
0.0000000000000006
 21
4.25
 31
0.0
  0
LINE
  5
5D
100
AcDbEntity
100
AcDbLine
  8
0
 62
256
370
-1
  6
ByLayer
 10
0.0000000000000006
 20
4.25
 30
0.0
 11
0.0000000000000002
 21
3.5
 31
0.0
  0
LINE
  5
5E
100
AcDbEntity
100
AcDbLine
  8
0
 62
256
370
-1
  6
ByLayer
 10
7.4999999999999991
 20
4.25
 30
0.0
 11
7.4999999999999991
 21
3.5
 31
0.0
  0
LINE
  5
5F
100
AcDbEntity
100
AcDbLine
  8
HiddenLines
 62
256
370
-1
  6
ByLayer
 10
3.2499999999999996
 20
4.25
 30
0.0
 11
3.2499999999999996
 21
3.5
 31
0.0
  0
LINE
  5
60
100
AcDbEntity
100
AcDbLine
  8
HiddenLines
 62
256
370
-1
  6
ByLayer
 10
4.25
 20
3.5
 30
0.0
 11
4.25
 21
4.25
 31
0.0
  0
LINE
  5
61
100
AcDbEntity
100
AcDbLine
  8
0
 62
256
370
-1
  6
ByLayer
 10
0.0000000000000002
 20
3.5
 30
0.0
 11
0.0
 21
0.0
 31
0.0
  0
LINE
  5
62
100
AcDbEntity
100
AcDbLine
  8
0
 62
256
370
-1
  6
ByLayer
 10
7.4999999999999991
 20
3.5
 30
0.0
 11
7.4999999999999991
 21
0.0
 31
0.0
  0
LINE
  5
63
100
AcDbEntity
100
AcDbLine
  8
0
 62
256
370
-1
  6
ByLayer
 10
0.0
 20
0.0
 30
0.0
 11
7.4999999999999991
 21
0.0
 31
0.0
  0
DIMENSION
  5
64
100
AcDbEntity
  8
Dimensions
 62
256
370
-1
  6
ByLayer
100
AcDbDimension
 10
6.6910467218966296
 20
4.25
 30
0.0
 11
6.4410467218966296
 21
7.4375
 31
0.0
 70
0
 71
5
 72
0
 41
1.0
 42
0.0
  1

  3
Standard
100
AcDbAlignedDimension
 13
5.4999999999999991
 23
10.625
 33
0.0
 14
5.4999999999999991
 24
4.25
 34
0.0
 50
90.0
100
AcDbRotatedDimension
  0
LINE
  5
65
100
AcDbEntity
100
AcDbLine
  8
0
 62
256
370
-1
  6
ByLayer
 10
22.098076211353316
 20
4.25
 30
0.0
 11
22.098076211353316
 21
3.5
 31
0.0
  0
LINE
  5
66
100
AcDbEntity
100
AcDbLine
  8
0
 62
256
370
-1
  6
ByLayer
 10
30.598076211353316
 20
4.25
 30
0.0
 11
30.598076211353316
 21
3.5
 31
0.0
  0
LINE
  5
67
100
AcDbEntity
100
AcDbLine
  8
0
 62
256
370
-1
  6
ByLayer
 10
30.598076211353316
 20
3.5
 30
0.0
 11
22.098076211353316
 21
3.5
 31
0.0
  0
LINE
  5
68
100
AcDbEntity
100
AcDbLine
  8
0
 62
256
370
-1
  6
ByLayer
 10
30.598076211353316
 20
4.25
 30
0.0
 11
22.098076211353316
 21
4.25
 31
0.0
  0
LINE
  5
69
100
AcDbEntity
100
AcDbLine
  8
0
 62
256
370
-1
  6
ByLayer
 10
24.848076211353316
 20
4.25
 30
0.0
 11
24.098076211353316
 21
4.25
 31
0.0
  0
LINE
  5
6A
100
AcDbEntity
100
AcDbLine
  8
0
 62
256
370
-1
  6
ByLayer
 10
28.598076211353316
 20
4.25
 30
0.0
 11
27.848076211353316
 21
4.25
 31
0.0
  0
LINE
  5
6B
100
AcDbEntity
100
AcDbLine
  8
HiddenLines
 62
256
370
-1
  6
ByLayer
 10
25.848076211353316
 20
4.25
 30
0.0
 11
25.848076211353316
 21
3.5
 31
0.0
  0
LINE
  5
6C
100
AcDbEntity
100
AcDbLine
  8
HiddenLines
 62
256
370
-1
  6
ByLayer
 10
26.848076211353316
 20
3.5
 30
0.0
 11
26.848076211353316
 21
4.25
 31
0.0
  0
LINE
  5
6D
100
AcDbEntity
100
AcDbLine
  8
0
 62
256
370
-1
  6
ByLayer
 10
22.098076211353316
 20
3.5
 30
0.0
 11
22.098076211353316
 21
0.0
 31
0.0
  0
LINE
  5
6E
100
AcDbEntity
100
AcDbLine
  8
0
 62
256
370
-1
  6
ByLayer
 10
30.598076211353316
 20
3.5
 30
0.0
 11
30.598076211353316
 21
0.0
 31
0.0
  0
LINE
  5
6F
100
AcDbEntity
100
AcDbLine
  8
0
 62
256
370
-1
  6
ByLayer
 10
22.848076211353316
 20
3.5
 30
0.0
 11
22.848076211353316
 21
0.0
 31
0.0
  0
LINE
  5
70
100
AcDbEntity
100
AcDbLine
  8
0
 62
256
370
-1
  6
ByLayer
 10
29.848076211353316
 20
3.5
 30
0.0
 11
29.848076211353316
 21
0.0
 31
0.0
  0
LINE
  5
71
100
AcDbEntity
100
AcDbLine
  8
0
 62
256
370
-1
  6
ByLayer
 10
22.098076211353316
 20
0.0
 30
0.0
 11
22.848076211353316
 21
0.0
 31
0.0
  0
LINE
  5
72
100
AcDbEntity
100
AcDbLine
  8
0
 62
256
370
-1
  6
ByLayer
 10
29.848076211353316
 20
0.0
 30
0.0
 11
30.598076211353316
 21
0.0
 31
0.0
  0
DIMENSION
  5
73
100
AcDbEntity
  8
Dimensions
 62
256
370
-1
  6
ByLayer
100
AcDbDimension
 10
32.1633978562456875
 20
0.0
 30
0.0
 11
31.9133978562456875
 21
1.75
 31
0.0
 70
0
 71
5
 72
0
 41
1.0
 42
0.0
  1

  3
Standard
100
AcDbAlignedDimension
 13
30.598076211353316
 23
3.5
 33
0.0
 14
30.598076211353316
 24
0.0
 34
0.0
 50
90.0
100
AcDbRotatedDimension
  0
MTEXT
  5
74
100
AcDbEntity
100
AcDbMText
  8
Dimensions
 62
256
370
-1
  6
ByLayer
 10
24.7181073347550253
 20
2.2434189000871885
 30
0.0
 40
0.5
 41
100.0
 71
1
 72
2
  1
Front View
  7
iso
 50
0.0
 73
0
 44
1.0
  0
DIMENSION
  5
75
100
AcDbEntity
  8
Dimensions
 62
256
370
-1
  6
ByLayer
100
AcDbDimension
 10
30.598076211353316
 20
-1.62286416264915
 30
0.0
 11
26.348076211353316
 21
-1.37286416264915
 31
0.0
 70
0
 71
5
 72
0
 41
1.0
 42
0.0
  1

  3
Standard
100
AcDbAlignedDimension
 13
22.098076211353316
 23
0.0
 33
0.0
 14
30.598076211353316
 24
0.0
 34
0.0
 50
0.0
100
AcDbRotatedDimension
  0
DIMENSION
  5
76
100
AcDbEntity
  8
Dimensions
 62
256
370
-1
  6
ByLayer
100
AcDbDimension
 10
7.4999999999999991
 20
-1.3909962069398603
 30
0.0
 11
3.75
 21
-1.1409962069398603
 31
0.0
 70
0
 71
5
 72
0
 41
1.0
 42
0.0
  1

  3
Standard
100
AcDbAlignedDimension
 13
0.0
 23
0.0
 33
0.0
 14
7.4999999999999991
 24
0.0
 34
0.0
 50
0.0
100
AcDbRotatedDimension
  0
MTEXT
  5
77
100
AcDbEntity
100
AcDbMText
  8
Dimensions
 62
256
370
-1
  6
ByLayer
 10
1.9852233023619579
 20
2.2891589055117971
 30
0.0
 40
0.5
 41
100.0
 71
1
 72
2
  1
Side View
  7
iso
 50
0.0
 73
1
 44
1.0
  0
CIRCLE
  5
78
100
AcDbEntity
100
AcDbCircle
  8
Construction
 62
256
370
-1
  6
ByLayer
 10
-17.0
 20
19.5
 30
0.0
 40
2.0
  0
CIRCLE
  5
79
100
AcDbEntity
100
AcDbCircle
  8
Construction
 62
256
370
-1
  6
ByLayer
 10
-17.0
 20
19.5
 30
0.0
 40
2.625
  0
LINE
  5
7A
100
AcDbEntity
100
AcDbLine
  8
Construction
 62
256
370
-1
  6
ByLayer
 10
-19.0
 20
17.7998161864080693
 30
0.0
 11
-18.375
 21
17.7998161864080693
 31
0.0
  0
LINE
  5
7B
100
AcDbEntity
100
AcDbLine
  8
Construction
 62
256
370
-1
  6
ByLayer
 10
-15.0
 20
17.7998161864080693
 30
0.0
 11
-15.625
 21
17.7998161864080693
 31
0.0
  0
LINE
  5
7C
100
AcDbEntity
100
AcDbLine
  8
Construction
 62
256
370
-1
  6
ByLayer
 10
-15.0
 20
17.7998161864080693
 30
0.0
 11
-15.0
 21
17.1748161864080693
 31
0.0
  0
LINE
  5
7D
100
AcDbEntity
100
AcDbLine
  8
Construction
 62
256
370
-1
  6
ByLayer
 10
-19.0
 20
17.7998161864080693
 30
0.0
 11
-19.0
 21
17.1748161864080693
 31
0.0
  0
LINE
  5
7E
100
AcDbEntity
100
AcDbLine
  8
Construction
 62
256
370
-1
  6
ByLayer
 10
-19.0
 20
17.7998161864080693
 30
0.0
 11
-19.0
 21
18.4248161864080693
 31
0.0
  0
LINE
  5
7F
100
AcDbEntity
100
AcDbLine
  8
Construction
 62
256
370
-1
  6
ByLayer
 10
-15.0
 20
17.7998161864080693
 30
0.0
 11
-15.0
 21
18.4248161864080693
 31
0.0
  0
ARC
  5
80
100
AcDbEntity
  8
Construction
 62
256
370
-1
  6
ByLayer
100
AcDbCircle
 10
-19.0
 20
17.7998161864080693
 30
0.0
 40
0.625
100
AcDbArc
 50
0.0
 51
90.0
  0
ARC
  5
81
100
AcDbEntity
  8
Construction
 62
256
370
-1
  6
ByLayer
100
AcDbCircle
 10
-15.0
 20
17.7998161864080693
 30
0.0
 40
0.625
100
AcDbArc
 50
90.0
 51
180.0
  0
LINE
  5
82
100
AcDbEntity
100
AcDbLine
  8
Construction
 62
256
370
-1
  6
ByLayer
 10
-21.0
 20
19.5
 30
0.0
 11
-13.0
 21
19.5
 31
0.0
  0
DIMENSION
  5
83
100
AcDbEntity
  8
Construction
 62
256
370
-1
  6
ByLayer
100
AcDbDimension
 10
-13.7550987126133855
 20
18.4248161864080693
 30
0.0
 11
-14.0050987126133855
 21
18.9624080932040329
 31
0.0
 70
0
 71
5
 72
1
 41
1.0
 42
0.0
  1

  3
Standard
100
AcDbAlignedDimension
 13
-15.0
 23
19.5
 33
0.0
 14
-15.0
 24
18.4248161864080693
 34
0.0
 50
90.0
100
AcDbRotatedDimension
  0
DIMENSION
  5
84
100
AcDbEntity
  8
Construction
 62
256
370
-1
  6
ByLayer
100
AcDbDimension
 10
-12.5862716717488272
 20
17.7998161864080693
 30
0.0
 11
-12.8362716717488272
 21
18.6499080932040329
 31
0.0
 70
0
 71
5
 72
1
 41
1.0
 42
0.0
  1

  3
Standard
100
AcDbAlignedDimension
 13
-15.0
 23
19.5
 33
0.0
 14
-15.0
 24
17.7998161864080693
 34
0.0
 50
90.0
100
AcDbRotatedDimension
  0
LINE
  5
85
100
AcDbEntity
100
AcDbLine
  8
HiddenLines
 62
256
370
-1
  6
ByLayer
 10
1.9999999999999998
 20
13.1367513459481273
 30
0.0
 11
2.5412658773652739
 21
13.4492513459481273
 31
0.0
  0
LINE
  5
86
100
AcDbEntity
100
AcDbLine
  8
HiddenLines
 62
256
370
-1
  6
ByLayer
 10
3.0
 20
11.4047005383792506
 30
0.0
 11
3.5412658773652739
 21
11.7172005383792506
 31
0.0
  0
LINE
  5
87
100
AcDbEntity
100
AcDbLine
  8
HiddenLines
 62
256
370
-1
  6
ByLayer
 10
2.5412658773652743
 20
13.4492513459481273
 30
0.0
 11
3.5412658773652739
 21
11.7172005383792506
 31
0.0
  0
LINE
  5
88
100
AcDbEntity
100
AcDbLine
  8
0
 62
256
370
-1
  6
ByLayer
 10
0.9419872981077813
 20
14.3442831006786786
 30
0.0
 11
2.0
 21
14.9551270189221928
 31
0.0
  0
LINE
  5
89
100
AcDbEntity
100
AcDbLine
  8
HiddenLines
 62
256
370
-1
  6
ByLayer
 10
2.0
 20
14.9551270189221928
 30
0.0
 11
4.4060889132455356
 21
16.3442831006786768
 31
0.0
  0
LINE
  5
8A
100
AcDbEntity
100
AcDbLine
  8
0
 62
256
370
-1
  6
ByLayer
 10
6.7810889132455356
 20
12.2306624327025943
 30
0.0
 11
5.4999999999999991
 21
11.4910254037844375
 31
0.0
  0
LINE
  5
8B
100
AcDbEntity
100
AcDbLine
  8
HiddenLines
 62
256
370
-1
  6
ByLayer
 10
5.4999999999999991
 20
11.4910254037844375
 30
0.0
 11
3.3169872981077804
 21
10.2306624327025943
 31
0.0
  0
LINE
  5
8C
100
AcDbEntity
100
AcDbLine
  8
HiddenLines
 62
256
370
-1
  6
ByLayer
 10
2.0
 20
13.1367513459481273
 30
0.0
 11
3.0
 21
11.4047005383792506
 31
0.0
  0
LINE
  5
8D
100
AcDbEntity
100
AcDbLine
  8
HiddenLines
 62
256
370
-1
  6
ByLayer
 10
3.3169872981077804
 20
10.2306624327025943
 30
0.0
 11
2.0
 21
12.5117513459481309
 31
0.0
  0
LINE
  5
8E
100
AcDbEntity
100
AcDbLine
  8
0
 62
256
370
-1
  6
ByLayer
 10
2.0
 20
12.5117513459481309
 30
0.0
 11
0.9419872981077815
 21
14.3442831006786786
 31
0.0
  0
LINE
  5
8F
100
AcDbEntity
100
AcDbLine
  8
HiddenLines
 62
256
370
-1
  6
ByLayer
 10
4.4060889132455374
 20
16.3442831006786733
 30
0.0
 11
5.4999999999999991
 21
14.4495735194570614
 31
0.0
  0
LINE
  5
90
100
AcDbEntity
100
AcDbLine
  8
0
 62
256
370
-1
  6
ByLayer
 10
5.4999999999999991
 20
14.4495735194570614
 30
0.0
 11
6.7810889132455356
 21
12.2306624327025943
 31
0.0
  0
LINE
  5
91
100
AcDbEntity
100
AcDbLine
  8
HiddenLines
 62
256
370
-1
  6
ByLayer
 10
5.125
 20
18.274519052838329
 30
0.0
 11
5.4999999999999991
 21
17.625
 31
0.0
  0
LINE
  5
92
100
AcDbEntity
100
AcDbLine
  8
HiddenLines
 62
256
370
-1
  6
ByLayer
 10
5.4999999999999991
 20
17.625
 30
0.0
 11
4.8504809471616701
 21
17.25
 31
0.0
  0
LINE
  5
93
100
AcDbEntity
100
AcDbLine
  8
HiddenLines
 62
256
370
-1
  6
ByLayer
 10
4.8504809471616701
 20
17.25
 30
0.0
 11
4.475480947161671
 21
17.899519052838329
 31
0.0
  0
LINE
  5
94
100
AcDbEntity
100
AcDbLine
  8
HiddenLines
 62
256
370
-1
  6
ByLayer
 10
4.475480947161671
 20
17.899519052838329
 30
0.0
 11
5.125
 21
18.274519052838329
 31
0.0
  0
LINE
  5
95
100
AcDbEntity
100
AcDbLine
  8
HiddenLines
 62
256
370
-1
  6
ByLayer
 10
1.9999999999999998
 20
20.1367513459481273
 30
0.0
 11
2.5412658773652739
 21
20.4492513459481273
 31
0.0
  0
LINE
  5
96
100
AcDbEntity
100
AcDbLine
  8
HiddenLines
 62
256
370
-1
  6
ByLayer
 10
3.0
 20
18.4047005383792524
 30
0.0
 11
3.5412658773652739
 21
18.7172005383792524
 31
0.0
  0
LINE
  5
97
100
AcDbEntity
100
AcDbLine
  8
HiddenLines
 62
256
370
-1
  6
ByLayer
 10
2.5412658773652743
 20
20.4492513459481273
 30
0.0
 11
3.5412658773652739
 21
18.7172005383792524
 31
0.0
  0
LINE
  5
98
100
AcDbEntity
100
AcDbLine
  8
0
 62
256
370
-1
  6
ByLayer
 10
0.9419872981077813
 20
21.3442831006786804
 30
0.0
 11
2.0
 21
21.955127018922191
 31
0.0
  0
LINE
  5
99
100
AcDbEntity
100
AcDbLine
  8
HiddenLines
 62
256
370
-1
  6
ByLayer
 10
2.0
 20
21.955127018922191
 30
0.0
 11
4.4060889132455356
 21
23.3442831006786768
 31
0.0
  0
LINE
  5
9A
100
AcDbEntity
100
AcDbLine
  8
0
 62
256
370
-1
  6
ByLayer
 10
6.7810889132455356
 20
19.2306624327025943
 30
0.0
 11
5.4999999999999991
 21
18.4910254037844375
 31
0.0
  0
LINE
  5
9B
100
AcDbEntity
100
AcDbLine
  8
HiddenLines
 62
256
370
-1
  6
ByLayer
 10
5.4999999999999991
 20
18.4910254037844375
 30
0.0
 11
3.3169872981077804
 21
17.2306624327025943
 31
0.0
  0
LINE
  5
9C
100
AcDbEntity
100
AcDbLine
  8
HiddenLines
 62
256
370
-1
  6
ByLayer
 10
2.0
 20
20.1367513459481273
 30
0.0
 11
3.0
 21
18.4047005383792524
 31
0.0
  0
LINE
  5
9D
100
AcDbEntity
100
AcDbLine
  8
HiddenLines
 62
256
370
-1
  6
ByLayer
 10
3.3169872981077804
 20
17.2306624327025943
 30
0.0
 11
2.0
 21
19.5117513459481309
 31
0.0
  0
LINE
  5
9E
100
AcDbEntity
100
AcDbLine
  8
0
 62
256
370
-1
  6
ByLayer
 10
2.0
 20
19.5117513459481309
 30
0.0
 11
0.9419872981077815
 21
21.3442831006786804
 31
0.0
  0
LINE
  5
9F
100
AcDbEntity
100
AcDbLine
  8
HiddenLines
 62
256
370
-1
  6
ByLayer
 10
4.4060889132455374
 20
23.3442831006786733
 30
0.0
 11
5.4999999999999991
 21
21.4495735194570614
 31
0.0
  0
LINE
  5
A0
100
AcDbEntity
100
AcDbLine
  8
0
 62
256
370
-1
  6
ByLayer
 10
5.4999999999999991
 20
21.4495735194570614
 30
0.0
 11
6.7810889132455356
 21
19.2306624327025943
 31
0.0
  0
LINE
  5
A1
100
AcDbEntity
100
AcDbLine
  8
HiddenLines
 62
256
370
-1
  6
ByLayer
 10
5.125
 20
25.274519052838329
 30
0.0
 11
5.4999999999999991
 21
24.625
 31
0.0
  0
LINE
  5
A2
100
AcDbEntity
100
AcDbLine
  8
HiddenLines
 62
256
370
-1
  6
ByLayer
 10
5.4999999999999991
 20
24.625
 30
0.0
 11
4.8504809471616701
 21
24.25
 31
0.0
  0
LINE
  5
A3
100
AcDbEntity
100
AcDbLine
  8
HiddenLines
 62
256
370
-1
  6
ByLayer
 10
4.8504809471616701
 20
24.25
 30
0.0
 11
4.475480947161671
 21
24.899519052838329
 31
0.0
  0
LINE
  5
A4
100
AcDbEntity
100
AcDbLine
  8
HiddenLines
 62
256
370
-1
  6
ByLayer
 10
4.475480947161671
 20
24.899519052838329
 30
0.0
 11
5.125
 21
25.274519052838329
 31
0.0
  0
LINE
  5
A5
100
AcDbEntity
100
AcDbLine
  8
HiddenLines
 62
256
370
-1
  6
ByLayer
 10
1.9999999999999998
 20
27.1367513459481273
 30
0.0
 11
2.5412658773652739
 21
27.4492513459481273
 31
0.0
  0
LINE
  5
A6
100
AcDbEntity
100
AcDbLine
  8
HiddenLines
 62
256
370
-1
  6
ByLayer
 10
3.0
 20
25.4047005383792524
 30
0.0
 11
3.5412658773652739
 21
25.7172005383792524
 31
0.0
  0
LINE
  5
A7
100
AcDbEntity
100
AcDbLine
  8
HiddenLines
 62
256
370
-1
  6
ByLayer
 10
2.5412658773652743
 20
27.4492513459481273
 30
0.0
 11
3.5412658773652739
 21
25.7172005383792524
 31
0.0
  0
LINE
  5
A8
100
AcDbEntity
100
AcDbLine
  8
0
 62
256
370
-1
  6
ByLayer
 10
0.9419872981077813
 20
28.3442831006786804
 30
0.0
 11
2.0
 21
28.955127018922191
 31
0.0
  0
LINE
  5
A9
100
AcDbEntity
100
AcDbLine
  8
HiddenLines
 62
256
370
-1
  6
ByLayer
 10
2.0
 20
28.955127018922191
 30
0.0
 11
4.4060889132455356
 21
30.3442831006786768
 31
0.0
  0
LINE
  5
AA
100
AcDbEntity
100
AcDbLine
  8
0
 62
256
370
-1
  6
ByLayer
 10
6.7810889132455356
 20
26.2306624327025943
 30
0.0
 11
5.4999999999999991
 21
25.4910254037844375
 31
0.0
  0
LINE
  5
AB
100
AcDbEntity
100
AcDbLine
  8
HiddenLines
 62
256
370
-1
  6
ByLayer
 10
5.4999999999999991
 20
25.4910254037844375
 30
0.0
 11
3.3169872981077804
 21
24.2306624327025943
 31
0.0
  0
LINE
  5
AC
100
AcDbEntity
100
AcDbLine
  8
HiddenLines
 62
256
370
-1
  6
ByLayer
 10
2.0
 20
27.1367513459481273
 30
0.0
 11
3.0
 21
25.4047005383792524
 31
0.0
  0
LINE
  5
AD
100
AcDbEntity
100
AcDbLine
  8
HiddenLines
 62
256
370
-1
  6
ByLayer
 10
3.3169872981077804
 20
24.2306624327025943
 30
0.0
 11
2.0
 21
26.5117513459481309
 31
0.0
  0
LINE
  5
AE
100
AcDbEntity
100
AcDbLine
  8
0
 62
256
370
-1
  6
ByLayer
 10
2.0
 20
26.5117513459481309
 30
0.0
 11
0.9419872981077815
 21
28.3442831006786804
 31
0.0
  0
LINE
  5
AF
100
AcDbEntity
100
AcDbLine
  8
HiddenLines
 62
256
370
-1
  6
ByLayer
 10
4.4060889132455374
 20
30.3442831006786733
 30
0.0
 11
5.4999999999999991
 21
28.4495735194570614
 31
0.0
  0
LINE
  5
B0
100
AcDbEntity
100
AcDbLine
  8
0
 62
256
370
-1
  6
ByLayer
 10
5.4999999999999991
 20
28.4495735194570614
 30
0.0
 11
6.7810889132455356
 21
26.2306624327025943
 31
0.0
  0
LINE
  5
B1
100
AcDbEntity
100
AcDbLine
  8
HiddenLines
 62
256
370
-1
  6
ByLayer
 10
5.125
 20
32.274519052838329
 30
0.0
 11
5.4999999999999991
 21
31.625
 31
0.0
  0
LINE
  5
B2
100
AcDbEntity
100
AcDbLine
  8
HiddenLines
 62
256
370
-1
  6
ByLayer
 10
5.4999999999999991
 20
31.625
 30
0.0
 11
4.8504809471616701
 21
31.25
 31
0.0
  0
LINE
  5
B3
100
AcDbEntity
100
AcDbLine
  8
HiddenLines
 62
256
370
-1
  6
ByLayer
 10
4.8504809471616701
 20
31.25
 30
0.0
 11
4.475480947161671
 21
31.899519052838329
 31
0.0
  0
LINE
  5
B4
100
AcDbEntity
100
AcDbLine
  8
HiddenLines
 62
256
370
-1
  6
ByLayer
 10
4.475480947161671
 20
31.899519052838329
 30
0.0
 11
5.125
 21
32.274519052838329
 31
0.0
  0
LINE
  5
B5
100
AcDbEntity
100
AcDbLine
  8
HiddenLines
 62
256
370
-1
  6
ByLayer
 10
1.9999999999999998
 20
34.1367513459481273
 30
0.0
 11
2.5412658773652739
 21
34.4492513459481273
 31
0.0
  0
LINE
  5
B6
100
AcDbEntity
100
AcDbLine
  8
HiddenLines
 62
256
370
-1
  6
ByLayer
 10
3.0
 20
32.4047005383792524
 30
0.0
 11
3.5412658773652739
 21
32.7172005383792524
 31
0.0
  0
LINE
  5
B7
100
AcDbEntity
100
AcDbLine
  8
HiddenLines
 62
256
370
-1
  6
ByLayer
 10
2.5412658773652743
 20
34.4492513459481273
 30
0.0
 11
3.5412658773652739
 21
32.7172005383792524
 31
0.0
  0
LINE
  5
B8
100
AcDbEntity
100
AcDbLine
  8
0
 62
256
370
-1
  6
ByLayer
 10
0.9419872981077813
 20
35.3442831006786804
 30
0.0
 11
2.0
 21
35.955127018922191
 31
0.0
  0
LINE
  5
B9
100
AcDbEntity
100
AcDbLine
  8
HiddenLines
 62
256
370
-1
  6
ByLayer
 10
2.0
 20
35.955127018922191
 30
0.0
 11
4.4060889132455356
 21
37.3442831006786804
 31
0.0
  0
LINE
  5
BA
100
AcDbEntity
100
AcDbLine
  8
0
 62
256
370
-1
  6
ByLayer
 10
6.7810889132455356
 20
33.2306624327025943
 30
0.0
 11
5.4999999999999991
 21
32.4910254037844339
 31
0.0
  0
LINE
  5
BB
100
AcDbEntity
100
AcDbLine
  8
HiddenLines
 62
256
370
-1
  6
ByLayer
 10
5.4999999999999991
 20
32.4910254037844339
 30
0.0
 11
3.3169872981077804
 21
31.2306624327025943
 31
0.0
  0
LINE
  5
BC
100
AcDbEntity
100
AcDbLine
  8
HiddenLines
 62
256
370
-1
  6
ByLayer
 10
2.0
 20
34.1367513459481273
 30
0.0
 11
3.0
 21
32.4047005383792524
 31
0.0
  0
LINE
  5
BD
100
AcDbEntity
100
AcDbLine
  8
HiddenLines
 62
256
370
-1
  6
ByLayer
 10
3.3169872981077804
 20
31.2306624327025943
 30
0.0
 11
2.0
 21
33.5117513459481273
 31
0.0
  0
LINE
  5
BE
100
AcDbEntity
100
AcDbLine
  8
0
 62
256
370
-1
  6
ByLayer
 10
2.0
 20
33.5117513459481273
 30
0.0
 11
0.9419872981077815
 21
35.3442831006786804
 31
0.0
  0
LINE
  5
BF
100
AcDbEntity
100
AcDbLine
  8
HiddenLines
 62
256
370
-1
  6
ByLayer
 10
4.4060889132455374
 20
37.3442831006786733
 30
0.0
 11
5.4999999999999991
 21
35.4495735194570614
 31
0.0
  0
LINE
  5
C0
100
AcDbEntity
100
AcDbLine
  8
0
 62
256
370
-1
  6
ByLayer
 10
5.4999999999999991
 20
35.4495735194570614
 30
0.0
 11
6.7810889132455356
 21
33.2306624327025943
 31
0.0
  0
LINE
  5
C1
100
AcDbEntity
100
AcDbLine
  8
0
 62
256
370
-1
  6
ByLayer
 10
2.0000000000000009
 20
40.8777767497325684
 30
0.0
 11
5.5
 21
40.8777767497325684
 31
0.0
  0
LINE
  5
C2
100
AcDbEntity
100
AcDbLine
  8
HiddenLines
 62
256
370
-1
  6
ByLayer
 10
2.0000000000000009
 20
40.1277767497325684
 30
0.0
 11
5.5
 21
40.1277767497325684
 31
0.0
  0
LINE
  5
C3
100
AcDbEntity
100
AcDbLine
  8
0
 62
256
370
-1
  6
ByLayer
 10
2.0
 20
4.25
 30
0.0
 11
2.0
 21
40.8777767497325684
 31
0.0
  0
LINE
  5
C4
100
AcDbEntity
100
AcDbLine
  8
0
 62
256
370
-1
  6
ByLayer
 10
5.4999999999999991
 20
40.8777767497325684
 30
0.0
 11
5.4999999999999991
 21
4.25
 31
0.0
  0
LINE
  5
C5
100
AcDbEntity
100
AcDbLine
  8
0
 62
256
370
-1
  6
ByLayer
 10
1.7499999999999987
 20
4.25
 30
0.0
 11
1.7499999999999991
 21
9.25
 31
0.0
  0
LINE
  5
C6
100
AcDbEntity
100
AcDbLine
  8
0
 62
256
370
-1
  6
ByLayer
 10
5.7499999999999982
 20
4.25
 30
0.0
 11
5.7499999999999982
 21
9.25
 31
0.0
  0
LINE
  5
C7
100
AcDbEntity
100
AcDbLine
  8
0
 62
256
370
-1
  6
ByLayer
 10
1.7499999999999991
 20
9.25
 30
0.0
 11
2.0
 21
9.25
 31
0.0
  0
LINE
  5
C8
100
AcDbEntity
100
AcDbLine
  8
0
 62
256
370
-1
  6
ByLayer
 10
5.4999999999999991
 20
9.25
 30
0.0
 11
5.7499999999999982
 21
9.25
 31
0.0
  0
LINE
  5
C9
100
AcDbEntity
100
AcDbLine
  8
HiddenLines
 62
256
370
-1
  6
ByLayer
 10
2.0
 20
9.25
 30
0.0
 11
5.4999999999999991
 21
9.25
 31
0.0
  0
LINE
  5
CA
100
AcDbEntity
100
AcDbLine
  8
0
 62
256
370
-1
  6
ByLayer
 10
24.348076211353316
 20
9.25
 30
0.0
 11
28.348076211353316
 21
9.25
 31
0.0
  0
LINE
  5
CB
100
AcDbEntity
100
AcDbLine
  8
Construction
 62
256
370
-1
  6
ByLayer
 10
3.3169872981077804
 20
10.2306624327025943
 30
0.0
 11
33.316987298107783
 21
10.2306624327025943
 31
0.0
  0
LINE
  5
CC
100
AcDbEntity
100
AcDbLine
  8
Construction
 62
256
370
-1
  6
ByLayer
 10
6.7810889132455356
 20
12.2306624327025943
 30
0.0
 11
36.781088913245533
 21
12.2306624327025943
 31
0.0
  0
LINE
  5
CD
100
AcDbEntity
100
AcDbLine
  8
Construction
 62
256
370
-1
  6
ByLayer
 10
4.4060889132455356
 20
16.3442831006786768
 30
0.0
 11
34.406088913245533
 21
16.3442831006786768
 31
0.0
  0
LINE
  5
CE
100
AcDbEntity
100
AcDbLine
  8
Construction
 62
256
370
-1
  6
ByLayer
 10
0.9419872981077815
 20
14.3442831006786786
 30
0.0
 11
30.941987298107783
 21
14.3442831006786786
 31
0.0
  0
LINE
  5
CF
100
AcDbEntity
100
AcDbLine
  8
Construction
 62
256
370
-1
  6
ByLayer
 10
2.5412658773652743
 20
13.4492513459481273
 30
0.0
 11
32.5412658773652765
 21
13.4492513459481273
 31
0.0
  0
LINE
  5
D0
100
AcDbEntity
100
AcDbLine
  8
Construction
 62
256
370
-1
  6
ByLayer
 10
3.5412658773652739
 20
11.7172005383792506
 30
0.0
 11
33.5412658773652765
 21
11.7172005383792506
 31
0.0
  0
LINE
  5
D1
100
AcDbEntity
100
AcDbLine
  8
Construction
 62
256
370
-1
  6
ByLayer
 10
3.0
 20
11.4047005383792506
 30
0.0
 11
33.0
 21
11.4047005383792506
 31
0.0
  0
LINE
  5
D2
100
AcDbEntity
100
AcDbLine
  8
Construction
 62
256
370
-1
  6
ByLayer
 10
2.0
 20
13.1367513459481273
 30
0.0
 11
32.0
 21
13.1367513459481273
 31
0.0
  0
LINE
  5
D3
100
AcDbEntity
100
AcDbLine
  8
Construction
 62
256
370
-1
  6
ByLayer
 10
5.4999999999999991
 20
10.625
 30
0.0
 11
35.5
 21
10.625
 31
0.0
  0
LINE
  5
D4
100
AcDbEntity
100
AcDbLine
  8
Construction
 62
256
370
-1
  6
ByLayer
 10
5.125
 20
11.274519052838329
 30
0.0
 11
35.125
 21
11.274519052838329
 31
0.0
  0
LINE
  5
D5
100
AcDbEntity
100
AcDbLine
  8
Construction
 62
256
370
-1
  6
ByLayer
 10
4.475480947161671
 20
10.899519052838329
 30
0.0
 11
34.475480947161671
 21
10.899519052838329
 31
0.0
  0
LINE
  5
D6
100
AcDbEntity
100
AcDbLine
  8
0
 62
256
370
-1
  6
ByLayer
 10
24.348076211353316
 20
10.2306624327025943
 30
0.0
 11
28.348076211353316
 21
10.2306624327025943
 31
0.0
  0
LINE
  5
D7
100
AcDbEntity
100
AcDbLine
  8
0
 62
256
370
-1
  6
ByLayer
 10
24.348076211353316
 20
10.625
 30
0.0
 11
28.348076211353316
 21
10.625
 31
0.0
  0
LINE
  5
D8
100
AcDbEntity
100
AcDbLine
  8
0
 62
256
370
-1
  6
ByLayer
 10
24.348076211353316
 20
11.274519052838329
 30
0.0
 11
28.348076211353316
 21
11.274519052838329
 31
0.0
  0
LINE
  5
D9
100
AcDbEntity
100
AcDbLine
  8
HiddenLines
 62
256
370
-1
  6
ByLayer
 10
24.348076211353316
 20
10.899519052838329
 30
0.0
 11
28.348076211353316
 21
10.899519052838329
 31
0.0
  0
LINE
  5
DA
100
AcDbEntity
100
AcDbLine
  8
0
 62
256
370
-1
  6
ByLayer
 10
24.348076211353316
 20
11.4047005383792506
 30
0.0
 11
24.973076211353316
 21
11.4047005383792506
 31
0.0
  0
LINE
  5
DB
100
AcDbEntity
100
AcDbLine
  8
0
 62
256
370
-1
  6
ByLayer
 10
24.348076211353316
 20
13.4492513459481273
 30
0.0
 11
24.973076211353316
 21
13.4492513459481273
 31
0.0
  0
LINE
  5
DC
100
AcDbEntity
100
AcDbLine
  8
0
 62
256
370
-1
  6
ByLayer
 10
28.348076211353316
 20
13.4492513459481273
 30
0.0
 11
27.723076211353316
 21
13.4492513459481273
 31
0.0
  0
LINE
  5
DD
100
AcDbEntity
100
AcDbLine
  8
0
 62
256
370
-1
  6
ByLayer
 10
28.348076211353316
 20
11.4047005383792506
 30
0.0
 11
27.723076211353316
 21
11.4047005383792506
 31
0.0
  0
LINE
  5
DE
100
AcDbEntity
100
AcDbLine
  8
0
 62
256
370
-1
  6
ByLayer
 10
28.348076211353316
 20
11.7172005383792506
 30
0.0
 11
27.723076211353316
 21
11.7172005383792506
 31
0.0
  0
LINE
  5
DF
100
AcDbEntity
100
AcDbLine
  8
0
 62
256
370
-1
  6
ByLayer
 10
24.348076211353316
 20
11.7172005383792506
 30
0.0
 11
24.973076211353316
 21
11.7172005383792506
 31
0.0
  0
LINE
  5
E0
100
AcDbEntity
100
AcDbLine
  8
0
 62
256
370
-1
  6
ByLayer
 10
24.973076211353316
 20
13.4492513459481273
 30
0.0
 11
24.973076211353316
 21
11.4047005383792506
 31
0.0
  0
LINE
  5
E1
100
AcDbEntity
100
AcDbLine
  8
0
 62
256
370
-1
  6
ByLayer
 10
27.723076211353316
 20
13.4492513459481273
 30
0.0
 11
27.723076211353316
 21
11.4047005383792506
 31
0.0
  0
LINE
  5
E2
100
AcDbEntity
100
AcDbLine
  8
Construction
 62
256
370
-1
  6
ByLayer
 10
24.348076211353316
 20
14.3442831006786786
 30
0.0
 11
28.348076211353316
 21
16.3442831006786768
 31
0.0
  0
LINE
  5
E3
100
AcDbEntity
100
AcDbLine
  8
Construction
 62
256
370
-1
  6
ByLayer
 10
24.348076211353316
 20
16.3442831006786768
 30
0.0
 11
28.348076211353316
 21
14.3442831006786786
 31
0.0
  0
LINE
  5
E4
100
AcDbEntity
100
AcDbLine
  8
Construction
 62
256
370
-1
  6
ByLayer
 10
24.348076211353316
 20
12.2306624327025943
 30
0.0
 11
28.348076211353316
 21
10.2306624327025943
 31
0.0
  0
LINE
  5
E5
100
AcDbEntity
100
AcDbLine
  8
Construction
 62
256
370
-1
  6
ByLayer
 10
24.348076211353316
 20
10.2306624327025943
 30
0.0
 11
28.348076211353316
 21
12.2306624327025943
 31
0.0
  0
LINE
  5
E6
100
AcDbEntity
100
AcDbLine
  8
Construction
 62
256
370
-1
  6
ByLayer
 10
26.348076211353316
 20
15.3442831006786768
 30
0.0
 11
29.348076211353316
 21
15.3442831006786768
 31
0.0
  0
LINE
  5
E7
100
AcDbEntity
100
AcDbLine
  8
Construction
 62
256
370
-1
  6
ByLayer
 10
26.348076211353316
 20
11.2306624327025943
 30
0.0
 11
29.348076211353316
 21
11.2306624327025943
 31
0.0
  0
LINE
  5
E8
100
AcDbEntity
100
AcDbLine
  8
Construction
 62
256
370
-1
  6
ByLayer
 10
26.348076211353316
 20
11.2306624327025943
 30
0.0
 11
23.348076211353316
 21
11.2306624327025943
 31
0.0
  0
LINE
  5
E9
100
AcDbEntity
100
AcDbLine
  8
Construction
 62
256
370
-1
  6
ByLayer
 10
26.348076211353316
 20
15.3442831006786768
 30
0.0
 11
23.348076211353316
 21
15.3442831006786768
 31
0.0
  0
LINE
  5
EA
100
AcDbEntity
100
AcDbLine
  8
Construction
 62
256
370
-1
  6
ByLayer
 10
26.348076211353316
 20
15.3442831006786768
 30
0.0
 11
26.348076211353316
 21
12.3442831006786768
 31
0.0
  0
LINE
  5
EB
100
AcDbEntity
100
AcDbLine
  8
Construction
 62
256
370
-1
  6
ByLayer
 10
26.348076211353316
 20
11.2306624327025943
 30
0.0
 11
26.348076211353316
 21
8.2306624327025943
 31
0.0
  0
LINE
  5
EC
100
AcDbEntity
100
AcDbLine
  8
Construction
 62
256
370
-1
  6
ByLayer
 10
26.348076211353316
 20
15.3442831006786768
 30
0.0
 11
26.348076211353316
 21
18.3442831006786768
 31
0.0
  0
LINE
  5
ED
100
AcDbEntity
100
AcDbLine
  8
Construction
 62
256
370
-1
  6
ByLayer
 10
26.348076211353316
 20
11.2306624327025943
 30
0.0
 11
26.348076211353316
 21
14.2306624327025943
 31
0.0
  0
ELLIPSE
  5
EE
100
AcDbEntity
100
AcDbEllipse
  8
0
 62
256
370
-1
  6
ByLayer
 10
26.348076211353316
 20
15.3442831006786768
 30
0.0
 11
2.0
 21
0.0
 31
0.0
 40
0.5
 41
0.0
 42
6.2831853071795862
  0
ELLIPSE
  5
EF
100
AcDbEntity
100
AcDbEllipse
  8
0
 62
256
370
-1
  6
ByLayer
 10
26.348076211353316
 20
11.2306624327025943
 30
0.0
 11
2.0
 21
0.0
 31
0.0
 40
0.5
 41
0.0
 42
0.0438706913115895
  0
ELLIPSE
  5
F0
100
AcDbEntity
100
AcDbEllipse
  8
0
 62
256
370
-1
  6
ByLayer
 10
26.348076211353316
 20
11.2306624327025943
 30
0.0
 11
2.0
 21
0.0
 31
0.0
 40
0.5
 41
0.0438706913115895
 42
6.2831853071795862
  0
LINE
  5
F1
100
AcDbEntity
100
AcDbLine
  8
Construction
 62
256
370
-1
  6
ByLayer
 10
5.4999999999999991
 20
40.8777767497325684
 30
0.0
 11
35.5
 21
40.8777767497325684
 31
0.0
  0
LINE
  5
F2
100
AcDbEntity
100
AcDbLine
  8
0
 62
256
370
-1
  6
ByLayer
 10
23.598076211353316
 20
4.25
 30
0.0
 11
23.598076211353316
 21
40.8777767497325684
 31
0.0
  0
LINE
  5
F3
100
AcDbEntity
100
AcDbLine
  8
0
 62
256
370
-1
  6
ByLayer
 10
24.348076211353316
 20
40.8777767497325684
 30
0.0
 11
24.348076211353316
 21
4.25
 31
0.0
  0
LINE
  5
F4
100
AcDbEntity
100
AcDbLine
  8
0
 62
256
370
-1
  6
ByLayer
 10
28.348076211353316
 20
4.25
 30
0.0
 11
28.348076211353316
 21
40.8777767497325684
 31
0.0
  0
LINE
  5
F5
100
AcDbEntity
100
AcDbLine
  8
0
 62
256
370
-1
  6
ByLayer
 10
29.098076211353316
 20
40.8777767497325684
 30
0.0
 11
29.098076211353316
 21
4.25
 31
0.0
  0
LINE
  5
F6
100
AcDbEntity
100
AcDbLine
  8
0
 62
256
370
-1
  6
ByLayer
 10
27.848076211353316
 20
40.8777767497325684
 30
0.0
 11
28.598076211353316
 21
40.8777767497325684
 31
0.0
  0
LINE
  5
F7
100
AcDbEntity
100
AcDbLine
  8
0
 62
256
370
-1
  6
ByLayer
 10
23.598076211353316
 20
40.8777767497325684
 30
0.0
 11
24.848076211353316
 21
40.8777767497325684
 31
0.0
  0
LINE
  5
F8
100
AcDbEntity
100
AcDbLine
  8
0
 62
256
370
-1
  6
ByLayer
 10
24.348076211353316
 20
40.1277767497325684
 30
0.0
 11
28.348076211353316
 21
40.1277767497325684
 31
0.0
  0
LINE
  5
F9
100
AcDbEntity
100
AcDbLine
  8
0
 62
256
370
-1
  6
ByLayer
 10
24.848076211353316
 20
40.8777767497325684
 30
0.0
 11
29.098076211353316
 21
40.8777767497325684
 31
0.0
  0
LINE
  5
FA
100
AcDbEntity
100
AcDbLine
  8
0
 62
256
370
-1
  6
ByLayer
 10
24.348076211353316
 20
17.2306624327025943
 30
0.0
 11
28.348076211353316
 21
17.2306624327025943
 31
0.0
  0
LINE
  5
FB
100
AcDbEntity
100
AcDbLine
  8
0
 62
256
370
-1
  6
ByLayer
 10
24.348076211353316
 20
17.625
 30
0.0
 11
28.348076211353316
 21
17.625
 31
0.0
  0
LINE
  5
FC
100
AcDbEntity
100
AcDbLine
  8
0
 62
256
370
-1
  6
ByLayer
 10
24.348076211353316
 20
18.274519052838329
 30
0.0
 11
28.348076211353316
 21
18.274519052838329
 31
0.0
  0
LINE
  5
FD
100
AcDbEntity
100
AcDbLine
  8
HiddenLines
 62
256
370
-1
  6
ByLayer
 10
24.348076211353316
 20
17.899519052838329
 30
0.0
 11
28.348076211353316
 21
17.899519052838329
 31
0.0
  0
LINE
  5
FE
100
AcDbEntity
100
AcDbLine
  8
0
 62
256
370
-1
  6
ByLayer
 10
24.348076211353316
 20
18.4047005383792524
 30
0.0
 11
24.973076211353316
 21
18.4047005383792524
 31
0.0
  0
LINE
  5
FF
100
AcDbEntity
100
AcDbLine
  8
0
 62
256
370
-1
  6
ByLayer
 10
24.348076211353316
 20
20.4492513459481273
 30
0.0
 11
24.973076211353316
 21
20.4492513459481273
 31
0.0
  0
LINE
  5
100
100
AcDbEntity
100
AcDbLine
  8
0
 62
256
370
-1
  6
ByLayer
 10
28.348076211353316
 20
20.4492513459481273
 30
0.0
 11
27.723076211353316
 21
20.4492513459481273
 31
0.0
  0
LINE
  5
101
100
AcDbEntity
100
AcDbLine
  8
0
 62
256
370
-1
  6
ByLayer
 10
28.348076211353316
 20
18.4047005383792524
 30
0.0
 11
27.723076211353316
 21
18.4047005383792524
 31
0.0
  0
LINE
  5
102
100
AcDbEntity
100
AcDbLine
  8
0
 62
256
370
-1
  6
ByLayer
 10
28.348076211353316
 20
18.7172005383792524
 30
0.0
 11
27.723076211353316
 21
18.7172005383792524
 31
0.0
  0
LINE
  5
103
100
AcDbEntity
100
AcDbLine
  8
0
 62
256
370
-1
  6
ByLayer
 10
24.348076211353316
 20
18.7172005383792524
 30
0.0
 11
24.973076211353316
 21
18.7172005383792524
 31
0.0
  0
LINE
  5
104
100
AcDbEntity
100
AcDbLine
  8
0
 62
256
370
-1
  6
ByLayer
 10
24.973076211353316
 20
20.4492513459481273
 30
0.0
 11
24.973076211353316
 21
18.4047005383792524
 31
0.0
  0
LINE
  5
105
100
AcDbEntity
100
AcDbLine
  8
0
 62
256
370
-1
  6
ByLayer
 10
27.723076211353316
 20
20.4492513459481273
 30
0.0
 11
27.723076211353316
 21
18.4047005383792524
 31
0.0
  0
ELLIPSE
  5
106
100
AcDbEntity
100
AcDbEllipse
  8
0
 62
256
370
-1
  6
ByLayer
 10
26.348076211353316
 20
22.3442831006786768
 30
0.0
 11
2.0
 21
0.0
 31
0.0
 40
0.5
 41
0.0
 42
6.2831853071795862
  0
ELLIPSE
  5
107
100
AcDbEntity
100
AcDbEllipse
  8
0
 62
256
370
-1
  6
ByLayer
 10
26.348076211353316
 20
18.2306624327025943
 30
0.0
 11
2.0
 21
0.0
 31
0.0
 40
0.5
 41
0.0
 42
0.0438706913115895
  0
ELLIPSE
  5
108
100
AcDbEntity
100
AcDbEllipse
  8
0
 62
256
370
-1
  6
ByLayer
 10
26.348076211353316
 20
18.2306624327025943
 30
0.0
 11
2.0
 21
0.0
 31
0.0
 40
0.5
 41
0.0438706913115895
 42
6.2831853071795862
  0
LINE
  5
109
100
AcDbEntity
100
AcDbLine
  8
0
 62
256
370
-1
  6
ByLayer
 10
24.348076211353316
 20
24.2306624327025943
 30
0.0
 11
28.348076211353316
 21
24.2306624327025943
 31
0.0
  0
LINE
  5
10A
100
AcDbEntity
100
AcDbLine
  8
0
 62
256
370
-1
  6
ByLayer
 10
24.348076211353316
 20
24.625
 30
0.0
 11
28.348076211353316
 21
24.625
 31
0.0
  0
LINE
  5
10B
100
AcDbEntity
100
AcDbLine
  8
0
 62
256
370
-1
  6
ByLayer
 10
24.348076211353316
 20
25.274519052838329
 30
0.0
 11
28.348076211353316
 21
25.274519052838329
 31
0.0
  0
LINE
  5
10C
100
AcDbEntity
100
AcDbLine
  8
HiddenLines
 62
256
370
-1
  6
ByLayer
 10
24.348076211353316
 20
24.899519052838329
 30
0.0
 11
28.348076211353316
 21
24.899519052838329
 31
0.0
  0
LINE
  5
10D
100
AcDbEntity
100
AcDbLine
  8
0
 62
256
370
-1
  6
ByLayer
 10
24.348076211353316
 20
25.4047005383792524
 30
0.0
 11
24.973076211353316
 21
25.4047005383792524
 31
0.0
  0
LINE
  5
10E
100
AcDbEntity
100
AcDbLine
  8
0
 62
256
370
-1
  6
ByLayer
 10
24.348076211353316
 20
27.4492513459481273
 30
0.0
 11
24.973076211353316
 21
27.4492513459481273
 31
0.0
  0
LINE
  5
10F
100
AcDbEntity
100
AcDbLine
  8
0
 62
256
370
-1
  6
ByLayer
 10
28.348076211353316
 20
27.4492513459481273
 30
0.0
 11
27.723076211353316
 21
27.4492513459481273
 31
0.0
  0
LINE
  5
110
100
AcDbEntity
100
AcDbLine
  8
0
 62
256
370
-1
  6
ByLayer
 10
28.348076211353316
 20
25.4047005383792524
 30
0.0
 11
27.723076211353316
 21
25.4047005383792524
 31
0.0
  0
LINE
  5
111
100
AcDbEntity
100
AcDbLine
  8
0
 62
256
370
-1
  6
ByLayer
 10
28.348076211353316
 20
25.7172005383792524
 30
0.0
 11
27.723076211353316
 21
25.7172005383792524
 31
0.0
  0
LINE
  5
112
100
AcDbEntity
100
AcDbLine
  8
0
 62
256
370
-1
  6
ByLayer
 10
24.348076211353316
 20
25.7172005383792524
 30
0.0
 11
24.973076211353316
 21
25.7172005383792524
 31
0.0
  0
LINE
  5
113
100
AcDbEntity
100
AcDbLine
  8
0
 62
256
370
-1
  6
ByLayer
 10
24.973076211353316
 20
27.4492513459481273
 30
0.0
 11
24.973076211353316
 21
25.4047005383792524
 31
0.0
  0
LINE
  5
114
100
AcDbEntity
100
AcDbLine
  8
0
 62
256
370
-1
  6
ByLayer
 10
27.723076211353316
 20
27.4492513459481273
 30
0.0
 11
27.723076211353316
 21
25.4047005383792524
 31
0.0
  0
ELLIPSE
  5
115
100
AcDbEntity
100
AcDbEllipse
  8
0
 62
256
370
-1
  6
ByLayer
 10
26.348076211353316
 20
29.3442831006786768
 30
0.0
 11
2.0
 21
0.0
 31
0.0
 40
0.5
 41
0.0
 42
6.2831853071795862
  0
ELLIPSE
  5
116
100
AcDbEntity
100
AcDbEllipse
  8
0
 62
256
370
-1
  6
ByLayer
 10
26.348076211353316
 20
25.2306624327025943
 30
0.0
 11
2.0
 21
0.0
 31
0.0
 40
0.5
 41
0.0
 42
0.0438706913115895
  0
ELLIPSE
  5
117
100
AcDbEntity
100
AcDbEllipse
  8
0
 62
256
370
-1
  6
ByLayer
 10
26.348076211353316
 20
25.2306624327025943
 30
0.0
 11
2.0
 21
0.0
 31
0.0
 40
0.5
 41
0.0438706913115895
 42
6.2831853071795862
  0
LINE
  5
118
100
AcDbEntity
100
AcDbLine
  8
0
 62
256
370
-1
  6
ByLayer
 10
24.348076211353316
 20
31.2306624327025943
 30
0.0
 11
28.348076211353316
 21
31.2306624327025943
 31
0.0
  0
LINE
  5
119
100
AcDbEntity
100
AcDbLine
  8
0
 62
256
370
-1
  6
ByLayer
 10
24.348076211353316
 20
31.625
 30
0.0
 11
28.348076211353316
 21
31.625
 31
0.0
  0
LINE
  5
11A
100
AcDbEntity
100
AcDbLine
  8
0
 62
256
370
-1
  6
ByLayer
 10
24.348076211353316
 20
32.274519052838329
 30
0.0
 11
28.348076211353316
 21
32.274519052838329
 31
0.0
  0
LINE
  5
11B
100
AcDbEntity
100
AcDbLine
  8
HiddenLines
 62
256
370
-1
  6
ByLayer
 10
24.348076211353316
 20
31.899519052838329
 30
0.0
 11
28.348076211353316
 21
31.899519052838329
 31
0.0
  0
LINE
  5
11C
100
AcDbEntity
100
AcDbLine
  8
0
 62
256
370
-1
  6
ByLayer
 10
24.348076211353316
 20
32.4047005383792524
 30
0.0
 11
24.973076211353316
 21
32.4047005383792524
 31
0.0
  0
LINE
  5
11D
100
AcDbEntity
100
AcDbLine
  8
0
 62
256
370
-1
  6
ByLayer
 10
24.348076211353316
 20
34.4492513459481273
 30
0.0
 11
24.973076211353316
 21
34.4492513459481273
 31
0.0
  0
LINE
  5
11E
100
AcDbEntity
100
AcDbLine
  8
0
 62
256
370
-1
  6
ByLayer
 10
28.348076211353316
 20
34.4492513459481273
 30
0.0
 11
27.723076211353316
 21
34.4492513459481273
 31
0.0
  0
LINE
  5
11F
100
AcDbEntity
100
AcDbLine
  8
0
 62
256
370
-1
  6
ByLayer
 10
28.348076211353316
 20
32.4047005383792524
 30
0.0
 11
27.723076211353316
 21
32.4047005383792524
 31
0.0
  0
LINE
  5
120
100
AcDbEntity
100
AcDbLine
  8
0
 62
256
370
-1
  6
ByLayer
 10
28.348076211353316
 20
32.7172005383792524
 30
0.0
 11
27.723076211353316
 21
32.7172005383792524
 31
0.0
  0
LINE
  5
121
100
AcDbEntity
100
AcDbLine
  8
0
 62
256
370
-1
  6
ByLayer
 10
24.348076211353316
 20
32.7172005383792524
 30
0.0
 11
24.973076211353316
 21
32.7172005383792524
 31
0.0
  0
LINE
  5
122
100
AcDbEntity
100
AcDbLine
  8
0
 62
256
370
-1
  6
ByLayer
 10
24.973076211353316
 20
34.4492513459481273
 30
0.0
 11
24.973076211353316
 21
32.4047005383792524
 31
0.0
  0
LINE
  5
123
100
AcDbEntity
100
AcDbLine
  8
0
 62
256
370
-1
  6
ByLayer
 10
27.723076211353316
 20
34.4492513459481273
 30
0.0
 11
27.723076211353316
 21
32.4047005383792524
 31
0.0
  0
ELLIPSE
  5
124
100
AcDbEntity
100
AcDbEllipse
  8
0
 62
256
370
-1
  6
ByLayer
 10
26.348076211353316
 20
36.3442831006786804
 30
0.0
 11
2.0
 21
0.0
 31
0.0
 40
0.5
 41
0.0
 42
6.2831853071795862
  0
ELLIPSE
  5
125
100
AcDbEntity
100
AcDbEllipse
  8
0
 62
256
370
-1
  6
ByLayer
 10
26.348076211353316
 20
32.2306624327025943
 30
0.0
 11
2.0
 21
0.0
 31
0.0
 40
0.5
 41
0.0
 42
0.0438706913115895
  0
ELLIPSE
  5
126
100
AcDbEntity
100
AcDbEllipse
  8
0
 62
256
370
-1
  6
ByLayer
 10
26.348076211353316
 20
32.2306624327025943
 30
0.0
 11
2.0
 21
0.0
 31
0.0
 40
0.5
 41
0.0438706913115895
 42
6.2831853071795862
  0
DIMENSION
  5
127
100
AcDbEntity
  8
Dimensions
 62
256
370
-1
  6
ByLayer
100
AcDbDimension
 10
5.4999999999999991
 20
42.0867684968795501
 30
0.0
 11
3.75
 21
42.3367684968795501
 31
0.0
 70
0
 71
5
 72
1
 41
1.0
 42
0.0
  1

  3
Standard
100
AcDbAlignedDimension
 13
2.0
 23
40.8777767497325684
 33
0.0
 14
5.4999999999999991
 24
40.8777767497325684
 34
0.0
 50
0.0
100
AcDbRotatedDimension
  0
DIMENSION
  5
128
100
AcDbEntity
  8
Dimensions
 62
256
370
-1
  6
ByLayer
100
AcDbDimension
 10
8.7013937412691522
 20
34.3393509420881671
 30
0.0
 11
7.7304000922152607
 21
36.5211612760762137
 31
0.0
 70
1
 71
5
 72
1
 41
1.0
 42
0.0
  1

  3
Standard
100
AcDbAlignedDimension
 13
4.4060889132455339
 23
37.3442831006786804
 33
0.0
 14
6.7810889132455356
 24
33.2306624327025943
 34
0.0
  0
DIMENSION
  5
129
100
AcDbEntity
  8
Dimensions
 62
256
370
-1
  6
ByLayer
100
AcDbDimension
 10
3.1976732466381605
 20
39.4373204319048654
 30
0.0
 11
1.3406224390692842
 21
38.6538267828509774
 31
0.0
 70
1
 71
5
 72
1
 41
1.0
 42
0.0
  1

  3
Standard
100
AcDbAlignedDimension
 13
0.9419872981077815
 23
35.3442831006786804
 33
0.0
 14
4.4060889132455339
 24
37.3442831006786804
 34
0.0
  0
DIMENSION
  5
12A
100
AcDbEntity
  8
Dimensions
 62
256
370
-1
  6
ByLayer
100
AcDbDimension
 10
1.1276489398472476
 20
4.25
 30
0.0
 11
0.8776489398472478
 21
6.75
 31
0.0
 70
0
 71
5
 72
1
 41
1.0
 42
0.0
  1

  3
Standard
100
AcDbAlignedDimension
 13
1.7499999999999991
 23
9.25
 33
0.0
 14
1.7499999999999989
 24
4.25
 34
0.0
 50
90.0
100
AcDbRotatedDimension
  0
DIMENSION
  5
12B
100
AcDbEntity
  8
Dimensions
 62
256
370
-1
  6
ByLayer
100
AcDbDimension
 10
0.3273819502782331
 20
4.25
 30
0.0
 11
0.0773819502782334
 21
8.6933756729740637
 31
0.0
 70
0
 71
5
 72
1
 41
1.0
 42
0.0
  1

  3
Standard
100
AcDbAlignedDimension
 13
2.0
 23
13.1367513459481273
 33
0.0
 14
2.0
 24
4.25
 34
0.0
 50
90.0
100
AcDbRotatedDimension
  0
DIMENSION
  5
12C
100
AcDbEntity
  8
Dimensions
 62
256
370
-1
  6
ByLayer
100
AcDbDimension
 10
-0.5820123560501935
 20
4.25
 30
0.0
 11
-0.8320123560501931
 21
12.1933756729740637
 31
0.0
 70
0
 71
5
 72
1
 41
1.0
 42
0.0
  1

  3
Standard
100
AcDbAlignedDimension
 13
2.0
 23
20.1367513459481273
 33
0.0
 14
2.0
 24
4.25
 34
0.0
 50
90.0
100
AcDbRotatedDimension
  0
DIMENSION
  5
12D
100
AcDbEntity
  8
Dimensions
 62
256
370
-1
  6
ByLayer
100
AcDbDimension
 10
-1.5277824346317566
 20
4.25
 30
0.0
 11
-1.7777824346317559
 21
15.6933756729740637
 31
0.0
 70
0
 71
5
 72
1
 41
1.0
 42
0.0
  1

  3
Standard
100
AcDbAlignedDimension
 13
2.0
 23
27.1367513459481273
 33
0.0
 14
2.0
 24
4.25
 34
0.0
 50
90.0
100
AcDbRotatedDimension
  0
DIMENSION
  5
12E
100
AcDbEntity
  8
Dimensions
 62
256
370
-1
  6
ByLayer
100
AcDbDimension
 10
-2.2916736519476331
 20
4.2500000000000009
 30
0.0
 11
-2.5416736519476322
 21
19.1933756729740672
 31
0.0
 70
0
 71
5
 72
1
 41
1.0
 42
0.0
  1

  3
Standard
100
AcDbAlignedDimension
 13
2.0
 23
34.1367513459481273
 33
0.0
 14
2.0
 24
4.25
 34
0.0
 50
90.0
100
AcDbRotatedDimension
  0
DIMENSION
  5
12F
100
AcDbEntity
  8
Dimensions
 62
256
370
-1
  6
ByLayer
100
AcDbDimension
 10
-3.164692186022922
 20
4.2500000000000009
 30
0.0
 11
-3.4146921860229211
 21
22.5638883748662877
 31
0.0
 70
0
 71
5
 72
1
 41
1.0
 42
0.0
  1

  3
Standard
100
AcDbAlignedDimension
 13
2.0
 23
40.8777767497325684
 33
0.0
 14
2.0
 24
4.25
 34
0.0
 50
90.0
100
AcDbRotatedDimension
  0
DIMENSION
  5
130
100
AcDbEntity
  8
Dimensions
 62
256
370
-1
  6
ByLayer
100
AcDbDimension
 10
7.7480394899181873
 20
4.25
 30
0.0
 11
7.4980394899181881
 21
10.9375
 31
0.0
 70
0
 71
5
 72
1
 41
1.0
 42
0.0
  1

  3
Standard
100
AcDbAlignedDimension
 13
5.4999999999999991
 23
17.625
 33
0.0
 14
5.4999999999999991
 24
4.25
 34
0.0
 50
90.0
100
AcDbRotatedDimension
  0
DIMENSION
  5
131
100
AcDbEntity
  8
Dimensions
 62
256
370
-1
  6
ByLayer
100
AcDbDimension
 10
8.6574337962466146
 20
4.25
 30
0.0
 11
8.4074337962466146
 21
14.4375
 31
0.0
 70
0
 71
5
 72
1
 41
1.0
 42
0.0
  1

  3
Standard
100
AcDbAlignedDimension
 13
5.4999999999999991
 23
24.625
 33
0.0
 14
5.4999999999999991
 24
4.25
 34
0.0
 50
90.0
100
AcDbRotatedDimension
  0
DIMENSION
  5
132
100
AcDbEntity
  8
Dimensions
 62
256
370
-1
  6
ByLayer
100
AcDbDimension
 10
9.6759554193344517
 20
4.2499999999999991
 30
0.0
 11
9.4259554193344535
 21
17.9375
 31
0.0
 70
0
 71
5
 72
1
 41
1.0
 42
0.0
  1

  3
Standard
100
AcDbAlignedDimension
 13
5.4999999999999991
 23
31.625
 33
0.0
 14
5.4999999999999991
 24
4.25
 34
0.0
 50
90.0
100
AcDbRotatedDimension
  0
DIMENSION
  5
133
100
AcDbEntity
  8
Dimensions
 62
256
370
-1
  6
ByLayer
100
AcDbDimension
 10
21.0423740498840424
 20
0.0000000000000001
 30
0.0
 11
20.7923740498840459
 21
20.4388883748662877
 31
0.0
 70
0
 71
5
 72
1
 41
1.0
 42
0.0
  1

  3
Standard
100
AcDbAlignedDimension
 13
23.598076211353316
 23
40.8777767497325684
 33
0.0
 14
22.098076211353316
 24
0.0
 34
0.0
 50
90.0
100
AcDbRotatedDimension
  0
ENDSEC
  0
SECTION
  2
OBJECTS
  0
DICTIONARY
  5
C
100
AcDbDictionary
280
0
281
1
  3
ACAD_GROUP
350
D
  3
ACAD_LAYOUT
350
1A
  3
ACAD_MLINESTYLE
350
17
  3
ACAD_PLOTSETTINGS
350
19
  3
ACAD_PLOTSTYLENAME
350
E
  3
AcDbVariableDictionary
350
134
  0
DICTIONARY
  5
D
100
AcDbDictionary
280
0
281
1
  0
ACDBDICTIONARYWDFLT
  5
E
100
AcDbDictionary
281
1
  3
Normal
350
F
100
AcDbDictionaryWithDefault
340
F
  0
ACDBPLACEHOLDER
  5
F
  0
DICTIONARY
  5
17
100
AcDbDictionary
280
0
281
1
  3
Standard
350
18
  0
MLINESTYLE
  5
18
100
AcDbMlineStyle
  2
STANDARD
 70
0
  3

 62
256
 51
90.0
 52
90.0
 71
2
 49
0.5
 62
256
  6
BYLAYER
 49
-0.5
 62
256
  6
BYLAYER
  0
DICTIONARY
  5
19
100
AcDbDictionary
280
0
281
1
  0
DICTIONARY
  5
1A
100
AcDbDictionary
281
1
  3
Layout1
350
1E
  3
Layout2
350
26
  3
Model
350
22
  0
LAYOUT
  5
1E
100
AcDbPlotSettings
  1

  2
C:\Program Files\AutoCAD 2002\plotters\DWF ePlot (optimized for plotting).pc3
  4

  6

 40
0.0
 41
0.0
 42
0.0
 43
0.0
 44
0.0
 45
0.0
 46
0.0
 47
0.0
 48
0.0
 49
0.0
140
0.0
141
0.0
142
1.0
143
1.0
 70
688
 72
0
 73
0
 74
5
  7

 75
16
147
1.0
148
0.0
149
0.0
100
AcDbLayout
  1
Layout1
 70
1
 71
1
 10
0.0
 20
0.0
 11
420.0
 21
297.0
 12
0.0
 22
0.0
 32
0.0
 14
100000000000000000000.0
 24
100000000000000000000.0
 34
100000000000000000000.0
 15
-100000000000000000000.0
 25
-100000000000000000000.0
 35
-100000000000000000000.0
146
0.0
 13
0.0
 23
0.0
 33
0.0
 16
1.0
 26
0.0
 36
0.0
 17
0.0
 27
1.0
 37
0.0
 76
0
330
1B
  0
LAYOUT
  5
22
100
AcDbPlotSettings
  1

  2
C:\Program Files\AutoCAD 2002\plotters\DWF ePlot (optimized for plotting).pc3
  4

  6

 40
0.0
 41
0.0
 42
0.0
 43
0.0
 44
0.0
 45
0.0
 46
0.0
 47
0.0
 48
0.0
 49
0.0
140
0.0
141
0.0
142
1.0
143
1.0
 70
1712
 72
0
 73
0
 74
0
  7

 75
0
147
1.0
148
0.0
149
0.0
100
AcDbLayout
  1
Model
 70
1
 71
0
 10
0.0
 20
0.0
 11
12.0
 21
9.0
 12
0.0
 22
0.0
 32
0.0
 14
0.0
 24
0.0
 34
0.0
 15
0.0
 25
0.0
 35
0.0
146
0.0
 13
0.0
 23
0.0
 33
0.0
 16
1.0
 26
0.0
 36
0.0
 17
0.0
 27
1.0
 37
0.0
 76
0
330
1F
  0
LAYOUT
  5
26
100
AcDbPlotSettings
  1

  2
C:\Program Files\AutoCAD 2002\plotters\DWF ePlot (optimized for plotting).pc3
  4

  6

 40
0.0
 41
0.0
 42
0.0
 43
0.0
 44
0.0
 45
0.0
 46
0.0
 47
0.0
 48
0.0
 49
0.0
140
0.0
141
0.0
142
1.0
143
1.0
 70
688
 72
0
 73
0
 74
5
  7

 75
16
147
1.0
148
0.0
149
0.0
100
AcDbLayout
  1
Layout2
 70
1
 71
2
 10
0.0
 20
0.0
 11
12.0
 21
9.0
 12
0.0
 22
0.0
 32
0.0
 14
0.0
 24
0.0
 34
0.0
 15
0.0
 25
0.0
 35
0.0
146
0.0
 13
0.0
 23
0.0
 33
0.0
 16
1.0
 26
0.0
 36
0.0
 17
0.0
 27
1.0
 37
0.0
 76
0
330
23
  0
DICTIONARY
  5
134
100
AcDbDictionary
281
1
  3
DIMASSOC
350
136
  3
HIDETEXT
350
135
  0
DICTIONARYVAR
  5
135
100
DictionaryVariables
280
0
  1
2
  0
DICTIONARYVAR
  5
136
100
DictionaryVariables
280
0
  1
1
  0
ENDSEC
  0
EOF
