999
dxflib 2.2.0.0
  0
SECTION
  2
HEADER
  9
$ACADVER
  1
AC1015
  9
$HANDSEED
  5
FFFF
  9
$SPLINESEGS
 70
8
  9
$DIMEXE
 40
0.125
  9
$DIMLUNIT
 70
5
  9
$GRIDMODE
 70
1
  9
$INSUNITS
 70
1
  9
$DIMADEC
 70
2
  9
$DIMASZ
 40
0.5
  9
$DIMGAP
 40
0.05
  9
$DIMTXT
 40
0.4
  9
$GRIDUNIT
 10
0.0
 20
0.0
  9
$DIMEXO
 40
0.05
  9
$LUPREC
 70
4
  9
$DIMAUNIT
 70
0
  9
$AUPREC
 70
2
  9
$PLIMMIN
 10
0.0
 20
0.0
  9
$LUNITS
 70
5
  9
$PLIMMAX
 10
8.5
 20
11.0
  9
$DIMSTYLE
  2
Standard
  9
$AUNITS
 70
0
  0
ENDSEC
  0
SECTION
  2
TABLES
  0
TABLE
  2
VPORT
  5
8
100
AcDbSymbolTable
 70
1
  0
VPORT
  5
30
100
AcDbSymbolTableRecord
100
AcDbViewportTableRecord
  2
*Active
 70
0
 10
0.0
 20
0.0
 11
1.0
 21
1.0
 12
286.3055555555554861
 22
148.5
 13
0.0
 23
0.0
 14
10.0
 24
10.0
 15
10.0
 25
10.0
 16
0.0
 26
0.0
 36
1.0
 17
0.0
 27
0.0
 37
0.0
 40
297.0
 41
1.92798353909465
 42
50.0
 43
0.0
 44
0.0
 50
0.0
 51
0.0
 71
0
 72
100
 73
1
 74
3
 75
1
 76
1
 77
0
 78
0
281
0
 65
1
110
0.0
120
0.0
130
0.0
111
1.0
121
0.0
131
0.0
112
0.0
122
1.0
132
0.0
 79
0
146
0.0
  0
ENDTAB
  0
TABLE
  2
LTYPE
  5
5
100
AcDbSymbolTable
 70
21
  0
LTYPE
  5
14
100
AcDbSymbolTableRecord
100
AcDbLinetypeTableRecord
  2
ByBlock
 70
0
  3

 72
65
 73
0
 40
0.0
  0
LTYPE
  5
15
100
AcDbSymbolTableRecord
100
AcDbLinetypeTableRecord
  2
ByLayer
 70
0
  3

 72
65
 73
0
 40
0.0
  0
LTYPE
  5
16
100
AcDbSymbolTableRecord
100
AcDbLinetypeTableRecord
  2
CONTINUOUS
 70
0
  3
Solid line
 72
65
 73
0
 40
0.0
  0
LTYPE
  5
31
100
AcDbSymbolTableRecord
100
AcDbLinetypeTableRecord
  2
DOT
 70
0
  3
Dot . . . . . . . . . . . . . . . . . . . . . .
 72
65
 73
2
 40
6.3499999999999996
 49
0.0
 74
0
 49
-6.3499999999999996
 74
0
  0
LTYPE
  5
32
100
AcDbSymbolTableRecord
100
AcDbLinetypeTableRecord
  2
DOT2
 70
0
  3
Dot (.5x) .....................................
 72
65
 73
2
 40
3.1749999999999998
 49
0.0
 74
0
 49
-3.1749999999999998
 74
0
  0
LTYPE
  5
33
100
AcDbSymbolTableRecord
100
AcDbLinetypeTableRecord
  2
DOTX2
 70
0
  3
Dot (2x) .  .  .  .  .  .  .  .  .  .  .  .  .
 72
65
 73
2
 40
12.6999999999999993
 49
0.0
 74
0
 49
-12.6999999999999993
 74
0
  0
LTYPE
  5
34
100
AcDbSymbolTableRecord
100
AcDbLinetypeTableRecord
  2
DASHED
 70
0
  3
Dashed __ __ __ __ __ __ __ __ __ __ __ __ __ _
 72
65
 73
2
 40
19.0500000000000007
 49
12.6999999999999993
 74
0
 49
-6.3499999999999996
 74
0
  0
LTYPE
  5
35
100
AcDbSymbolTableRecord
100
AcDbLinetypeTableRecord
  2
DASHED2
 70
0
  3
Dashed (.5x) _ _ _ _ _ _ _ _ _ _ _ _ _ _ _ _ _
 72
65
 73
2
 40
9.5250000000000004
 49
6.3499999999999996
 74
0
 49
-3.1749999999999998
 74
0
  0
LTYPE
  5
36
100
AcDbSymbolTableRecord
100
AcDbLinetypeTableRecord
  2
DASHEDX2
 70
0
  3
Dashed (2x) ____  ____  ____  ____  ____  ___
 72
65
 73
2
 40
38.1000000000000014
 49
25.3999999999999986
 74
0
 49
-12.6999999999999993
 74
0
  0
LTYPE
  5
37
100
AcDbSymbolTableRecord
100
AcDbLinetypeTableRecord
  2
DASHDOT
 70
0
  3
Dash dot __ . __ . __ . __ . __ . __ . __ . __
 72
65
 73
4
 40
25.3999999999999986
 49
12.6999999999999993
 74
0
 49
-6.3499999999999996
 74
0
 49
0.0
 74
0
 49
-6.3499999999999996
 74
0
  0
LTYPE
  5
38
100
AcDbSymbolTableRecord
100
AcDbLinetypeTableRecord
  2
DASHDOT2
 70
0
  3
Dash dot (.5x) _._._._._._._._._._._._._._._.
 72
65
 73
4
 40
12.6999999999999993
 49
6.3499999999999996
 74
0
 49
-3.1749999999999998
 74
0
 49
0.0
 74
0
 49
-3.1749999999999998
 74
0
  0
LTYPE
  5
39
100
AcDbSymbolTableRecord
100
AcDbLinetypeTableRecord
  2
DASHDOTX2
 70
0
  3
Dash dot (2x) ____  .  ____  .  ____  .  ___
 72
65
 73
4
 40
50.7999999999999972
 49
25.3999999999999986
 74
0
 49
-12.6999999999999993
 74
0
 49
0.0
 74
0
 49
-12.6999999999999993
 74
0
  0
LTYPE
  5
3A
100
AcDbSymbolTableRecord
100
AcDbLinetypeTableRecord
  2
DIVIDE
 70
0
  3
Divide ____ . . ____ . . ____ . . ____ . . ____
 72
65
 73
6
 40
31.75
 49
12.6999999999999993
 74
0
 49
-6.3499999999999996
 74
0
 49
0.0
 74
0
 49
-6.3499999999999996
 74
0
 49
0.0
 74
0
 49
-6.3499999999999996
 74
0
  0
LTYPE
  5
3B
100
AcDbSymbolTableRecord
100
AcDbLinetypeTableRecord
  2
DIVIDE2
 70
0
  3
Divide (.5x) __..__..__..__..__..__..__..__.._
 72
65
 73
6
 40
15.875
 49
6.3499999999999996
 74
0
 49
-3.1749999999999998
 74
0
 49
0.0
 74
0
 49
-3.1749999999999998
 74
0
 49
0.0
 74
0
 49
-3.1749999999999998
 74
0
  0
LTYPE
  5
3C
100
AcDbSymbolTableRecord
100
AcDbLinetypeTableRecord
  2
DIVIDEX2
 70
0
  3
Divide (2x) ________  .  .  ________  .  .  _
 72
65
 73
6
 40
63.5
 49
25.3999999999999986
 74
0
 49
-12.6999999999999993
 74
0
 49
0.0
 74
0
 49
-12.6999999999999993
 74
0
 49
0.0
 74
0
 49
-12.6999999999999993
 74
0
  0
LTYPE
  5
3D
100
AcDbSymbolTableRecord
100
AcDbLinetypeTableRecord
  2
CENTER
 70
0
  3
Center ____ _ ____ _ ____ _ ____ _ ____ _ ____
 72
65
 73
4
 40
50.7999999999999972
 49
31.75
 74
0
 49
-6.3499999999999996
 74
0
 49
6.3499999999999996
 74
0
 49
-6.3499999999999996
 74
0
  0
LTYPE
  5
3E
100
AcDbSymbolTableRecord
100
AcDbLinetypeTableRecord
  2
CENTER2
 70
0
  3
Center (.5x) ___ _ ___ _ ___ _ ___ _ ___ _ ___
 72
65
 73
4
 40
28.5749999999999993
 49
19.0500000000000007
 74
0
 49
-3.1749999999999998
 74
0
 49
3.1749999999999998
 74
0
 49
-3.1749999999999998
 74
0
  0
LTYPE
  5
3F
100
AcDbSymbolTableRecord
100
AcDbLinetypeTableRecord
  2
CENTERX2
 70
0
  3
Center (2x) ________  __  ________  __  _____
 72
65
 73
4
 40
101.5999999999999943
 49
63.5
 74
0
 49
-12.6999999999999993
 74
0
 49
12.6999999999999993
 74
0
 49
-12.6999999999999993
 74
0
  0
LTYPE
  5
40
100
AcDbSymbolTableRecord
100
AcDbLinetypeTableRecord
  2
BORDER
 70
0
  3
Border __ __ . __ __ . __ __ . __ __ . __ __ .
 72
65
 73
6
 40
44.4500000000000028
 49
12.6999999999999993
 74
0
 49
-6.3499999999999996
 74
0
 49
12.6999999999999993
 74
0
 49
-6.3499999999999996
 74
0
 49
0.0
 74
0
 49
-6.3499999999999996
 74
0
  0
LTYPE
  5
41
100
AcDbSymbolTableRecord
100
AcDbLinetypeTableRecord
  2
BORDER2
 70
0
  3
Border (.5x) __.__.__.__.__.__.__.__.__.__.__.
 72
65
 73
6
 40
22.2250000000000014
 49
6.3499999999999996
 74
0
 49
-3.1749999999999998
 74
0
 49
6.3499999999999996
 74
0
 49
-3.1749999999999998
 74
0
 49
0.0
 74
0
 49
-3.1749999999999998
 74
0
  0
LTYPE
  5
42
100
AcDbSymbolTableRecord
100
AcDbLinetypeTableRecord
  2
BORDERX2
 70
0
  3
Border (2x) ____  ____  .  ____  ____  .  ___
 72
65
 73
6
 40
88.9000000000000057
 49
25.3999999999999986
 74
0
 49
-12.6999999999999993
 74
0
 49
25.3999999999999986
 74
0
 49
-12.6999999999999993
 74
0
 49
0.0
 74
0
 49
-12.6999999999999993
 74
0
  0
ENDTAB
  0
TABLE
  2
LAYER
  5
2
100
AcDbSymbolTable
 70
4
  0
LAYER
  5
10
100
AcDbSymbolTableRecord
100
AcDbLayerTableRecord
  2
0
 70
0
 62
7
  6
CONTINUOUS
290
1
370
0
390
F
  0
LAYER
  5
43
100
AcDbSymbolTableRecord
100
AcDbLayerTableRecord
  2
Construction
 70
0
 62
1
  6
DASHDOT2
290
1
370
5
390
F
  0
LAYER
  5
44
100
AcDbSymbolTableRecord
100
AcDbLayerTableRecord
  2
Dimensions
 70
0
 62
8
  6
CONTINUOUS
290
1
370
0
390
F
  0
LAYER
  5
45
100
AcDbSymbolTableRecord
100
AcDbLayerTableRecord
  2
HiddenLines
 70
0
 62
7
  6
DASHED
290
1
370
0
390
F
  0
ENDTAB
  0
TABLE
  2
STYLE
  5
3
100
AcDbSymbolTable
 70
1
  0
STYLE
  5
11
100
AcDbSymbolTableRecord
100
AcDbTextStyleTableRecord
  2
Standard
 70
0
 40
0.0
 41
0.75
 50
0.0
 71
0
 42
2.5
  3
txt
  4

  0
ENDTAB
  0
TABLE
  2
VIEW
  5
6
100
AcDbSymbolTable
 70
0
  0
ENDTAB
  0
TABLE
  2
UCS
  5
7
100
AcDbSymbolTable
 70
0
  0
ENDTAB
  0
TABLE
  2
APPID
  5
9
100
AcDbSymbolTable
 70
1
  0
APPID
  5
12
100
AcDbSymbolTableRecord
100
AcDbRegAppTableRecord
  2
ACAD
 70
0
  0
ENDTAB
  0
TABLE
  2
DIMSTYLE
  5
A
100
AcDbSymbolTable
 70
1
100
AcDbDimStyleTable
 71
0
  0
DIMSTYLE
105
27
100
AcDbSymbolTableRecord
100
AcDbDimStyleTableRecord
  2
Standard
 41
0.5
 42
0.05
 43
3.75
 44
0.125
 70
0
 73
0
 74
0
 77
1
 78
8
140
0.4
141
2.5
143
0.03937007874016
147
0.05
171
3
172
1
271
2
272
2
274
3
278
44
283
0
284
8
340
11
  0
ENDTAB
  0
TABLE
  2
BLOCK_RECORD
  5
1
100
AcDbSymbolTable
 70
1
  0
BLOCK_RECORD
  5
1F
100
AcDbSymbolTableRecord
100
AcDbBlockTableRecord
  2
*Model_Space
340
22
  0
BLOCK_RECORD
  5
1B
100
AcDbSymbolTableRecord
100
AcDbBlockTableRecord
  2
*Paper_Space
340
1E
  0
BLOCK_RECORD
  5
23
100
AcDbSymbolTableRecord
100
AcDbBlockTableRecord
  2
*Paper_Space0
340
26
  0
ENDTAB
  0
ENDSEC
  0
SECTION
  2
BLOCKS
  0
BLOCK
  5
20
100
AcDbEntity
  8
0
100
AcDbBlockBegin
  2
*Model_Space
 70
0
 10
0.0
 20
0.0
 30
0.0
  3
*Model_Space
  1

  0
ENDBLK
  5
21
100
AcDbEntity
  8
0
100
AcDbBlockEnd
  0
BLOCK
  5
1C
100
AcDbEntity
 67
1
  8
0
100
AcDbBlockBegin
  2
*Paper_Space
 70
0
 10
0.0
 20
0.0
 30
0.0
  3
*Paper_Space
  1

  0
ENDBLK
  5
1D
100
AcDbEntity
 67
1
  8
0
100
AcDbBlockEnd
  0
BLOCK
  5
24
100
AcDbEntity
  8
0
100
AcDbBlockBegin
  2
*Paper_Space0
 70
0
 10
0.0
 20
0.0
 30
0.0
  3
*Paper_Space0
  1

  0
ENDBLK
  5
25
100
AcDbEntity
  8
0
100
AcDbBlockEnd
  0
ENDSEC
  0
SECTION
  2
ENTITIES
  0
CIRCLE
  5
46
100
AcDbEntity
100
AcDbCircle
  8
Construction
 62
256
370
-1
  6
ByLayer
 10
-7.25
 20
19.4806624327025943
 30
0.0
 40
1.5
  0
LINE
  5
47
100
AcDbEntity
100
AcDbLine
  8
Construction
 62
256
370
-1
  6
ByLayer
 10
-7.25
 20
19.4806624327025943
 30
0.0
 11
-2.25
 21
19.4806624327025943
 31
0.0
  0
LINE
  5
48
100
AcDbEntity
100
AcDbLine
  8
Construction
 62
256
370
-1
  6
ByLayer
 10
-7.25
 20
19.4806624327025943
 30
0.0
 11
-12.25
 21
19.4806624327025943
 31
0.0
  0
LINE
  5
49
100
AcDbEntity
100
AcDbLine
  8
Construction
 62
256
370
-1
  6
ByLayer
 10
-5.75
 20
19.4806624327025943
 30
0.0
 11
-5.75
 21
14.4806624327025943
 31
0.0
  0
LINE
  5
4A
100
AcDbEntity
100
AcDbLine
  8
Construction
 62
256
370
-1
  6
ByLayer
 10
-8.75
 20
19.4806624327025943
 30
0.0
 11
-8.75
 21
14.4806624327025943
 31
0.0
  0
LINE
  5
4B
100
AcDbEntity
100
AcDbLine
  8
Construction
 62
256
370
-1
  6
ByLayer
 10
-8.75
 20
19.4806624327025943
 30
0.0
 11
-8.75
 21
24.4806624327025943
 31
0.0
  0
LINE
  5
4C
100
AcDbEntity
100
AcDbLine
  8
Construction
 62
256
370
-1
  6
ByLayer
 10
-5.75
 20
19.4806624327025943
 30
0.0
 11
-5.75
 21
24.4806624327025943
 31
0.0
  0
LINE
  5
4D
100
AcDbEntity
100
AcDbLine
  8
Construction
 62
256
370
-1
  6
ByLayer
 10
-8.0
 20
19.4806624327025943
 30
0.0
 11
-8.0
 21
14.4806624327025943
 31
0.0
  0
LINE
  5
4E
100
AcDbEntity
100
AcDbLine
  8
Construction
 62
256
370
-1
  6
ByLayer
 10
-8.0
 20
19.4806624327025943
 30
0.0
 11
-8.0
 21
24.4806624327025943
 31
0.0
  0
LINE
  5
4F
100
AcDbEntity
100
AcDbLine
  8
Construction
 62
256
370
-1
  6
ByLayer
 10
-6.5
 20
19.4806624327025943
 30
0.0
 11
-6.5
 21
24.4806624327025943
 31
0.0
  0
LINE
  5
50
100
AcDbEntity
100
AcDbLine
  8
Construction
 62
256
370
-1
  6
ByLayer
 10
-6.5
 20
19.4806624327025943
 30
0.0
 11
-6.5
 21
14.4806624327025943
 31
0.0
  0
LINE
  5
51
100
AcDbEntity
100
AcDbLine
  8
Construction
 62
256
370
-1
  6
ByLayer
 10
-8.0
 20
18.1816243270259363
 30
0.0
 11
-8.75
 21
18.1816243270259363
 31
0.0
  0
LINE
  5
52
100
AcDbEntity
100
AcDbLine
  8
Construction
 62
256
370
-1
  6
ByLayer
 10
-6.5
 20
18.1816243270259363
 30
0.0
 11
-5.75
 21
18.1816243270259363
 31
0.0
  0
LINE
  5
53
100
AcDbEntity
100
AcDbLine
  8
Construction
 62
256
370
-1
  6
ByLayer
 10
-8.0
 20
17.4316243270259363
 30
0.0
 11
-8.75
 21
17.4316243270259363
 31
0.0
  0
LINE
  5
54
100
AcDbEntity
100
AcDbLine
  8
Construction
 62
256
370
-1
  6
ByLayer
 10
-6.5
 20
17.4316243270259363
 30
0.0
 11
-5.75
 21
17.4316243270259363
 31
0.0
  0
LINE
  5
55
100
AcDbEntity
100
AcDbLine
  8
0
 62
256
370
-1
  6
ByLayer
 10
5.4999999999999991
 20
4.25
 30
0.0
 11
2.0
 21
4.25
 31
0.0
  0
LINE
  5
56
100
AcDbEntity
100
AcDbLine
  8
0
 62
256
370
-1
  6
ByLayer
 10
0.0000000000000006
 20
4.25
 30
0.0
 11
0.0000000000000002
 21
3.5
 31
0.0
  0
LINE
  5
57
100
AcDbEntity
100
AcDbLine
  8
0
 62
256
370
-1
  6
ByLayer
 10
7.4999999999999991
 20
4.25
 30
0.0
 11
7.4999999999999991
 21
3.5
 31
0.0
  0
CIRCLE
  5
58
100
AcDbEntity
100
AcDbCircle
  8
Construction
 62
256
370
-1
  6
ByLayer
 10
-17.0
 20
19.5
 30
0.0
 40
2.0
  0
CIRCLE
  5
59
100
AcDbEntity
100
AcDbCircle
  8
Construction
 62
256
370
-1
  6
ByLayer
 10
-17.0
 20
19.5
 30
0.0
 40
2.625
  0
LINE
  5
5A
100
AcDbEntity
100
AcDbLine
  8
Construction
 62
256
370
-1
  6
ByLayer
 10
-19.0
 20
17.7998161864080693
 30
0.0
 11
-18.375
 21
17.7998161864080693
 31
0.0
  0
LINE
  5
5B
100
AcDbEntity
100
AcDbLine
  8
Construction
 62
256
370
-1
  6
ByLayer
 10
-15.0
 20
17.7998161864080693
 30
0.0
 11
-15.625
 21
17.7998161864080693
 31
0.0
  0
LINE
  5
5C
100
AcDbEntity
100
AcDbLine
  8
Construction
 62
256
370
-1
  6
ByLayer
 10
-15.0
 20
17.7998161864080693
 30
0.0
 11
-15.0
 21
17.1748161864080693
 31
0.0
  0
LINE
  5
5D
100
AcDbEntity
100
AcDbLine
  8
Construction
 62
256
370
-1
  6
ByLayer
 10
-19.0
 20
17.7998161864080693
 30
0.0
 11
-19.0
 21
17.1748161864080693
 31
0.0
  0
LINE
  5
5E
100
AcDbEntity
100
AcDbLine
  8
Construction
 62
256
370
-1
  6
ByLayer
 10
-19.0
 20
17.7998161864080693
 30
0.0
 11
-19.0
 21
18.4248161864080693
 31
0.0
  0
LINE
  5
5F
100
AcDbEntity
100
AcDbLine
  8
Construction
 62
256
370
-1
  6
ByLayer
 10
-15.0
 20
17.7998161864080693
 30
0.0
 11
-15.0
 21
18.4248161864080693
 31
0.0
  0
ARC
  5
60
100
AcDbEntity
  8
Construction
 62
256
370
-1
  6
ByLayer
100
AcDbCircle
 10
-19.0
 20
17.7998161864080693
 30
0.0
 40
0.625
100
AcDbArc
 50
0.0
 51
90.0
  0
ARC
  5
61
100
AcDbEntity
  8
Construction
 62
256
370
-1
  6
ByLayer
100
AcDbCircle
 10
-15.0
 20
17.7998161864080693
 30
0.0
 40
0.625
100
AcDbArc
 50
90.0
 51
180.0
  0
LINE
  5
62
100
AcDbEntity
100
AcDbLine
  8
Construction
 62
256
370
-1
  6
ByLayer
 10
-21.0
 20
19.5
 30
0.0
 11
-13.0
 21
19.5
 31
0.0
  0
DIMENSION
  5
63
100
AcDbEntity
  8
Construction
 62
256
370
-1
  6
ByLayer
100
AcDbDimension
 10
-13.7550987126133855
 20
18.4248161864080693
 30
0.0
 11
-14.0050987126133855
 21
18.9624080932040329
 31
0.0
 70
0
 71
5
 72
1
 41
1.0
 42
0.0
  1

  3
Standard
100
AcDbAlignedDimension
 13
-15.0
 23
19.5
 33
0.0
 14
-15.0
 24
18.4248161864080693
 34
0.0
 50
90.0
100
AcDbRotatedDimension
  0
DIMENSION
  5
64
100
AcDbEntity
  8
Construction
 62
256
370
-1
  6
ByLayer
100
AcDbDimension
 10
-12.5862716717488272
 20
17.7998161864080693
 30
0.0
 11
-12.8362716717488272
 21
18.6499080932040329
 31
0.0
 70
0
 71
5
 72
1
 41
1.0
 42
0.0
  1

  3
Standard
100
AcDbAlignedDimension
 13
-15.0
 23
19.5
 33
0.0
 14
-15.0
 24
17.7998161864080693
 34
0.0
 50
90.0
100
AcDbRotatedDimension
  0
LINE
  5
65
100
AcDbEntity
100
AcDbLine
  8
Construction
 62
256
370
-1
  6
ByLayer
 10
24.348076211353316
 20
12.2306624327025943
 30
0.0
 11
28.348076211353316
 21
10.2306624327025943
 31
0.0
  0
LINE
  5
66
100
AcDbEntity
100
AcDbLine
  8
Construction
 62
256
370
-1
  6
ByLayer
 10
24.348076211353316
 20
10.2306624327025943
 30
0.0
 11
28.348076211353316
 21
12.2306624327025943
 31
0.0
  0
LINE
  5
67
100
AcDbEntity
100
AcDbLine
  8
Construction
 62
256
370
-1
  6
ByLayer
 10
26.348076211353316
 20
11.2306624327025943
 30
0.0
 11
26.348076211353316
 21
8.2306624327025943
 31
0.0
  0
LINE
  5
68
100
AcDbEntity
100
AcDbLine
  8
Construction
 62
256
370
-1
  6
ByLayer
 10
5.5
 20
6.25
 30
0.0
 11
2.0000000000000004
 21
6.25
 31
0.0
  0
LINE
  5
69
100
AcDbEntity
100
AcDbLine
  8
Construction
 62
256
370
-1
  6
ByLayer
 10
2.0
 20
10.2306624327025943
 30
0.0
 11
33.316987298107783
 21
10.2306624327025943
 31
0.0
  0
LINE
  5
6A
100
AcDbEntity
100
AcDbLine
  8
HiddenLines
 62
256
370
-1
  6
ByLayer
 10
5.125
 20
7.2938566201357347
 30
0.0
 11
5.4999999999999991
 21
6.6443375672974057
 31
0.0
  0
LINE
  5
6B
100
AcDbEntity
100
AcDbLine
  8
HiddenLines
 62
256
370
-1
  6
ByLayer
 10
5.4999999999999991
 20
6.6443375672974057
 30
0.0
 11
4.8504809471616701
 21
6.2693375672974057
 31
0.0
  0
LINE
  5
6C
100
AcDbEntity
100
AcDbLine
  8
HiddenLines
 62
256
370
-1
  6
ByLayer
 10
4.8504809471616701
 20
6.2693375672974057
 30
0.0
 11
4.475480947161671
 21
6.9188566201357347
 31
0.0
  0
LINE
  5
6D
100
AcDbEntity
100
AcDbLine
  8
HiddenLines
 62
256
370
-1
  6
ByLayer
 10
4.475480947161671
 20
6.9188566201357347
 30
0.0
 11
5.125
 21
7.2938566201357347
 31
0.0
  0
LINE
  5
6E
100
AcDbEntity
100
AcDbLine
  8
HiddenLines
 62
256
370
-1
  6
ByLayer
 10
1.9999999999999998
 20
9.156088913245533
 30
0.0
 11
2.5412658773652739
 21
9.468588913245533
 31
0.0
  0
LINE
  5
6F
100
AcDbEntity
100
AcDbLine
  8
HiddenLines
 62
256
370
-1
  6
ByLayer
 10
3.0
 20
7.4240381056766562
 30
0.0
 11
3.5412658773652739
 21
7.7365381056766562
 31
0.0
  0
LINE
  5
70
100
AcDbEntity
100
AcDbLine
  8
HiddenLines
 62
256
370
-1
  6
ByLayer
 10
2.5412658773652743
 20
9.468588913245533
 30
0.0
 11
3.5412658773652739
 21
7.7365381056766562
 31
0.0
  0
LINE
  5
71
100
AcDbEntity
100
AcDbLine
  8
0
 62
256
370
-1
  6
ByLayer
 10
0.9419872981077813
 20
10.3636206679760843
 30
0.0
 11
2.0
 21
10.9744645862195984
 31
0.0
  0
LINE
  5
72
100
AcDbEntity
100
AcDbLine
  8
HiddenLines
 62
256
370
-1
  6
ByLayer
 10
2.0
 20
10.9744645862195984
 30
0.0
 11
4.4060889132455356
 21
12.3636206679760825
 31
0.0
  0
LINE
  5
73
100
AcDbEntity
100
AcDbLine
  8
0
 62
256
370
-1
  6
ByLayer
 10
6.7810889132455356
 20
8.25
 30
0.0
 11
5.4999999999999991
 21
7.5103629710818431
 31
0.0
  0
LINE
  5
74
100
AcDbEntity
100
AcDbLine
  8
HiddenLines
 62
256
370
-1
  6
ByLayer
 10
5.4999999999999991
 20
7.5103629710818431
 30
0.0
 11
3.3169872981077804
 21
6.25
 31
0.0
  0
LINE
  5
75
100
AcDbEntity
100
AcDbLine
  8
HiddenLines
 62
256
370
-1
  6
ByLayer
 10
2.0
 20
9.156088913245533
 30
0.0
 11
3.0
 21
7.4240381056766562
 31
0.0
  0
LINE
  5
76
100
AcDbEntity
100
AcDbLine
  8
HiddenLines
 62
256
370
-1
  6
ByLayer
 10
3.3169872981077804
 20
6.25
 30
0.0
 11
2.0
 21
8.5310889132455365
 31
0.0
  0
LINE
  5
77
100
AcDbEntity
100
AcDbLine
  8
0
 62
256
370
-1
  6
ByLayer
 10
2.0
 20
8.5310889132455365
 30
0.0
 11
0.9419872981077815
 21
10.3636206679760843
 31
0.0
  0
LINE
  5
78
100
AcDbEntity
100
AcDbLine
  8
HiddenLines
 62
256
370
-1
  6
ByLayer
 10
4.4060889132455374
 20
12.3636206679760789
 30
0.0
 11
5.4999999999999991
 21
10.468911086754467
 31
0.0
  0
LINE
  5
79
100
AcDbEntity
100
AcDbLine
  8
0
 62
256
370
-1
  6
ByLayer
 10
5.4999999999999991
 20
10.468911086754467
 30
0.0
 11
6.7810889132455356
 21
8.25
 31
0.0
  0
LINE
  5
7A
100
AcDbEntity
100
AcDbLine
  8
HiddenLines
 62
256
370
-1
  6
ByLayer
 10
5.125
 20
14.2938566201357347
 30
0.0
 11
5.4999999999999991
 21
13.6443375672974057
 31
0.0
  0
LINE
  5
7B
100
AcDbEntity
100
AcDbLine
  8
HiddenLines
 62
256
370
-1
  6
ByLayer
 10
5.4999999999999991
 20
13.6443375672974057
 30
0.0
 11
4.8504809471616701
 21
13.2693375672974057
 31
0.0
  0
LINE
  5
7C
100
AcDbEntity
100
AcDbLine
  8
HiddenLines
 62
256
370
-1
  6
ByLayer
 10
4.8504809471616701
 20
13.2693375672974057
 30
0.0
 11
4.475480947161671
 21
13.9188566201357347
 31
0.0
  0
LINE
  5
7D
100
AcDbEntity
100
AcDbLine
  8
HiddenLines
 62
256
370
-1
  6
ByLayer
 10
4.475480947161671
 20
13.9188566201357347
 30
0.0
 11
5.125
 21
14.2938566201357347
 31
0.0
  0
LINE
  5
7E
100
AcDbEntity
100
AcDbLine
  8
HiddenLines
 62
256
370
-1
  6
ByLayer
 10
1.9999999999999998
 20
16.156088913245533
 30
0.0
 11
2.5412658773652739
 21
16.468588913245533
 31
0.0
  0
LINE
  5
7F
100
AcDbEntity
100
AcDbLine
  8
HiddenLines
 62
256
370
-1
  6
ByLayer
 10
3.0
 20
14.424038105676658
 30
0.0
 11
3.5412658773652739
 21
14.736538105676658
 31
0.0
  0
LINE
  5
80
100
AcDbEntity
100
AcDbLine
  8
HiddenLines
 62
256
370
-1
  6
ByLayer
 10
2.5412658773652743
 20
16.468588913245533
 30
0.0
 11
3.5412658773652739
 21
14.736538105676658
 31
0.0
  0
LINE
  5
81
100
AcDbEntity
100
AcDbLine
  8
0
 62
256
370
-1
  6
ByLayer
 10
0.9419872981077813
 20
17.3636206679760861
 30
0.0
 11
2.0
 21
17.9744645862195966
 31
0.0
  0
LINE
  5
82
100
AcDbEntity
100
AcDbLine
  8
HiddenLines
 62
256
370
-1
  6
ByLayer
 10
2.0
 20
17.9744645862195966
 30
0.0
 11
4.4060889132455356
 21
19.3636206679760825
 31
0.0
  0
LINE
  5
83
100
AcDbEntity
100
AcDbLine
  8
0
 62
256
370
-1
  6
ByLayer
 10
6.7810889132455356
 20
15.25
 30
0.0
 11
5.4999999999999991
 21
14.5103629710818431
 31
0.0
  0
LINE
  5
84
100
AcDbEntity
100
AcDbLine
  8
HiddenLines
 62
256
370
-1
  6
ByLayer
 10
5.4999999999999991
 20
14.5103629710818431
 30
0.0
 11
3.3169872981077804
 21
13.25
 31
0.0
  0
LINE
  5
85
100
AcDbEntity
100
AcDbLine
  8
HiddenLines
 62
256
370
-1
  6
ByLayer
 10
2.0
 20
16.156088913245533
 30
0.0
 11
3.0
 21
14.424038105676658
 31
0.0
  0
LINE
  5
86
100
AcDbEntity
100
AcDbLine
  8
HiddenLines
 62
256
370
-1
  6
ByLayer
 10
3.3169872981077804
 20
13.25
 30
0.0
 11
2.0
 21
15.5310889132455365
 31
0.0
  0
LINE
  5
87
100
AcDbEntity
100
AcDbLine
  8
0
 62
256
370
-1
  6
ByLayer
 10
2.0
 20
15.5310889132455365
 30
0.0
 11
0.9419872981077815
 21
17.3636206679760861
 31
0.0
  0
LINE
  5
88
100
AcDbEntity
100
AcDbLine
  8
HiddenLines
 62
256
370
-1
  6
ByLayer
 10
4.4060889132455374
 20
19.3636206679760789
 30
0.0
 11
5.4999999999999991
 21
17.468911086754467
 31
0.0
  0
LINE
  5
89
100
AcDbEntity
100
AcDbLine
  8
0
 62
256
370
-1
  6
ByLayer
 10
5.4999999999999991
 20
17.468911086754467
 30
0.0
 11
6.7810889132455356
 21
15.25
 31
0.0
  0
LINE
  5
8A
100
AcDbEntity
100
AcDbLine
  8
HiddenLines
 62
256
370
-1
  6
ByLayer
 10
5.125
 20
21.2938566201357347
 30
0.0
 11
5.4999999999999991
 21
20.6443375672974057
 31
0.0
  0
LINE
  5
8B
100
AcDbEntity
100
AcDbLine
  8
HiddenLines
 62
256
370
-1
  6
ByLayer
 10
5.4999999999999991
 20
20.6443375672974057
 30
0.0
 11
4.8504809471616701
 21
20.2693375672974057
 31
0.0
  0
LINE
  5
8C
100
AcDbEntity
100
AcDbLine
  8
HiddenLines
 62
256
370
-1
  6
ByLayer
 10
4.8504809471616701
 20
20.2693375672974057
 30
0.0
 11
4.475480947161671
 21
20.9188566201357347
 31
0.0
  0
LINE
  5
8D
100
AcDbEntity
100
AcDbLine
  8
HiddenLines
 62
256
370
-1
  6
ByLayer
 10
4.475480947161671
 20
20.9188566201357347
 30
0.0
 11
5.125
 21
21.2938566201357347
 31
0.0
  0
LINE
  5
8E
100
AcDbEntity
100
AcDbLine
  8
HiddenLines
 62
256
370
-1
  6
ByLayer
 10
1.9999999999999998
 20
23.156088913245533
 30
0.0
 11
2.5412658773652739
 21
23.468588913245533
 31
0.0
  0
LINE
  5
8F
100
AcDbEntity
100
AcDbLine
  8
HiddenLines
 62
256
370
-1
  6
ByLayer
 10
3.0
 20
21.424038105676658
 30
0.0
 11
3.5412658773652739
 21
21.736538105676658
 31
0.0
  0
LINE
  5
90
100
AcDbEntity
100
AcDbLine
  8
HiddenLines
 62
256
370
-1
  6
ByLayer
 10
2.5412658773652743
 20
23.468588913245533
 30
0.0
 11
3.5412658773652739
 21
21.736538105676658
 31
0.0
  0
LINE
  5
91
100
AcDbEntity
100
AcDbLine
  8
0
 62
256
370
-1
  6
ByLayer
 10
0.9419872981077813
 20
24.3636206679760861
 30
0.0
 11
2.0
 21
24.9744645862195966
 31
0.0
  0
LINE
  5
92
100
AcDbEntity
100
AcDbLine
  8
HiddenLines
 62
256
370
-1
  6
ByLayer
 10
2.0
 20
24.9744645862195966
 30
0.0
 11
4.4060889132455356
 21
26.3636206679760825
 31
0.0
  0
LINE
  5
93
100
AcDbEntity
100
AcDbLine
  8
0
 62
256
370
-1
  6
ByLayer
 10
6.7810889132455356
 20
22.25
 30
0.0
 11
5.4999999999999991
 21
21.5103629710818431
 31
0.0
  0
LINE
  5
94
100
AcDbEntity
100
AcDbLine
  8
HiddenLines
 62
256
370
-1
  6
ByLayer
 10
5.4999999999999991
 20
21.5103629710818431
 30
0.0
 11
3.3169872981077804
 21
20.25
 31
0.0
  0
LINE
  5
95
100
AcDbEntity
100
AcDbLine
  8
HiddenLines
 62
256
370
-1
  6
ByLayer
 10
2.0
 20
23.156088913245533
 30
0.0
 11
3.0
 21
21.424038105676658
 31
0.0
  0
LINE
  5
96
100
AcDbEntity
100
AcDbLine
  8
HiddenLines
 62
256
370
-1
  6
ByLayer
 10
3.3169872981077804
 20
20.25
 30
0.0
 11
2.0
 21
22.5310889132455365
 31
0.0
  0
LINE
  5
97
100
AcDbEntity
100
AcDbLine
  8
0
 62
256
370
-1
  6
ByLayer
 10
2.0
 20
22.5310889132455365
 30
0.0
 11
0.9419872981077815
 21
24.3636206679760861
 31
0.0
  0
LINE
  5
98
100
AcDbEntity
100
AcDbLine
  8
HiddenLines
 62
256
370
-1
  6
ByLayer
 10
4.4060889132455374
 20
26.3636206679760789
 30
0.0
 11
5.4999999999999991
 21
24.468911086754467
 31
0.0
  0
LINE
  5
99
100
AcDbEntity
100
AcDbLine
  8
0
 62
256
370
-1
  6
ByLayer
 10
5.4999999999999991
 20
24.468911086754467
 30
0.0
 11
6.7810889132455356
 21
22.25
 31
0.0
  0
LINE
  5
9A
100
AcDbEntity
100
AcDbLine
  8
HiddenLines
 62
256
370
-1
  6
ByLayer
 10
5.125
 20
28.2938566201357347
 30
0.0
 11
5.4999999999999991
 21
27.6443375672974057
 31
0.0
  0
LINE
  5
9B
100
AcDbEntity
100
AcDbLine
  8
HiddenLines
 62
256
370
-1
  6
ByLayer
 10
5.4999999999999991
 20
27.6443375672974057
 30
0.0
 11
4.8504809471616701
 21
27.2693375672974057
 31
0.0
  0
LINE
  5
9C
100
AcDbEntity
100
AcDbLine
  8
HiddenLines
 62
256
370
-1
  6
ByLayer
 10
4.8504809471616701
 20
27.2693375672974057
 30
0.0
 11
4.475480947161671
 21
27.9188566201357347
 31
0.0
  0
LINE
  5
9D
100
AcDbEntity
100
AcDbLine
  8
HiddenLines
 62
256
370
-1
  6
ByLayer
 10
4.475480947161671
 20
27.9188566201357347
 30
0.0
 11
5.125
 21
28.2938566201357347
 31
0.0
  0
LINE
  5
9E
100
AcDbEntity
100
AcDbLine
  8
HiddenLines
 62
256
370
-1
  6
ByLayer
 10
1.9999999999999998
 20
30.156088913245533
 30
0.0
 11
2.5412658773652739
 21
30.468588913245533
 31
0.0
  0
LINE
  5
9F
100
AcDbEntity
100
AcDbLine
  8
HiddenLines
 62
256
370
-1
  6
ByLayer
 10
3.0
 20
28.424038105676658
 30
0.0
 11
3.5412658773652739
 21
28.736538105676658
 31
0.0
  0
LINE
  5
A0
100
AcDbEntity
100
AcDbLine
  8
HiddenLines
 62
256
370
-1
  6
ByLayer
 10
2.5412658773652743
 20
30.468588913245533
 30
0.0
 11
3.5412658773652739
 21
28.736538105676658
 31
0.0
  0
LINE
  5
A1
100
AcDbEntity
100
AcDbLine
  8
0
 62
256
370
-1
  6
ByLayer
 10
0.9419872981077813
 20
31.3636206679760861
 30
0.0
 11
2.0
 21
31.9744645862195966
 31
0.0
  0
LINE
  5
A2
100
AcDbEntity
100
AcDbLine
  8
HiddenLines
 62
256
370
-1
  6
ByLayer
 10
2.0
 20
31.9744645862195966
 30
0.0
 11
4.4060889132455356
 21
33.3636206679760861
 31
0.0
  0
LINE
  5
A3
100
AcDbEntity
100
AcDbLine
  8
0
 62
256
370
-1
  6
ByLayer
 10
6.7810889132455356
 20
29.25
 30
0.0
 11
5.4999999999999991
 21
28.5103629710818396
 31
0.0
  0
LINE
  5
A4
100
AcDbEntity
100
AcDbLine
  8
HiddenLines
 62
256
370
-1
  6
ByLayer
 10
5.4999999999999991
 20
28.5103629710818396
 30
0.0
 11
3.3169872981077804
 21
27.25
 31
0.0
  0
LINE
  5
A5
100
AcDbEntity
100
AcDbLine
  8
HiddenLines
 62
256
370
-1
  6
ByLayer
 10
2.0
 20
30.156088913245533
 30
0.0
 11
3.0
 21
28.424038105676658
 31
0.0
  0
LINE
  5
A6
100
AcDbEntity
100
AcDbLine
  8
HiddenLines
 62
256
370
-1
  6
ByLayer
 10
3.3169872981077804
 20
27.25
 30
0.0
 11
2.0
 21
29.531088913245533
 31
0.0
  0
LINE
  5
A7
100
AcDbEntity
100
AcDbLine
  8
0
 62
256
370
-1
  6
ByLayer
 10
2.0
 20
29.531088913245533
 30
0.0
 11
0.9419872981077815
 21
31.3636206679760861
 31
0.0
  0
LINE
  5
A8
100
AcDbEntity
100
AcDbLine
  8
HiddenLines
 62
256
370
-1
  6
ByLayer
 10
4.4060889132455374
 20
33.3636206679760789
 30
0.0
 11
5.4999999999999991
 21
31.468911086754467
 31
0.0
  0
LINE
  5
A9
100
AcDbEntity
100
AcDbLine
  8
0
 62
256
370
-1
  6
ByLayer
 10
5.4999999999999991
 20
31.468911086754467
 30
0.0
 11
6.7810889132455356
 21
29.25
 31
0.0
  0
LINE
  5
AA
100
AcDbEntity
100
AcDbLine
  8
Construction
 62
256
370
-1
  6
ByLayer
 10
29.098076211353316
 20
33.3636206679760861
 30
0.0
 11
1.4060889132455339
 21
33.3636206679760861
 31
0.0
  0
LINE
  5
AB
100
AcDbEntity
100
AcDbLine
  8
HiddenLines
 62
256
370
-1
  6
ByLayer
 10
2.0000000000000009
 20
35.3636206679760861
 30
0.0
 11
5.5
 21
35.3636206679760861
 31
0.0
  0
LINE
  5
AC
100
AcDbEntity
100
AcDbLine
  8
0
 62
256
370
-1
  6
ByLayer
 10
2.0
 20
4.25
 30
0.0
 11
2.0
 21
36.1136206679760861
 31
0.0
  0
LINE
  5
AD
100
AcDbEntity
100
AcDbLine
  8
0
 62
256
370
-1
  6
ByLayer
 10
5.4999999999999991
 20
36.1136206679760861
 30
0.0
 11
5.4999999999999991
 21
4.25
 31
0.0
  0
LINE
  5
AE
100
AcDbEntity
100
AcDbLine
  8
Construction
 62
256
370
-1
  6
ByLayer
 10
23.598076211353316
 20
36.1136206679760861
 30
0.0
 11
23.598076211353316
 21
48.1136206679760861
 31
0.0
  0
LINE
  5
AF
100
AcDbEntity
100
AcDbLine
  8
Construction
 62
256
370
-1
  6
ByLayer
 10
24.348076211353316
 20
36.1136206679760861
 30
0.0
 11
24.348076211353316
 21
48.1136206679760861
 31
0.0
  0
LINE
  5
B0
100
AcDbEntity
100
AcDbLine
  8
Construction
 62
256
370
-1
  6
ByLayer
 10
28.348076211353316
 20
36.1136206679760861
 30
0.0
 11
28.348076211353316
 21
48.1136206679760861
 31
0.0
  0
LINE
  5
B1
100
AcDbEntity
100
AcDbLine
  8
Construction
 62
256
370
-1
  6
ByLayer
 10
29.098076211353316
 20
36.1136206679760861
 30
0.0
 11
29.098076211353316
 21
48.1136206679760861
 31
0.0
  0
LINE
  5
B2
100
AcDbEntity
100
AcDbLine
  8
Construction
 62
256
370
-1
  6
ByLayer
 10
29.098076211353316
 20
41.1136206679760861
 30
0.0
 11
1.4060889132455363
 21
41.1136206679760861
 31
0.0
  0
LINE
  5
B3
100
AcDbEntity
100
AcDbLine
  8
Construction
 62
256
370
-1
  6
ByLayer
 10
20.566987298107783
 20
42.8636206679760861
 30
0.0
 11
20.5669872981077795
 21
-17.1363793320239139
 31
0.0
  0
LINE
  5
B4
100
AcDbEntity
100
AcDbLine
  8
Construction
 62
256
370
-1
  6
ByLayer
 10
17.8169872981077759
 20
47.6267603887905011
 30
0.0
 11
17.8169872981077724
 21
-12.3732396112094989
 31
0.0
  0
LINE
  5
B5
100
AcDbEntity
100
AcDbLine
  8
Construction
 62
256
370
-1
  6
ByLayer
 10
32.129165124598849
 20
42.8636206679760861
 30
0.0
 11
32.1291651245988419
 21
-17.1363793320239139
 31
0.0
  0
LINE
  5
B6
100
AcDbEntity
100
AcDbLine
  8
Construction
 62
256
370
-1
  6
ByLayer
 10
34.8791651245988561
 20
47.626760388790494
 30
0.0
 11
34.879165124598849
 21
-12.373239611209506
 31
0.0
  0
LINE
  5
B7
100
AcDbEntity
100
AcDbLine
  8
Construction
 62
256
370
-1
  6
ByLayer
 10
34.8791651245988561
 20
35.3636206679760861
 30
0.0
 11
1.4060889132455345
 21
35.3636206679760861
 31
0.0
  0
LINE
  5
B8
100
AcDbEntity
100
AcDbLine
  8
0
 62
256
370
-1
  6
ByLayer
 10
41.9102540378443962
 20
4.25
 30
0.0
 11
41.1602540378443962
 21
4.25
 31
0.0
  0
LINE
  5
B9
100
AcDbEntity
100
AcDbLine
  8
0
 62
256
370
-1
  6
ByLayer
 10
45.6602540378443962
 20
4.25
 30
0.0
 11
44.9102540378443962
 21
4.25
 31
0.0
  0
LINE
  5
BA
100
AcDbEntity
100
AcDbLine
  8
0
 62
256
370
-1
  6
ByLayer
 10
41.4102540378443962
 20
6.25
 30
0.0
 11
45.4102540378443962
 21
6.25
 31
0.0
  0
LINE
  5
BB
100
AcDbEntity
100
AcDbLine
  8
0
 62
256
370
-1
  6
ByLayer
 10
41.4102540378443962
 20
6.6443375672974057
 30
0.0
 11
45.4102540378443962
 21
6.6443375672974057
 31
0.0
  0
LINE
  5
BC
100
AcDbEntity
100
AcDbLine
  8
0
 62
256
370
-1
  6
ByLayer
 10
41.4102540378443962
 20
7.2938566201357347
 30
0.0
 11
45.4102540378443962
 21
7.2938566201357347
 31
0.0
  0
LINE
  5
BD
100
AcDbEntity
100
AcDbLine
  8
HiddenLines
 62
256
370
-1
  6
ByLayer
 10
41.4102540378443962
 20
6.9188566201357347
 30
0.0
 11
45.4102540378443962
 21
6.9188566201357347
 31
0.0
  0
LINE
  5
BE
100
AcDbEntity
100
AcDbLine
  8
0
 62
256
370
-1
  6
ByLayer
 10
41.4102540378443962
 20
7.4240381056766562
 30
0.0
 11
42.0352540378443962
 21
7.4240381056766562
 31
0.0
  0
LINE
  5
BF
100
AcDbEntity
100
AcDbLine
  8
0
 62
256
370
-1
  6
ByLayer
 10
41.4102540378443962
 20
9.468588913245533
 30
0.0
 11
42.0352540378443962
 21
9.468588913245533
 31
0.0
  0
LINE
  5
C0
100
AcDbEntity
100
AcDbLine
  8
0
 62
256
370
-1
  6
ByLayer
 10
45.4102540378443962
 20
9.468588913245533
 30
0.0
 11
44.7852540378443962
 21
9.468588913245533
 31
0.0
  0
LINE
  5
C1
100
AcDbEntity
100
AcDbLine
  8
0
 62
256
370
-1
  6
ByLayer
 10
45.4102540378443962
 20
7.4240381056766562
 30
0.0
 11
44.7852540378443962
 21
7.4240381056766562
 31
0.0
  0
LINE
  5
C2
100
AcDbEntity
100
AcDbLine
  8
0
 62
256
370
-1
  6
ByLayer
 10
45.4102540378443962
 20
7.7365381056766562
 30
0.0
 11
44.7852540378443962
 21
7.7365381056766562
 31
0.0
  0
LINE
  5
C3
100
AcDbEntity
100
AcDbLine
  8
0
 62
256
370
-1
  6
ByLayer
 10
41.4102540378443962
 20
7.7365381056766562
 30
0.0
 11
42.0352540378443962
 21
7.7365381056766562
 31
0.0
  0
LINE
  5
C4
100
AcDbEntity
100
AcDbLine
  8
0
 62
256
370
-1
  6
ByLayer
 10
42.0352540378443962
 20
9.468588913245533
 30
0.0
 11
42.0352540378443962
 21
7.4240381056766562
 31
0.0
  0
LINE
  5
C5
100
AcDbEntity
100
AcDbLine
  8
0
 62
256
370
-1
  6
ByLayer
 10
44.7852540378443962
 20
9.468588913245533
 30
0.0
 11
44.7852540378443962
 21
7.4240381056766562
 31
0.0
  0
ELLIPSE
  5
C6
100
AcDbEntity
100
AcDbEllipse
  8
0
 62
256
370
-1
  6
ByLayer
 10
43.4102540378443962
 20
11.3636206679760825
 30
0.0
 11
2.0
 21
0.0
 31
0.0
 40
0.5
 41
0.0
 42
6.2831853071795862
  0
ELLIPSE
  5
C7
100
AcDbEntity
100
AcDbEllipse
  8
0
 62
256
370
-1
  6
ByLayer
 10
43.4102540378443962
 20
7.25
 30
0.0
 11
2.0
 21
0.0
 31
0.0
 40
0.5
 41
0.0
 42
0.0438706913115895
  0
ELLIPSE
  5
C8
100
AcDbEntity
100
AcDbEllipse
  8
0
 62
256
370
-1
  6
ByLayer
 10
43.4102540378443962
 20
7.25
 30
0.0
 11
2.0
 21
0.0
 31
0.0
 40
0.5
 41
0.0438706913115895
 42
6.2831853071795862
  0
LINE
  5
C9
100
AcDbEntity
100
AcDbLine
  8
0
 62
256
370
-1
  6
ByLayer
 10
41.4102540378443962
 20
13.25
 30
0.0
 11
45.4102540378443962
 21
13.25
 31
0.0
  0
LINE
  5
CA
100
AcDbEntity
100
AcDbLine
  8
0
 62
256
370
-1
  6
ByLayer
 10
41.4102540378443962
 20
13.6443375672974057
 30
0.0
 11
45.4102540378443962
 21
13.6443375672974057
 31
0.0
  0
LINE
  5
CB
100
AcDbEntity
100
AcDbLine
  8
0
 62
256
370
-1
  6
ByLayer
 10
41.4102540378443962
 20
14.2938566201357347
 30
0.0
 11
45.4102540378443962
 21
14.2938566201357347
 31
0.0
  0
LINE
  5
CC
100
AcDbEntity
100
AcDbLine
  8
HiddenLines
 62
256
370
-1
  6
ByLayer
 10
41.4102540378443962
 20
13.9188566201357347
 30
0.0
 11
45.4102540378443962
 21
13.9188566201357347
 31
0.0
  0
LINE
  5
CD
100
AcDbEntity
100
AcDbLine
  8
0
 62
256
370
-1
  6
ByLayer
 10
41.4102540378443962
 20
14.424038105676658
 30
0.0
 11
42.0352540378443962
 21
14.424038105676658
 31
0.0
  0
LINE
  5
CE
100
AcDbEntity
100
AcDbLine
  8
0
 62
256
370
-1
  6
ByLayer
 10
41.4102540378443962
 20
16.468588913245533
 30
0.0
 11
42.0352540378443962
 21
16.468588913245533
 31
0.0
  0
LINE
  5
CF
100
AcDbEntity
100
AcDbLine
  8
0
 62
256
370
-1
  6
ByLayer
 10
45.4102540378443962
 20
16.468588913245533
 30
0.0
 11
44.7852540378443962
 21
16.468588913245533
 31
0.0
  0
LINE
  5
D0
100
AcDbEntity
100
AcDbLine
  8
0
 62
256
370
-1
  6
ByLayer
 10
45.4102540378443962
 20
14.424038105676658
 30
0.0
 11
44.7852540378443962
 21
14.424038105676658
 31
0.0
  0
LINE
  5
D1
100
AcDbEntity
100
AcDbLine
  8
0
 62
256
370
-1
  6
ByLayer
 10
45.4102540378443962
 20
14.736538105676658
 30
0.0
 11
44.7852540378443962
 21
14.736538105676658
 31
0.0
  0
LINE
  5
D2
100
AcDbEntity
100
AcDbLine
  8
0
 62
256
370
-1
  6
ByLayer
 10
41.4102540378443962
 20
14.736538105676658
 30
0.0
 11
42.0352540378443962
 21
14.736538105676658
 31
0.0
  0
LINE
  5
D3
100
AcDbEntity
100
AcDbLine
  8
0
 62
256
370
-1
  6
ByLayer
 10
42.0352540378443962
 20
16.468588913245533
 30
0.0
 11
42.0352540378443962
 21
14.424038105676658
 31
0.0
  0
LINE
  5
D4
100
AcDbEntity
100
AcDbLine
  8
0
 62
256
370
-1
  6
ByLayer
 10
44.7852540378443962
 20
16.468588913245533
 30
0.0
 11
44.7852540378443962
 21
14.424038105676658
 31
0.0
  0
ELLIPSE
  5
D5
100
AcDbEntity
100
AcDbEllipse
  8
0
 62
256
370
-1
  6
ByLayer
 10
43.4102540378443962
 20
18.3636206679760825
 30
0.0
 11
2.0
 21
0.0
 31
0.0
 40
0.5
 41
0.0
 42
6.2831853071795862
  0
ELLIPSE
  5
D6
100
AcDbEntity
100
AcDbEllipse
  8
0
 62
256
370
-1
  6
ByLayer
 10
43.4102540378443962
 20
14.25
 30
0.0
 11
2.0
 21
0.0
 31
0.0
 40
0.5
 41
0.0
 42
0.0438706913115895
  0
ELLIPSE
  5
D7
100
AcDbEntity
100
AcDbEllipse
  8
0
 62
256
370
-1
  6
ByLayer
 10
43.4102540378443962
 20
14.25
 30
0.0
 11
2.0
 21
0.0
 31
0.0
 40
0.5
 41
0.0438706913115895
 42
6.2831853071795862
  0
LINE
  5
D8
100
AcDbEntity
100
AcDbLine
  8
0
 62
256
370
-1
  6
ByLayer
 10
41.4102540378443962
 20
20.25
 30
0.0
 11
45.4102540378443962
 21
20.25
 31
0.0
  0
LINE
  5
D9
100
AcDbEntity
100
AcDbLine
  8
0
 62
256
370
-1
  6
ByLayer
 10
41.4102540378443962
 20
20.6443375672974057
 30
0.0
 11
45.4102540378443962
 21
20.6443375672974057
 31
0.0
  0
LINE
  5
DA
100
AcDbEntity
100
AcDbLine
  8
0
 62
256
370
-1
  6
ByLayer
 10
41.4102540378443962
 20
21.2938566201357347
 30
0.0
 11
45.4102540378443962
 21
21.2938566201357347
 31
0.0
  0
LINE
  5
DB
100
AcDbEntity
100
AcDbLine
  8
HiddenLines
 62
256
370
-1
  6
ByLayer
 10
41.4102540378443962
 20
20.9188566201357347
 30
0.0
 11
45.4102540378443962
 21
20.9188566201357347
 31
0.0
  0
LINE
  5
DC
100
AcDbEntity
100
AcDbLine
  8
0
 62
256
370
-1
  6
ByLayer
 10
41.4102540378443962
 20
21.424038105676658
 30
0.0
 11
42.0352540378443962
 21
21.424038105676658
 31
0.0
  0
LINE
  5
DD
100
AcDbEntity
100
AcDbLine
  8
0
 62
256
370
-1
  6
ByLayer
 10
41.4102540378443962
 20
23.468588913245533
 30
0.0
 11
42.0352540378443962
 21
23.468588913245533
 31
0.0
  0
LINE
  5
DE
100
AcDbEntity
100
AcDbLine
  8
0
 62
256
370
-1
  6
ByLayer
 10
45.4102540378443962
 20
23.468588913245533
 30
0.0
 11
44.7852540378443962
 21
23.468588913245533
 31
0.0
  0
LINE
  5
DF
100
AcDbEntity
100
AcDbLine
  8
0
 62
256
370
-1
  6
ByLayer
 10
45.4102540378443962
 20
21.424038105676658
 30
0.0
 11
44.7852540378443962
 21
21.424038105676658
 31
0.0
  0
LINE
  5
E0
100
AcDbEntity
100
AcDbLine
  8
0
 62
256
370
-1
  6
ByLayer
 10
45.4102540378443962
 20
21.736538105676658
 30
0.0
 11
44.7852540378443962
 21
21.736538105676658
 31
0.0
  0
LINE
  5
E1
100
AcDbEntity
100
AcDbLine
  8
0
 62
256
370
-1
  6
ByLayer
 10
41.4102540378443962
 20
21.736538105676658
 30
0.0
 11
42.0352540378443962
 21
21.736538105676658
 31
0.0
  0
LINE
  5
E2
100
AcDbEntity
100
AcDbLine
  8
0
 62
256
370
-1
  6
ByLayer
 10
42.0352540378443962
 20
23.468588913245533
 30
0.0
 11
42.0352540378443962
 21
21.424038105676658
 31
0.0
  0
LINE
  5
E3
100
AcDbEntity
100
AcDbLine
  8
0
 62
256
370
-1
  6
ByLayer
 10
44.7852540378443962
 20
23.468588913245533
 30
0.0
 11
44.7852540378443962
 21
21.424038105676658
 31
0.0
  0
ELLIPSE
  5
E4
100
AcDbEntity
100
AcDbEllipse
  8
0
 62
256
370
-1
  6
ByLayer
 10
43.4102540378443962
 20
25.3636206679760825
 30
0.0
 11
2.0
 21
0.0
 31
0.0
 40
0.5
 41
0.0
 42
6.2831853071795862
  0
ELLIPSE
  5
E5
100
AcDbEntity
100
AcDbEllipse
  8
0
 62
256
370
-1
  6
ByLayer
 10
43.4102540378443962
 20
21.25
 30
0.0
 11
2.0
 21
0.0
 31
0.0
 40
0.5
 41
0.0
 42
0.0438706913115895
  0
ELLIPSE
  5
E6
100
AcDbEntity
100
AcDbEllipse
  8
0
 62
256
370
-1
  6
ByLayer
 10
43.4102540378443962
 20
21.25
 30
0.0
 11
2.0
 21
0.0
 31
0.0
 40
0.5
 41
0.0438706913115895
 42
6.2831853071795862
  0
LINE
  5
E7
100
AcDbEntity
100
AcDbLine
  8
0
 62
256
370
-1
  6
ByLayer
 10
41.4102540378443962
 20
27.25
 30
0.0
 11
45.4102540378443962
 21
27.25
 31
0.0
  0
LINE
  5
E8
100
AcDbEntity
100
AcDbLine
  8
0
 62
256
370
-1
  6
ByLayer
 10
41.4102540378443962
 20
27.6443375672974057
 30
0.0
 11
45.4102540378443962
 21
27.6443375672974057
 31
0.0
  0
LINE
  5
E9
100
AcDbEntity
100
AcDbLine
  8
0
 62
256
370
-1
  6
ByLayer
 10
41.4102540378443962
 20
28.2938566201357347
 30
0.0
 11
45.4102540378443962
 21
28.2938566201357347
 31
0.0
  0
LINE
  5
EA
100
AcDbEntity
100
AcDbLine
  8
HiddenLines
 62
256
370
-1
  6
ByLayer
 10
41.4102540378443962
 20
27.9188566201357347
 30
0.0
 11
45.4102540378443962
 21
27.9188566201357347
 31
0.0
  0
LINE
  5
EB
100
AcDbEntity
100
AcDbLine
  8
0
 62
256
370
-1
  6
ByLayer
 10
41.4102540378443962
 20
28.424038105676658
 30
0.0
 11
42.0352540378443962
 21
28.424038105676658
 31
0.0
  0
LINE
  5
EC
100
AcDbEntity
100
AcDbLine
  8
0
 62
256
370
-1
  6
ByLayer
 10
41.4102540378443962
 20
30.468588913245533
 30
0.0
 11
42.0352540378443962
 21
30.468588913245533
 31
0.0
  0
LINE
  5
ED
100
AcDbEntity
100
AcDbLine
  8
0
 62
256
370
-1
  6
ByLayer
 10
45.4102540378443962
 20
30.468588913245533
 30
0.0
 11
44.7852540378443962
 21
30.468588913245533
 31
0.0
  0
LINE
  5
EE
100
AcDbEntity
100
AcDbLine
  8
0
 62
256
370
-1
  6
ByLayer
 10
45.4102540378443962
 20
28.424038105676658
 30
0.0
 11
44.7852540378443962
 21
28.424038105676658
 31
0.0
  0
LINE
  5
EF
100
AcDbEntity
100
AcDbLine
  8
0
 62
256
370
-1
  6
ByLayer
 10
45.4102540378443962
 20
28.736538105676658
 30
0.0
 11
44.7852540378443962
 21
28.736538105676658
 31
0.0
  0
LINE
  5
F0
100
AcDbEntity
100
AcDbLine
  8
0
 62
256
370
-1
  6
ByLayer
 10
41.4102540378443962
 20
28.736538105676658
 30
0.0
 11
42.0352540378443962
 21
28.736538105676658
 31
0.0
  0
LINE
  5
F1
100
AcDbEntity
100
AcDbLine
  8
0
 62
256
370
-1
  6
ByLayer
 10
42.0352540378443962
 20
30.468588913245533
 30
0.0
 11
42.0352540378443962
 21
28.424038105676658
 31
0.0
  0
LINE
  5
F2
100
AcDbEntity
100
AcDbLine
  8
0
 62
256
370
-1
  6
ByLayer
 10
44.7852540378443962
 20
30.468588913245533
 30
0.0
 11
44.7852540378443962
 21
28.424038105676658
 31
0.0
  0
ELLIPSE
  5
F3
100
AcDbEntity
100
AcDbEllipse
  8
0
 62
256
370
-1
  6
ByLayer
 10
43.4102540378443962
 20
32.3636206679760861
 30
0.0
 11
2.0
 21
0.0
 31
0.0
 40
0.5
 41
0.0
 42
6.2831853071795862
  0
ELLIPSE
  5
F4
100
AcDbEntity
100
AcDbEllipse
  8
0
 62
256
370
-1
  6
ByLayer
 10
43.4102540378443962
 20
28.25
 30
0.0
 11
2.0
 21
0.0
 31
0.0
 40
0.5
 41
0.0
 42
0.0438706913115895
  0
ELLIPSE
  5
F5
100
AcDbEntity
100
AcDbEllipse
  8
0
 62
256
370
-1
  6
ByLayer
 10
43.4102540378443962
 20
28.25
 30
0.0
 11
2.0
 21
0.0
 31
0.0
 40
0.5
 41
0.0438706913115895
 42
6.2831853071795862
  0
LINE
  5
F6
100
AcDbEntity
100
AcDbLine
  8
0
 62
256
370
-1
  6
ByLayer
 10
41.4102540378443962
 20
35.3636206679760861
 30
0.0
 11
45.4102540378443962
 21
35.3636206679760861
 31
0.0
  0
LINE
  5
F7
100
AcDbEntity
100
AcDbLine
  8
0
 62
256
370
-1
  6
ByLayer
 10
40.6602540378443962
 20
4.25
 30
0.0
 11
40.6602540378443962
 21
36.1136206679760861
 31
0.0
  0
LINE
  5
F8
100
AcDbEntity
100
AcDbLine
  8
0
 62
256
370
-1
  6
ByLayer
 10
41.4102540378443962
 20
36.1136206679760861
 30
0.0
 11
41.4102540378443962
 21
4.25
 31
0.0
  0
LINE
  5
F9
100
AcDbEntity
100
AcDbLine
  8
0
 62
256
370
-1
  6
ByLayer
 10
45.4102540378443962
 20
4.25
 30
0.0
 11
45.4102540378443962
 21
36.1136206679760861
 31
0.0
  0
LINE
  5
FA
100
AcDbEntity
100
AcDbLine
  8
0
 62
256
370
-1
  6
ByLayer
 10
46.1602540378443962
 20
36.1136206679760861
 30
0.0
 11
46.1602540378443962
 21
4.25
 31
0.0
  0
LINE
  5
FB
100
AcDbEntity
100
AcDbLine
  8
0
 62
256
370
-1
  6
ByLayer
 10
44.9102540378443962
 20
36.1136206679760861
 30
0.0
 11
45.6602540378443962
 21
36.1136206679760861
 31
0.0
  0
LINE
  5
FC
100
AcDbEntity
100
AcDbLine
  8
0
 62
256
370
-1
  6
ByLayer
 10
40.6602540378443962
 20
36.1136206679760861
 30
0.0
 11
41.9102540378443962
 21
36.1136206679760861
 31
0.0
  0
LINE
  5
FD
100
AcDbEntity
100
AcDbLine
  8
0
 62
256
370
-1
  6
ByLayer
 10
40.6602540378443962
 20
54.1399001096049162
 30
0.0
 11
41.4102540378443962
 21
54.1399001096049162
 31
0.0
  0
LINE
  5
FE
100
AcDbEntity
100
AcDbLine
  8
0
 62
256
370
-1
  6
ByLayer
 10
41.4102540378443962
 20
57.6399001096049162
 30
0.0
 11
40.6602540378443962
 21
57.6399001096049162
 31
0.0
  0
LINE
  5
FF
100
AcDbEntity
100
AcDbLine
  8
0
 62
256
370
-1
  6
ByLayer
 10
40.6602540378443962
 20
57.6399001096049162
 30
0.0
 11
40.6602540378443962
 21
54.1399001096049162
 31
0.0
  0
LINE
  5
100
100
AcDbEntity
100
AcDbLine
  8
0
 62
256
370
-1
  6
ByLayer
 10
45.4102540378443962
 20
54.1399001096049162
 30
0.0
 11
45.4102540378443962
 21
57.6399001096049162
 31
0.0
  0
LINE
  5
101
100
AcDbEntity
100
AcDbLine
  8
0
 62
256
370
-1
  6
ByLayer
 10
34.8791651245988561
 20
36.1136206679760861
 30
0.0
 11
40.6602540378443962
 21
36.1136206679760861
 31
0.0
  0
LINE
  5
102
100
AcDbEntity
100
AcDbLine
  8
0
 62
256
370
-1
  6
ByLayer
 10
51.9413429510899221
 20
4.25
 30
0.0
 11
34.879165124598849
 21
4.25
 31
0.0
  0
LINE
  5
103
100
AcDbEntity
100
AcDbLine
  8
0
 62
256
370
-1
  6
ByLayer
 10
41.9102540378443962
 20
36.1136206679760861
 30
0.0
 11
51.9413429510899363
 21
36.1136206679760861
 31
0.0
  0
LINE
  5
104
100
AcDbEntity
100
AcDbLine
  8
0
 62
256
370
-1
  6
ByLayer
 10
34.8791651245988561
 20
36.1136206679760861
 30
0.0
 11
34.879165124598849
 21
4.25
 31
0.0
  0
LINE
  5
105
100
AcDbEntity
100
AcDbLine
  8
0
 62
256
370
-1
  6
ByLayer
 10
37.6291651245988561
 20
36.1136206679760861
 30
0.0
 11
37.6291651245988561
 21
4.25
 31
0.0
  0
LINE
  5
106
100
AcDbEntity
100
AcDbLine
  8
0
 62
256
370
-1
  6
ByLayer
 10
49.1913429510899221
 20
36.1136206679760861
 30
0.0
 11
49.1913429510899221
 21
4.25
 31
0.0
  0
LINE
  5
107
100
AcDbEntity
100
AcDbLine
  8
0
 62
256
370
-1
  6
ByLayer
 10
51.9413429510899363
 20
36.1136206679760861
 30
0.0
 11
51.9413429510899221
 21
4.25
 31
0.0
  0
LINE
  5
108
100
AcDbEntity
100
AcDbLine
  8
0
 62
256
370
-1
  6
ByLayer
 10
34.8791651245988561
 20
35.3636206679760861
 30
0.0
 11
37.6291651245988561
 21
35.3636206679760861
 31
0.0
  0
LINE
  5
109
100
AcDbEntity
100
AcDbLine
  8
0
 62
256
370
-1
  6
ByLayer
 10
49.1913429510899221
 20
35.3636206679760861
 30
0.0
 11
51.9413429510899363
 21
35.3636206679760861
 31
0.0
  0
LINE
  5
10A
100
AcDbEntity
100
AcDbLine
  8
0
 62
256
370
-1
  6
ByLayer
 10
51.9413429510899221
 20
3.5
 30
0.0
 11
34.879165124598849
 21
3.5
 31
0.0
  0
LINE
  5
10B
100
AcDbEntity
100
AcDbLine
  8
0
 62
256
370
-1
  6
ByLayer
 10
34.879165124598849
 20
4.25
 30
0.0
 11
34.879165124598849
 21
3.5
 31
0.0
  0
LINE
  5
10C
100
AcDbEntity
100
AcDbLine
  8
0
 62
256
370
-1
  6
ByLayer
 10
51.9413429510899221
 20
4.25
 30
0.0
 11
51.9413429510899221
 21
3.5
 31
0.0
  0
LINE
  5
10D
100
AcDbEntity
100
AcDbLine
  8
Construction
 62
256
370
-1
  6
ByLayer
 10
15.0262789999999988
 20
36.1136206679760861
 30
0.0
 11
15.0262789999999988
 21
4.2499999999999973
 31
0.0
  0
LINE
  5
10E
100
AcDbEntity
100
AcDbLine
  8
0
 62
256
370
-1
  6
ByLayer
 10
15.0262789999999988
 20
4.2499999999999973
 30
0.0
 11
18.5262789999999988
 21
4.2499999999999973
 31
0.0
  0
LINE
  5
10F
100
AcDbEntity
100
AcDbLine
  8
0
 62
256
370
-1
  6
ByLayer
 10
13.0262789999999988
 20
3.4999999999999973
 30
0.0
 11
20.5262789999999988
 21
3.4999999999999978
 31
0.0
  0
LINE
  5
110
100
AcDbEntity
100
AcDbLine
  8
0
 62
256
370
-1
  6
ByLayer
 10
13.0262789999999988
 20
4.2499999999999973
 30
0.0
 11
20.5262789999999988
 21
4.2499999999999973
 31
0.0
  0
LINE
  5
111
100
AcDbEntity
100
AcDbLine
  8
0
 62
256
370
-1
  6
ByLayer
 10
20.5262789999999988
 20
4.2499999999999973
 30
0.0
 11
20.5262789999999988
 21
3.4999999999999978
 31
0.0
  0
LINE
  5
112
100
AcDbEntity
100
AcDbLine
  8
0
 62
256
370
-1
  6
ByLayer
 10
13.0262789999999988
 20
4.2499999999999973
 30
0.0
 11
13.0262789999999988
 21
3.4999999999999973
 31
0.0
  0
LINE
  5
113
100
AcDbEntity
100
AcDbLine
  8
HiddenLines
 62
256
370
-1
  6
ByLayer
 10
15.4012789999999988
 20
7.293856620135732
 30
0.0
 11
15.0262789999999988
 21
6.644337567297403
 31
0.0
  0
LINE
  5
114
100
AcDbEntity
100
AcDbLine
  8
HiddenLines
 62
256
370
-1
  6
ByLayer
 10
15.0262789999999988
 20
6.644337567297403
 30
0.0
 11
15.6757980528383278
 21
6.2693375672974021
 31
0.0
  0
LINE
  5
115
100
AcDbEntity
100
AcDbLine
  8
HiddenLines
 62
256
370
-1
  6
ByLayer
 10
15.6757980528383278
 20
6.2693375672974021
 30
0.0
 11
16.0507980528383278
 21
6.918856620135732
 31
0.0
  0
LINE
  5
116
100
AcDbEntity
100
AcDbLine
  8
HiddenLines
 62
256
370
-1
  6
ByLayer
 10
16.0507980528383278
 20
6.918856620135732
 30
0.0
 11
15.4012789999999988
 21
7.293856620135732
 31
0.0
  0
LINE
  5
117
100
AcDbEntity
100
AcDbLine
  8
HiddenLines
 62
256
370
-1
  6
ByLayer
 10
18.5262789999999988
 20
9.1560889132455294
 30
0.0
 11
17.9850131226347258
 21
9.4685889132455294
 31
0.0
  0
LINE
  5
118
100
AcDbEntity
100
AcDbLine
  8
HiddenLines
 62
256
370
-1
  6
ByLayer
 10
17.5262789999999988
 20
7.4240381056766527
 30
0.0
 11
16.9850131226347258
 21
7.7365381056766536
 31
0.0
  0
LINE
  5
119
100
AcDbEntity
100
AcDbLine
  8
HiddenLines
 62
256
370
-1
  6
ByLayer
 10
17.9850131226347258
 20
9.4685889132455294
 30
0.0
 11
16.9850131226347258
 21
7.7365381056766536
 31
0.0
  0
LINE
  5
11A
100
AcDbEntity
100
AcDbLine
  8
0
 62
256
370
-1
  6
ByLayer
 10
19.5842917018922194
 20
10.3636206679760825
 30
0.0
 11
18.5262789999999988
 21
10.9744645862195966
 31
0.0
  0
LINE
  5
11B
100
AcDbEntity
100
AcDbLine
  8
HiddenLines
 62
256
370
-1
  6
ByLayer
 10
18.5262789999999988
 20
10.9744645862195966
 30
0.0
 11
16.1201900867544623
 21
12.3636206679760789
 31
0.0
  0
LINE
  5
11C
100
AcDbEntity
100
AcDbLine
  8
0
 62
256
370
-1
  6
ByLayer
 10
13.7451900867544623
 20
8.2499999999999964
 30
0.0
 11
15.0262789999999988
 21
7.5103629710818405
 31
0.0
  0
LINE
  5
11D
100
AcDbEntity
100
AcDbLine
  8
HiddenLines
 62
256
370
-1
  6
ByLayer
 10
15.0262789999999988
 20
7.5103629710818405
 30
0.0
 11
17.2092917018922194
 21
6.2499999999999973
 31
0.0
  0
LINE
  5
11E
100
AcDbEntity
100
AcDbLine
  8
HiddenLines
 62
256
370
-1
  6
ByLayer
 10
18.5262789999999988
 20
9.1560889132455294
 30
0.0
 11
17.5262789999999988
 21
7.4240381056766527
 31
0.0
  0
LINE
  5
11F
100
AcDbEntity
100
AcDbLine
  8
HiddenLines
 62
256
370
-1
  6
ByLayer
 10
17.2092917018922194
 20
6.2499999999999973
 30
0.0
 11
18.5262789999999988
 21
8.531088913245533
 31
0.0
  0
LINE
  5
120
100
AcDbEntity
100
AcDbLine
  8
0
 62
256
370
-1
  6
ByLayer
 10
18.5262789999999988
 20
8.531088913245533
 30
0.0
 11
19.5842917018922194
 21
10.3636206679760825
 31
0.0
  0
LINE
  5
121
100
AcDbEntity
100
AcDbLine
  8
HiddenLines
 62
256
370
-1
  6
ByLayer
 10
16.1201900867544623
 20
12.3636206679760754
 30
0.0
 11
15.0262789999999988
 21
10.4689110867544635
 31
0.0
  0
LINE
  5
122
100
AcDbEntity
100
AcDbLine
  8
0
 62
256
370
-1
  6
ByLayer
 10
15.0262789999999988
 20
10.4689110867544635
 30
0.0
 11
13.7451900867544623
 21
8.2499999999999964
 31
0.0
  0
LINE
  5
123
100
AcDbEntity
100
AcDbLine
  8
HiddenLines
 62
256
370
-1
  6
ByLayer
 10
15.4012790000000006
 20
14.2938566201357311
 30
0.0
 11
15.0262789999999988
 21
13.6443375672974021
 31
0.0
  0
LINE
  5
124
100
AcDbEntity
100
AcDbLine
  8
HiddenLines
 62
256
370
-1
  6
ByLayer
 10
15.0262789999999988
 20
13.6443375672974021
 30
0.0
 11
15.6757980528383278
 21
13.2693375672974021
 31
0.0
  0
LINE
  5
125
100
AcDbEntity
100
AcDbLine
  8
HiddenLines
 62
256
370
-1
  6
ByLayer
 10
15.6757980528383278
 20
13.2693375672974021
 30
0.0
 11
16.0507980528383278
 21
13.9188566201357311
 31
0.0
  0
LINE
  5
126
100
AcDbEntity
100
AcDbLine
  8
HiddenLines
 62
256
370
-1
  6
ByLayer
 10
16.0507980528383278
 20
13.9188566201357311
 30
0.0
 11
15.4012790000000006
 21
14.2938566201357311
 31
0.0
  0
LINE
  5
127
100
AcDbEntity
100
AcDbLine
  8
HiddenLines
 62
256
370
-1
  6
ByLayer
 10
18.5262790000000024
 20
16.1560889132455294
 30
0.0
 11
17.9850131226347258
 21
16.4685889132455294
 31
0.0
  0
LINE
  5
128
100
AcDbEntity
100
AcDbLine
  8
HiddenLines
 62
256
370
-1
  6
ByLayer
 10
17.5262790000000024
 20
14.4240381056766545
 30
0.0
 11
16.9850131226347258
 21
14.7365381056766545
 31
0.0
  0
LINE
  5
129
100
AcDbEntity
100
AcDbLine
  8
HiddenLines
 62
256
370
-1
  6
ByLayer
 10
17.9850131226347258
 20
16.4685889132455294
 30
0.0
 11
16.9850131226347258
 21
14.7365381056766545
 31
0.0
  0
LINE
  5
12A
100
AcDbEntity
100
AcDbLine
  8
0
 62
256
370
-1
  6
ByLayer
 10
19.5842917018922194
 20
17.3636206679760825
 30
0.0
 11
18.5262790000000024
 21
17.9744645862195931
 31
0.0
  0
LINE
  5
12B
100
AcDbEntity
100
AcDbLine
  8
HiddenLines
 62
256
370
-1
  6
ByLayer
 10
18.5262790000000024
 20
17.9744645862195931
 30
0.0
 11
16.1201900867544659
 21
19.3636206679760789
 31
0.0
  0
LINE
  5
12C
100
AcDbEntity
100
AcDbLine
  8
0
 62
256
370
-1
  6
ByLayer
 10
13.7451900867544641
 20
15.2499999999999964
 30
0.0
 11
15.0262789999999988
 21
14.5103629710818396
 31
0.0
  0
LINE
  5
12D
100
AcDbEntity
100
AcDbLine
  8
HiddenLines
 62
256
370
-1
  6
ByLayer
 10
15.0262789999999988
 20
14.5103629710818396
 30
0.0
 11
17.2092917018922194
 21
13.25
 31
0.0
  0
LINE
  5
12E
100
AcDbEntity
100
AcDbLine
  8
HiddenLines
 62
256
370
-1
  6
ByLayer
 10
18.5262790000000024
 20
16.1560889132455294
 30
0.0
 11
17.5262790000000024
 21
14.4240381056766545
 31
0.0
  0
LINE
  5
12F
100
AcDbEntity
100
AcDbLine
  8
HiddenLines
 62
256
370
-1
  6
ByLayer
 10
17.2092917018922194
 20
13.25
 30
0.0
 11
18.5262789999999988
 21
15.531088913245533
 31
0.0
  0
LINE
  5
130
100
AcDbEntity
100
AcDbLine
  8
0
 62
256
370
-1
  6
ByLayer
 10
18.5262789999999988
 20
15.531088913245533
 30
0.0
 11
19.5842917018922194
 21
17.3636206679760825
 31
0.0
  0
LINE
  5
131
100
AcDbEntity
100
AcDbLine
  8
HiddenLines
 62
256
370
-1
  6
ByLayer
 10
16.1201900867544659
 20
19.3636206679760754
 30
0.0
 11
15.0262789999999988
 21
17.4689110867544635
 31
0.0
  0
LINE
  5
132
100
AcDbEntity
100
AcDbLine
  8
0
 62
256
370
-1
  6
ByLayer
 10
15.0262789999999988
 20
17.4689110867544635
 30
0.0
 11
13.7451900867544641
 21
15.2499999999999964
 31
0.0
  0
LINE
  5
133
100
AcDbEntity
100
AcDbLine
  8
HiddenLines
 62
256
370
-1
  6
ByLayer
 10
15.4012790000000006
 20
21.2938566201357347
 30
0.0
 11
15.0262790000000006
 21
20.6443375672974021
 31
0.0
  0
LINE
  5
134
100
AcDbEntity
100
AcDbLine
  8
HiddenLines
 62
256
370
-1
  6
ByLayer
 10
15.0262790000000006
 20
20.6443375672974021
 30
0.0
 11
15.6757980528383278
 21
20.2693375672974021
 31
0.0
  0
LINE
  5
135
100
AcDbEntity
100
AcDbLine
  8
HiddenLines
 62
256
370
-1
  6
ByLayer
 10
15.6757980528383278
 20
20.2693375672974021
 30
0.0
 11
16.0507980528383314
 21
20.9188566201357311
 31
0.0
  0
LINE
  5
136
100
AcDbEntity
100
AcDbLine
  8
HiddenLines
 62
256
370
-1
  6
ByLayer
 10
16.0507980528383314
 20
20.9188566201357311
 30
0.0
 11
15.4012790000000006
 21
21.2938566201357347
 31
0.0
  0
LINE
  5
137
100
AcDbEntity
100
AcDbLine
  8
HiddenLines
 62
256
370
-1
  6
ByLayer
 10
18.5262790000000024
 20
23.1560889132455259
 30
0.0
 11
17.9850131226347294
 21
23.4685889132455294
 31
0.0
  0
LINE
  5
138
100
AcDbEntity
100
AcDbLine
  8
HiddenLines
 62
256
370
-1
  6
ByLayer
 10
17.5262789999999988
 20
21.4240381056766545
 30
0.0
 11
16.9850131226347294
 21
21.7365381056766545
 31
0.0
  0
LINE
  5
139
100
AcDbEntity
100
AcDbLine
  8
HiddenLines
 62
256
370
-1
  6
ByLayer
 10
17.9850131226347294
 20
23.4685889132455294
 30
0.0
 11
16.9850131226347294
 21
21.7365381056766545
 31
0.0
  0
LINE
  5
13A
100
AcDbEntity
100
AcDbLine
  8
0
 62
256
370
-1
  6
ByLayer
 10
19.5842917018922194
 20
24.3636206679760825
 30
0.0
 11
18.5262790000000024
 21
24.9744645862195895
 31
0.0
  0
LINE
  5
13B
100
AcDbEntity
100
AcDbLine
  8
HiddenLines
 62
256
370
-1
  6
ByLayer
 10
18.5262790000000024
 20
24.9744645862195895
 30
0.0
 11
16.1201900867544659
 21
26.3636206679760789
 31
0.0
  0
LINE
  5
13C
100
AcDbEntity
100
AcDbLine
  8
0
 62
256
370
-1
  6
ByLayer
 10
13.7451900867544641
 20
22.2499999999999929
 30
0.0
 11
15.0262790000000006
 21
21.5103629710818396
 31
0.0
  0
LINE
  5
13D
100
AcDbEntity
100
AcDbLine
  8
HiddenLines
 62
256
370
-1
  6
ByLayer
 10
15.0262790000000006
 20
21.5103629710818396
 30
0.0
 11
17.2092917018922229
 21
20.2499999999999964
 31
0.0
  0
LINE
  5
13E
100
AcDbEntity
100
AcDbLine
  8
HiddenLines
 62
256
370
-1
  6
ByLayer
 10
18.5262790000000024
 20
23.1560889132455259
 30
0.0
 11
17.5262789999999988
 21
21.4240381056766545
 31
0.0
  0
LINE
  5
13F
100
AcDbEntity
100
AcDbLine
  8
HiddenLines
 62
256
370
-1
  6
ByLayer
 10
17.2092917018922229
 20
20.2499999999999964
 30
0.0
 11
18.5262790000000024
 21
22.531088913245533
 31
0.0
  0
LINE
  5
140
100
AcDbEntity
100
AcDbLine
  8
0
 62
256
370
-1
  6
ByLayer
 10
18.5262790000000024
 20
22.531088913245533
 30
0.0
 11
19.5842917018922194
 21
24.3636206679760825
 31
0.0
  0
LINE
  5
141
100
AcDbEntity
100
AcDbLine
  8
HiddenLines
 62
256
370
-1
  6
ByLayer
 10
16.1201900867544659
 20
26.3636206679760754
 30
0.0
 11
15.0262790000000006
 21
24.4689110867544635
 31
0.0
  0
LINE
  5
142
100
AcDbEntity
100
AcDbLine
  8
0
 62
256
370
-1
  6
ByLayer
 10
15.0262790000000006
 20
24.4689110867544635
 30
0.0
 11
13.7451900867544641
 21
22.2499999999999929
 31
0.0
  0
LINE
  5
143
100
AcDbEntity
100
AcDbLine
  8
HiddenLines
 62
256
370
-1
  6
ByLayer
 10
15.4012790000000024
 20
28.2938566201357311
 30
0.0
 11
15.0262790000000006
 21
27.6443375672974021
 31
0.0
  0
LINE
  5
144
100
AcDbEntity
100
AcDbLine
  8
HiddenLines
 62
256
370
-1
  6
ByLayer
 10
15.0262790000000006
 20
27.6443375672974021
 30
0.0
 11
15.6757980528383332
 21
27.2693375672973986
 31
0.0
  0
LINE
  5
145
100
AcDbEntity
100
AcDbLine
  8
HiddenLines
 62
256
370
-1
  6
ByLayer
 10
15.6757980528383332
 20
27.2693375672973986
 30
0.0
 11
16.0507980528383278
 21
27.9188566201357311
 31
0.0
  0
LINE
  5
146
100
AcDbEntity
100
AcDbLine
  8
HiddenLines
 62
256
370
-1
  6
ByLayer
 10
16.0507980528383278
 20
27.9188566201357311
 30
0.0
 11
15.4012790000000024
 21
28.2938566201357311
 31
0.0
  0
LINE
  5
147
100
AcDbEntity
100
AcDbLine
  8
HiddenLines
 62
256
370
-1
  6
ByLayer
 10
18.5262789999999988
 20
30.1560889132455259
 30
0.0
 11
17.985013122634733
 21
30.4685889132455294
 31
0.0
  0
LINE
  5
148
100
AcDbEntity
100
AcDbLine
  8
HiddenLines
 62
256
370
-1
  6
ByLayer
 10
17.5262790000000024
 20
28.4240381056766509
 30
0.0
 11
16.9850131226347294
 21
28.7365381056766509
 31
0.0
  0
LINE
  5
149
100
AcDbEntity
100
AcDbLine
  8
HiddenLines
 62
256
370
-1
  6
ByLayer
 10
17.9850131226347258
 20
30.4685889132455294
 30
0.0
 11
16.9850131226347294
 21
28.7365381056766509
 31
0.0
  0
LINE
  5
14A
100
AcDbEntity
100
AcDbLine
  8
0
 62
256
370
-1
  6
ByLayer
 10
19.5842917018922229
 20
31.3636206679760825
 30
0.0
 11
18.5262790000000024
 21
31.9744645862195931
 31
0.0
  0
LINE
  5
14B
100
AcDbEntity
100
AcDbLine
  8
HiddenLines
 62
256
370
-1
  6
ByLayer
 10
18.5262790000000024
 20
31.9744645862195931
 30
0.0
 11
16.1201900867544623
 21
33.3636206679760861
 31
0.0
  0
LINE
  5
14C
100
AcDbEntity
100
AcDbLine
  8
0
 62
256
370
-1
  6
ByLayer
 10
13.7451900867544659
 20
29.2499999999999964
 30
0.0
 11
15.0262790000000006
 21
28.510362971081836
 31
0.0
  0
LINE
  5
14D
100
AcDbEntity
100
AcDbLine
  8
HiddenLines
 62
256
370
-1
  6
ByLayer
 10
15.0262790000000006
 20
28.510362971081836
 30
0.0
 11
17.2092917018922229
 21
27.2499999999999964
 31
0.0
  0
LINE
  5
14E
100
AcDbEntity
100
AcDbLine
  8
HiddenLines
 62
256
370
-1
  6
ByLayer
 10
18.5262789999999988
 20
30.1560889132455259
 30
0.0
 11
17.5262790000000024
 21
28.4240381056766509
 31
0.0
  0
LINE
  5
14F
100
AcDbEntity
100
AcDbLine
  8
HiddenLines
 62
256
370
-1
  6
ByLayer
 10
17.2092917018922229
 20
27.2499999999999964
 30
0.0
 11
18.5262790000000024
 21
29.5310889132455294
 31
0.0
  0
LINE
  5
150
100
AcDbEntity
100
AcDbLine
  8
0
 62
256
370
-1
  6
ByLayer
 10
18.5262790000000024
 20
29.5310889132455294
 30
0.0
 11
19.5842917018922229
 21
31.3636206679760825
 31
0.0
  0
LINE
  5
151
100
AcDbEntity
100
AcDbLine
  8
HiddenLines
 62
256
370
-1
  6
ByLayer
 10
16.1201900867544623
 20
33.3636206679760789
 30
0.0
 11
15.0262790000000006
 21
31.4689110867544635
 31
0.0
  0
LINE
  5
152
100
AcDbEntity
100
AcDbLine
  8
0
 62
256
370
-1
  6
ByLayer
 10
15.0262790000000006
 20
31.4689110867544635
 30
0.0
 11
13.7451900867544659
 21
29.2499999999999964
 31
0.0
  0
LINE
  5
153
100
AcDbEntity
100
AcDbLine
  8
HiddenLines
 62
256
370
-1
  6
ByLayer
 10
18.5262790000000059
 20
35.3636206679760861
 30
0.0
 11
15.0262790000000006
 21
35.3636206679760861
 31
0.0
  0
LINE
  5
154
100
AcDbEntity
100
AcDbLine
  8
0
 62
256
370
-1
  6
ByLayer
 10
18.5262789999999988
 20
4.2499999999999973
 30
0.0
 11
18.5262790000000024
 21
36.1136206679760861
 31
0.0
  0
LINE
  5
155
100
AcDbEntity
100
AcDbLine
  8
0
 62
256
370
-1
  6
ByLayer
 10
15.0262789999999988
 20
36.1136206679760861
 30
0.0
 11
15.0262789999999988
 21
4.2499999999999973
 31
0.0
  0
LINE
  5
156
100
AcDbEntity
100
AcDbLine
  8
0
 62
256
370
-1
  6
ByLayer
 10
18.5262790000000024
 20
36.1136206679760861
 30
0.0
 11
15.0262789999999988
 21
36.1136206679760861
 31
0.0
  0
LINE
  5
157
100
AcDbEntity
100
AcDbLine
  8
Construction
 62
256
370
-1
  6
ByLayer
 10
40.6602540378443962
 20
54.1399001096049162
 30
0.0
 11
46.1602540378443962
 21
44.6136206679760861
 31
0.0
  0
LINE
  5
158
100
AcDbEntity
100
AcDbLine
  8
Construction
 62
256
370
-1
  6
ByLayer
 10
2.0
 20
36.1136206679760861
 30
0.0
 11
2.0000000000000036
 21
96.1136206679760789
 31
0.0
  0
LINE
  5
159
100
AcDbEntity
100
AcDbLine
  8
Construction
 62
256
370
-1
  6
ByLayer
 10
5.4999999999999991
 20
36.1136206679760861
 30
0.0
 11
15.0262789999999988
 21
36.1136206679760861
 31
0.0
  0
LINE
  5
15A
100
AcDbEntity
100
AcDbLine
  8
0
 62
256
370
-1
  6
ByLayer
 10
5.1249997791855852
 20
52.7762794416288301
 30
0.0
 11
5.4999997791855826
 21
52.1267603887905011
 31
0.0
  0
LINE
  5
15B
100
AcDbEntity
100
AcDbLine
  8
0
 62
256
370
-1
  6
ByLayer
 10
3.7499997791855844
 20
55.1578493020360412
 30
0.0
 11
4.3995188320239151
 21
55.532849302036027
 31
0.0
  0
LINE
  5
15C
100
AcDbEntity
100
AcDbLine
  8
0
 62
256
370
-1
  6
ByLayer
 10
6.1495188320239071
 20
52.5017603887905011
 30
0.0
 11
5.4999997791855826
 21
52.1267603887905011
 31
0.0
  0
LINE
  5
15D
100
AcDbEntity
100
AcDbLine
  8
0
 62
256
370
-1
  6
ByLayer
 10
5.4999997791855826
 20
52.1267603887905011
 30
0.0
 11
3.7499997791855844
 21
55.1578493020360412
 31
0.0
  0
LINE
  5
15E
100
AcDbEntity
100
AcDbLine
  8
0
 62
256
370
-1
  6
ByLayer
 10
7.8636204471616633
 20
57.5328493020360412
 30
0.0
 11
9.6136204471616704
 21
54.501760388790494
 31
0.0
  0
LINE
  5
15F
100
AcDbEntity
100
AcDbLine
  8
Construction
 62
256
370
-1
  6
ByLayer
 10
34.879165124598849
 20
3.5
 30
0.0
 11
7.5
 21
3.5
 31
0.0
  0
LINE
  5
160
100
AcDbEntity
100
AcDbLine
  8
Construction
 62
256
370
-1
  6
ByLayer
 10
34.879165124598849
 20
4.25
 30
0.0
 11
7.5
 21
4.25
 31
0.0
  0
LINE
  5
161
100
AcDbEntity
100
AcDbLine
  8
0
 62
256
370
-1
  6
ByLayer
 10
10.2631394999999994
 20
36.1136206679760861
 30
0.0
 11
10.2631394999999976
 21
4.25
 31
0.0
  0
LINE
  5
162
100
AcDbEntity
100
AcDbLine
  8
Construction
 62
256
370
-1
  6
ByLayer
 10
3.7499997791855826
 20
43.595671475544961
 30
0.0
 11
3.749999779185579
 21
-16.404328524455039
 31
0.0
  0
LINE
  5
163
100
AcDbEntity
100
AcDbLine
  8
Construction
 62
256
370
-1
  6
ByLayer
 10
8.513139499999987
 20
40.845671475544961
 30
0.0
 11
8.5131394999999834
 21
-19.154328524455039
 31
0.0
  0
LINE
  5
164
100
AcDbEntity
100
AcDbLine
  8
Construction
 62
256
370
-1
  6
ByLayer
 10
12.0131394999999941
 20
40.845671475544961
 30
0.0
 11
12.0131394999999905
 21
-19.154328524455039
 31
0.0
  0
LINE
  5
165
100
AcDbEntity
100
AcDbLine
  8
Construction
 62
256
370
-1
  6
ByLayer
 10
16.7762792208144091
 20
43.5956714755449539
 30
0.0
 11
16.7762792208144056
 21
-16.4043285244550461
 31
0.0
  0
LINE
  5
166
100
AcDbEntity
100
AcDbLine
  8
0
 62
256
370
-1
  6
ByLayer
 10
3.7499997791855821
 20
36.1136206679760861
 30
0.0
 11
3.7499997791855804
 21
4.25
 31
0.0
  0
LINE
  5
167
100
AcDbEntity
100
AcDbLine
  8
0
 62
256
370
-1
  6
ByLayer
 10
8.513139499999987
 20
36.1136206679760861
 30
0.0
 11
8.5131394999999852
 21
4.25
 31
0.0
  0
LINE
  5
168
100
AcDbEntity
100
AcDbLine
  8
0
 62
256
370
-1
  6
ByLayer
 10
12.0131394999999941
 20
36.1136206679760861
 30
0.0
 11
12.0131394999999923
 21
4.25
 31
0.0
  0
LINE
  5
169
100
AcDbEntity
100
AcDbLine
  8
0
 62
256
370
-1
  6
ByLayer
 10
16.7762792208144091
 20
36.1136206679760861
 30
0.0
 11
16.7762792208144056
 21
4.25
 31
0.0
  0
LINE
  5
16A
100
AcDbEntity
100
AcDbLine
  8
0
 62
256
370
-1
  6
ByLayer
 10
2.0
 20
36.1136206679760861
 30
0.0
 11
15.0262789999999988
 21
36.1136206679760861
 31
0.0
  0
LINE
  5
16B
100
AcDbEntity
100
AcDbLine
  8
0
 62
256
370
-1
  6
ByLayer
 10
3.7499997791855821
 20
35.3636206679760861
 30
0.0
 11
8.513139499999987
 21
35.3636206679760861
 31
0.0
  0
LINE
  5
16C
100
AcDbEntity
100
AcDbLine
  8
0
 62
256
370
-1
  6
ByLayer
 10
8.513139499999987
 20
35.3636206679760861
 30
0.0
 11
10.2631394999999976
 21
35.3636206679760861
 31
0.0
  0
LINE
  5
16D
100
AcDbEntity
100
AcDbLine
  8
0
 62
256
370
-1
  6
ByLayer
 10
10.2631394999999976
 20
35.3636206679760861
 30
0.0
 11
16.7762792208144091
 21
35.3636206679760861
 31
0.0
  0
LINE
  5
16E
100
AcDbEntity
100
AcDbLine
  8
0
 62
256
370
-1
  6
ByLayer
 10
13.0262789999999988
 20
4.25
 30
0.0
 11
0.0000000000000006
 21
4.25
 31
0.0
  0
LINE
  5
16F
100
AcDbEntity
100
AcDbLine
  8
0
 62
256
370
-1
  6
ByLayer
 10
13.0262789999999988
 20
3.5
 30
0.0
 11
0.0000000000000002
 21
3.5
 31
0.0
  0
LINE
  5
170
100
AcDbEntity
100
AcDbLine
  8
Construction
 62
256
370
-1
  6
ByLayer
 10
69.3269309367981919
 20
45.7751648409693672
 30
0.0
 11
83.639108763289272
 21
54.0383045617837894
 31
0.0
  0
LINE
  5
171
100
AcDbEntity
100
AcDbLine
  8
Construction
 62
256
370
-1
  6
ByLayer
 10
76.4830198500437319
 20
58.1698744221909934
 30
0.0
 11
76.4830198500437319
 21
41.6435949805621632
 31
0.0
  0
LINE
  5
172
100
AcDbEntity
100
AcDbLine
  8
Construction
 62
256
370
-1
  6
ByLayer
 10
83.639108763289272
 20
45.7751648409693672
 30
0.0
 11
69.3269309367981919
 21
54.0383045617837894
 31
0.0
  0
LINE
  5
173
100
AcDbEntity
100
AcDbLine
  8
Construction
 62
256
370
-1
  6
ByLayer
 10
10.0466331490538892
 20
54.7517603887905011
 30
0.0
 11
8.2966331490538909
 21
57.7828493020360412
 31
0.0
  0
LINE
  5
174
100
AcDbEntity
100
AcDbLine
  8
Construction
 62
256
370
-1
  6
ByLayer
 10
4.1830124810778058
 20
55.407849302036027
 30
0.0
 11
5.9330124810777978
 21
52.3767603887905011
 31
0.0
  0
LINE
  5
175
100
AcDbEntity
100
AcDbLine
  8
Construction
 62
256
370
-1
  6
ByLayer
 10
1.9999997791855844
 20
51.8767603887905011
 30
0.0
 11
5.4999997791855826
 21
51.8767603887905011
 31
0.0
  0
LINE
  5
176
100
AcDbEntity
100
AcDbLine
  8
Construction
 62
256
370
-1
  6
ByLayer
 10
5.4999997791855844
 20
47.1267603887905011
 30
0.0
 11
1.9999997791855844
 21
47.1267603887905011
 31
0.0
  0
LINE
  5
177
100
AcDbEntity
100
AcDbLine
  8
Construction
 62
256
370
-1
  6
ByLayer
 10
5.7165061301316928
 20
46.5017603887905011
 30
0.0
 11
3.9665061301316924
 21
43.470671475544961
 31
0.0
  0
LINE
  5
178
100
AcDbEntity
100
AcDbLine
  8
Construction
 62
256
370
-1
  6
ByLayer
 10
8.0801267981077718
 20
41.095671475544961
 30
0.0
 11
9.8301267981077807
 21
44.1267603887905011
 31
0.0
  0
LINE
  5
179
100
AcDbEntity
100
AcDbLine
  8
Construction
 62
256
370
-1
  6
ByLayer
 10
10.4796458509461079
 20
44.0017603887905011
 30
0.0
 11
12.2296458509461043
 21
40.970671475544961
 31
0.0
  0
LINE
  5
17A
100
AcDbEntity
100
AcDbLine
  8
Construction
 62
256
370
-1
  6
ByLayer
 10
16.3432665189221957
 20
43.3456714755449539
 30
0.0
 11
14.5932665189221957
 21
46.3767603887905011
 31
0.0
  0
LINE
  5
17B
100
AcDbEntity
100
AcDbLine
  8
Construction
 62
256
370
-1
  6
ByLayer
 10
15.0262792208144145
 20
46.8767603887905011
 30
0.0
 11
18.5262792208144162
 21
46.8767603887905011
 31
0.0
  0
LINE
  5
17C
100
AcDbEntity
100
AcDbLine
  8
Construction
 62
256
370
-1
  6
ByLayer
 10
18.5262792208144162
 20
51.626760388790494
 30
0.0
 11
15.0262792208144145
 21
51.6267603887905011
 31
0.0
  0
LINE
  5
17D
100
AcDbEntity
100
AcDbLine
  8
Construction
 62
256
370
-1
  6
ByLayer
 10
14.809772869868306
 20
52.2517603887905011
 30
0.0
 11
16.5597728698683078
 21
55.2828493020360199
 31
0.0
  0
LINE
  5
17E
100
AcDbEntity
100
AcDbLine
  8
Construction
 62
256
370
-1
  6
ByLayer
 10
12.4461522018922288
 20
57.6578493020360412
 30
0.0
 11
10.6961522018922182
 21
54.626760388790494
 31
0.0
  0
LINE
  5
17F
100
AcDbEntity
100
AcDbLine
  8
0
 62
256
370
-1
  6
ByLayer
 10
10.0466331490538892
 20
54.7517603887905011
 30
0.0
 11
8.2966331490538909
 21
57.7828493020360412
 31
0.0
  0
LINE
  5
180
100
AcDbEntity
100
AcDbLine
  8
0
 62
256
370
-1
  6
ByLayer
 10
4.1830124810778031
 20
55.4078493020360341
 30
0.0
 11
5.9330124810777951
 21
52.3767603887905082
 31
0.0
  0
LINE
  5
181
100
AcDbEntity
100
AcDbLine
  8
0
 62
256
370
-1
  6
ByLayer
 10
8.2966331490538874
 20
57.7828493020360483
 30
0.0
 11
4.3995188320239151
 21
55.532849302036027
 31
0.0
  0
LINE
  5
182
100
AcDbEntity
100
AcDbLine
  8
0
 62
256
370
-1
  6
ByLayer
 10
6.1495188320239071
 20
52.5017603887905011
 30
0.0
 11
10.0466331490538927
 21
54.751760388790494
 31
0.0
  0
LINE
  5
183
100
AcDbEntity
100
AcDbLine
  8
0
 62
256
370
-1
  6
ByLayer
 10
15.9102538170299876
 20
55.4078493020360199
 30
0.0
 11
14.1602538170299823
 21
52.376760388790494
 31
0.0
  0
LINE
  5
184
100
AcDbEntity
100
AcDbLine
  8
0
 62
256
370
-1
  6
ByLayer
 10
10.6961522018922217
 20
54.3767603887904869
 30
0.0
 11
10.0466331490538927
 21
54.751760388790494
 31
0.0
  0
LINE
  5
185
100
AcDbEntity
100
AcDbLine
  8
0
 62
256
370
-1
  6
ByLayer
 10
10.0466331490538927
 20
54.751760388790494
 30
0.0
 11
11.7966331490538998
 21
57.7828493020360341
 31
0.0
  0
LINE
  5
186
100
AcDbEntity
100
AcDbLine
  8
0
 62
256
370
-1
  6
ByLayer
 10
11.7966331490538998
 20
57.7828493020360341
 30
0.0
 11
12.4461522018922324
 21
57.4078493020360341
 31
0.0
  0
LINE
  5
187
100
AcDbEntity
100
AcDbLine
  8
0
 62
256
370
-1
  6
ByLayer
 10
14.5932665189222011
 20
52.126760388790494
 30
0.0
 11
16.3432665189221993
 21
55.1578493020360128
 31
0.0
  0
LINE
  5
188
100
AcDbEntity
100
AcDbLine
  8
0
 62
256
370
-1
  6
ByLayer
 10
12.2296458509461239
 20
57.5328493020360341
 30
0.0
 11
10.4796458509461132
 21
54.5017603887904869
 31
0.0
  0
LINE
  5
189
100
AcDbEntity
100
AcDbLine
  8
0
 62
256
370
-1
  6
ByLayer
 10
12.4461522018922324
 20
57.4078493020360341
 30
0.0
 11
16.3432665189222064
 21
55.1578493020360199
 31
0.0
  0
LINE
  5
18A
100
AcDbEntity
100
AcDbLine
  8
0
 62
256
370
-1
  6
ByLayer
 10
14.5932665189222011
 20
52.126760388790494
 30
0.0
 11
10.6961522018922217
 21
54.3767603887904869
 31
0.0
  0
LINE
  5
18B
100
AcDbEntity
100
AcDbLine
  8
0
 62
256
370
-1
  6
ByLayer
 10
18.0932665189222028
 20
47.3767603887904869
 30
0.0
 11
14.5932665189221993
 21
47.376760388790494
 31
0.0
  0
LINE
  5
18C
100
AcDbEntity
100
AcDbLine
  8
0
 62
256
370
-1
  6
ByLayer
 10
14.5932665189221993
 20
51.376760388790494
 30
0.0
 11
14.5932665189222011
 21
52.126760388790494
 31
0.0
  0
LINE
  5
18D
100
AcDbEntity
100
AcDbLine
  8
0
 62
256
370
-1
  6
ByLayer
 10
18.0932665189222028
 20
52.126760388790494
 30
0.0
 11
18.0932665189222028
 21
51.3767603887904869
 31
0.0
  0
LINE
  5
18E
100
AcDbEntity
100
AcDbLine
  8
0
 62
256
370
-1
  6
ByLayer
 10
14.5932665189222011
 20
52.126760388790494
 30
0.0
 11
18.0932665189222028
 21
52.126760388790494
 31
0.0
  0
LINE
  5
18F
100
AcDbEntity
100
AcDbLine
  8
0
 62
256
370
-1
  6
ByLayer
 10
14.5932665189221993
 20
46.876760388790494
 30
0.0
 11
18.0932665189222028
 21
46.876760388790494
 31
0.0
  0
LINE
  5
190
100
AcDbEntity
100
AcDbLine
  8
0
 62
256
370
-1
  6
ByLayer
 10
18.0932665189222028
 20
51.6267603887904869
 30
0.0
 11
14.5932665189221993
 21
51.626760388790494
 31
0.0
  0
LINE
  5
191
100
AcDbEntity
100
AcDbLine
  8
0
 62
256
370
-1
  6
ByLayer
 10
18.0932665189222028
 20
51.3767603887904869
 30
0.0
 11
18.0932665189222028
 21
46.876760388790494
 31
0.0
  0
LINE
  5
192
100
AcDbEntity
100
AcDbLine
  8
0
 62
256
370
-1
  6
ByLayer
 10
14.5932665189221993
 20
46.876760388790494
 30
0.0
 11
14.5932665189221993
 21
51.376760388790494
 31
0.0
  0
LINE
  5
193
100
AcDbEntity
100
AcDbLine
  8
0
 62
256
370
-1
  6
ByLayer
 10
5.4999997791855826
 20
46.8767603887905011
 30
0.0
 11
5.4999997791855835
 21
47.6267603887905011
 31
0.0
  0
LINE
  5
194
100
AcDbEntity
100
AcDbLine
  8
0
 62
256
370
-1
  6
ByLayer
 10
1.9999997791855835
 20
47.6267603887905011
 30
0.0
 11
1.9999997791855835
 21
46.8767603887905011
 31
0.0
  0
LINE
  5
195
100
AcDbEntity
100
AcDbLine
  8
0
 62
256
370
-1
  6
ByLayer
 10
1.9999997791855835
 20
46.8767603887905011
 30
0.0
 11
5.4999997791855826
 21
46.8767603887905011
 31
0.0
  0
LINE
  5
196
100
AcDbEntity
100
AcDbLine
  8
0
 62
256
370
-1
  6
ByLayer
 10
5.4999997791855826
 20
51.6267603887905011
 30
0.0
 11
1.9999997791855835
 21
51.6267603887905011
 31
0.0
  0
LINE
  5
197
100
AcDbEntity
100
AcDbLine
  8
0
 62
256
370
-1
  6
ByLayer
 10
5.4999995583711669
 20
47.3767603887905011
 30
0.0
 11
1.9999995583711669
 21
47.3767603887905011
 31
0.0
  0
LINE
  5
198
100
AcDbEntity
100
AcDbLine
  8
0
 62
256
370
-1
  6
ByLayer
 10
1.9999995583711669
 20
52.1267603887905011
 30
0.0
 11
5.4999995583711652
 21
52.1267603887905011
 31
0.0
  0
LINE
  5
199
100
AcDbEntity
100
AcDbLine
  8
0
 62
256
370
-1
  6
ByLayer
 10
1.9999997791855835
 20
47.6267603887905011
 30
0.0
 11
1.9999997791855835
 21
52.1267603887905011
 31
0.0
  0
LINE
  5
19A
100
AcDbEntity
100
AcDbLine
  8
0
 62
256
370
-1
  6
ByLayer
 10
5.4999997791855826
 20
52.1267603887905011
 30
0.0
 11
5.4999997791855835
 21
47.6267603887905011
 31
0.0
  0
LINE
  5
19B
100
AcDbEntity
100
AcDbLine
  8
0
 62
256
370
-1
  6
ByLayer
 10
4.1830124810778049
 20
43.5956714755449752
 30
0.0
 11
5.9330124810777978
 21
46.6267603887905011
 31
0.0
  0
LINE
  5
19C
100
AcDbEntity
100
AcDbLine
  8
0
 62
256
370
-1
  6
ByLayer
 10
9.3971140962155619
 20
44.6267603887905011
 30
0.0
 11
10.0466331490538892
 21
44.2517603887905011
 31
0.0
  0
LINE
  5
19D
100
AcDbEntity
100
AcDbLine
  8
0
 62
256
370
-1
  6
ByLayer
 10
10.0466331490538892
 20
44.2517603887905011
 30
0.0
 11
8.2966331490538785
 21
41.220671475544961
 31
0.0
  0
LINE
  5
19E
100
AcDbEntity
100
AcDbLine
  8
0
 62
256
370
-1
  6
ByLayer
 10
8.2966331490538785
 20
41.220671475544961
 30
0.0
 11
7.647114096215553
 21
41.595671475544961
 31
0.0
  0
LINE
  5
19F
100
AcDbEntity
100
AcDbLine
  8
0
 62
256
370
-1
  6
ByLayer
 10
5.499999779185587
 20
46.8767603887905082
 30
0.0
 11
3.7499997791855861
 21
43.8456714755449681
 31
0.0
  0
LINE
  5
1A0
100
AcDbEntity
100
AcDbLine
  8
0
 62
256
370
-1
  6
ByLayer
 10
7.8636204471616651
 20
41.4706714755449681
 30
0.0
 11
9.613620447161674
 21
44.5017603887905082
 31
0.0
  0
LINE
  5
1A1
100
AcDbEntity
100
AcDbLine
  8
0
 62
256
370
-1
  6
ByLayer
 10
7.647114096215553
 20
41.595671475544961
 30
0.0
 11
3.7499997791855901
 21
43.8456714755449752
 31
0.0
  0
LINE
  5
1A2
100
AcDbEntity
100
AcDbLine
  8
0
 62
256
370
-1
  6
ByLayer
 10
5.4999997791855817
 20
46.8767603887905011
 30
0.0
 11
9.3971140962155619
 21
44.6267603887905011
 31
0.0
  0
LINE
  5
1A3
100
AcDbEntity
100
AcDbLine
  8
0
 62
256
370
-1
  6
ByLayer
 10
14.5932665189221993
 20
46.876760388790494
 30
0.0
 11
16.3432665189221957
 21
43.8456714755449468
 31
0.0
  0
LINE
  5
1A4
100
AcDbEntity
100
AcDbLine
  8
0
 62
256
370
-1
  6
ByLayer
 10
12.2296458509461115
 20
41.4706714755449539
 30
0.0
 11
10.4796458509461115
 21
44.501760388790494
 31
0.0
  0
LINE
  5
1A5
100
AcDbEntity
100
AcDbLine
  8
0
 62
256
370
-1
  6
ByLayer
 10
16.3432665189221957
 20
43.8456714755449468
 30
0.0
 11
15.6937474660838721
 21
43.4706714755449468
 31
0.0
  0
LINE
  5
1A6
100
AcDbEntity
100
AcDbLine
  8
0
 62
256
370
-1
  6
ByLayer
 10
14.5932665189221993
 20
46.876760388790494
 30
0.0
 11
13.9437474660838703
 21
46.501760388790494
 31
0.0
  0
LINE
  5
1A7
100
AcDbEntity
100
AcDbLine
  8
0
 62
256
370
-1
  6
ByLayer
 10
15.9102538170299788
 20
43.5956714755449539
 30
0.0
 11
14.1602538170299788
 21
46.6267603887905011
 31
0.0
  0
LINE
  5
1A8
100
AcDbEntity
100
AcDbLine
  8
0
 62
256
370
-1
  6
ByLayer
 10
10.0466331490538909
 20
44.2517603887905011
 30
0.0
 11
11.7966331490538874
 21
41.220671475544961
 31
0.0
  0
LINE
  5
1A9
100
AcDbEntity
100
AcDbLine
  8
0
 62
256
370
-1
  6
ByLayer
 10
13.9437474660838703
 20
46.501760388790494
 30
0.0
 11
10.0466331490538945
 21
44.251760388790494
 31
0.0
  0
LINE
  5
1AA
100
AcDbEntity
100
AcDbLine
  8
0
 62
256
370
-1
  6
ByLayer
 10
11.7966331490538909
 20
41.2206714755449539
 30
0.0
 11
15.6937474660838721
 21
43.4706714755449468
 31
0.0
  0
LINE
  5
1AB
100
AcDbEntity
100
AcDbLine
  8
Construction
 62
256
370
-1
  6
ByLayer
 10
5.4999997791855826
 20
52.1267603887905011
 30
0.0
 11
14.5932665189221993
 21
46.876760388790494
 31
0.0
  0
LINE
  5
1AC
100
AcDbEntity
100
AcDbLine
  8
Construction
 62
256
370
-1
  6
ByLayer
 10
14.5932665189222011
 20
52.126760388790494
 30
0.0
 11
5.4999997791855826
 21
46.8767603887905011
 31
0.0
  0
CIRCLE
  5
1AD
100
AcDbEntity
100
AcDbCircle
  8
Construction
 62
256
370
-1
  6
ByLayer
 10
10.0466331490538909
 20
49.501760388790494
 30
0.0
 40
8.0
  0
CIRCLE
  5
1AE
100
AcDbEntity
100
AcDbCircle
  8
Construction
 62
256
370
-1
  6
ByLayer
 10
10.0466331490538909
 20
49.501760388790494
 30
0.0
 40
6.0
  0
LINE
  5
1AF
100
AcDbEntity
100
AcDbLine
  8
Construction
 62
256
370
-1
  6
ByLayer
 10
45.9102540378443962
 20
57.6399001096049162
 30
0.0
 11
45.9102540378443962
 21
54.1399001096049162
 31
0.0
  0
LINE
  5
1B0
100
AcDbEntity
100
AcDbLine
  8
Construction
 62
256
370
-1
  6
ByLayer
 10
40.9102540378443962
 20
44.6136206679760861
 30
0.0
 11
40.9102540378443962
 21
41.1136206679760861
 31
0.0
  0
LINE
  5
1B1
100
AcDbEntity
100
AcDbLine
  8
0
 62
256
370
-1
  6
ByLayer
 10
41.1602540378443962
 20
54.1399001096049162
 30
0.0
 11
41.1602540378443962
 21
57.6399001096049162
 31
0.0
  0
LINE
  5
1B2
100
AcDbEntity
100
AcDbLine
  8
0
 62
256
370
-1
  6
ByLayer
 10
45.9102540378443962
 20
57.6399001096049162
 30
0.0
 11
45.9102540378443962
 21
54.1399001096049162
 31
0.0
  0
LINE
  5
1B3
100
AcDbEntity
100
AcDbLine
  8
0
 62
256
370
-1
  6
ByLayer
 10
41.4102540378443962
 20
57.6399001096049162
 30
0.0
 11
45.9102540378443962
 21
57.6399001096049162
 31
0.0
  0
LINE
  5
1B4
100
AcDbEntity
100
AcDbLine
  8
0
 62
256
370
-1
  6
ByLayer
 10
45.9102540378443962
 20
54.1399001096049162
 30
0.0
 11
41.4102540378443962
 21
54.1399001096049162
 31
0.0
  0
LINE
  5
1B5
100
AcDbEntity
100
AcDbLine
  8
0
 62
256
370
-1
  6
ByLayer
 10
46.5597730906827252
 20
54.5149001096049162
 30
0.0
 11
45.9102540378443962
 21
54.1399001096049162
 31
0.0
  0
LINE
  5
1B6
100
AcDbEntity
100
AcDbLine
  8
0
 62
256
370
-1
  6
ByLayer
 10
48.9413429510899363
 20
55.8899001096049162
 30
0.0
 11
49.3163429510899221
 21
55.2403810567665872
 31
0.0
  0
LINE
  5
1B7
100
AcDbEntity
100
AcDbLine
  8
0
 62
256
370
-1
  6
ByLayer
 10
46.2852540378443962
 20
53.4903810567665943
 30
0.0
 11
45.9102540378443962
 21
54.1399001096049162
 31
0.0
  0
LINE
  5
1B8
100
AcDbEntity
100
AcDbLine
  8
0
 62
256
370
-1
  6
ByLayer
 10
45.9102540378443962
 20
54.1399001096049162
 30
0.0
 11
48.9413429510899363
 21
55.8899001096049162
 31
0.0
  0
LINE
  5
1B9
100
AcDbEntity
100
AcDbLine
  8
0
 62
256
370
-1
  6
ByLayer
 10
51.3163429510899363
 20
51.7762794416288372
 30
0.0
 11
48.2852540378443891
 21
50.0262794416288301
 31
0.0
  0
LINE
  5
1BA
100
AcDbEntity
100
AcDbLine
  8
Construction
 62
256
370
-1
  6
ByLayer
 10
46.0352540378443962
 20
44.8301270189221981
 30
0.0
 11
49.0663429510899221
 21
43.0801270189221981
 31
0.0
  0
LINE
  5
1BB
100
AcDbEntity
100
AcDbLine
  8
Construction
 62
256
370
-1
  6
ByLayer
 10
48.5352540378443962
 20
49.5932667397366131
 30
0.0
 11
51.5663429510899363
 21
51.3432667397366131
 31
0.0
  0
LINE
  5
1BC
100
AcDbEntity
100
AcDbLine
  8
0
 62
256
370
-1
  6
ByLayer
 10
49.1913429510899221
 20
55.4568874077126992
 30
0.0
 11
46.1602540378443962
 21
53.7068874077127063
 31
0.0
  0
LINE
  5
1BD
100
AcDbEntity
100
AcDbLine
  8
0
 62
256
370
-1
  6
ByLayer
 10
48.5352540378443962
 20
49.5932667397366131
 30
0.0
 11
51.5663429510899363
 21
51.3432667397366131
 31
0.0
  0
LINE
  5
1BE
100
AcDbEntity
100
AcDbLine
  8
0
 62
256
370
-1
  6
ByLayer
 10
46.2852540378443962
 20
53.4903810567665943
 30
0.0
 11
48.5352540378443891
 21
49.593266739736606
 31
0.0
  0
LINE
  5
1BF
100
AcDbEntity
100
AcDbLine
  8
0
 62
256
370
-1
  6
ByLayer
 10
51.5663429510899434
 20
51.3432667397366131
 30
0.0
 11
49.3163429510899221
 21
55.2403810567665872
 31
0.0
  0
LINE
  5
1C0
100
AcDbEntity
100
AcDbLine
  8
0
 62
256
370
-1
  6
ByLayer
 10
37.3791651245988774
 20
55.4568874077126992
 30
0.0
 11
40.4102540378444033
 21
53.7068874077127063
 31
0.0
  0
LINE
  5
1C1
100
AcDbEntity
100
AcDbLine
  8
0
 62
256
370
-1
  6
ByLayer
 10
38.4102540378444033
 20
50.2427857925749421
 30
0.0
 11
38.0352540378444033
 21
49.5932667397366131
 31
0.0
  0
LINE
  5
1C2
100
AcDbEntity
100
AcDbLine
  8
0
 62
256
370
-1
  6
ByLayer
 10
38.0352540378444033
 20
49.5932667397366131
 30
0.0
 11
35.0041651245988632
 21
51.3432667397366203
 31
0.0
  0
LINE
  5
1C3
100
AcDbEntity
100
AcDbLine
  8
0
 62
256
370
-1
  6
ByLayer
 10
35.0041651245988632
 20
51.3432667397366203
 30
0.0
 11
35.3791651245988632
 21
51.9927857925749493
 31
0.0
  0
LINE
  5
1C4
100
AcDbEntity
100
AcDbLine
  8
Construction
 62
256
370
-1
  6
ByLayer
 10
40.6602540378444033
 20
54.1399001096049162
 30
0.0
 11
37.6291651245988632
 21
55.8899001096049162
 31
0.0
  0
LINE
  5
1C5
100
AcDbEntity
100
AcDbLine
  8
Construction
 62
256
370
-1
  6
ByLayer
 10
38.1602540378444033
 20
49.3767603887905011
 30
0.0
 11
35.1291651245988632
 21
47.6267603887905011
 31
0.0
  0
LINE
  5
1C6
100
AcDbEntity
100
AcDbLine
  8
0
 62
256
370
-1
  6
ByLayer
 10
40.6602540378444033
 20
54.1399001096049162
 30
0.0
 11
37.6291651245988632
 21
55.8899001096049162
 31
0.0
  0
LINE
  5
1C7
100
AcDbEntity
100
AcDbLine
  8
0
 62
256
370
-1
  6
ByLayer
 10
35.2541651245988632
 20
51.7762794416288372
 30
0.0
 11
38.2852540378444033
 21
50.0262794416288301
 31
0.0
  0
LINE
  5
1C8
100
AcDbEntity
100
AcDbLine
  8
0
 62
256
370
-1
  6
ByLayer
 10
35.3791651245988632
 20
51.9927857925749493
 30
0.0
 11
37.6291651245988774
 21
55.8899001096049091
 31
0.0
  0
LINE
  5
1C9
100
AcDbEntity
100
AcDbLine
  8
0
 62
256
370
-1
  6
ByLayer
 10
40.6602540378443962
 20
54.1399001096049162
 30
0.0
 11
38.4102540378444033
 21
50.2427857925749421
 31
0.0
  0
LINE
  5
1CA
100
AcDbEntity
100
AcDbLine
  8
0
 62
256
370
-1
  6
ByLayer
 10
49.1913429510899221
 20
43.72964607176052
 30
0.0
 11
46.1602540378443962
 21
45.4796460717605271
 31
0.0
  0
LINE
  5
1CB
100
AcDbEntity
100
AcDbLine
  8
0
 62
256
370
-1
  6
ByLayer
 10
48.1602540378443891
 20
48.9437476868982841
 30
0.0
 11
48.5352540378443962
 21
49.5932667397366131
 31
0.0
  0
LINE
  5
1CC
100
AcDbEntity
100
AcDbLine
  8
0
 62
256
370
-1
  6
ByLayer
 10
48.5352540378443962
 20
49.5932667397366131
 30
0.0
 11
51.5663429510899363
 21
47.843266739736606
 31
0.0
  0
LINE
  5
1CD
100
AcDbEntity
100
AcDbLine
  8
0
 62
256
370
-1
  6
ByLayer
 10
51.5663429510899363
 20
47.843266739736606
 30
0.0
 11
51.1913429510899363
 21
47.193747686898277
 31
0.0
  0
LINE
  5
1CE
100
AcDbEntity
100
AcDbLine
  8
0
 62
256
370
-1
  6
ByLayer
 10
45.9102540378443962
 20
45.0466333698683101
 30
0.0
 11
48.9413429510899221
 21
43.2966333698683101
 31
0.0
  0
LINE
  5
1CF
100
AcDbEntity
100
AcDbLine
  8
0
 62
256
370
-1
  6
ByLayer
 10
51.3163429510899363
 20
47.4102540378443891
 30
0.0
 11
48.2852540378443891
 21
49.1602540378443962
 31
0.0
  0
LINE
  5
1D0
100
AcDbEntity
100
AcDbLine
  8
0
 62
256
370
-1
  6
ByLayer
 10
45.9102540378443962
 20
45.0466333698683101
 30
0.0
 11
48.1602540378443891
 21
48.9437476868982841
 31
0.0
  0
LINE
  5
1D1
100
AcDbEntity
100
AcDbLine
  8
0
 62
256
370
-1
  6
ByLayer
 10
51.1913429510899363
 20
47.193747686898277
 30
0.0
 11
48.9413429510899221
 21
43.2966333698683101
 31
0.0
  0
LINE
  5
1D2
100
AcDbEntity
100
AcDbLine
  8
0
 62
256
370
-1
  6
ByLayer
 10
40.6602540378444033
 20
45.0466333698683101
 30
0.0
 11
37.6291651245988632
 21
43.2966333698683101
 31
0.0
  0
LINE
  5
1D3
100
AcDbEntity
100
AcDbLine
  8
0
 62
256
370
-1
  6
ByLayer
 10
35.2541651245988632
 20
47.4102540378443962
 30
0.0
 11
38.2852540378444033
 21
49.1602540378443962
 31
0.0
  0
LINE
  5
1D4
100
AcDbEntity
100
AcDbLine
  8
0
 62
256
370
-1
  6
ByLayer
 10
37.6291651245988632
 20
43.2966333698683101
 30
0.0
 11
37.2541651245988632
 21
43.946152422706632
 31
0.0
  0
LINE
  5
1D5
100
AcDbEntity
100
AcDbLine
  8
0
 62
256
370
-1
  6
ByLayer
 10
40.6602540378444033
 20
45.0466333698683101
 30
0.0
 11
40.2852540378444033
 21
45.6961524227066391
 31
0.0
  0
LINE
  5
1D6
100
AcDbEntity
100
AcDbLine
  8
0
 62
256
370
-1
  6
ByLayer
 10
37.3791651245988632
 20
43.72964607176052
 30
0.0
 11
40.4102540378444033
 21
45.4796460717605271
 31
0.0
  0
LINE
  5
1D7
100
AcDbEntity
100
AcDbLine
  8
0
 62
256
370
-1
  6
ByLayer
 10
38.0352540378444033
 20
49.5932667397366131
 30
0.0
 11
35.0041651245988632
 21
47.8432667397366131
 31
0.0
  0
LINE
  5
1D8
100
AcDbEntity
100
AcDbLine
  8
0
 62
256
370
-1
  6
ByLayer
 10
40.2852540378444033
 20
45.6961524227066391
 30
0.0
 11
38.0352540378444033
 21
49.5932667397366131
 31
0.0
  0
LINE
  5
1D9
100
AcDbEntity
100
AcDbLine
  8
0
 62
256
370
-1
  6
ByLayer
 10
35.0041651245988632
 20
47.8432667397366131
 30
0.0
 11
37.2541651245988632
 21
43.946152422706632
 31
0.0
  0
LINE
  5
1DA
100
AcDbEntity
100
AcDbLine
  8
0
 62
256
370
-1
  6
ByLayer
 10
41.1602540378444033
 20
41.5466333698683101
 30
0.0
 11
41.1602540378444033
 21
45.0466333698683101
 31
0.0
  0
LINE
  5
1DB
100
AcDbEntity
100
AcDbLine
  8
0
 62
256
370
-1
  6
ByLayer
 10
45.1602540378444033
 20
45.0466333698683101
 30
0.0
 11
45.9102540378444033
 21
45.0466333698683101
 31
0.0
  0
LINE
  5
1DC
100
AcDbEntity
100
AcDbLine
  8
0
 62
256
370
-1
  6
ByLayer
 10
45.9102540378444033
 20
41.5466333698683101
 30
0.0
 11
45.1602540378444033
 21
41.5466333698683101
 31
0.0
  0
LINE
  5
1DD
100
AcDbEntity
100
AcDbLine
  8
0
 62
256
370
-1
  6
ByLayer
 10
45.9102540378444033
 20
45.0466333698683101
 30
0.0
 11
45.9102540378444033
 21
41.5466333698683101
 31
0.0
  0
LINE
  5
1DE
100
AcDbEntity
100
AcDbLine
  8
0
 62
256
370
-1
  6
ByLayer
 10
40.6602540378444033
 20
45.0466333698683101
 30
0.0
 11
40.6602540378444033
 21
41.5466333698683101
 31
0.0
  0
LINE
  5
1DF
100
AcDbEntity
100
AcDbLine
  8
0
 62
256
370
-1
  6
ByLayer
 10
45.4102540378444033
 20
41.5466333698683101
 30
0.0
 11
45.4102540378444033
 21
45.0466333698683101
 31
0.0
  0
LINE
  5
1E0
100
AcDbEntity
100
AcDbLine
  8
0
 62
256
370
-1
  6
ByLayer
 10
40.6602540378444033
 20
45.0466333698683101
 30
0.0
 11
45.1602540378444033
 21
45.0466333698683101
 31
0.0
  0
LINE
  5
1E1
100
AcDbEntity
100
AcDbLine
  8
0
 62
256
370
-1
  6
ByLayer
 10
45.1602540378444033
 20
41.5466333698683101
 30
0.0
 11
40.6602540378444033
 21
41.5466333698683101
 31
0.0
  0
CIRCLE
  5
1E2
100
AcDbEntity
100
AcDbCircle
  8
Construction
 62
256
370
-1
  6
ByLayer
 10
10.0466331490538909
 20
49.501760388790494
 30
0.0
 40
11.5
  0
ENDSEC
  0
SECTION
  2
OBJECTS
  0
DICTIONARY
  5
C
100
AcDbDictionary
280
0
281
1
  3
ACAD_GROUP
350
D
  3
ACAD_LAYOUT
350
1A
  3
ACAD_MLINESTYLE
350
17
  3
ACAD_PLOTSETTINGS
350
19
  3
ACAD_PLOTSTYLENAME
350
E
  3
AcDbVariableDictionary
350
1E3
  0
DICTIONARY
  5
D
100
AcDbDictionary
280
0
281
1
  0
ACDBDICTIONARYWDFLT
  5
E
100
AcDbDictionary
281
1
  3
Normal
350
F
100
AcDbDictionaryWithDefault
340
F
  0
ACDBPLACEHOLDER
  5
F
  0
DICTIONARY
  5
17
100
AcDbDictionary
280
0
281
1
  3
Standard
350
18
  0
MLINESTYLE
  5
18
100
AcDbMlineStyle
  2
STANDARD
 70
0
  3

 62
256
 51
90.0
 52
90.0
 71
2
 49
0.5
 62
256
  6
BYLAYER
 49
-0.5
 62
256
  6
BYLAYER
  0
DICTIONARY
  5
19
100
AcDbDictionary
280
0
281
1
  0
DICTIONARY
  5
1A
100
AcDbDictionary
281
1
  3
Layout1
350
1E
  3
Layout2
350
26
  3
Model
350
22
  0
LAYOUT
  5
1E
100
AcDbPlotSettings
  1

  2
C:\Program Files\AutoCAD 2002\plotters\DWF ePlot (optimized for plotting).pc3
  4

  6

 40
0.0
 41
0.0
 42
0.0
 43
0.0
 44
0.0
 45
0.0
 46
0.0
 47
0.0
 48
0.0
 49
0.0
140
0.0
141
0.0
142
1.0
143
1.0
 70
688
 72
0
 73
0
 74
5
  7

 75
16
147
1.0
148
0.0
149
0.0
100
AcDbLayout
  1
Layout1
 70
1
 71
1
 10
0.0
 20
0.0
 11
420.0
 21
297.0
 12
0.0
 22
0.0
 32
0.0
 14
100000000000000000000.0
 24
100000000000000000000.0
 34
100000000000000000000.0
 15
-100000000000000000000.0
 25
-100000000000000000000.0
 35
-100000000000000000000.0
146
0.0
 13
0.0
 23
0.0
 33
0.0
 16
1.0
 26
0.0
 36
0.0
 17
0.0
 27
1.0
 37
0.0
 76
0
330
1B
  0
LAYOUT
  5
22
100
AcDbPlotSettings
  1

  2
C:\Program Files\AutoCAD 2002\plotters\DWF ePlot (optimized for plotting).pc3
  4

  6

 40
0.0
 41
0.0
 42
0.0
 43
0.0
 44
0.0
 45
0.0
 46
0.0
 47
0.0
 48
0.0
 49
0.0
140
0.0
141
0.0
142
1.0
143
1.0
 70
1712
 72
0
 73
0
 74
0
  7

 75
0
147
1.0
148
0.0
149
0.0
100
AcDbLayout
  1
Model
 70
1
 71
0
 10
0.0
 20
0.0
 11
12.0
 21
9.0
 12
0.0
 22
0.0
 32
0.0
 14
0.0
 24
0.0
 34
0.0
 15
0.0
 25
0.0
 35
0.0
146
0.0
 13
0.0
 23
0.0
 33
0.0
 16
1.0
 26
0.0
 36
0.0
 17
0.0
 27
1.0
 37
0.0
 76
0
330
1F
  0
LAYOUT
  5
26
100
AcDbPlotSettings
  1

  2
C:\Program Files\AutoCAD 2002\plotters\DWF ePlot (optimized for plotting).pc3
  4

  6

 40
0.0
 41
0.0
 42
0.0
 43
0.0
 44
0.0
 45
0.0
 46
0.0
 47
0.0
 48
0.0
 49
0.0
140
0.0
141
0.0
142
1.0
143
1.0
 70
688
 72
0
 73
0
 74
5
  7

 75
16
147
1.0
148
0.0
149
0.0
100
AcDbLayout
  1
Layout2
 70
1
 71
2
 10
0.0
 20
0.0
 11
12.0
 21
9.0
 12
0.0
 22
0.0
 32
0.0
 14
0.0
 24
0.0
 34
0.0
 15
0.0
 25
0.0
 35
0.0
146
0.0
 13
0.0
 23
0.0
 33
0.0
 16
1.0
 26
0.0
 36
0.0
 17
0.0
 27
1.0
 37
0.0
 76
0
330
23
  0
DICTIONARY
  5
1E3
100
AcDbDictionary
281
1
  3
DIMASSOC
350
1E5
  3
HIDETEXT
350
1E4
  0
DICTIONARYVAR
  5
1E4
100
DictionaryVariables
280
0
  1
2
  0
DICTIONARYVAR
  5
1E5
100
DictionaryVariables
280
0
  1
1
  0
ENDSEC
  0
EOF
