999
dxflib 2.2.0.0
  0
SECTION
  2
HEADER
  9
$ACADVER
  1
AC1015
  9
$HANDSEED
  5
FFFF
  9
$SPLINESEGS
 70
8
  9
$DIMEXE
 40
0.625
  9
$DIMLUNIT
 70
5
  9
$GRIDMODE
 70
1
  9
$INSUNITS
 70
1
  9
$DIMADEC
 70
2
  9
$DIMASZ
 40
1.25
  9
$DIMGAP
 40
0.3125
  9
$DIMTXT
 40
1.25
  9
$GRIDUNIT
 10
0.0
 20
0.0
  9
$DIMEXO
 40
0.3125
  9
$LUPREC
 70
4
  9
$DIMAUNIT
 70
0
  9
$AUPREC
 70
2
  9
$PLIMMIN
 10
0.0
 20
0.0
  9
$LUNITS
 70
5
  9
$PLIMMAX
 10
8.5
 20
11.0
  9
$DIMSTYLE
  2
Standard
  9
$AUNITS
 70
0
  0
ENDSEC
  0
SECTION
  2
TABLES
  0
TABLE
  2
VPORT
  5
8
100
AcDbSymbolTable
 70
1
  0
VPORT
  5
30
100
AcDbSymbolTableRecord
100
AcDbViewportTableRecord
  2
*Active
 70
0
 10
0.0
 20
0.0
 11
1.0
 21
1.0
 12
286.3055555555554861
 22
148.5
 13
0.0
 23
0.0
 14
10.0
 24
10.0
 15
10.0
 25
10.0
 16
0.0
 26
0.0
 36
1.0
 17
0.0
 27
0.0
 37
0.0
 40
297.0
 41
1.92798353909465
 42
50.0
 43
0.0
 44
0.0
 50
0.0
 51
0.0
 71
0
 72
100
 73
1
 74
3
 75
1
 76
1
 77
0
 78
0
281
0
 65
1
110
0.0
120
0.0
130
0.0
111
1.0
121
0.0
131
0.0
112
0.0
122
1.0
132
0.0
 79
0
146
0.0
  0
ENDTAB
  0
TABLE
  2
LTYPE
  5
5
100
AcDbSymbolTable
 70
21
  0
LTYPE
  5
14
100
AcDbSymbolTableRecord
100
AcDbLinetypeTableRecord
  2
ByBlock
 70
0
  3

 72
65
 73
0
 40
0.0
  0
LTYPE
  5
15
100
AcDbSymbolTableRecord
100
AcDbLinetypeTableRecord
  2
ByLayer
 70
0
  3

 72
65
 73
0
 40
0.0
  0
LTYPE
  5
16
100
AcDbSymbolTableRecord
100
AcDbLinetypeTableRecord
  2
CONTINUOUS
 70
0
  3
Solid line
 72
65
 73
0
 40
0.0
  0
LTYPE
  5
31
100
AcDbSymbolTableRecord
100
AcDbLinetypeTableRecord
  2
DOT
 70
0
  3
Dot . . . . . . . . . . . . . . . . . . . . . .
 72
65
 73
2
 40
6.3499999999999996
 49
0.0
 74
0
 49
-6.3499999999999996
 74
0
  0
LTYPE
  5
32
100
AcDbSymbolTableRecord
100
AcDbLinetypeTableRecord
  2
DOT2
 70
0
  3
Dot (.5x) .....................................
 72
65
 73
2
 40
3.1749999999999998
 49
0.0
 74
0
 49
-3.1749999999999998
 74
0
  0
LTYPE
  5
33
100
AcDbSymbolTableRecord
100
AcDbLinetypeTableRecord
  2
DOTX2
 70
0
  3
Dot (2x) .  .  .  .  .  .  .  .  .  .  .  .  .
 72
65
 73
2
 40
12.6999999999999993
 49
0.0
 74
0
 49
-12.6999999999999993
 74
0
  0
LTYPE
  5
34
100
AcDbSymbolTableRecord
100
AcDbLinetypeTableRecord
  2
DASHED
 70
0
  3
Dashed __ __ __ __ __ __ __ __ __ __ __ __ __ _
 72
65
 73
2
 40
19.0500000000000007
 49
12.6999999999999993
 74
0
 49
-6.3499999999999996
 74
0
  0
LTYPE
  5
35
100
AcDbSymbolTableRecord
100
AcDbLinetypeTableRecord
  2
DASHED2
 70
0
  3
Dashed (.5x) _ _ _ _ _ _ _ _ _ _ _ _ _ _ _ _ _
 72
65
 73
2
 40
9.5250000000000004
 49
6.3499999999999996
 74
0
 49
-3.1749999999999998
 74
0
  0
LTYPE
  5
36
100
AcDbSymbolTableRecord
100
AcDbLinetypeTableRecord
  2
DASHEDX2
 70
0
  3
Dashed (2x) ____  ____  ____  ____  ____  ___
 72
65
 73
2
 40
38.1000000000000014
 49
25.3999999999999986
 74
0
 49
-12.6999999999999993
 74
0
  0
LTYPE
  5
37
100
AcDbSymbolTableRecord
100
AcDbLinetypeTableRecord
  2
DASHDOT
 70
0
  3
Dash dot __ . __ . __ . __ . __ . __ . __ . __
 72
65
 73
4
 40
25.3999999999999986
 49
12.6999999999999993
 74
0
 49
-6.3499999999999996
 74
0
 49
0.0
 74
0
 49
-6.3499999999999996
 74
0
  0
LTYPE
  5
38
100
AcDbSymbolTableRecord
100
AcDbLinetypeTableRecord
  2
DASHDOT2
 70
0
  3
Dash dot (.5x) _._._._._._._._._._._._._._._.
 72
65
 73
4
 40
12.6999999999999993
 49
6.3499999999999996
 74
0
 49
-3.1749999999999998
 74
0
 49
0.0
 74
0
 49
-3.1749999999999998
 74
0
  0
LTYPE
  5
39
100
AcDbSymbolTableRecord
100
AcDbLinetypeTableRecord
  2
DASHDOTX2
 70
0
  3
Dash dot (2x) ____  .  ____  .  ____  .  ___
 72
65
 73
4
 40
50.7999999999999972
 49
25.3999999999999986
 74
0
 49
-12.6999999999999993
 74
0
 49
0.0
 74
0
 49
-12.6999999999999993
 74
0
  0
LTYPE
  5
3A
100
AcDbSymbolTableRecord
100
AcDbLinetypeTableRecord
  2
DIVIDE
 70
0
  3
Divide ____ . . ____ . . ____ . . ____ . . ____
 72
65
 73
6
 40
31.75
 49
12.6999999999999993
 74
0
 49
-6.3499999999999996
 74
0
 49
0.0
 74
0
 49
-6.3499999999999996
 74
0
 49
0.0
 74
0
 49
-6.3499999999999996
 74
0
  0
LTYPE
  5
3B
100
AcDbSymbolTableRecord
100
AcDbLinetypeTableRecord
  2
DIVIDE2
 70
0
  3
Divide (.5x) __..__..__..__..__..__..__..__.._
 72
65
 73
6
 40
15.875
 49
6.3499999999999996
 74
0
 49
-3.1749999999999998
 74
0
 49
0.0
 74
0
 49
-3.1749999999999998
 74
0
 49
0.0
 74
0
 49
-3.1749999999999998
 74
0
  0
LTYPE
  5
3C
100
AcDbSymbolTableRecord
100
AcDbLinetypeTableRecord
  2
DIVIDEX2
 70
0
  3
Divide (2x) ________  .  .  ________  .  .  _
 72
65
 73
6
 40
63.5
 49
25.3999999999999986
 74
0
 49
-12.6999999999999993
 74
0
 49
0.0
 74
0
 49
-12.6999999999999993
 74
0
 49
0.0
 74
0
 49
-12.6999999999999993
 74
0
  0
LTYPE
  5
3D
100
AcDbSymbolTableRecord
100
AcDbLinetypeTableRecord
  2
CENTER
 70
0
  3
Center ____ _ ____ _ ____ _ ____ _ ____ _ ____
 72
65
 73
4
 40
50.7999999999999972
 49
31.75
 74
0
 49
-6.3499999999999996
 74
0
 49
6.3499999999999996
 74
0
 49
-6.3499999999999996
 74
0
  0
LTYPE
  5
3E
100
AcDbSymbolTableRecord
100
AcDbLinetypeTableRecord
  2
CENTER2
 70
0
  3
Center (.5x) ___ _ ___ _ ___ _ ___ _ ___ _ ___
 72
65
 73
4
 40
28.5749999999999993
 49
19.0500000000000007
 74
0
 49
-3.1749999999999998
 74
0
 49
3.1749999999999998
 74
0
 49
-3.1749999999999998
 74
0
  0
LTYPE
  5
3F
100
AcDbSymbolTableRecord
100
AcDbLinetypeTableRecord
  2
CENTERX2
 70
0
  3
Center (2x) ________  __  ________  __  _____
 72
65
 73
4
 40
101.5999999999999943
 49
63.5
 74
0
 49
-12.6999999999999993
 74
0
 49
12.6999999999999993
 74
0
 49
-12.6999999999999993
 74
0
  0
LTYPE
  5
40
100
AcDbSymbolTableRecord
100
AcDbLinetypeTableRecord
  2
BORDER
 70
0
  3
Border __ __ . __ __ . __ __ . __ __ . __ __ .
 72
65
 73
6
 40
44.4500000000000028
 49
12.6999999999999993
 74
0
 49
-6.3499999999999996
 74
0
 49
12.6999999999999993
 74
0
 49
-6.3499999999999996
 74
0
 49
0.0
 74
0
 49
-6.3499999999999996
 74
0
  0
LTYPE
  5
41
100
AcDbSymbolTableRecord
100
AcDbLinetypeTableRecord
  2
BORDER2
 70
0
  3
Border (.5x) __.__.__.__.__.__.__.__.__.__.__.
 72
65
 73
6
 40
22.2250000000000014
 49
6.3499999999999996
 74
0
 49
-3.1749999999999998
 74
0
 49
6.3499999999999996
 74
0
 49
-3.1749999999999998
 74
0
 49
0.0
 74
0
 49
-3.1749999999999998
 74
0
  0
LTYPE
  5
42
100
AcDbSymbolTableRecord
100
AcDbLinetypeTableRecord
  2
BORDERX2
 70
0
  3
Border (2x) ____  ____  .  ____  ____  .  ___
 72
65
 73
6
 40
88.9000000000000057
 49
25.3999999999999986
 74
0
 49
-12.6999999999999993
 74
0
 49
25.3999999999999986
 74
0
 49
-12.6999999999999993
 74
0
 49
0.0
 74
0
 49
-12.6999999999999993
 74
0
  0
ENDTAB
  0
TABLE
  2
LAYER
  5
2
100
AcDbSymbolTable
 70
5
  0
LAYER
  5
10
100
AcDbSymbolTableRecord
100
AcDbLayerTableRecord
  2
0
 70
0
 62
7
  6
CONTINUOUS
290
1
370
0
390
F
  0
LAYER
  5
43
100
AcDbSymbolTableRecord
100
AcDbLayerTableRecord
  2
Annotation
 70
0
 62
7
  6
CONTINUOUS
290
1
370
0
390
F
  0
LAYER
  5
44
100
AcDbSymbolTableRecord
100
AcDbLayerTableRecord
  2
construction
 70
0
 62
1
  6
DASHDOT
290
1
370
0
390
F
  0
LAYER
  5
45
100
AcDbSymbolTableRecord
100
AcDbLayerTableRecord
  2
hidden
 70
0
 62
7
  6
DASHED
290
1
370
0
390
F
  0
LAYER
  5
46
100
AcDbSymbolTableRecord
100
AcDbLayerTableRecord
  2
dimensions
 70
0
 62
3
  6
CONTINUOUS
290
1
370
0
390
F
  0
ENDTAB
  0
TABLE
  2
STYLE
  5
3
100
AcDbSymbolTable
 70
1
  0
STYLE
  5
11
100
AcDbSymbolTableRecord
100
AcDbTextStyleTableRecord
  2
Standard
 70
0
 40
0.0
 41
0.75
 50
0.0
 71
0
 42
2.5
  3
txt
  4

  0
ENDTAB
  0
TABLE
  2
VIEW
  5
6
100
AcDbSymbolTable
 70
0
  0
ENDTAB
  0
TABLE
  2
UCS
  5
7
100
AcDbSymbolTable
 70
0
  0
ENDTAB
  0
TABLE
  2
APPID
  5
9
100
AcDbSymbolTable
 70
1
  0
APPID
  5
12
100
AcDbSymbolTableRecord
100
AcDbRegAppTableRecord
  2
ACAD
 70
0
  0
ENDTAB
  0
TABLE
  2
DIMSTYLE
  5
A
100
AcDbSymbolTable
 70
1
100
AcDbDimStyleTable
 71
0
  0
DIMSTYLE
105
27
100
AcDbSymbolTableRecord
100
AcDbDimStyleTableRecord
  2
Standard
 41
1.25
 42
0.3125
 43
3.75
 44
0.625
 70
0
 73
0
 74
0
 77
1
 78
8
140
1.25
141
2.5
143
0.03937007874016
147
0.3125
171
3
172
1
271
2
272
2
274
3
278
44
283
0
284
8
340
11
  0
ENDTAB
  0
TABLE
  2
BLOCK_RECORD
  5
1
100
AcDbSymbolTable
 70
1
  0
BLOCK_RECORD
  5
1F
100
AcDbSymbolTableRecord
100
AcDbBlockTableRecord
  2
*Model_Space
340
22
  0
BLOCK_RECORD
  5
1B
100
AcDbSymbolTableRecord
100
AcDbBlockTableRecord
  2
*Paper_Space
340
1E
  0
BLOCK_RECORD
  5
23
100
AcDbSymbolTableRecord
100
AcDbBlockTableRecord
  2
*Paper_Space0
340
26
  0
ENDTAB
  0
ENDSEC
  0
SECTION
  2
BLOCKS
  0
BLOCK
  5
20
100
AcDbEntity
  8
0
100
AcDbBlockBegin
  2
*Model_Space
 70
0
 10
0.0
 20
0.0
 30
0.0
  3
*Model_Space
  1

  0
ENDBLK
  5
21
100
AcDbEntity
  8
0
100
AcDbBlockEnd
  0
BLOCK
  5
1C
100
AcDbEntity
 67
1
  8
0
100
AcDbBlockBegin
  2
*Paper_Space
 70
0
 10
0.0
 20
0.0
 30
0.0
  3
*Paper_Space
  1

  0
ENDBLK
  5
1D
100
AcDbEntity
 67
1
  8
0
100
AcDbBlockEnd
  0
BLOCK
  5
24
100
AcDbEntity
  8
0
100
AcDbBlockBegin
  2
*Paper_Space0
 70
0
 10
0.0
 20
0.0
 30
0.0
  3
*Paper_Space0
  1

  0
ENDBLK
  5
25
100
AcDbEntity
  8
0
100
AcDbBlockEnd
  0
ENDSEC
  0
SECTION
  2
ENTITIES
  0
LINE
  5
47
100
AcDbEntity
100
AcDbLine
  8
0
 62
256
370
-1
  6
ByLayer
 10
0.0
 20
0.0
 30
0.0
 11
51.875
 21
0.0
 31
0.0
  0
LINE
  5
48
100
AcDbEntity
100
AcDbLine
  8
0
 62
256
370
-1
  6
ByLayer
 10
51.875
 20
0.0
 30
0.0
 11
51.875
 21
27.625
 31
0.0
  0
LINE
  5
49
100
AcDbEntity
100
AcDbLine
  8
0
 62
256
370
-1
  6
ByLayer
 10
51.875
 20
27.625
 30
0.0
 11
0.0
 21
27.625
 31
0.0
  0
LINE
  5
4A
100
AcDbEntity
100
AcDbLine
  8
0
 62
256
370
-1
  6
ByLayer
 10
0.0
 20
27.625
 30
0.0
 11
0.0
 21
0.0
 31
0.0
  0
MTEXT
  5
4B
100
AcDbEntity
100
AcDbMText
  8
Annotation
 62
256
370
-1
  6
ByLayer
 10
21.1811555075593958
 20
12.3507019438444914
 30
0.0
 40
1.0
 41
100.0
 71
1
 72
2
  1
Pool table base
  7
iso
 50
0.0
 73
1
 44
1.0
  0
LINE
  5
4C
100
AcDbEntity
100
AcDbLine
  8
0
 62
256
370
-1
  6
ByLayer
 10
0.0
 20
1.5
 30
0.0
 11
1.5
 21
1.5
 31
0.0
  0
LINE
  5
4D
100
AcDbEntity
100
AcDbLine
  8
0
 62
256
370
-1
  6
ByLayer
 10
1.5
 20
1.5
 30
0.0
 11
1.5
 21
3.0
 31
0.0
  0
LINE
  5
4E
100
AcDbEntity
100
AcDbLine
  8
0
 62
256
370
-1
  6
ByLayer
 10
1.5
 20
3.0
 30
0.0
 11
0.0
 21
3.0
 31
0.0
  0
LINE
  5
4F
100
AcDbEntity
100
AcDbLine
  8
0
 62
256
370
-1
  6
ByLayer
 10
0.0
 20
3.0
 30
0.0
 11
0.0
 21
1.5
 31
0.0
  0
LINE
  5
50
100
AcDbEntity
100
AcDbLine
  8
0
 62
256
370
-1
  6
ByLayer
 10
1.5
 20
0.0
 30
0.0
 11
3.0
 21
0.0
 31
0.0
  0
LINE
  5
51
100
AcDbEntity
100
AcDbLine
  8
0
 62
256
370
-1
  6
ByLayer
 10
3.0
 20
0.0
 30
0.0
 11
3.0
 21
1.5
 31
0.0
  0
LINE
  5
52
100
AcDbEntity
100
AcDbLine
  8
0
 62
256
370
-1
  6
ByLayer
 10
3.0
 20
1.5
 30
0.0
 11
1.5
 21
1.5
 31
0.0
  0
LINE
  5
53
100
AcDbEntity
100
AcDbLine
  8
0
 62
256
370
-1
  6
ByLayer
 10
1.5
 20
1.5
 30
0.0
 11
1.5
 21
0.0
 31
0.0
  0
LINE
  5
54
100
AcDbEntity
100
AcDbLine
  8
0
 62
256
370
-1
  6
ByLayer
 10
1.5
 20
27.625
 30
0.0
 11
1.5
 21
26.125
 31
0.0
  0
LINE
  5
55
100
AcDbEntity
100
AcDbLine
  8
0
 62
256
370
-1
  6
ByLayer
 10
1.5
 20
26.125
 30
0.0
 11
3.0
 21
26.125
 31
0.0
  0
LINE
  5
56
100
AcDbEntity
100
AcDbLine
  8
0
 62
256
370
-1
  6
ByLayer
 10
3.0
 20
26.125
 30
0.0
 11
3.0
 21
27.625
 31
0.0
  0
LINE
  5
57
100
AcDbEntity
100
AcDbLine
  8
0
 62
256
370
-1
  6
ByLayer
 10
3.0
 20
27.625
 30
0.0
 11
1.5
 21
27.625
 31
0.0
  0
LINE
  5
58
100
AcDbEntity
100
AcDbLine
  8
0
 62
256
370
-1
  6
ByLayer
 10
0.0000000000000001
 20
26.125
 30
0.0
 11
0.0000000000000002
 21
24.625
 31
0.0
  0
LINE
  5
59
100
AcDbEntity
100
AcDbLine
  8
0
 62
256
370
-1
  6
ByLayer
 10
0.0000000000000002
 20
24.625
 30
0.0
 11
1.5000000000000004
 21
24.625
 31
0.0
  0
LINE
  5
5A
100
AcDbEntity
100
AcDbLine
  8
0
 62
256
370
-1
  6
ByLayer
 10
1.5000000000000004
 20
24.625
 30
0.0
 11
1.5
 21
26.125
 31
0.0
  0
LINE
  5
5B
100
AcDbEntity
100
AcDbLine
  8
0
 62
256
370
-1
  6
ByLayer
 10
1.5
 20
26.125
 30
0.0
 11
0.0000000000000001
 21
26.125
 31
0.0
  0
LINE
  5
5C
100
AcDbEntity
100
AcDbLine
  8
0
 62
256
370
-1
  6
ByLayer
 10
51.875
 20
26.125
 30
0.0
 11
50.375
 21
26.125
 31
0.0
  0
LINE
  5
5D
100
AcDbEntity
100
AcDbLine
  8
0
 62
256
370
-1
  6
ByLayer
 10
50.375
 20
26.125
 30
0.0
 11
50.375
 21
24.625
 31
0.0
  0
LINE
  5
5E
100
AcDbEntity
100
AcDbLine
  8
0
 62
256
370
-1
  6
ByLayer
 10
50.375
 20
24.625
 30
0.0
 11
51.875
 21
24.625
 31
0.0
  0
LINE
  5
5F
100
AcDbEntity
100
AcDbLine
  8
0
 62
256
370
-1
  6
ByLayer
 10
51.875
 20
24.625
 30
0.0
 11
51.875
 21
26.125
 31
0.0
  0
LINE
  5
60
100
AcDbEntity
100
AcDbLine
  8
0
 62
256
370
-1
  6
ByLayer
 10
50.375
 20
27.625
 30
0.0
 11
48.875
 21
27.625
 31
0.0
  0
LINE
  5
61
100
AcDbEntity
100
AcDbLine
  8
0
 62
256
370
-1
  6
ByLayer
 10
48.875
 20
27.625
 30
0.0
 11
48.875
 21
26.125
 31
0.0
  0
LINE
  5
62
100
AcDbEntity
100
AcDbLine
  8
0
 62
256
370
-1
  6
ByLayer
 10
48.875
 20
26.125
 30
0.0
 11
50.375
 21
26.125
 31
0.0
  0
LINE
  5
63
100
AcDbEntity
100
AcDbLine
  8
0
 62
256
370
-1
  6
ByLayer
 10
50.375
 20
26.125
 30
0.0
 11
50.375
 21
27.625
 31
0.0
  0
LINE
  5
64
100
AcDbEntity
100
AcDbLine
  8
0
 62
256
370
-1
  6
ByLayer
 10
50.375
 20
0.0000000000000002
 30
0.0
 11
50.375
 21
1.5
 31
0.0
  0
LINE
  5
65
100
AcDbEntity
100
AcDbLine
  8
0
 62
256
370
-1
  6
ByLayer
 10
50.375
 20
1.5
 30
0.0
 11
48.875
 21
1.5000000000000007
 31
0.0
  0
LINE
  5
66
100
AcDbEntity
100
AcDbLine
  8
0
 62
256
370
-1
  6
ByLayer
 10
48.875
 20
1.5000000000000007
 30
0.0
 11
48.875
 21
0.0000000000000004
 31
0.0
  0
LINE
  5
67
100
AcDbEntity
100
AcDbLine
  8
0
 62
256
370
-1
  6
ByLayer
 10
48.875
 20
0.0000000000000004
 30
0.0
 11
50.375
 21
0.0000000000000002
 31
0.0
  0
LINE
  5
68
100
AcDbEntity
100
AcDbLine
  8
0
 62
256
370
-1
  6
ByLayer
 10
51.875
 20
1.5
 30
0.0
 11
51.875
 21
3.0
 31
0.0
  0
LINE
  5
69
100
AcDbEntity
100
AcDbLine
  8
0
 62
256
370
-1
  6
ByLayer
 10
51.875
 20
3.0
 30
0.0
 11
50.375
 21
3.0
 31
0.0
  0
LINE
  5
6A
100
AcDbEntity
100
AcDbLine
  8
0
 62
256
370
-1
  6
ByLayer
 10
50.375
 20
3.0
 30
0.0
 11
50.375
 21
1.5
 31
0.0
  0
LINE
  5
6B
100
AcDbEntity
100
AcDbLine
  8
0
 62
256
370
-1
  6
ByLayer
 10
50.375
 20
1.5
 30
0.0
 11
51.875
 21
1.5
 31
0.0
  0
LINE
  5
6C
100
AcDbEntity
100
AcDbLine
  8
construction
 62
256
370
-1
  6
ByLayer
 10
25.9375
 20
0.0
 30
0.0
 11
25.9375000000000036
 21
27.625
 31
0.0
  0
LINE
  5
6D
100
AcDbEntity
100
AcDbLine
  8
construction
 62
256
370
-1
  6
ByLayer
 10
13.9375
 20
0.0000000000000015
 30
0.0
 11
13.9375000000000036
 21
27.625
 31
0.0
  0
LINE
  5
6E
100
AcDbEntity
100
AcDbLine
  8
construction
 62
256
370
-1
  6
ByLayer
 10
37.9375
 20
-0.0000000000000029
 30
0.0
 11
37.9375
 21
27.6249999999999964
 31
0.0
  0
LINE
  5
6F
100
AcDbEntity
100
AcDbLine
  8
0
 62
256
370
-1
  6
ByLayer
 10
12.4375
 20
0.0
 30
0.0
 11
13.9375
 21
0.0
 31
0.0
  0
LINE
  5
70
100
AcDbEntity
100
AcDbLine
  8
0
 62
256
370
-1
  6
ByLayer
 10
13.9375
 20
0.0
 30
0.0
 11
13.9375
 21
1.5
 31
0.0
  0
LINE
  5
71
100
AcDbEntity
100
AcDbLine
  8
0
 62
256
370
-1
  6
ByLayer
 10
13.9375
 20
1.5
 30
0.0
 11
12.4375
 21
1.5
 31
0.0
  0
LINE
  5
72
100
AcDbEntity
100
AcDbLine
  8
0
 62
256
370
-1
  6
ByLayer
 10
12.4375
 20
1.5
 30
0.0
 11
12.4375
 21
0.0
 31
0.0
  0
LINE
  5
73
100
AcDbEntity
100
AcDbLine
  8
0
 62
256
370
-1
  6
ByLayer
 10
36.4375
 20
0.0
 30
0.0
 11
37.9375
 21
0.0
 31
0.0
  0
LINE
  5
74
100
AcDbEntity
100
AcDbLine
  8
0
 62
256
370
-1
  6
ByLayer
 10
37.9375
 20
0.0
 30
0.0
 11
37.9375
 21
1.5
 31
0.0
  0
LINE
  5
75
100
AcDbEntity
100
AcDbLine
  8
0
 62
256
370
-1
  6
ByLayer
 10
37.9375
 20
1.5
 30
0.0
 11
36.4375
 21
1.5
 31
0.0
  0
LINE
  5
76
100
AcDbEntity
100
AcDbLine
  8
0
 62
256
370
-1
  6
ByLayer
 10
37.9375
 20
0.0
 30
0.0
 11
39.4375
 21
0.0
 31
0.0
  0
LINE
  5
77
100
AcDbEntity
100
AcDbLine
  8
0
 62
256
370
-1
  6
ByLayer
 10
39.4375
 20
0.0
 30
0.0
 11
39.4375
 21
1.5
 31
0.0
  0
LINE
  5
78
100
AcDbEntity
100
AcDbLine
  8
0
 62
256
370
-1
  6
ByLayer
 10
39.4375
 20
1.5
 30
0.0
 11
37.9375
 21
1.5
 31
0.0
  0
LINE
  5
79
100
AcDbEntity
100
AcDbLine
  8
0
 62
256
370
-1
  6
ByLayer
 10
37.9375
 20
1.5
 30
0.0
 11
37.9375
 21
0.0
 31
0.0
  0
LINE
  5
7A
100
AcDbEntity
100
AcDbLine
  8
0
 62
256
370
-1
  6
ByLayer
 10
13.9375
 20
0.0
 30
0.0
 11
15.4375
 21
0.0
 31
0.0
  0
LINE
  5
7B
100
AcDbEntity
100
AcDbLine
  8
0
 62
256
370
-1
  6
ByLayer
 10
15.4375
 20
1.5
 30
0.0
 11
13.9375
 21
1.5
 31
0.0
  0
LINE
  5
7C
100
AcDbEntity
100
AcDbLine
  8
0
 62
256
370
-1
  6
ByLayer
 10
13.9375
 20
1.5
 30
0.0
 11
13.9375
 21
0.0
 31
0.0
  0
LINE
  5
7D
100
AcDbEntity
100
AcDbLine
  8
0
 62
256
370
-1
  6
ByLayer
 10
25.1875000000000036
 20
26.125
 30
0.0
 11
26.6875000000000036
 21
26.125
 31
0.0
  0
LINE
  5
7E
100
AcDbEntity
100
AcDbLine
  8
0
 62
256
370
-1
  6
ByLayer
 10
26.6875000000000036
 20
26.125
 30
0.0
 11
26.6875000000000036
 21
27.625
 31
0.0
  0
LINE
  5
7F
100
AcDbEntity
100
AcDbLine
  8
0
 62
256
370
-1
  6
ByLayer
 10
26.6875000000000036
 20
27.625
 30
0.0
 11
25.1875000000000036
 21
27.625
 31
0.0
  0
LINE
  5
80
100
AcDbEntity
100
AcDbLine
  8
0
 62
256
370
-1
  6
ByLayer
 10
25.1875000000000036
 20
27.625
 30
0.0
 11
25.1875000000000036
 21
26.125
 31
0.0
  0
LINE
  5
81
100
AcDbEntity
100
AcDbLine
  8
0
 62
256
370
-1
  6
ByLayer
 10
1.5000000000000004
 20
24.625
 30
0.0
 11
1.5
 21
3.0
 31
0.0
  0
LINE
  5
82
100
AcDbEntity
100
AcDbLine
  8
0
 62
256
370
-1
  6
ByLayer
 10
3.0
 20
26.125
 30
0.0
 11
25.1875000000000036
 21
26.125
 31
0.0
  0
LINE
  5
83
100
AcDbEntity
100
AcDbLine
  8
0
 62
256
370
-1
  6
ByLayer
 10
3.0
 20
1.5
 30
0.0
 11
12.4375
 21
1.5
 31
0.0
  0
LINE
  5
84
100
AcDbEntity
100
AcDbLine
  8
0
 62
256
370
-1
  6
ByLayer
 10
15.4375
 20
1.5
 30
0.0
 11
36.4375
 21
1.5
 31
0.0
  0
LINE
  5
85
100
AcDbEntity
100
AcDbLine
  8
0
 62
256
370
-1
  6
ByLayer
 10
39.4375
 20
1.5
 30
0.0
 11
48.875
 21
1.5000000000000007
 31
0.0
  0
LINE
  5
86
100
AcDbEntity
100
AcDbLine
  8
0
 62
256
370
-1
  6
ByLayer
 10
50.375
 20
3.0
 30
0.0
 11
50.375
 21
24.625
 31
0.0
  0
LINE
  5
87
100
AcDbEntity
100
AcDbLine
  8
0
 62
256
370
-1
  6
ByLayer
 10
48.875
 20
26.125
 30
0.0
 11
26.6875000000000036
 21
26.125
 31
0.0
  0
LINE
  5
88
100
AcDbEntity
100
AcDbLine
  8
0
 62
256
370
-1
  6
ByLayer
 10
0.0
 20
3.0
 30
0.0
 11
-0.75
 21
3.0
 31
0.0
  0
LINE
  5
89
100
AcDbEntity
100
AcDbLine
  8
0
 62
256
370
-1
  6
ByLayer
 10
0.0
 20
1.5
 30
0.0
 11
-0.75
 21
1.5
 31
0.0
  0
LINE
  5
8A
100
AcDbEntity
100
AcDbLine
  8
0
 62
256
370
-1
  6
ByLayer
 10
0.0
 20
26.125
 30
0.0
 11
-0.75
 21
26.125
 31
0.0
  0
LINE
  5
8B
100
AcDbEntity
100
AcDbLine
  8
0
 62
256
370
-1
  6
ByLayer
 10
0.0000000000000002
 20
24.625
 30
0.0
 11
-0.7499999999999998
 21
24.625
 31
0.0
  0
LINE
  5
8C
100
AcDbEntity
100
AcDbLine
  8
0
 62
256
370
-1
  6
ByLayer
 10
51.875
 20
26.125
 30
0.0
 11
52.625
 21
26.125
 31
0.0
  0
LINE
  5
8D
100
AcDbEntity
100
AcDbLine
  8
0
 62
256
370
-1
  6
ByLayer
 10
51.875
 20
24.625
 30
0.0
 11
52.625
 21
24.625
 31
0.0
  0
LINE
  5
8E
100
AcDbEntity
100
AcDbLine
  8
0
 62
256
370
-1
  6
ByLayer
 10
51.875
 20
3.0
 30
0.0
 11
52.625
 21
3.0
 31
0.0
  0
LINE
  5
8F
100
AcDbEntity
100
AcDbLine
  8
0
 62
256
370
-1
  6
ByLayer
 10
51.875
 20
1.5
 30
0.0
 11
52.625
 21
1.5
 31
0.0
  0
LINE
  5
90
100
AcDbEntity
100
AcDbLine
  8
0
 62
256
370
-1
  6
ByLayer
 10
50.375
 20
0.0
 30
0.0
 11
50.375
 21
-0.75
 31
0.0
  0
LINE
  5
91
100
AcDbEntity
100
AcDbLine
  8
0
 62
256
370
-1
  6
ByLayer
 10
48.875
 20
0.0
 30
0.0
 11
48.875
 21
-0.75
 31
0.0
  0
LINE
  5
92
100
AcDbEntity
100
AcDbLine
  8
0
 62
256
370
-1
  6
ByLayer
 10
1.5
 20
0.0
 30
0.0
 11
1.5
 21
-0.75
 31
0.0
  0
LINE
  5
93
100
AcDbEntity
100
AcDbLine
  8
0
 62
256
370
-1
  6
ByLayer
 10
3.0
 20
0.0
 30
0.0
 11
3.0
 21
-0.75
 31
0.0
  0
LINE
  5
94
100
AcDbEntity
100
AcDbLine
  8
0
 62
256
370
-1
  6
ByLayer
 10
1.5
 20
27.625
 30
0.0
 11
1.5
 21
28.375
 31
0.0
  0
LINE
  5
95
100
AcDbEntity
100
AcDbLine
  8
0
 62
256
370
-1
  6
ByLayer
 10
3.0
 20
27.625
 30
0.0
 11
3.0
 21
28.375
 31
0.0
  0
LINE
  5
96
100
AcDbEntity
100
AcDbLine
  8
0
 62
256
370
-1
  6
ByLayer
 10
48.875
 20
27.625
 30
0.0
 11
48.875
 21
28.375
 31
0.0
  0
LINE
  5
97
100
AcDbEntity
100
AcDbLine
  8
0
 62
256
370
-1
  6
ByLayer
 10
50.375
 20
27.625
 30
0.0
 11
50.375
 21
28.375
 31
0.0
  0
LINE
  5
98
100
AcDbEntity
100
AcDbLine
  8
0
 62
256
370
-1
  6
ByLayer
 10
48.875
 20
28.375
 30
0.0
 11
50.375
 21
28.375
 31
0.0
  0
LINE
  5
99
100
AcDbEntity
100
AcDbLine
  8
0
 62
256
370
-1
  6
ByLayer
 10
52.625
 20
26.125
 30
0.0
 11
52.625
 21
24.625
 31
0.0
  0
LINE
  5
9A
100
AcDbEntity
100
AcDbLine
  8
0
 62
256
370
-1
  6
ByLayer
 10
52.625
 20
3.0
 30
0.0
 11
52.625
 21
1.5
 31
0.0
  0
LINE
  5
9B
100
AcDbEntity
100
AcDbLine
  8
0
 62
256
370
-1
  6
ByLayer
 10
50.375
 20
-0.75
 30
0.0
 11
48.875
 21
-0.75
 31
0.0
  0
LINE
  5
9C
100
AcDbEntity
100
AcDbLine
  8
0
 62
256
370
-1
  6
ByLayer
 10
1.5
 20
-0.75
 30
0.0
 11
3.0
 21
-0.75
 31
0.0
  0
LINE
  5
9D
100
AcDbEntity
100
AcDbLine
  8
0
 62
256
370
-1
  6
ByLayer
 10
-0.75
 20
3.0
 30
0.0
 11
-0.75
 21
1.5
 31
0.0
  0
LINE
  5
9E
100
AcDbEntity
100
AcDbLine
  8
0
 62
256
370
-1
  6
ByLayer
 10
-0.7499999999999998
 20
24.625
 30
0.0
 11
-0.75
 21
26.125
 31
0.0
  0
LINE
  5
9F
100
AcDbEntity
100
AcDbLine
  8
0
 62
256
370
-1
  6
ByLayer
 10
1.5
 20
28.375
 30
0.0
 11
3.0
 21
28.375
 31
0.0
  0
LINE
  5
A0
100
AcDbEntity
100
AcDbLine
  8
0
 62
256
370
-1
  6
ByLayer
 10
-0.0000000000000037
 20
-60.0
 30
0.0
 11
-0.0000000000000037
 21
-60.75
 31
0.0
  0
LINE
  5
A1
100
AcDbEntity
100
AcDbLine
  8
0
 62
256
370
-1
  6
ByLayer
 10
51.8749999999999929
 20
-60.0
 30
0.0
 11
51.8749999999999929
 21
-60.75
 31
0.0
  0
LINE
  5
A2
100
AcDbEntity
100
AcDbLine
  8
0
 62
256
370
-1
  6
ByLayer
 10
-0.0000000000000037
 20
-60.0
 30
0.0
 11
-0.0000000000000007
 21
-12.0
 31
0.0
  0
LINE
  5
A3
100
AcDbEntity
100
AcDbLine
  8
0
 62
256
370
-1
  6
ByLayer
 10
51.8749999999999929
 20
-60.0
 30
0.0
 11
51.8749999999999929
 21
-12.0
 31
0.0
  0
LINE
  5
A4
100
AcDbEntity
100
AcDbLine
  8
0
 62
256
370
-1
  6
ByLayer
 10
-0.0000000000000007
 20
-12.0
 30
0.0
 11
51.8749999999999929
 21
-12.0
 31
0.0
  0
LINE
  5
A5
100
AcDbEntity
100
AcDbLine
  8
construction
 62
256
370
-1
  6
ByLayer
 10
12.4375
 20
0.0
 30
0.0
 11
12.4374999999999964
 21
-60.0
 31
0.0
  0
LINE
  5
A6
100
AcDbEntity
100
AcDbLine
  8
construction
 62
256
370
-1
  6
ByLayer
 10
13.9375
 20
0.0000000000000015
 30
0.0
 11
13.9374999999999964
 21
-60.0
 31
0.0
  0
LINE
  5
A7
100
AcDbEntity
100
AcDbLine
  8
construction
 62
256
370
-1
  6
ByLayer
 10
15.4375
 20
0.0
 30
0.0
 11
15.4374999999999964
 21
-60.0
 31
0.0
  0
LINE
  5
A8
100
AcDbEntity
100
AcDbLine
  8
construction
 62
256
370
-1
  6
ByLayer
 10
36.4375
 20
0.0
 30
0.0
 11
36.4374999999999929
 21
-60.0
 31
0.0
  0
LINE
  5
A9
100
AcDbEntity
100
AcDbLine
  8
construction
 62
256
370
-1
  6
ByLayer
 10
37.9375
 20
-0.0000000000000029
 30
0.0
 11
37.9374999999999929
 21
-60.0
 31
0.0
  0
LINE
  5
AA
100
AcDbEntity
100
AcDbLine
  8
construction
 62
256
370
-1
  6
ByLayer
 10
39.4375
 20
0.0
 30
0.0
 11
39.4374999999999929
 21
-60.0
 31
0.0
  0
LINE
  5
AB
100
AcDbEntity
100
AcDbLine
  8
construction
 62
256
370
-1
  6
ByLayer
 10
25.1875000000000036
 20
26.125
 30
0.0
 11
25.1874999999999964
 21
-93.875
 31
0.0
  0
LINE
  5
AC
100
AcDbEntity
100
AcDbLine
  8
construction
 62
256
370
-1
  6
ByLayer
 10
26.6875000000000036
 20
26.125
 30
0.0
 11
26.6874999999999964
 21
-93.875
 31
0.0
  0
LINE
  5
AD
100
AcDbEntity
100
AcDbLine
  8
0
 62
256
370
-1
  6
ByLayer
 10
12.4375
 20
-12.0
 30
0.0
 11
12.4374999999999964
 21
-60.0
 31
0.0
  0
LINE
  5
AE
100
AcDbEntity
100
AcDbLine
  8
0
 62
256
370
-1
  6
ByLayer
 10
13.9374999999999964
 20
-60.0
 30
0.0
 11
13.9375
 21
-12.0
 31
0.0
  0
LINE
  5
AF
100
AcDbEntity
100
AcDbLine
  8
0
 62
256
370
-1
  6
ByLayer
 10
37.9375
 20
-12.0
 30
0.0
 11
37.9375
 21
-60.0
 31
0.0
  0
LINE
  5
B0
100
AcDbEntity
100
AcDbLine
  8
0
 62
256
370
-1
  6
ByLayer
 10
39.4374999999999929
 20
-60.0
 30
0.0
 11
39.4375
 21
-12.0
 31
0.0
  0
LINE
  5
B1
100
AcDbEntity
100
AcDbLine
  8
construction
 62
256
370
-1
  6
ByLayer
 10
-0.0000000000000036
 20
-58.5
 30
0.0
 11
51.8749999999999929
 21
-58.5
 31
0.0
  0
LINE
  5
B2
100
AcDbEntity
100
AcDbLine
  8
construction
 62
256
370
-1
  6
ByLayer
 10
-0.000000000000001
 20
-13.5
 30
0.0
 11
51.8749999999999929
 21
-13.5
 31
0.0
  0
LINE
  5
B3
100
AcDbEntity
100
AcDbLine
  8
construction
 62
256
370
-1
  6
ByLayer
 10
2.9999999999999991
 20
-13.5
 30
0.0
 11
12.4375
 21
-13.5
 31
0.0
  0
LINE
  5
B4
100
AcDbEntity
100
AcDbLine
  8
construction
 62
256
370
-1
  6
ByLayer
 10
15.4375
 20
-13.5
 30
0.0
 11
36.4375
 21
-13.5
 31
0.0
  0
LINE
  5
B5
100
AcDbEntity
100
AcDbLine
  8
construction
 62
256
370
-1
  6
ByLayer
 10
39.4375
 20
-13.5
 30
0.0
 11
48.8749999999999929
 21
-13.5
 31
0.0
  0
LINE
  5
B6
100
AcDbEntity
100
AcDbLine
  8
construction
 62
256
370
-1
  6
ByLayer
 10
39.4374999999999929
 20
-58.5
 30
0.0
 11
48.8749999999999929
 21
-58.5
 31
0.0
  0
LINE
  5
B7
100
AcDbEntity
100
AcDbLine
  8
construction
 62
256
370
-1
  6
ByLayer
 10
36.4374999999999929
 20
-58.5
 30
0.0
 11
15.4374999999999982
 21
-58.5
 31
0.0
  0
LINE
  5
B8
100
AcDbEntity
100
AcDbLine
  8
construction
 62
256
370
-1
  6
ByLayer
 10
12.4374999999999982
 20
-58.5
 30
0.0
 11
2.9999999999999969
 21
-58.5
 31
0.0
  0
LINE
  5
B9
100
AcDbEntity
100
AcDbLine
  8
0
 62
256
370
-1
  6
ByLayer
 10
2.9999999999999991
 20
-13.5
 30
0.0
 11
12.4374999999999982
 21
-13.5
 31
0.0
  0
LINE
  5
BA
100
AcDbEntity
100
AcDbLine
  8
0
 62
256
370
-1
  6
ByLayer
 10
39.4375
 20
-13.5
 30
0.0
 11
48.8749999999999929
 21
-13.5
 31
0.0
  0
LINE
  5
BB
100
AcDbEntity
100
AcDbLine
  8
0
 62
256
370
-1
  6
ByLayer
 10
48.8749999999999929
 20
-58.5
 30
0.0
 11
39.4374999999999929
 21
-58.5
 31
0.0
  0
LINE
  5
BC
100
AcDbEntity
100
AcDbLine
  8
0
 62
256
370
-1
  6
ByLayer
 10
36.4374999999999929
 20
-58.5
 30
0.0
 11
15.4375
 21
-58.5
 31
0.0
  0
LINE
  5
BD
100
AcDbEntity
100
AcDbLine
  8
0
 62
256
370
-1
  6
ByLayer
 10
12.4374999999999982
 20
-58.5
 30
0.0
 11
2.9999999999999969
 21
-58.5
 31
0.0
  0
LINE
  5
BE
100
AcDbEntity
100
AcDbLine
  8
hidden
 62
256
370
-1
  6
ByLayer
 10
25.1875
 20
-13.5
 30
0.0
 11
25.1875
 21
-12.0
 31
0.0
  0
LINE
  5
BF
100
AcDbEntity
100
AcDbLine
  8
hidden
 62
256
370
-1
  6
ByLayer
 10
26.6875
 20
-12.0
 30
0.0
 11
26.6875
 21
-13.5
 31
0.0
  0
LINE
  5
C0
100
AcDbEntity
100
AcDbLine
  8
hidden
 62
256
370
-1
  6
ByLayer
 10
25.1875
 20
-60.0
 30
0.0
 11
25.1875
 21
-58.5
 31
0.0
  0
LINE
  5
C1
100
AcDbEntity
100
AcDbLine
  8
hidden
 62
256
370
-1
  6
ByLayer
 10
26.6875
 20
-58.5
 30
0.0
 11
26.6875
 21
-60.0
 31
0.0
  0
LINE
  5
C2
100
AcDbEntity
100
AcDbLine
  8
construction
 62
256
370
-1
  6
ByLayer
 10
-0.000000000000004
 20
-62.0
 30
0.0
 11
51.8749999999999929
 21
-62.0
 31
0.0
  0
LINE
  5
C3
100
AcDbEntity
100
AcDbLine
  8
0
 62
256
370
-1
  6
ByLayer
 10
-0.000000000000004
 20
-62.0
 30
0.0
 11
-0.750000000000004
 21
-62.0
 31
0.0
  0
LINE
  5
C4
100
AcDbEntity
100
AcDbLine
  8
0
 62
256
370
-1
  6
ByLayer
 10
-0.0000000000000034
 20
-56.0
 30
0.0
 11
-0.7500000000000034
 21
-56.0
 31
0.0
  0
LINE
  5
C5
100
AcDbEntity
100
AcDbLine
  8
0
 62
256
370
-1
  6
ByLayer
 10
-0.7500000000000034
 20
-56.0
 30
0.0
 11
-0.750000000000004
 21
-62.0
 31
0.0
  0
LINE
  5
C6
100
AcDbEntity
100
AcDbLine
  8
0
 62
256
370
-1
  6
ByLayer
 10
-0.000000000000004
 20
-62.0
 30
0.0
 11
-0.0000000000000037
 21
-60.75
 31
0.0
  0
LINE
  5
C7
100
AcDbEntity
100
AcDbLine
  8
0
 62
256
370
-1
  6
ByLayer
 10
1.499999999999996
 20
-62.0
 30
0.0
 11
1.4999999999999993
 21
-12.0
 31
0.0
  0
LINE
  5
C8
100
AcDbEntity
100
AcDbLine
  8
0
 62
256
370
-1
  6
ByLayer
 10
2.9999999999999964
 20
-62.0
 30
0.0
 11
2.9999999999999991
 21
-12.0
 31
0.0
  0
LINE
  5
C9
100
AcDbEntity
100
AcDbLine
  8
0
 62
256
370
-1
  6
ByLayer
 10
1.499999999999996
 20
-62.0
 30
0.0
 11
2.9999999999999964
 21
-62.0
 31
0.0
  0
LINE
  5
CA
100
AcDbEntity
100
AcDbLine
  8
0
 62
256
370
-1
  6
ByLayer
 10
1.4999999999999962
 20
-56.0
 30
0.0
 11
2.9999999999999964
 21
-56.0
 31
0.0
  0
LINE
  5
CB
100
AcDbEntity
100
AcDbLine
  8
0
 62
256
370
-1
  6
ByLayer
 10
-0.0000000000000037
 20
-60.0
 30
0.0
 11
1.4999999999999962
 21
-60.0
 31
0.0
  0
LINE
  5
CC
100
AcDbEntity
100
AcDbLine
  8
0
 62
256
370
-1
  6
ByLayer
 10
-0.0000000000000037
 20
-60.75
 30
0.0
 11
1.499999999999996
 21
-60.75
 31
0.0
  0
LINE
  5
CD
100
AcDbEntity
100
AcDbLine
  8
hidden
 62
256
370
-1
  6
ByLayer
 10
1.4999999999999962
 20
-60.0
 30
0.0
 11
2.9999999999999964
 21
-60.0
 31
0.0
  0
LINE
  5
CE
100
AcDbEntity
100
AcDbLine
  8
hidden
 62
256
370
-1
  6
ByLayer
 10
1.499999999999996
 20
-60.75
 30
0.0
 11
2.9999999999999964
 21
-60.75
 31
0.0
  0
LINE
  5
CF
100
AcDbEntity
100
AcDbLine
  8
0
 62
256
370
-1
  6
ByLayer
 10
51.8749999999999929
 20
-56.0
 30
0.0
 11
52.6249999999999929
 21
-56.0
 31
0.0
  0
LINE
  5
D0
100
AcDbEntity
100
AcDbLine
  8
0
 62
256
370
-1
  6
ByLayer
 10
51.8749999999999929
 20
-62.0
 30
0.0
 11
52.6249999999999929
 21
-62.0
 31
0.0
  0
LINE
  5
D1
100
AcDbEntity
100
AcDbLine
  8
0
 62
256
370
-1
  6
ByLayer
 10
52.6249999999999929
 20
-56.0
 30
0.0
 11
52.6249999999999929
 21
-62.0
 31
0.0
  0
LINE
  5
D2
100
AcDbEntity
100
AcDbLine
  8
0
 62
256
370
-1
  6
ByLayer
 10
51.8749999999999929
 20
-62.0
 30
0.0
 11
51.8749999999999929
 21
-60.75
 31
0.0
  0
LINE
  5
D3
100
AcDbEntity
100
AcDbLine
  8
0
 62
256
370
-1
  6
ByLayer
 10
48.8749999999999929
 20
-56.0
 30
0.0
 11
50.3749999999999929
 21
-56.0
 31
0.0
  0
LINE
  5
D4
100
AcDbEntity
100
AcDbLine
  8
0
 62
256
370
-1
  6
ByLayer
 10
48.8749999999999929
 20
-62.0
 30
0.0
 11
48.8749999999999929
 21
-12.0
 31
0.0
  0
LINE
  5
D5
100
AcDbEntity
100
AcDbLine
  8
0
 62
256
370
-1
  6
ByLayer
 10
50.3749999999999929
 20
-62.0
 30
0.0
 11
50.3749999999999929
 21
-12.0
 31
0.0
  0
LINE
  5
D6
100
AcDbEntity
100
AcDbLine
  8
0
 62
256
370
-1
  6
ByLayer
 10
48.8749999999999929
 20
-62.0
 30
0.0
 11
50.3749999999999929
 21
-62.0
 31
0.0
  0
LINE
  5
D7
100
AcDbEntity
100
AcDbLine
  8
0
 62
256
370
-1
  6
ByLayer
 10
2.9999999999999964
 20
-60.0
 30
0.0
 11
48.8749999999999929
 21
-60.0
 31
0.0
  0
LINE
  5
D8
100
AcDbEntity
100
AcDbLine
  8
0
 62
256
370
-1
  6
ByLayer
 10
2.9999999999999964
 20
-60.75
 30
0.0
 11
48.8749999999999929
 21
-60.75
 31
0.0
  0
LINE
  5
D9
100
AcDbEntity
100
AcDbLine
  8
0
 62
256
370
-1
  6
ByLayer
 10
50.3749999999999929
 20
-60.0
 30
0.0
 11
51.8749999999999929
 21
-60.0
 31
0.0
  0
LINE
  5
DA
100
AcDbEntity
100
AcDbLine
  8
0
 62
256
370
-1
  6
ByLayer
 10
50.3749999999999929
 20
-60.75
 30
0.0
 11
51.8749999999999929
 21
-60.75
 31
0.0
  0
LINE
  5
DB
100
AcDbEntity
100
AcDbLine
  8
hidden
 62
256
370
-1
  6
ByLayer
 10
48.8749999999999929
 20
-60.0
 30
0.0
 11
50.3749999999999929
 21
-60.0
 31
0.0
  0
LINE
  5
DC
100
AcDbEntity
100
AcDbLine
  8
hidden
 62
256
370
-1
  6
ByLayer
 10
48.8749999999999929
 20
-60.75
 30
0.0
 11
50.3749999999999929
 21
-60.75
 31
0.0
  0
LINE
  5
DD
100
AcDbEntity
100
AcDbLine
  8
0
 62
256
370
-1
  6
ByLayer
 10
15.4374999999999982
 20
-15.0
 30
0.0
 11
36.4375
 21
-15.0
 31
0.0
  0
LINE
  5
DE
100
AcDbEntity
100
AcDbLine
  8
0
 62
256
370
-1
  6
ByLayer
 10
15.4375
 20
-13.5
 30
0.0
 11
15.4374999999999982
 21
-60.0
 31
0.0
  0
LINE
  5
DF
100
AcDbEntity
100
AcDbLine
  8
0
 62
256
370
-1
  6
ByLayer
 10
36.4374999999999929
 20
-60.0
 30
0.0
 11
36.4375
 21
-13.5
 31
0.0
  0
LINE
  5
E0
100
AcDbEntity
100
AcDbLine
  8
0
 62
256
370
-1
  6
ByLayer
 10
13.9375
 20
-13.5
 30
0.0
 11
37.9375
 21
-13.5
 31
0.0
  0
LINE
  5
E1
100
AcDbEntity
100
AcDbLine
  8
hidden
 62
256
370
-1
  6
ByLayer
 10
36.4375
 20
1.5
 30
0.0
 11
36.4375
 21
0.0
 31
0.0
  0
LINE
  5
E2
100
AcDbEntity
100
AcDbLine
  8
hidden
 62
256
370
-1
  6
ByLayer
 10
15.4375
 20
0.0
 30
0.0
 11
15.4375
 21
1.5
 31
0.0
  0
LINE
  5
E3
100
AcDbEntity
100
AcDbLine
  8
0
 62
256
370
-1
  6
ByLayer
 10
25.1875
 20
-58.5
 30
0.0
 11
25.1875
 21
-15.0
 31
0.0
  0
LINE
  5
E4
100
AcDbEntity
100
AcDbLine
  8
0
 62
256
370
-1
  6
ByLayer
 10
26.6875
 20
-15.0
 30
0.0
 11
26.6875
 21
-58.5
 31
0.0
  0
LINE
  5
E5
100
AcDbEntity
100
AcDbLine
  8
hidden
 62
256
370
-1
  6
ByLayer
 10
25.1875
 20
-15.0
 30
0.0
 11
25.1875
 21
-13.5
 31
0.0
  0
LINE
  5
E6
100
AcDbEntity
100
AcDbLine
  8
hidden
 62
256
370
-1
  6
ByLayer
 10
26.6875
 20
-13.5
 30
0.0
 11
26.6875
 21
-15.0
 31
0.0
  0
LINE
  5
E7
100
AcDbEntity
100
AcDbLine
  8
construction
 62
256
370
-1
  6
ByLayer
 10
1.5000000000000002
 20
13.8125
 30
0.0
 11
61.5
 21
13.8125
 31
0.0
  0
LINE
  5
E8
100
AcDbEntity
100
AcDbLine
  8
0
 62
256
370
-1
  6
ByLayer
 10
1.5000000000000002
 20
14.5625
 30
0.0
 11
50.375
 21
14.5625
 31
0.0
  0
LINE
  5
E9
100
AcDbEntity
100
AcDbLine
  8
0
 62
256
370
-1
  6
ByLayer
 10
1.5
 20
13.0625
 30
0.0
 11
50.375
 21
13.0625
 31
0.0
  0
LINE
  5
EA
100
AcDbEntity
100
AcDbLine
  8
construction
 62
256
370
-1
  6
ByLayer
 10
1.5000000000000002
 20
15.5625
 30
0.0
 11
50.375
 21
15.5625
 31
0.0
  0
LINE
  5
EB
100
AcDbEntity
100
AcDbLine
  8
0
 62
256
370
-1
  6
ByLayer
 10
25.9375
 20
16.0625
 30
0.0
 11
31.9375
 21
16.0625
 31
0.0
  0
LINE
  5
EC
100
AcDbEntity
100
AcDbLine
  8
0
 62
256
370
-1
  6
ByLayer
 10
25.9375
 20
16.0625
 30
0.0
 11
19.9375
 21
16.0625
 31
0.0
  0
LINE
  5
ED
100
AcDbEntity
100
AcDbLine
  8
0
 62
256
370
-1
  6
ByLayer
 10
25.9375
 20
17.5625
 30
0.0
 11
19.9375
 21
17.5625
 31
0.0
  0
LINE
  5
EE
100
AcDbEntity
100
AcDbLine
  8
0
 62
256
370
-1
  6
ByLayer
 10
25.9375
 20
17.5625
 30
0.0
 11
31.9375
 21
17.5625
 31
0.0
  0
LINE
  5
EF
100
AcDbEntity
100
AcDbLine
  8
0
 62
256
370
-1
  6
ByLayer
 10
19.9375
 20
17.5625
 30
0.0
 11
19.9375
 21
16.0625
 31
0.0
  0
LINE
  5
F0
100
AcDbEntity
100
AcDbLine
  8
0
 62
256
370
-1
  6
ByLayer
 10
31.9375
 20
17.5625
 30
0.0
 11
31.9375
 21
16.0625
 31
0.0
  0
LINE
  5
F1
100
AcDbEntity
100
AcDbLine
  8
0
 62
256
370
-1
  6
ByLayer
 10
19.9375
 20
16.0625
 30
0.0
 11
19.9375
 21
14.5625
 31
0.0
  0
LINE
  5
F2
100
AcDbEntity
100
AcDbLine
  8
0
 62
256
370
-1
  6
ByLayer
 10
21.4375
 20
16.0625
 30
0.0
 11
21.4375
 21
14.5625
 31
0.0
  0
LINE
  5
F3
100
AcDbEntity
100
AcDbLine
  8
0
 62
256
370
-1
  6
ByLayer
 10
30.4375
 20
16.0625
 30
0.0
 11
30.4375
 21
14.5625
 31
0.0
  0
LINE
  5
F4
100
AcDbEntity
100
AcDbLine
  8
0
 62
256
370
-1
  6
ByLayer
 10
31.9375
 20
16.0625
 30
0.0
 11
31.9375
 21
14.5625
 31
0.0
  0
LINE
  5
F5
100
AcDbEntity
100
AcDbLine
  8
0
 62
256
370
-1
  6
ByLayer
 10
63.8749999999999929
 20
-12.0000000000000036
 30
0.0
 11
91.5
 21
-12.0000000000000107
 31
0.0
  0
LINE
  5
F6
100
AcDbEntity
100
AcDbLine
  8
0
 62
256
370
-1
  6
ByLayer
 10
63.8749999999999929
 20
-60.0
 30
0.0
 11
63.8749999999999929
 21
-60.75
 31
0.0
  0
LINE
  5
F7
100
AcDbEntity
100
AcDbLine
  8
0
 62
256
370
-1
  6
ByLayer
 10
91.5
 20
-60.0000000000000071
 30
0.0
 11
91.5
 21
-60.7500000000000071
 31
0.0
  0
LINE
  5
F8
100
AcDbEntity
100
AcDbLine
  8
0
 62
256
370
-1
  6
ByLayer
 10
66.875
 20
-12.0000000000000036
 30
0.0
 11
66.875
 21
-13.5000000000000036
 31
0.0
  0
LINE
  5
F9
100
AcDbEntity
100
AcDbLine
  8
0
 62
256
370
-1
  6
ByLayer
 10
88.5
 20
-12.0000000000000107
 30
0.0
 11
88.5
 21
-13.5000000000000107
 31
0.0
  0
LINE
  5
FA
100
AcDbEntity
100
AcDbLine
  8
0
 62
256
370
-1
  6
ByLayer
 10
63.8749999999999929
 20
-60.0
 30
0.0
 11
63.8749999999999929
 21
-12.0000000000000036
 31
0.0
  0
LINE
  5
FB
100
AcDbEntity
100
AcDbLine
  8
0
 62
256
370
-1
  6
ByLayer
 10
91.5
 20
-60.0000000000000071
 30
0.0
 11
91.5
 21
-12.0000000000000107
 31
0.0
  0
LINE
  5
FC
100
AcDbEntity
100
AcDbLine
  8
0
 62
256
370
-1
  6
ByLayer
 10
65.375
 20
-60.0
 30
0.0
 11
65.375
 21
-12.0000000000000036
 31
0.0
  0
LINE
  5
FD
100
AcDbEntity
100
AcDbLine
  8
0
 62
256
370
-1
  6
ByLayer
 10
66.875
 20
-60.0
 30
0.0
 11
66.875
 21
-12.0000000000000036
 31
0.0
  0
LINE
  5
FE
100
AcDbEntity
100
AcDbLine
  8
0
 62
256
370
-1
  6
ByLayer
 10
90.0
 20
-60.0000000000000071
 30
0.0
 11
90.0
 21
-12.0000000000000107
 31
0.0
  0
LINE
  5
FF
100
AcDbEntity
100
AcDbLine
  8
0
 62
256
370
-1
  6
ByLayer
 10
88.5
 20
-60.0000000000000071
 30
0.0
 11
88.5
 21
-12.0000000000000107
 31
0.0
  0
LINE
  5
100
100
AcDbEntity
100
AcDbLine
  8
0
 62
256
370
-1
  6
ByLayer
 10
66.875
 20
-13.5000000000000018
 30
0.0
 11
88.5
 21
-13.5000000000000107
 31
0.0
  0
LINE
  5
101
100
AcDbEntity
100
AcDbLine
  8
hidden
 62
256
370
-1
  6
ByLayer
 10
63.8749999999999929
 20
-13.5000000000000018
 30
0.0
 11
65.375
 21
-13.5000000000000018
 31
0.0
  0
LINE
  5
102
100
AcDbEntity
100
AcDbLine
  8
hidden
 62
256
370
-1
  6
ByLayer
 10
90.0
 20
-13.5000000000000107
 30
0.0
 11
91.5
 21
-13.5000000000000124
 31
0.0
  0
LINE
  5
103
100
AcDbEntity
100
AcDbLine
  8
0
 62
256
370
-1
  6
ByLayer
 10
66.875
 20
-58.5
 30
0.0
 11
88.5
 21
-58.5000000000000071
 31
0.0
  0
LINE
  5
104
100
AcDbEntity
100
AcDbLine
  8
hidden
 62
256
370
-1
  6
ByLayer
 10
63.8749999999999929
 20
-58.5
 30
0.0
 11
65.375
 21
-58.5
 31
0.0
  0
LINE
  5
105
100
AcDbEntity
100
AcDbLine
  8
hidden
 62
256
370
-1
  6
ByLayer
 10
90.0
 20
-58.5000000000000071
 30
0.0
 11
91.5
 21
-58.5000000000000071
 31
0.0
  0
LINE
  5
106
100
AcDbEntity
100
AcDbLine
  8
construction
 62
256
370
-1
  6
ByLayer
 10
77.6875
 20
-13.5000000000000071
 30
0.0
 11
77.6875
 21
-12.0000000000000071
 31
0.0
  0
LINE
  5
107
100
AcDbEntity
100
AcDbLine
  8
hidden
 62
256
370
-1
  6
ByLayer
 10
76.9375
 20
-13.5000000000000071
 30
0.0
 11
76.9375
 21
-12.0000000000000071
 31
0.0
  0
LINE
  5
108
100
AcDbEntity
100
AcDbLine
  8
hidden
 62
256
370
-1
  6
ByLayer
 10
78.4375
 20
-13.5000000000000071
 30
0.0
 11
78.4375
 21
-12.0000000000000071
 31
0.0
  0
MTEXT
  5
109
100
AcDbEntity
100
AcDbMText
  8
Annotation
 62
256
370
-1
  6
ByLayer
 10
22.9713822894168445
 20
-69.7062634989200802
 30
0.0
 40
1.0
 41
100.0
 71
1
 72
2
  1
Front View
  7
iso
 50
0.0
 73
0
 44
1.0
  0
MTEXT
  5
10A
100
AcDbEntity
100
AcDbMText
  8
Annotation
 62
256
370
-1
  6
ByLayer
 10
74.4589632829373613
 20
-69.7062634989200802
 30
0.0
 40
1.0
 41
100.0
 71
1
 72
2
  1
Side View
  7
iso
 50
0.0
 73
0
 44
1.0
  0
MTEXT
  5
10B
100
AcDbEntity
100
AcDbMText
  8
Annotation
 62
256
370
-1
  6
ByLayer
 10
23.7634989200863913
 20
-5.2807775377969763
 30
0.0
 40
1.0
 41
100.0
 71
1
 72
2
  1
Top View
  7
iso
 50
0.0
 73
0
 44
1.0
  0
DIMENSION
  5
10C
100
AcDbEntity
  8
dimensions
 62
256
370
-1
  6
ByLayer
100
AcDbDimension
 10
88.5
 20
-10.5719416980803018
 30
0.0
 11
77.6875
 21
-9.6344416980803018
 31
0.0
 70
0
 71
5
 72
0
 41
1.0
 42
0.0
  1

  3
Standard
100
AcDbAlignedDimension
 13
66.875
 23
-12.0000000000000036
 33
0.0
 14
88.5
 24
-12.0000000000000107
 34
0.0
 50
0.0
100
AcDbRotatedDimension
  0
DIMENSION
  5
10D
100
AcDbEntity
  8
dimensions
 62
256
370
-1
  6
ByLayer
100
AcDbDimension
 10
91.5
 20
-64.0215010128382289
 30
0.0
 11
77.6875
 21
-63.0840010128382289
 31
0.0
 70
0
 71
5
 72
0
 41
1.0
 42
0.0
  1

  3
Standard
100
AcDbAlignedDimension
 13
63.8749999999999929
 23
-60.75
 33
0.0
 14
91.5
 24
-60.7500000000000071
 34
0.0
 50
0.0
100
AcDbRotatedDimension
  0
DIMENSION
  5
10E
100
AcDbEntity
  8
dimensions
 62
256
370
-1
  6
ByLayer
100
AcDbDimension
 10
95.2382215633929405
 20
-60.0000000000000071
 30
0.0
 11
94.3007215633929405
 21
-36.0000000000000071
 31
0.0
 70
0
 71
5
 72
0
 41
1.0
 42
0.0
  1

  3
Standard
100
AcDbAlignedDimension
 13
91.5
 23
-12.0000000000000107
 33
0.0
 14
91.5
 24
-60.0000000000000071
 34
0.0
 50
90.0
100
AcDbRotatedDimension
  0
DIMENSION
  5
10F
100
AcDbEntity
  8
dimensions
 62
256
370
-1
  6
ByLayer
100
AcDbDimension
 10
54.985686114054964
 20
-62.0
 30
0.0
 11
54.048186114054964
 21
-59.0
 31
0.0
 70
0
 71
5
 72
0
 41
1.0
 42
0.0
  1

  3
Standard
100
AcDbAlignedDimension
 13
52.6249999999999929
 23
-56.0
 33
0.0
 14
52.6249999999999929
 24
-62.0
 34
0.0
 50
90.0
100
AcDbRotatedDimension
  0
DIMENSION
  5
110
100
AcDbEntity
  8
dimensions
 62
256
370
-1
  6
ByLayer
100
AcDbDimension
 10
3.0
 20
29.4765888158999054
 30
0.0
 11
2.25
 21
30.4140888158999054
 31
0.0
 70
0
 71
5
 72
0
 41
1.0
 42
0.0
  1

  3
Standard
100
AcDbAlignedDimension
 13
1.5
 23
28.375
 33
0.0
 14
3.0
 24
28.375
 34
0.0
 50
0.0
100
AcDbRotatedDimension
  0
DIMENSION
  5
111
100
AcDbEntity
  8
dimensions
 62
256
370
-1
  6
ByLayer
100
AcDbDimension
 10
12.4375
 20
-2.5282064481473605
 30
0.0
 11
7.71875
 21
-1.5907064481473605
 31
0.0
 70
0
 71
5
 72
0
 41
1.0
 42
0.0
  1

  3
Standard
100
AcDbAlignedDimension
 13
3.0
 23
0.0
 33
0.0
 14
12.4375
 24
0.0
 34
0.0
 50
0.0
100
AcDbRotatedDimension
  0
DIMENSION
  5
112
100
AcDbEntity
  8
dimensions
 62
256
370
-1
  6
ByLayer
100
AcDbDimension
 10
48.875
 20
-2.5282064481473605
 30
0.0
 11
44.15625
 21
-1.5907064481473605
 31
0.0
 70
0
 71
5
 72
0
 41
1.0
 42
0.0
  1

  3
Standard
100
AcDbAlignedDimension
 13
39.4375
 23
0.0
 33
0.0
 14
48.875
 24
0.0
 34
0.0
 50
0.0
100
AcDbRotatedDimension
  0
DIMENSION
  5
113
100
AcDbEntity
  8
dimensions
 62
256
370
-1
  6
ByLayer
100
AcDbDimension
 10
36.4374999999999929
 20
-63.3200796785997966
 30
0.0
 11
25.9374999999999964
 21
-62.3825796785997966
 31
0.0
 70
0
 71
5
 72
0
 41
1.0
 42
0.0
  1

  3
Standard
100
AcDbAlignedDimension
 13
15.4374999999999982
 23
-60.0
 33
0.0
 14
36.4374999999999929
 24
-60.0
 34
0.0
 50
0.0
100
AcDbRotatedDimension
  0
DIMENSION
  5
114
100
AcDbEntity
  8
dimensions
 62
256
370
-1
  6
ByLayer
100
AcDbDimension
 10
25.1875000000000036
 20
32.4644691637104188
 30
0.0
 11
14.09375
 21
33.4019691637104188
 31
0.0
 70
0
 71
5
 72
0
 41
1.0
 42
0.0
  1

  3
Standard
100
AcDbAlignedDimension
 13
3.0
 23
27.625
 33
0.0
 14
25.1875000000000036
 24
27.625
 34
0.0
 50
0.0
100
AcDbRotatedDimension
  0
DIMENSION
  5
115
100
AcDbEntity
  8
dimensions
 62
256
370
-1
  6
ByLayer
100
AcDbDimension
 10
48.875
 20
32.4644691637104188
 30
0.0
 11
37.78125
 21
33.4019691637104188
 31
0.0
 70
0
 71
5
 72
0
 41
1.0
 42
0.0
  1

  3
Standard
100
AcDbAlignedDimension
 13
26.6875000000000036
 23
27.625
 33
0.0
 14
48.875
 24
27.625
 34
0.0
 50
0.0
100
AcDbRotatedDimension
  0
DIMENSION
  5
116
100
AcDbEntity
  8
dimensions
 62
256
370
-1
  6
ByLayer
100
AcDbDimension
 10
51.875
 20
35.3948902740630444
 30
0.0
 11
25.9375
 21
36.3323902740630444
 31
0.0
 70
0
 71
5
 72
0
 41
1.0
 42
0.0
  1

  3
Standard
100
AcDbAlignedDimension
 13
0.0
 23
27.625
 33
0.0
 14
51.875
 24
27.625
 34
0.0
 50
0.0
100
AcDbRotatedDimension
  0
DIMENSION
  5
117
100
AcDbEntity
  8
dimensions
 62
256
370
-1
  6
ByLayer
100
AcDbDimension
 10
50.375
 20
8.8551979358143083
 30
0.0
 11
25.9375
 21
9.7926979358143083
 31
0.0
 70
0
 71
5
 72
0
 41
1.0
 42
0.0
  1

  3
Standard
100
AcDbAlignedDimension
 13
1.5000000000000002
 23
13.0625
 33
0.0
 14
50.375
 24
13.0625
 34
0.0
 50
0.0
100
AcDbRotatedDimension
  0
DIMENSION
  5
118
100
AcDbEntity
  8
dimensions
 62
256
370
-1
  6
ByLayer
100
AcDbDimension
 10
19.9375
 20
19.7229408570409639
 30
0.0
 11
10.71875
 21
20.6604408570409639
 31
0.0
 70
0
 71
5
 72
0
 41
1.0
 42
0.0
  1

  3
Standard
100
AcDbAlignedDimension
 13
1.5000000000000002
 23
14.5625
 33
0.0
 14
19.9375
 24
14.5625
 34
0.0
 50
0.0
100
AcDbRotatedDimension
  0
DIMENSION
  5
119
100
AcDbEntity
  8
dimensions
 62
256
370
-1
  6
ByLayer
100
AcDbDimension
 10
50.375
 20
19.7229408570409603
 30
0.0
 11
41.15625
 21
20.6604408570409603
 31
0.0
 70
0
 71
5
 72
0
 41
1.0
 42
0.0
  1

  3
Standard
100
AcDbAlignedDimension
 13
31.9375
 23
14.5625
 33
0.0
 14
50.375
 24
14.5625
 34
0.0
 50
0.0
100
AcDbRotatedDimension
  0
DIMENSION
  5
11A
100
AcDbEntity
  8
dimensions
 62
256
370
-1
  6
ByLayer
100
AcDbDimension
 10
31.9375
 20
19.7229408570409639
 30
0.0
 11
25.9375
 21
20.6604408570409639
 31
0.0
 70
0
 71
5
 72
0
 41
1.0
 42
0.0
  1

  3
Standard
100
AcDbAlignedDimension
 13
19.9375
 23
17.5625
 33
0.0
 14
31.9375
 24
17.5625
 34
0.0
 50
0.0
100
AcDbRotatedDimension
  0
DIMENSION
  5
11B
100
AcDbEntity
  8
dimensions
 62
256
370
-1
  6
ByLayer
100
AcDbDimension
 10
-1.9119177361417208
 20
16.0625000000000036
 30
0.0
 11
-2.8494177361417208
 21
15.3125
 31
0.0
 70
0
 71
5
 72
0
 41
1.0
 42
0.0
  1

  3
Standard
100
AcDbAlignedDimension
 13
19.9375
 23
14.5625
 33
0.0
 14
19.9375
 24
16.0625
 34
0.0
 50
90.0
100
AcDbRotatedDimension
  0
DIMENSION
  5
11C
100
AcDbEntity
  8
dimensions
 62
256
370
-1
  6
ByLayer
100
AcDbDimension
 10
52.6249999999999929
 20
-65.307084776630532
 30
0.0
 11
52.2499999999999929
 21
-64.369584776630532
 31
0.0
 70
0
 71
5
 72
0
 41
1.0
 42
0.0
  1

  3
Standard
100
AcDbAlignedDimension
 13
51.8749999999999929
 23
-62.0
 33
0.0
 14
52.6249999999999929
 24
-62.0
 34
0.0
 50
0.0
100
AcDbRotatedDimension
  0
DIMENSION
  5
11D
100
AcDbEntity
  8
dimensions
 62
256
370
-1
  6
ByLayer
100
AcDbDimension
 10
55.7474960959219032
 20
2.9999999999999991
 30
0.0
 11
54.8099960959219032
 21
8.03125
 31
0.0
 70
0
 71
5
 72
0
 41
1.0
 42
0.0
  1

  3
Standard
100
AcDbAlignedDimension
 13
50.375
 23
13.0625
 33
0.0
 14
50.375
 24
3.0
 34
0.0
 50
90.0
100
AcDbRotatedDimension
  0
DIMENSION
  5
11E
100
AcDbEntity
  8
dimensions
 62
256
370
-1
  6
ByLayer
100
AcDbDimension
 10
55.7474960959219032
 20
24.625
 30
0.0
 11
54.8099960959219032
 21
19.59375
 31
0.0
 70
0
 71
5
 72
0
 41
1.0
 42
0.0
  1

  3
Standard
100
AcDbAlignedDimension
 13
50.375
 23
14.5625
 33
0.0
 14
50.375
 24
24.625
 34
0.0
 50
90.0
100
AcDbRotatedDimension
  0
DIMENSION
  5
11F
100
AcDbEntity
  8
dimensions
 62
256
370
-1
  6
ByLayer
100
AcDbDimension
 10
39.4375
 20
3.3206992259303663
 30
0.0
 11
38.6875
 21
4.2581992259303663
 31
0.0
 70
0
 71
5
 72
0
 41
1.0
 42
0.0
  1

  3
Standard
100
AcDbAlignedDimension
 13
37.9375
 23
1.5
 33
0.0
 14
39.4375
 24
1.5
 34
0.0
 50
0.0
100
AcDbRotatedDimension
  0
DIMENSION
  5
120
100
AcDbEntity
  8
dimensions
 62
256
370
-1
  6
ByLayer
100
AcDbDimension
 10
18.2135321179817069
 20
1.4999999999999996
 30
0.0
 11
17.2760321179817069
 21
0.7500000000000001
 31
0.0
 70
0
 71
5
 72
0
 41
1.0
 42
0.0
  1

  3
Standard
100
AcDbAlignedDimension
 13
15.4375
 23
0.0
 33
0.0
 14
15.4375
 24
1.5
 34
0.0
 50
90.0
100
AcDbRotatedDimension
  0
DIMENSION
  5
121
100
AcDbEntity
  8
dimensions
 62
256
370
-1
  6
ByLayer
100
AcDbDimension
 10
37.9375
 20
-10.1633521763323351
 30
0.0
 11
25.9375
 21
-9.2258521763323351
 31
0.0
 70
0
 71
5
 72
0
 41
1.0
 42
0.0
  1

  3
Standard
100
AcDbAlignedDimension
 13
13.9375
 23
-12.0
 33
0.0
 14
37.9375
 24
-12.0
 34
0.0
 50
0.0
100
AcDbRotatedDimension
  0
LINE
  5
122
100
AcDbEntity
100
AcDbLine
  8
0
 62
256
370
-1
  6
ByLayer
 10
63.8749999999999929
 20
-56.0
 30
0.0
 11
63.1249999999999929
 21
-56.0
 31
0.0
  0
LINE
  5
123
100
AcDbEntity
100
AcDbLine
  8
0
 62
256
370
-1
  6
ByLayer
 10
63.1249999999999929
 20
-56.0
 30
0.0
 11
63.1249999999999929
 21
-62.0
 31
0.0
  0
LINE
  5
124
100
AcDbEntity
100
AcDbLine
  8
0
 62
256
370
-1
  6
ByLayer
 10
63.8749999999999929
 20
-62.0
 30
0.0
 11
63.1249999999999929
 21
-62.0
 31
0.0
  0
LINE
  5
125
100
AcDbEntity
100
AcDbLine
  8
0
 62
256
370
-1
  6
ByLayer
 10
63.8749999999999929
 20
-60.75
 30
0.0
 11
63.8749999999999929
 21
-62.0
 31
0.0
  0
LINE
  5
126
100
AcDbEntity
100
AcDbLine
  8
0
 62
256
370
-1
  6
ByLayer
 10
65.375
 20
-56.0
 30
0.0
 11
66.875
 21
-56.0
 31
0.0
  0
LINE
  5
127
100
AcDbEntity
100
AcDbLine
  8
0
 62
256
370
-1
  6
ByLayer
 10
65.375
 20
-60.0
 30
0.0
 11
65.375
 21
-62.0
 31
0.0
  0
LINE
  5
128
100
AcDbEntity
100
AcDbLine
  8
0
 62
256
370
-1
  6
ByLayer
 10
66.875
 20
-60.0
 30
0.0
 11
66.875
 21
-62.0
 31
0.0
  0
LINE
  5
129
100
AcDbEntity
100
AcDbLine
  8
0
 62
256
370
-1
  6
ByLayer
 10
65.375
 20
-62.0
 30
0.0
 11
66.875
 21
-62.0
 31
0.0
  0
LINE
  5
12A
100
AcDbEntity
100
AcDbLine
  8
0
 62
256
370
-1
  6
ByLayer
 10
63.8749999999999929
 20
-60.0
 30
0.0
 11
65.375
 21
-60.0
 31
0.0
  0
LINE
  5
12B
100
AcDbEntity
100
AcDbLine
  8
0
 62
256
370
-1
  6
ByLayer
 10
63.8749999999999929
 20
-60.75
 30
0.0
 11
65.375
 21
-60.75
 31
0.0
  0
LINE
  5
12C
100
AcDbEntity
100
AcDbLine
  8
hidden
 62
256
370
-1
  6
ByLayer
 10
65.375
 20
-60.0
 30
0.0
 11
66.875
 21
-60.0
 31
0.0
  0
LINE
  5
12D
100
AcDbEntity
100
AcDbLine
  8
hidden
 62
256
370
-1
  6
ByLayer
 10
65.375
 20
-60.75
 30
0.0
 11
66.875
 21
-60.75
 31
0.0
  0
LINE
  5
12E
100
AcDbEntity
100
AcDbLine
  8
construction
 62
256
370
-1
  6
ByLayer
 10
-0.0000000000000034
 20
-56.0
 30
0.0
 11
91.5
 21
-56.0
 31
0.0
  0
LINE
  5
12F
100
AcDbEntity
100
AcDbLine
  8
0
 62
256
370
-1
  6
ByLayer
 10
91.5
 20
-56.0
 30
0.0
 11
92.25
 21
-56.0
 31
0.0
  0
LINE
  5
130
100
AcDbEntity
100
AcDbLine
  8
0
 62
256
370
-1
  6
ByLayer
 10
92.25
 20
-56.0
 30
0.0
 11
92.25
 21
-62.0
 31
0.0
  0
LINE
  5
131
100
AcDbEntity
100
AcDbLine
  8
0
 62
256
370
-1
  6
ByLayer
 10
91.5
 20
-62.0
 30
0.0
 11
92.25
 21
-62.0
 31
0.0
  0
LINE
  5
132
100
AcDbEntity
100
AcDbLine
  8
0
 62
256
370
-1
  6
ByLayer
 10
91.5
 20
-60.7500000000000071
 30
0.0
 11
91.5
 21
-62.0
 31
0.0
  0
LINE
  5
133
100
AcDbEntity
100
AcDbLine
  8
0
 62
256
370
-1
  6
ByLayer
 10
88.5
 20
-56.0
 30
0.0
 11
90.0
 21
-56.0
 31
0.0
  0
LINE
  5
134
100
AcDbEntity
100
AcDbLine
  8
0
 62
256
370
-1
  6
ByLayer
 10
90.0
 20
-60.0000000000000071
 30
0.0
 11
90.0
 21
-62.0000000000000071
 31
0.0
  0
LINE
  5
135
100
AcDbEntity
100
AcDbLine
  8
0
 62
256
370
-1
  6
ByLayer
 10
88.5
 20
-60.0000000000000071
 30
0.0
 11
88.5
 21
-62.0000000000000071
 31
0.0
  0
LINE
  5
136
100
AcDbEntity
100
AcDbLine
  8
0
 62
256
370
-1
  6
ByLayer
 10
88.5
 20
-62.0000000000000071
 30
0.0
 11
90.0
 21
-62.0000000000000071
 31
0.0
  0
LINE
  5
137
100
AcDbEntity
100
AcDbLine
  8
0
 62
256
370
-1
  6
ByLayer
 10
66.875
 20
-60.0
 30
0.0
 11
88.5
 21
-60.0000000000000071
 31
0.0
  0
LINE
  5
138
100
AcDbEntity
100
AcDbLine
  8
0
 62
256
370
-1
  6
ByLayer
 10
90.0
 20
-60.0000000000000071
 30
0.0
 11
91.5
 21
-60.0000000000000071
 31
0.0
  0
LINE
  5
139
100
AcDbEntity
100
AcDbLine
  8
0
 62
256
370
-1
  6
ByLayer
 10
66.875
 20
-60.75
 30
0.0
 11
88.5
 21
-60.7500000000000071
 31
0.0
  0
LINE
  5
13A
100
AcDbEntity
100
AcDbLine
  8
0
 62
256
370
-1
  6
ByLayer
 10
90.0
 20
-60.7500000000000071
 30
0.0
 11
91.5
 21
-60.7500000000000071
 31
0.0
  0
LINE
  5
13B
100
AcDbEntity
100
AcDbLine
  8
hidden
 62
256
370
-1
  6
ByLayer
 10
88.5
 20
-60.0000000000000071
 30
0.0
 11
90.0
 21
-60.0000000000000071
 31
0.0
  0
LINE
  5
13C
100
AcDbEntity
100
AcDbLine
  8
hidden
 62
256
370
-1
  6
ByLayer
 10
88.5
 20
-60.7500000000000071
 30
0.0
 11
90.0
 21
-60.7500000000000071
 31
0.0
  0
DIMENSION
  5
13D
100
AcDbEntity
  8
dimensions
 62
256
370
-1
  6
ByLayer
100
AcDbDimension
 10
61.4785689671716966
 20
-56.0
 30
0.0
 11
60.5410689671716966
 21
-58.0
 31
0.0
 70
0
 71
5
 72
0
 41
1.0
 42
0.0
  1

  3
Standard
100
AcDbAlignedDimension
 13
63.8749999999999929
 23
-60.0
 33
0.0
 14
63.8749999999999929
 24
-56.0
 34
0.0
 50
90.0
100
AcDbRotatedDimension
  0
DIMENSION
  5
13E
100
AcDbEntity
  8
dimensions
 62
256
370
-1
  6
ByLayer
100
AcDbDimension
 10
95.2401811817575918
 20
-62.0
 30
0.0
 11
94.3026811817575918
 21
-61.0
 31
0.0
 70
0
 71
5
 72
0
 41
1.0
 42
0.0
  1

  3
Standard
100
AcDbAlignedDimension
 13
92.25
 23
-60.0000000000000071
 33
0.0
 14
92.25
 24
-62.0
 34
0.0
 50
90.0
100
AcDbRotatedDimension
  0
DIMENSION
  5
13F
100
AcDbEntity
  8
dimensions
 62
256
370
-1
  6
ByLayer
100
AcDbDimension
 10
42.7267980740215734
 20
-60.0
 30
0.0
 11
41.7892980740215734
 21
-36.75
 31
0.0
 70
0
 71
5
 72
1
 41
1.0
 42
0.0
  1

  3
Standard
100
AcDbAlignedDimension
 13
37.9375
 23
-13.5
 33
0.0
 14
37.9375
 24
-60.0
 34
0.0
 50
90.0
100
AcDbRotatedDimension
  0
ENDSEC
  0
SECTION
  2
OBJECTS
  0
DICTIONARY
  5
C
100
AcDbDictionary
280
0
281
1
  3
ACAD_GROUP
350
D
  3
ACAD_LAYOUT
350
1A
  3
ACAD_MLINESTYLE
350
17
  3
ACAD_PLOTSETTINGS
350
19
  3
ACAD_PLOTSTYLENAME
350
E
  3
AcDbVariableDictionary
350
140
  0
DICTIONARY
  5
D
100
AcDbDictionary
280
0
281
1
  0
ACDBDICTIONARYWDFLT
  5
E
100
AcDbDictionary
281
1
  3
Normal
350
F
100
AcDbDictionaryWithDefault
340
F
  0
ACDBPLACEHOLDER
  5
F
  0
DICTIONARY
  5
17
100
AcDbDictionary
280
0
281
1
  3
Standard
350
18
  0
MLINESTYLE
  5
18
100
AcDbMlineStyle
  2
STANDARD
 70
0
  3

 62
256
 51
90.0
 52
90.0
 71
2
 49
0.5
 62
256
  6
BYLAYER
 49
-0.5
 62
256
  6
BYLAYER
  0
DICTIONARY
  5
19
100
AcDbDictionary
280
0
281
1
  0
DICTIONARY
  5
1A
100
AcDbDictionary
281
1
  3
Layout1
350
1E
  3
Layout2
350
26
  3
Model
350
22
  0
LAYOUT
  5
1E
100
AcDbPlotSettings
  1

  2
C:\Program Files\AutoCAD 2002\plotters\DWF ePlot (optimized for plotting).pc3
  4

  6

 40
0.0
 41
0.0
 42
0.0
 43
0.0
 44
0.0
 45
0.0
 46
0.0
 47
0.0
 48
0.0
 49
0.0
140
0.0
141
0.0
142
1.0
143
1.0
 70
688
 72
0
 73
0
 74
5
  7

 75
16
147
1.0
148
0.0
149
0.0
100
AcDbLayout
  1
Layout1
 70
1
 71
1
 10
0.0
 20
0.0
 11
420.0
 21
297.0
 12
0.0
 22
0.0
 32
0.0
 14
100000000000000000000.0
 24
100000000000000000000.0
 34
100000000000000000000.0
 15
-100000000000000000000.0
 25
-100000000000000000000.0
 35
-100000000000000000000.0
146
0.0
 13
0.0
 23
0.0
 33
0.0
 16
1.0
 26
0.0
 36
0.0
 17
0.0
 27
1.0
 37
0.0
 76
0
330
1B
  0
LAYOUT
  5
22
100
AcDbPlotSettings
  1

  2
C:\Program Files\AutoCAD 2002\plotters\DWF ePlot (optimized for plotting).pc3
  4

  6

 40
0.0
 41
0.0
 42
0.0
 43
0.0
 44
0.0
 45
0.0
 46
0.0
 47
0.0
 48
0.0
 49
0.0
140
0.0
141
0.0
142
1.0
143
1.0
 70
1712
 72
0
 73
0
 74
0
  7

 75
0
147
1.0
148
0.0
149
0.0
100
AcDbLayout
  1
Model
 70
1
 71
0
 10
0.0
 20
0.0
 11
12.0
 21
9.0
 12
0.0
 22
0.0
 32
0.0
 14
0.0
 24
0.0
 34
0.0
 15
0.0
 25
0.0
 35
0.0
146
0.0
 13
0.0
 23
0.0
 33
0.0
 16
1.0
 26
0.0
 36
0.0
 17
0.0
 27
1.0
 37
0.0
 76
0
330
1F
  0
LAYOUT
  5
26
100
AcDbPlotSettings
  1

  2
C:\Program Files\AutoCAD 2002\plotters\DWF ePlot (optimized for plotting).pc3
  4

  6

 40
0.0
 41
0.0
 42
0.0
 43
0.0
 44
0.0
 45
0.0
 46
0.0
 47
0.0
 48
0.0
 49
0.0
140
0.0
141
0.0
142
1.0
143
1.0
 70
688
 72
0
 73
0
 74
5
  7

 75
16
147
1.0
148
0.0
149
0.0
100
AcDbLayout
  1
Layout2
 70
1
 71
2
 10
0.0
 20
0.0
 11
12.0
 21
9.0
 12
0.0
 22
0.0
 32
0.0
 14
0.0
 24
0.0
 34
0.0
 15
0.0
 25
0.0
 35
0.0
146
0.0
 13
0.0
 23
0.0
 33
0.0
 16
1.0
 26
0.0
 36
0.0
 17
0.0
 27
1.0
 37
0.0
 76
0
330
23
  0
DICTIONARY
  5
140
100
AcDbDictionary
281
1
  3
DIMASSOC
350
142
  3
HIDETEXT
350
141
  0
DICTIONARYVAR
  5
141
100
DictionaryVariables
280
0
  1
2
  0
DICTIONARYVAR
  5
142
100
DictionaryVariables
280
0
  1
1
  0
ENDSEC
  0
EOF
